<svg width="194" height="53" viewBox="0 0 194 53" fill="none" xmlns="http://www.w3.org/2000/svg">
<path fill-rule="evenodd" clip-rule="evenodd" d="M31.9404 15.4596C31.0904 15.5998 1 19.5229 1 19.5229V17.5543C1 17.5543 28.9133 14.5709 29.2449 14.5357L29.2789 14.5321C30.0983 14.4451 30.9447 14.3552 31.7663 14.2389C33.0298 14.0615 34.1539 13.8455 35.2038 13.579C37.5461 12.9902 39.7071 12.0601 41.6268 10.8141C43.4874 9.61657 45.3125 8.0202 47.0524 6.06864C48.365 4.59825 49.6415 2.93304 50.9375 1V1.79238C49.8451 3.43459 48.6742 5.1361 47.5591 6.44107C45.8058 8.49181 44.0369 10.3614 42.1355 11.6467C40.1523 12.9974 37.912 14.0227 35.478 14.6944C34.3993 14.9953 33.2423 15.2457 31.9404 15.4596ZM192.453 51.1159V21.8473H189.955V51.1159H192.453ZM109.543 26.1173C109.339 26.1173 109.251 26.2195 109.251 26.4085V35.5248C109.251 35.6995 109.339 35.7867 109.543 35.7867H114.974C115.178 35.7867 115.251 35.7138 115.251 35.5248V34.6362C115.251 34.4472 115.164 34.3596 114.989 34.3596H110.912V31.491H114.436C114.654 31.491 114.727 31.4034 114.727 31.2287V30.3258C114.727 30.151 114.625 30.0638 114.436 30.0638H110.912V27.5591H114.887C115.105 27.5591 115.178 27.4719 115.178 27.2971V26.3939C115.178 26.2195 115.077 26.1173 114.902 26.1173H109.543ZM121.558 35.7868H122.592C122.796 35.7868 122.868 35.6996 122.868 35.5102V28.9425C122.868 28.7532 122.796 28.6514 122.592 28.6514H121.558C121.34 28.6514 121.281 28.7678 121.281 28.9425V33.8065C120.902 33.9959 119.941 34.4618 119.315 34.4618C118.427 34.4618 118.252 33.9083 118.252 33.0347V28.9425C118.252 28.7532 118.179 28.6514 117.99 28.6514H116.927C116.723 28.6514 116.65 28.7678 116.65 28.9425V33.2237C116.65 34.753 116.84 35.9178 118.806 35.9178C119.694 35.9178 120.684 35.4372 121.252 35.0442L121.281 35.0588V35.5102C121.281 35.685 121.34 35.7868 121.558 35.7868ZM126.291 35.5102C126.291 35.685 126.219 35.7868 126.015 35.7868H124.966C124.763 35.7868 124.69 35.6996 124.69 35.5102V28.9425C124.69 28.7531 124.763 28.6514 124.966 28.6514H126C126.219 28.6514 126.291 28.7677 126.291 28.9425V29.5833L126.321 29.6125C126.758 29.2045 127.792 28.7097 128.476 28.5783C128.665 28.5349 128.796 28.5783 128.825 28.8261L128.927 29.8019L128.928 29.8165C128.943 30.0098 128.949 30.0945 128.651 30.1511C127.835 30.3113 126.801 30.6025 126.291 30.8211V35.5102ZM129.584 32.1026C129.584 33.7626 129.773 35.9032 132.7 35.9032C135.714 35.9032 135.918 33.7626 135.918 32.1026C135.918 30.3842 135.525 28.5057 132.7 28.5057C129.889 28.5057 129.584 30.7338 129.584 32.1026ZM131.2 32.2044C131.2 30.69 131.476 29.9036 132.714 29.9036C134.04 29.9036 134.287 30.6608 134.287 32.2044C134.287 33.7626 134.025 34.5052 132.7 34.5052C131.476 34.5052 131.2 33.748 131.2 32.2044ZM140.739 35.9177C140.258 35.9177 139.588 35.8305 138.919 35.5974L138.904 35.612V38.1751C138.904 38.3353 138.86 38.4663 138.628 38.4663H137.593C137.361 38.4663 137.317 38.3641 137.317 38.1751V28.9425C137.317 28.7531 137.39 28.6513 137.593 28.6513H138.628C138.831 28.6513 138.89 28.7677 138.89 28.9425V29.3793L138.933 29.4084C139.457 29.0443 140.389 28.5349 141.234 28.5349C143.142 28.5349 143.637 29.9763 143.637 32.1752C143.637 34.549 143.04 35.9177 140.739 35.9177ZM140.855 29.9909C140.258 29.9909 139.341 30.4134 138.904 30.6462V34.287C139.56 34.476 140.084 34.5344 140.579 34.5344C141.627 34.5344 141.991 33.9958 141.991 32.1606C141.991 30.3113 141.627 29.9909 140.855 29.9909ZM148.196 34.5344C147.002 34.5344 146.478 34.1268 146.434 32.6558H150.293C150.876 32.6558 151.021 32.2916 151.007 31.7676C150.963 30.1948 150.497 28.5057 147.89 28.5057C145.05 28.5057 144.788 30.8356 144.788 32.2482C144.788 34.1414 145.196 35.9177 147.977 35.9177C148.691 35.9177 149.754 35.7722 150.322 35.5539C150.584 35.4371 150.613 35.3207 150.57 35.1022L150.482 34.622C150.438 34.345 150.351 34.345 150.089 34.3742C149.993 34.3843 149.89 34.3957 149.781 34.4076L149.78 34.4078C149.261 34.4648 148.629 34.5344 148.196 34.5344ZM149.332 31.5636H146.448C146.521 30.4714 146.813 29.8161 147.89 29.8161C149.099 29.8161 149.332 30.6754 149.332 31.5636ZM156.832 34.9566C156.104 35.5102 155.129 35.9032 154.153 35.9032C152.609 35.9032 152.158 35.0587 152.158 33.8356C152.143 32.1318 153.061 31.4034 154.895 31.4034H156.759V31.025C156.759 30.151 156.439 29.8453 155.245 29.8453C154.764 29.8453 153.847 29.9182 153.265 29.9763C152.973 30.02 152.9 30.0055 152.857 29.8018L152.726 29.2629C152.697 29.0735 152.74 28.9571 153.061 28.8261C153.687 28.6075 154.837 28.5057 155.522 28.5057C158.041 28.5057 158.347 29.5394 158.347 31.1706V33.9812C158.347 34.5782 158.42 34.5928 158.871 34.6508C159.089 34.6654 159.148 34.7092 159.148 34.8694V35.481C159.148 35.6412 159.046 35.743 158.798 35.7867C158.565 35.8305 158.332 35.8597 158.114 35.8597C157.429 35.8597 157.007 35.6557 156.862 34.9712L156.832 34.9566ZM156.745 32.5394H154.968C154.24 32.5394 153.774 32.8014 153.774 33.7626C153.774 34.4034 153.993 34.6074 154.677 34.6074C155.303 34.6074 156.192 34.2432 156.745 33.9228V32.5394ZM165.032 35.7868H166.08C166.299 35.7868 166.357 35.685 166.357 35.5102V31.2871C166.357 29.8161 166.182 28.5203 164.216 28.5203C163.328 28.5203 162.309 29.0155 161.77 29.3939C161.763 29.3939 161.755 29.3903 161.748 29.3866C161.741 29.383 161.734 29.3793 161.726 29.3793V28.9425C161.726 28.7531 161.654 28.6513 161.45 28.6513H160.416C160.212 28.6513 160.139 28.7531 160.139 28.9425V35.5102C160.139 35.6996 160.212 35.7868 160.416 35.7868H161.45C161.654 35.7868 161.726 35.685 161.726 35.5102V30.6463C162.12 30.4569 163.139 29.9909 163.721 29.9909C164.566 29.9909 164.77 30.5591 164.77 31.4181L164.755 35.5102C164.755 35.6996 164.843 35.7868 165.032 35.7868ZM113.16 41.3464C113.874 41.3464 115.053 41.4482 115.825 41.7686C116.058 41.8708 116.145 41.9872 116.102 42.22L115.971 42.817C115.927 42.9918 115.854 43.0648 115.592 43.0356C114.878 42.9484 114.005 42.8462 113.247 42.8462C111.267 42.8462 110.975 44.4482 110.975 46.3413C110.975 48.2487 111.34 49.7489 113.247 49.7489C114.092 49.7489 114.806 49.6613 115.592 49.5595C115.868 49.5303 115.927 49.6033 115.985 49.7927L116.102 50.3459C116.16 50.5787 116.087 50.7101 115.854 50.8119C115.14 51.1177 113.874 51.2487 113.16 51.2487C109.912 51.2487 109.228 48.8461 109.228 46.3705C109.228 43.8804 109.84 41.3464 113.16 41.3464ZM117.151 47.4336C117.151 49.0936 117.341 51.2342 120.268 51.2342C123.282 51.2342 123.486 49.0936 123.486 47.4336C123.486 45.7152 123.093 43.8367 120.268 43.8367C117.457 43.8367 117.151 46.0648 117.151 47.4336ZM118.767 47.5354C118.767 46.021 119.044 45.2346 120.282 45.2346C121.607 45.2346 121.855 45.9918 121.855 47.5354C121.855 49.0936 121.593 49.8362 120.268 49.8362C119.044 49.8362 118.767 49.079 118.767 47.5354ZM135.078 51.1178H134.03C133.826 51.1178 133.753 51.0306 133.753 50.8412V46.7052C133.753 45.6277 133.491 45.3219 132.763 45.3219C132.224 45.3219 131.35 45.7445 130.899 45.9773C130.899 46.035 130.901 46.111 130.904 46.2026L130.904 46.2032V46.2035V46.2038C130.908 46.3431 130.914 46.5183 130.914 46.7199V50.8412C130.914 51.016 130.855 51.1178 130.637 51.1178H129.574C129.385 51.1178 129.326 51.0306 129.326 50.8412V46.6327C129.326 45.7445 129.093 45.3219 128.365 45.3219C127.856 45.3219 127.04 45.6861 126.487 45.9773V50.8412C126.487 51.016 126.414 51.1178 126.21 51.1178H125.162C124.972 51.1178 124.899 51.0306 124.899 50.8412V44.2735C124.899 44.0841 124.972 43.9823 125.162 43.9823H126.196C126.414 43.9823 126.487 44.0987 126.487 44.2735V44.6957L126.501 44.7103C127.069 44.3173 127.87 43.8805 128.671 43.8513C129.516 43.8513 130.215 44.0261 130.666 44.8705C131.394 44.3319 132.297 43.8513 133.229 43.8513C135.151 43.8513 135.341 45.1037 135.341 46.5597V50.8412C135.341 51.016 135.282 51.1178 135.078 51.1178ZM146.031 51.1178H147.079C147.283 51.1178 147.341 51.016 147.341 50.8412V46.5597C147.341 45.1037 147.152 43.8513 145.23 43.8513C144.298 43.8513 143.395 44.3319 142.667 44.8705C142.216 44.0261 141.516 43.8513 140.672 43.8513C139.871 43.8805 139.07 44.3173 138.502 44.7103L138.488 44.6957V44.2735C138.488 44.0987 138.415 43.9823 138.196 43.9823H137.162C136.973 43.9823 136.9 44.0841 136.9 44.2735V50.8412C136.9 51.0306 136.973 51.1178 137.162 51.1178H138.211C138.415 51.1178 138.488 51.016 138.488 50.8412V45.9773C139.041 45.6861 139.856 45.3219 140.366 45.3219C141.094 45.3219 141.327 45.7445 141.327 46.6327V50.8412C141.327 51.0306 141.385 51.1178 141.575 51.1178H142.638C142.856 51.1178 142.914 51.016 142.914 50.8412V46.7199C142.914 46.518 142.909 46.3426 142.905 46.2032L142.905 46.2022C142.902 46.1108 142.9 46.0349 142.9 45.9773C143.352 45.7445 144.225 45.3219 144.764 45.3219C145.492 45.3219 145.754 45.6277 145.754 46.7052V50.8412C145.754 51.0306 145.827 51.1178 146.031 51.1178ZM149.935 42.9339C149.178 42.9339 149.076 42.5114 149.076 42.0891C149.076 41.6232 149.236 41.259 149.935 41.259C150.649 41.259 150.794 41.594 150.794 42.0891C150.794 42.5405 150.663 42.9339 149.935 42.9339ZM150.707 50.8412C150.707 51.0014 150.649 51.1178 150.445 51.1178H149.411C149.207 51.1178 149.12 51.0306 149.12 50.8412V44.2589C149.12 44.0549 149.207 43.9823 149.411 43.9823H150.445C150.649 43.9823 150.707 44.0987 150.707 44.2589V50.8412ZM152.644 50.9137C153.198 51.1323 154.173 51.2342 154.901 51.2342C156.401 51.2342 157.843 50.6809 157.843 48.9772C157.843 47.2442 156.591 46.9676 155.207 46.7636C154.319 46.618 153.969 46.545 153.969 45.9772C153.969 45.424 154.188 45.1616 155.12 45.1616C155.659 45.1616 156.474 45.2492 157.1 45.3219C157.362 45.351 157.45 45.3219 157.493 45.1182L157.61 44.5939C157.654 44.3753 157.551 44.2588 157.304 44.1571C156.692 43.9239 155.687 43.8367 155.09 43.8367C153.46 43.8367 152.353 44.5939 152.353 46.0356C152.353 47.6226 153.605 47.9288 155.032 48.1324C155.95 48.2634 156.197 48.409 156.197 49.079C156.197 49.6614 155.819 49.9091 154.887 49.9091C154.392 49.9091 153.46 49.8362 152.819 49.7344C152.586 49.7052 152.484 49.7198 152.44 49.953L152.338 50.4332C152.295 50.6663 152.353 50.7973 152.644 50.9137ZM161.587 51.2342C160.858 51.2342 159.883 51.1323 159.329 50.9137C159.038 50.7973 158.98 50.6663 159.023 50.4332L159.125 49.953C159.169 49.7198 159.271 49.7052 159.504 49.7344C160.145 49.8362 161.077 49.9091 161.572 49.9091C162.504 49.9091 162.882 49.6614 162.882 49.079C162.882 48.409 162.635 48.2634 161.718 48.1324C160.29 47.9288 159.038 47.6226 159.038 46.0356C159.038 44.5939 160.145 43.8367 161.776 43.8367C162.373 43.8367 163.378 43.9239 163.989 44.1571C164.237 44.2588 164.339 44.3753 164.295 44.5939L164.179 45.1182C164.135 45.3219 164.048 45.351 163.785 45.3219C163.159 45.2492 162.344 45.1616 161.805 45.1616C160.873 45.1616 160.655 45.424 160.655 45.9772C160.655 46.545 161.004 46.618 161.892 46.7636C163.276 46.9676 164.528 47.2442 164.528 48.9772C164.528 50.6809 163.086 51.2342 161.587 51.2342ZM166.044 42.0891C166.044 42.5114 166.145 42.9339 166.903 42.9339C167.631 42.9339 167.762 42.5405 167.762 42.0891C167.762 41.594 167.616 41.259 166.903 41.259C166.204 41.259 166.044 41.6232 166.044 42.0891ZM167.412 51.1178C167.616 51.1178 167.674 51.0014 167.674 50.8412V44.2589C167.674 44.0987 167.616 43.9823 167.412 43.9823H166.379C166.175 43.9823 166.087 44.0549 166.087 44.2589V50.8412C166.087 51.0306 166.175 51.1178 166.379 51.1178H167.412ZM172.452 51.2342C169.525 51.2342 169.335 49.0936 169.335 47.4336C169.335 46.0648 169.641 43.8367 172.452 43.8367C175.277 43.8367 175.67 45.7152 175.67 47.4336C175.67 49.0936 175.466 51.2342 172.452 51.2342ZM172.466 45.2346C171.228 45.2346 170.951 46.021 170.951 47.5354C170.951 49.079 171.228 49.8362 172.452 49.8362C173.777 49.8362 174.039 49.0936 174.039 47.5354C174.039 45.9918 173.791 45.2346 172.466 45.2346ZM181.933 51.1178H182.981C183.2 51.1178 183.258 51.016 183.258 50.8412V46.6181C183.258 45.1471 183.083 43.8513 181.117 43.8513C180.229 43.8513 179.209 44.3465 178.671 44.7249C178.669 44.7249 178.667 44.7247 178.665 44.7243C178.663 44.7239 178.662 44.7234 178.66 44.7227C178.656 44.7214 178.653 44.7195 178.649 44.7176C178.645 44.7155 178.64 44.7133 178.636 44.7119C178.633 44.7109 178.63 44.7103 178.627 44.7103V44.2735C178.627 44.0841 178.554 43.9823 178.35 43.9823H177.317C177.113 43.9823 177.04 44.0841 177.04 44.2735V50.8412C177.04 51.0306 177.113 51.1178 177.317 51.1178H178.35C178.554 51.1178 178.627 51.016 178.627 50.8412V45.9773C179.02 45.7879 180.04 45.3219 180.622 45.3219C181.467 45.3219 181.671 45.8901 181.671 46.7491L181.656 50.8412C181.656 51.0306 181.743 51.1178 181.933 51.1178ZM41.3527 14.4389C39.4692 15.5306 37.2937 16.3291 34.8873 16.8131C33.8594 17.0221 32.7393 17.192 31.4616 17.3324C30.7116 17.4144 29.9555 17.4804 29.1987 17.5461L29.1136 17.5535L29.1133 17.5536C28.7333 17.5868 28.3535 17.62 27.9748 17.6552C18.7535 18.4884 9.5797 19.3745 1 20.2139V22.1807C9.64723 21.1297 18.8849 20.017 28.103 18.9658C28.5128 18.9173 28.923 18.8716 29.3334 18.8266L29.3783 18.8216C30.1185 18.7392 30.8597 18.6567 31.6031 18.558C32.9148 18.3821 34.0626 18.18 35.1114 17.9402C37.6116 17.3769 39.8703 16.4876 41.8217 15.297C43.7614 14.1239 45.4757 12.4814 47.3187 10.4728C48.4661 9.22264 49.743 7.4584 50.9375 5.80047V5.07922C49.5304 7.00288 48.1949 8.61891 46.8731 9.99739C45.0737 11.8756 43.2166 13.3694 41.3527 14.4389ZM40.9205 17.9243C42.8659 16.9884 44.7827 15.6539 46.6187 13.957C48.0343 12.6504 49.4523 11.1001 50.9375 9.24005V9.89392L50.6835 10.2171C49.4923 11.733 48.3658 13.1666 47.1985 14.2935C45.3366 16.0929 43.3336 17.7924 41.3293 18.8138C39.3686 19.8252 37.1677 20.5545 34.6021 21.0422C33.5696 21.2402 32.4352 21.4101 31.1351 21.5613L28.4267 21.8483H38.7618C39.4458 21.671 40.1091 21.4607 40.757 21.2012C43.0787 20.2715 44.544 19.1804 46.441 17.6451C47.904 16.4634 49.2789 15.0831 50.9375 13.3553V14.0575C49.5663 15.5807 48.3064 16.9757 46.9962 18.0839C45.2496 19.5648 43.3825 20.9286 41.5224 21.8483H45.3042C45.7841 21.6256 46.2346 21.3849 46.6322 21.1209C48.3968 19.9492 49.3253 19.0591 50.9375 17.4742V18.1676C50.9349 18.1993 48.7157 20.5038 46.9665 21.8483H65.5073V51.1158H50.9375V51.1159H1V49.1643L21.7564 49.6945V48.2779C14.7374 48.3488 7.703 48.3991 1 48.4442V46.4911C8.0002 46.6228 14.8857 46.7503 21.7564 46.8568V45.308C18.7599 45.3717 15.8046 45.4431 12.9895 45.5127L1 45.8293V43.877L12.961 43.8658C15.7923 43.8684 18.7515 43.8727 21.7564 43.8857V42.4718C14.687 42.6915 7.67443 42.9284 1 43.1569V41.2039C7.98552 41.143 14.8615 41.0853 21.7564 41.0464V39.6476L1 40.5489V38.5966L21.7564 38.2197V36.7872L1 37.8787V35.9241L21.7564 35.3577V33.9395C14.8609 34.3867 7.98398 34.8564 1 35.3364V33.3799C8.02792 33.0726 14.9347 32.7735 21.7564 32.5013V31.076C14.8911 31.5826 8.00155 32.1169 1 32.6631V30.7054C8.30967 30.3157 15.0772 29.9586 21.7564 29.6316V28.1711C18.9305 28.4168 16.1751 28.6646 13.6684 28.8912L1 30.0625V28.1001L13.5433 27.249C16.3013 27.0678 19.0263 26.8899 21.7564 26.7196V25.3483L1 27.3765V25.417L21.7564 23.8927V22.5608L1 24.7802V22.8174L31.0172 20.3336C32.2797 20.218 33.3911 20.0784 34.4133 19.9079C36.8906 19.4973 39.0188 18.8486 40.9205 17.9243ZM38.8042 26.1245L39.1837 27.3237H40.7058L39.4789 28.2447L39.9557 29.704L38.7335 28.8037L37.5112 29.704L37.9931 28.2447L36.7563 27.3237H38.2738L38.6467 26.1696C38.6994 26.1547 38.7519 26.1396 38.8042 26.1245ZM72.1896 1C72.1896 1 81.177 15.3142 82.8202 17.9387C84.4634 20.5627 86.3415 22.6387 92.991 24.049C99.6405 25.459 102.535 26.125 102.535 26.125V26.6343C102.535 26.6343 98.3102 25.7332 92.8734 24.5189L92.4073 24.415C87.3072 23.2784 85.1421 22.7959 82.7356 19.4479C80.6733 16.5776 72.1896 4.38116 72.1896 4.38116V1ZM82.7356 28.3809C80.3708 25.9198 72.1896 17.3468 72.1896 17.3468V19.8684C72.1896 19.8684 80.4057 27.5728 82.709 29.695C85.1483 31.9424 88.1013 32.4444 92.2299 33.1463C92.4549 33.1846 92.6833 33.2234 92.9154 33.2632C97.4958 34.0471 102.533 34.8724 102.533 34.8724V34.3896C102.533 34.3896 97.1686 33.5126 92.9154 32.7534C88.4598 31.9574 85.2452 30.9918 82.7356 28.3809ZM72.1896 21.2095C72.1896 21.2095 79.97 28.4343 82.7356 30.9023C85.2812 33.1737 87.3439 33.88 92.9423 34.8724C98.5415 35.865 102.533 36.4819 102.533 36.4819V36.9917C102.533 36.9917 97.4696 36.16 92.9154 35.4354C92.5293 35.374 92.155 35.3158 91.7917 35.2593L91.7913 35.2592C87.8707 34.6491 85.2286 34.238 82.7356 32.2169C79.5916 29.6668 72.1896 23.5702 72.1896 23.5702V21.2095ZM82.7382 33.6117C81.0775 32.3777 72.1896 25.3272 72.1896 25.3272V27.5011C72.1896 27.5011 79.4179 32.5901 82.7648 34.8185C85.9395 36.9326 88.6871 37.2697 92.1046 37.689C92.3887 37.7238 92.6775 37.7593 92.9715 37.7963C96.8026 38.2792 102.535 39.1108 102.535 39.1108V38.5741C102.535 38.5741 99.2939 38.1197 92.9715 37.2064C86.596 36.2849 84.399 34.8454 82.7382 33.6117ZM72.1896 29.2857C72.1896 29.2857 81.1037 35.2212 82.7917 36.16C82.9798 36.2645 83.1716 36.3765 83.3728 36.494C84.9777 37.4308 87.1874 38.7207 92.9715 39.4597C99.4817 40.2914 102.535 40.6664 102.535 40.6664V41.1762C102.535 41.1762 97.1507 40.5863 92.9446 40.1304C88.739 39.6738 85.8729 39.057 82.7382 37.3405C79.6036 35.6239 72.1896 31.2919 72.1896 31.2919V29.2857ZM82.7356 38.869C80.0691 37.5305 72.1896 33.2442 72.1896 33.2442V35.1231C72.1896 35.1231 79.5646 38.5621 82.7356 39.9694C86.2816 41.543 88.0309 41.7571 92.9423 42.2227C97.897 42.692 102.533 43.1884 102.533 43.1884V42.7055C102.533 42.7055 97.519 42.177 92.9423 41.632C88.2817 41.0774 85.7097 40.3624 82.7356 38.869ZM72.1896 37.2566C72.1896 37.2566 78.4163 39.923 82.7917 41.659C86.5339 43.1435 89.5064 43.446 91.9383 43.6935C92.3036 43.7307 92.6568 43.7666 92.9985 43.8052C94.1506 43.9347 102.535 44.7978 102.535 44.7978V45.2799C102.535 45.2799 97.5257 44.8779 92.9715 44.4759L92.9311 44.4723C88.4055 44.0729 86.4421 43.8996 82.7648 42.6786C79.0331 41.4397 72.1896 39.0532 72.1896 39.0532V37.2566ZM82.7626 44.422C78.4762 43.2954 72.1896 41.3469 72.1896 41.3469V43.0356C72.1896 43.0356 79.9546 44.8809 82.7356 45.4947C85.2452 46.0494 88.6739 46.3714 92.9423 46.6753C98.2219 47.0518 102.535 47.346 102.535 47.346V46.8893C102.535 46.8893 94.9515 46.2733 92.9693 46.1385C90.987 46.0053 87.049 45.5487 82.7626 44.422ZM72.1896 45.3712C72.1896 45.3712 77.3309 46.2575 82.7626 47.1581C86.8345 47.8333 92.3532 48.2585 92.9423 48.2854C93.5322 48.3117 102.533 48.9292 102.533 48.9292V49.4113C102.533 49.4113 96.7719 49.1134 92.9423 48.9023C88.9531 48.6814 84.9881 48.4396 82.7356 48.2046C77.6909 47.6783 72.1896 46.9822 72.1896 46.9822V45.3712ZM82.7626 49.8949C80.2982 49.841 72.1896 49.5363 72.1896 49.5363V51.1158H102.533V50.6457C102.533 50.6457 85.2273 49.948 82.7626 49.8949ZM92.9423 26.2617C85.9455 24.753 84.1093 22.245 82.8853 20.5731C82.8252 20.4911 82.7667 20.4111 82.709 20.3333C81.4765 18.6698 72.1896 5.0965 72.1896 5.0965V8.1597L72.2474 8.23534C73.0572 9.29535 80.5757 19.1361 82.7356 21.9158C85.1546 25.0281 88.8936 25.8263 92.5128 26.599C92.6562 26.6296 92.7994 26.6602 92.9423 26.6908C96.6925 27.4956 102.535 28.6175 102.535 28.6175V28.1884C102.535 28.1884 94.8377 26.6703 92.9423 26.2617ZM82.709 23.0156C84.4772 25.3227 86.9149 27.2273 92.9423 28.4076C96.4178 29.0883 102.533 30.2318 102.533 30.2318V30.6607C102.533 30.6607 97.1754 29.6415 92.9423 28.8635C88.7099 28.0858 85.2141 27.3334 82.709 24.4641C80.5918 22.0391 72.7803 12.7747 72.2096 12.0979L72.1896 12.0742V9.17377C72.1896 9.17377 80.9409 20.7087 82.709 23.0156ZM92.9423 30.6339C86.6743 29.4182 85.3886 28.4166 82.7356 25.5102C81.0789 23.6957 72.6625 13.7586 72.1979 13.21L72.1975 13.2096L72.1896 13.2002V15.8801C72.1896 15.8801 80.1504 24.3711 82.709 26.8785C85.742 29.8506 88.6066 30.3425 91.876 30.9039C92.2266 30.9641 92.5818 31.0251 92.9423 31.09C96.6663 31.7605 102.533 32.8338 102.533 32.8338V32.3777C102.533 32.3777 95.4499 31.1205 92.9423 30.6339ZM45.6285 26.0098H44.1061L43.656 24.5309L43.1962 26.0098H41.679L42.9157 26.9655L42.434 28.4818L43.656 27.5477L44.8783 28.4818L44.4014 26.9655L45.6285 26.0098ZM45.6841 45.5277H44.1596L43.7118 44.1047L43.252 45.5277H41.7322L42.9711 46.4492L42.4896 47.9067L43.7118 47.0084L44.9338 47.9067L44.4572 46.4492L45.6841 45.5277ZM48.9876 44.2349H50.5125L49.2854 45.1542L49.7622 46.614L48.54 45.7134L47.3179 46.614L47.7994 45.1542L46.5604 44.2349H48.0802L48.54 42.8119L48.9876 44.2349ZM50.5125 27.3117H48.9876L48.54 25.8888L48.0802 27.3117H46.5604L47.7994 28.2314L47.3179 29.6907L48.54 28.7917L49.7622 29.6907L49.2854 28.2314L50.5125 27.3117ZM52.5722 30.8959H54.0941L52.8672 31.8144L53.344 33.2749L52.1219 32.3758L50.9021 33.2749L51.3837 31.8144L50.1445 30.8959H51.6619L52.1219 29.4728L52.5722 30.8959ZM54.0941 40.6994H52.5722L52.1219 39.2763L51.6619 40.6994H50.1445L51.3837 41.6217L50.9021 43.0806L52.1219 42.1801L53.344 43.0806L52.8672 41.6217L54.0941 40.6994ZM53.9151 35.7228H55.44L54.2127 36.6427L54.6892 38.1025L53.4671 37.2019L52.245 38.1025L52.7268 36.6427L51.4876 35.7228H53.0052L53.4671 34.301L53.9151 35.7228ZM35.6988 30.9079H37.2235L35.9964 31.8275L36.4708 33.2871L35.251 32.3878L34.0289 33.2871L34.5093 31.8275L33.2714 30.9079H34.7912L35.251 29.485L35.6988 30.9079ZM35.9288 35.7348H34.4052L33.9562 34.3132L33.4964 35.7348H31.9789L33.2157 36.6555L32.734 38.1145L33.9562 37.217L35.1783 38.1145L34.7017 36.6555L35.9288 35.7348ZM35.6988 40.7114H37.2235L35.9964 41.6336L36.4708 43.0926L35.251 42.1928L34.0289 43.0926L34.5093 41.6336L33.2714 40.7114H34.7912L35.251 39.2905L35.6988 40.7114ZM40.7568 44.2469H39.2347L38.7842 42.8238L38.3246 44.2469H36.8072L38.0439 45.1669L37.5622 46.6259L38.7842 45.7261L40.0041 46.6259L39.5296 45.1669L40.7568 44.2469Z" fill="white"/>
</svg>
