<svg width="346" height="116" viewBox="0 0 346 116" fill="none" xmlns="http://www.w3.org/2000/svg">
<g clip-path="url(#clip0_14_29)">
<path d="M84.6852 61.314C84.6852 53.8485 81.9405 46.8289 76.9602 41.5525C75.9821 40.5145 74.9375 39.573 73.8396 38.7213L69.7077 46.0637C74.0292 49.7166 77.1132 55.0063 77.1132 61.314C77.1132 72.3193 68.6963 81.2419 58.3165 81.2419C55.8879 81.2419 53.5691 80.7462 51.4365 79.8546L47.6173 86.8676C50.9442 88.4346 54.5671 89.263 58.3165 89.263C72.8549 89.2663 84.6852 76.7274 84.6852 61.314Z" fill="white"/>
<path d="M77.2064 10.3931C77.1765 7.83477 76.9469 5.39619 76.5277 3.14723L76.3847 2.38538L75.8391 2.90437C74.2056 4.46466 72.6187 6.29443 71.1216 8.33713C63.3301 18.9698 59.3645 33.1987 61.6899 42.168L61.7565 42.4308L62.0093 42.484C62.5083 42.5871 62.9608 42.7102 63.3966 42.8566C63.9089 43.0296 64.4179 43.2359 64.9037 43.4754L65.1332 43.5885L65.3295 43.4255C72.3824 37.6035 77.3727 23.7139 77.2064 10.3931Z" fill="white"/>
<path d="M51.1405 0.615471L50.6947 0L50.4219 0.721928C49.6068 2.88771 48.9481 5.26974 48.4557 7.80148C45.904 20.9892 48.2794 35.6107 54.1047 42.5672L54.2744 42.7734L54.5239 42.7036C55.013 42.5638 55.4721 42.4607 55.9245 42.3875C56.4535 42.301 56.9991 42.2511 57.5314 42.2345L57.7876 42.2278L57.8973 41.9883C61.7898 33.4715 60.4757 18.6737 54.7701 6.80343C53.6756 4.51787 52.4579 2.43859 51.1405 0.615471Z" fill="white"/>
<path d="M32.3237 14.1591C30.3908 12.6254 28.428 11.3379 26.4884 10.3166L25.8297 9.97058L25.8896 10.7457C26.0626 13.0679 26.4618 15.5165 27.0806 18.0183C30.291 31.0429 38.5217 43.0429 46.6459 46.5494L46.8854 46.6525L47.0784 46.4729C47.4609 46.1169 47.8269 45.8075 48.2028 45.5347C48.642 45.2087 49.1077 44.9093 49.5868 44.6431L49.8097 44.52L49.8064 44.2505C49.7432 34.7856 42.3941 22.1302 32.3237 14.1591Z" fill="white"/>
<path d="M12.163 37.2043C20.4768 47.3811 32.8594 54.2877 41.6123 53.6256L41.8685 53.6057L41.965 53.3528C42.1613 52.8538 42.3609 52.4047 42.5805 51.9822C42.8366 51.4831 43.1294 50.9974 43.4454 50.535L43.5918 50.3187L43.4787 50.0792C39.4765 41.619 27.6029 33.7177 15.2503 31.2824C12.8783 30.8167 10.5761 30.5772 8.41361 30.5738L7.6817 30.5705L8.05764 31.2392C9.18877 33.242 10.5661 35.2481 12.163 37.2043Z" fill="white"/>
<path d="M40.0454 62.3221L40.2683 62.1857L40.2517 61.9129C40.2184 61.3739 40.2151 60.8782 40.2317 60.3958C40.255 59.8269 40.3149 59.2547 40.4047 58.6925L40.448 58.4296L40.2483 58.2666C33.1289 52.5544 19.1827 51.0274 7.08621 54.637C4.76739 55.329 2.60493 56.194 0.658719 57.2054L0 57.5513L0.615468 57.9739C2.46188 59.2414 4.53784 60.3925 6.78679 61.4005C18.484 66.6337 32.4735 67.0196 40.0454 62.3221Z" fill="white"/>
<path d="M42.0981 71.0351L42.2378 70.8055L42.108 70.5727C41.8519 70.1036 41.6423 69.6611 41.4593 69.222C41.2464 68.6996 41.0568 68.1574 40.9037 67.6118L40.8339 67.3556L40.5877 67.3057C31.8214 65.5192 18.677 70.6858 9.33183 79.5918C7.53866 81.3018 5.96172 83.0916 4.63763 84.9081L4.19183 85.5236L4.92042 85.6167C7.10616 85.8895 9.44494 85.9527 11.8802 85.7997C24.5555 85.0079 37.2641 78.7967 42.0981 71.0351Z" fill="white"/>
<path d="M46.3165 76.4113C45.904 76.0453 45.5114 75.6461 45.1488 75.2269L44.9791 75.0306L44.733 75.1005C36.123 77.609 26.4918 88.4046 21.8275 100.774C20.9326 103.149 20.2606 105.491 19.8347 107.744L19.6884 108.505L20.3803 108.246C22.453 107.468 24.5788 106.426 26.7014 105.149C37.7432 98.495 46.5494 86.9674 47.6473 77.742L47.6805 77.4726L47.4676 77.3228C47.0418 77.0201 46.6659 76.7207 46.3165 76.4113Z" fill="white"/>
<path d="M108.259 69.7143C110.249 69.172 112.268 68.5067 113.912 67.7581C114.128 65.6422 114.111 60.2062 114.095 59.6007C112.511 58.7856 110.675 57.9239 108.762 57.2818C105.245 56.1075 100.192 55.5785 96.7018 55.2891C96.2626 52.3714 96.5587 53.9217 95.7869 50.9708C98.8975 49.151 103.326 46.4429 106.07 43.7881C107.591 42.3143 108.911 40.8205 110.032 39.3401C109.058 36.7651 107.923 34.2766 106.629 31.8979C104.863 31.9678 102.99 32.1774 101.007 32.5666C97.3838 33.2786 92.6863 35.3279 89.4758 36.8117C87.7958 34.4596 88.7439 35.6739 86.7578 33.4516C88.6974 30.2977 91.4087 25.7033 92.653 21.9938C93.3416 19.9445 93.7508 18.1547 94.0835 16.2916C92.4567 14.8411 90.7467 13.4871 88.9668 12.2395L76.9169 34.3465C78.2144 35.3545 79.452 36.4624 80.6131 37.69C86.5648 44.001 89.8451 52.3914 89.8451 61.3173C89.8451 70.2433 86.5648 78.6336 80.6131 84.948C74.6613 91.2591 66.7434 94.7356 58.3265 94.7356C53.8618 94.7356 49.5469 93.7442 45.5846 91.8845L33.4515 114.161C35.3046 115.146 37.2175 116.024 39.1804 116.789C40.388 115.602 41.5924 114.254 42.7734 112.737C45.1155 109.723 47.4809 104.946 49.0379 101.622C51.7526 102.281 50.2854 101.995 53.1565 102.344C53.5824 106.08 54.2877 111.453 55.5818 115.146C56.2538 117.062 57.0123 119.065 57.8241 120.639C57.9904 120.642 63.4099 120.449 65.8851 120.096C66.4407 118.42 66.9164 116.34 67.2957 114.374C68.0309 110.545 68.001 105.155 67.9045 101.446C70.5926 100.674 69.172 101.15 71.8601 100.029C73.8928 103.116 76.8937 107.511 79.6683 110.126C81.1421 111.513 82.7789 112.787 84.2261 113.789C86.5948 112.474 88.867 110.994 91.0228 109.347C90.7733 107.554 90.2211 105.585 89.6688 103.612C88.6242 99.8656 86.2122 95.1215 84.4856 91.8945C86.5183 89.8784 85.4736 91.0062 87.35 88.6774C90.5105 90.3941 95.1082 92.7761 98.7145 93.701C100.677 94.2033 102.703 94.6025 104.46 94.7622C105.944 92.47 107.281 90.0614 108.449 87.5529C107.418 86.0658 106.047 84.4723 104.66 82.9718C102.075 80.1839 97.8462 77.1997 94.8886 75.207C95.7935 72.4124 95.3677 73.9294 95.9965 70.9386C99.5529 70.8754 104.663 70.6924 108.259 69.7143Z" fill="white"/>
<path d="M248.011 107.744L247.731 108.599C247.375 109.64 246.886 110.415 246.257 110.934C245.629 111.446 244.89 111.706 244.048 111.706C243.373 111.706 242.751 111.639 242.175 111.503V115.279C242.964 115.459 243.772 115.545 244.594 115.545C246.267 115.545 247.731 115.093 248.985 114.188C250.24 113.283 251.204 111.919 251.88 110.099L259.262 90.4207H254.159L250.928 100.238C250.596 101.186 250.373 102.194 250.256 103.266H250.163C250.06 102.101 249.867 101.09 249.584 100.238L246.294 90.4207H241.081L248.011 107.744ZM236.739 107.897C237.524 107.71 238.303 107.371 239.075 106.882V102.81C238.293 103.332 237.514 103.712 236.733 103.958C235.951 104.204 235.102 104.324 234.188 104.324C231.709 104.324 230.475 102.617 230.475 99.2069C230.475 95.6905 231.712 93.9305 234.188 93.9305C234.833 93.9305 235.478 94.027 236.12 94.22C236.766 94.4096 237.461 94.6591 238.213 94.9585L239.617 91.2757C238.017 90.4872 236.204 90.0913 234.188 90.0913C231.43 90.0913 229.314 90.8732 227.833 92.4401C226.359 94.0071 225.618 96.2693 225.618 99.2369C225.618 105.199 228.332 108.179 233.765 108.179C234.963 108.179 235.954 108.086 236.739 107.897ZM222.221 96.4889C222.221 94.4196 221.695 92.8327 220.644 91.7381C219.596 90.6403 218.056 90.0913 216.026 90.0913C214.839 90.0913 213.784 90.3076 212.849 90.7401C211.918 91.1693 211.189 91.808 210.657 92.6497H210.391L209.752 90.4174H206.116V107.867H210.876V99.6594C210.876 97.6001 211.172 96.1263 211.765 95.2347C212.36 94.3464 213.322 93.9006 214.652 93.9006C215.63 93.9006 216.342 94.2133 216.788 94.8454C217.234 95.4742 217.46 96.419 217.46 97.6766V107.867H222.221V96.4889V96.4889ZM198.93 107.873C199.878 107.67 200.766 107.361 201.598 106.945V103.262C200.576 103.741 199.598 104.091 198.663 104.31C197.725 104.527 196.734 104.636 195.683 104.636C194.332 104.636 193.281 104.257 192.529 103.499C191.78 102.737 191.381 101.682 191.328 100.328H202.579V98.0192C202.579 95.5407 201.894 93.6012 200.52 92.1972C199.146 90.7933 197.229 90.0913 194.761 90.0913C192.183 90.0913 190.16 90.8898 188.699 92.4834C187.239 94.0836 186.507 96.3425 186.507 99.2635C186.507 102.105 187.295 104.297 188.879 105.851C190.459 107.401 192.655 108.176 195.463 108.176C196.83 108.179 197.985 108.076 198.93 107.873ZM197.2 94.4362C197.795 95.075 198.101 95.9865 198.121 97.1609H191.441C191.524 95.9865 191.853 95.075 192.422 94.4362C192.994 93.7975 193.786 93.4781 194.794 93.4781C195.806 93.4781 196.607 93.7975 197.2 94.4362ZM176.187 92.9791C177.914 92.9791 178.779 94.0304 178.779 96.1329C178.779 97.0811 178.569 97.8296 178.157 98.3786C177.741 98.9308 177.082 99.2069 176.19 99.2069C175.309 99.2069 174.65 98.9308 174.218 98.3786C173.785 97.8296 173.569 97.0811 173.569 96.1329C173.566 94.0304 174.441 92.9791 176.187 92.9791ZM172.714 108.702C173.303 108.289 174.031 108.086 174.906 108.086H177.375C178.569 108.086 179.454 108.209 180.026 108.459C180.599 108.708 180.881 109.161 180.881 109.816C180.881 110.628 180.399 111.267 179.431 111.736C178.466 112.202 177.129 112.438 175.422 112.438C174.287 112.438 173.406 112.248 172.777 111.876C172.148 111.5 171.832 110.987 171.832 110.329C171.832 109.657 172.128 109.114 172.714 108.702ZM179.215 90.4174C179.028 90.3775 178.599 90.3142 177.927 90.2244C177.255 90.1346 176.676 90.0913 176.184 90.0913C173.885 90.0913 172.118 90.6103 170.877 91.6516C169.64 92.693 169.021 94.1634 169.021 96.0664C169.021 97.2507 169.287 98.2821 169.826 99.1537C170.362 100.029 171.087 100.661 172.002 101.057C171.27 101.486 170.714 101.918 170.332 102.361C169.946 102.803 169.753 103.359 169.753 104.024C169.753 104.553 169.936 105.056 170.299 105.528C170.661 106.004 171.087 106.343 171.576 106.553C170.309 106.855 169.347 107.358 168.688 108.066C168.033 108.775 167.707 109.653 167.707 110.705C167.707 112.232 168.349 113.423 169.633 114.268C170.917 115.116 172.777 115.542 175.212 115.542C178.396 115.542 180.838 114.98 182.538 113.858C184.238 112.734 185.09 111.154 185.09 109.114C185.09 107.524 184.587 106.316 183.583 105.491C182.578 104.67 181.121 104.26 179.208 104.26H176.24C174.494 104.26 173.622 103.918 173.622 103.229C173.622 102.773 173.865 102.357 174.354 101.982L175.056 102.061L175.914 102.108C178.233 102.108 180.046 101.586 181.35 100.541C182.658 99.4931 183.31 98.0359 183.31 96.1629C183.31 95.1948 183.06 94.3198 182.561 93.5413L185.289 92.8393V90.4207H179.215V90.4174ZM153.032 98.3786C154.656 93.1254 155.637 89.8352 155.983 88.5011C156.066 88.8737 156.203 89.3827 156.396 90.0315C156.589 90.6769 157.45 93.4581 158.981 98.3786H153.032ZM167.002 107.867L158.917 84.958H153.002L144.951 107.867H150.161L151.815 102.437H160.132L161.785 107.867H167.002Z" fill="white"/>
<path d="M341.492 68.5798C341.113 68.2571 340.923 67.7581 340.923 67.0794V58.6691H345.807V55.0961H340.923V51.3833H337.879L336.505 55.0628L333.884 56.6531V58.6658H336.159V67.0761C336.159 69.0024 336.595 70.4462 337.463 71.4077C338.332 72.3691 339.719 72.8482 341.622 72.8482C343.348 72.8482 344.806 72.5854 345.99 72.0531V68.51C344.826 68.8726 343.828 69.0556 342.996 69.0556C342.374 69.0622 341.871 68.9026 341.492 68.5798ZM331.385 61.1676C331.385 59.0983 330.859 57.5114 329.811 56.4169C328.76 55.319 327.22 54.7701 325.19 54.7701C324.006 54.7701 322.948 54.9863 322.017 55.4188C321.085 55.848 320.353 56.4867 319.824 57.3284H319.561L318.923 55.0961H315.286V72.5455H320.044V64.3381C320.044 62.2788 320.34 60.805 320.932 59.9134C321.524 59.0251 322.486 58.5793 323.82 58.5793C324.798 58.5793 325.51 58.892 325.959 59.5241C326.405 60.1529 326.631 61.0977 326.631 62.3553V72.5455H331.388V61.1676H331.385ZM308.097 72.5488C309.042 72.3459 309.93 72.0365 310.765 71.6206V67.9378C309.747 68.4168 308.769 68.7662 307.831 68.9857C306.896 69.202 305.901 69.3118 304.85 69.3118C303.499 69.3118 302.448 68.9325 301.7 68.174C300.951 67.4121 300.548 66.3575 300.499 65.0035H311.747V62.6946C311.747 60.2161 311.061 58.2766 309.687 56.8726C308.313 55.4687 306.394 54.7667 303.925 54.7667C301.347 54.7667 299.327 55.5652 297.864 57.1621C296.403 58.759 295.671 61.0179 295.671 63.9422C295.671 66.7833 296.46 68.9758 298.043 70.5294C299.624 72.0797 301.819 72.8549 304.63 72.8549C305.994 72.8549 307.149 72.7551 308.097 72.5488ZM306.364 59.1149C306.956 59.7537 307.262 60.6652 307.285 61.8396H300.605C300.685 60.6652 301.014 59.7537 301.586 59.1149C302.159 58.4762 302.947 58.1568 303.958 58.1568C304.97 58.1535 305.772 58.4729 306.364 59.1149ZM281.462 63.7892C281.462 61.9794 281.752 60.6586 282.327 59.8236C282.906 58.9918 283.778 58.576 284.942 58.576C285.847 58.576 286.509 58.8887 286.932 59.5208C287.354 60.1496 287.564 61.0944 287.564 62.352V72.5421H292.338V61.1676C292.338 58.932 291.832 57.3051 290.817 56.2904C289.803 55.2757 288.306 54.7701 286.329 54.7701C285.185 54.7701 284.157 54.993 283.249 55.4421C282.337 55.8879 281.649 56.5167 281.183 57.3284H280.76C279.835 55.6217 278.066 54.7701 275.454 54.7701C274.309 54.7701 273.295 54.9963 272.41 55.4487C271.525 55.9012 270.85 56.53 270.38 57.3284H270.118L269.479 55.0961H265.843V72.5455H270.6V64.3381C270.6 62.2888 270.876 60.8183 271.428 59.9234C271.977 59.0284 272.862 58.5826 274.08 58.5826C274.985 58.5826 275.647 58.8954 276.069 59.5275C276.492 60.1562 276.701 61.1011 276.701 62.3586V72.5488H281.459V63.7892H281.462ZM261.541 61.1676C261.541 59.0983 261.015 57.5114 259.967 56.4169C258.916 55.319 257.376 54.7701 255.346 54.7701C254.162 54.7701 253.104 54.9863 252.169 55.4188C251.238 55.848 250.509 56.4867 249.977 57.3284H249.714L249.075 55.0961H245.436V72.5455H250.196V64.3381C250.196 62.2788 250.493 60.805 251.085 59.9134C251.677 59.0251 252.638 58.5793 253.972 58.5793C254.951 58.5793 255.662 58.892 256.112 59.5241C256.557 60.1529 256.784 61.0977 256.784 62.3553V72.5455H261.541V61.1676V61.1676ZM240.978 58.9985C240.289 57.6345 239.308 56.5898 238.027 55.8613C236.746 55.1327 235.269 54.7701 233.595 54.7701C230.901 54.7701 228.811 55.5585 227.324 57.1421C225.837 58.7224 225.092 60.9381 225.092 63.7892C225.092 65.6189 225.435 67.2225 226.123 68.5965C226.809 69.9705 227.793 71.0218 229.074 71.757C230.352 72.4889 231.829 72.8549 233.506 72.8549C236.18 72.8549 238.266 72.0564 239.763 70.4529C241.264 68.8527 242.012 66.6303 242.012 63.7892C242.006 61.9561 241.663 60.3592 240.978 58.9985ZM230.784 59.8934C231.346 59.0384 232.261 58.6059 233.529 58.6059C234.81 58.6059 235.731 59.0384 236.29 59.9034C236.852 60.7684 237.132 62.0625 237.132 63.7892C237.132 65.5258 236.852 66.8333 236.297 67.7115C235.741 68.5932 234.83 69.029 233.559 69.029C232.281 69.029 231.356 68.5898 230.791 67.7049C230.225 66.8199 229.942 65.5125 229.942 63.7892C229.942 62.0492 230.225 60.7518 230.784 59.8934ZM218.877 55.665C217.956 56.2638 217.227 57.0523 216.685 58.0304H216.452L215.75 55.0928H212.144V72.5421H216.901V63.6628C216.901 62.2588 217.324 61.1676 218.175 60.3858C219.024 59.604 220.205 59.2147 221.725 59.2147C222.274 59.2147 222.743 59.268 223.129 59.3711L223.488 54.9065C223.063 54.81 222.524 54.7667 221.882 54.7667C220.8 54.7701 219.799 55.0695 218.877 55.665ZM207.752 55.0961H202.995V72.5455H207.752V55.0961ZM205.38 52.927C206.245 52.927 206.891 52.7207 207.323 52.3115C207.756 51.899 207.972 51.3268 207.972 50.5849C207.972 49.0346 207.107 48.2594 205.384 48.2594C203.657 48.2594 202.792 49.0346 202.792 50.5849C202.789 52.1485 203.65 52.927 205.38 52.927ZM194.069 72.5421L200.716 55.0928H195.739L192.386 65.0334C191.97 66.4174 191.734 67.6084 191.68 68.6065H191.587C191.494 67.482 191.258 66.291 190.885 65.0334L187.515 55.0928H182.538L189.185 72.5421H194.069ZM181.011 61.1676C181.011 59.0983 180.489 57.5114 179.437 56.4169C178.386 55.319 176.846 54.7701 174.82 54.7701C173.632 54.7701 172.574 54.9863 171.643 55.4188C170.711 55.848 169.979 56.4867 169.45 57.3284H169.184L168.545 55.0961H164.909V72.5455H169.666V64.3381C169.666 62.2788 169.963 60.805 170.555 59.9134C171.147 59.0251 172.112 58.5793 173.442 58.5793C174.421 58.5793 175.136 58.892 175.582 59.5241C176.027 60.1529 176.254 61.0977 176.254 62.3553V72.5455H181.011V61.1676V61.1676ZM160.96 68.5466H152.66V62.6614H160.385V58.6991H152.66V53.6888H160.96V49.7232H147.822V72.5388H160.96V68.5466Z" fill="white"/>
<path d="M291.609 25.843C291.609 23.7737 291.084 22.1868 290.036 21.0923C288.984 19.9944 287.444 19.4455 285.415 19.4455C284.23 19.4455 283.172 19.6617 282.237 20.0942C281.306 20.5234 280.577 21.1622 280.045 22.0038H279.782L279.143 19.7715H275.504V37.2209H280.265V29.0102C280.265 26.9509 280.561 25.4771 281.153 24.5855C281.745 23.6972 282.706 23.2514 284.041 23.2514C285.019 23.2514 285.731 23.5641 286.18 24.1962C286.626 24.825 286.852 25.7699 286.852 27.0274V37.2176H291.609V25.843V25.843ZM266.491 30.5705C266.491 31.6218 266.162 32.4635 265.5 33.0989C264.841 33.731 263.96 34.0504 262.855 34.0504C261.315 34.0504 260.546 33.3784 260.546 32.0377C260.546 31.0995 260.886 30.4042 261.561 29.9451C262.236 29.486 263.268 29.2364 264.652 29.1965L266.495 29.1333V30.5705H266.491ZM271.219 37.2176V25.5935C271.219 23.5109 270.597 21.9639 269.346 20.9426C268.098 19.9246 266.302 19.4156 263.963 19.4156C261.518 19.4156 259.292 19.9412 257.283 20.9892L258.86 24.2029C260.743 23.3612 262.379 22.9387 263.777 22.9387C265.586 22.9387 266.491 23.8236 266.491 25.5902V26.3554L263.464 26.4519C260.852 26.545 258.899 27.0307 257.605 27.909C256.308 28.7873 255.662 30.1513 255.662 32.0044C255.662 33.7743 256.142 35.1383 257.106 36.0931C258.068 37.0512 259.385 37.527 261.062 37.527C262.426 37.527 263.53 37.3307 264.379 36.9414C265.227 36.5522 266.052 35.8502 266.854 34.8422H266.977L267.899 37.2142H271.219V37.2176ZM249.744 37.2276C250.689 37.0246 251.577 36.7152 252.412 36.2994V32.6165C251.394 33.0956 250.416 33.4449 249.478 33.6645C248.543 33.8807 247.548 33.9905 246.497 33.9905C245.146 33.9905 244.095 33.6113 243.346 32.8527C242.598 32.0909 242.195 31.0363 242.142 29.6822H253.394V27.3734C253.394 24.8949 252.708 22.9553 251.334 21.5514C249.96 20.1475 248.041 19.4455 245.575 19.4455C242.997 19.4455 240.978 20.2439 239.514 21.8408C238.053 23.4377 237.321 25.6967 237.321 28.621C237.321 31.4621 238.11 33.6545 239.694 35.2082C241.274 36.7585 243.47 37.5336 246.281 37.5336C247.641 37.5303 248.796 37.4305 249.744 37.2276ZM248.011 23.7904C248.603 24.4291 248.909 25.3407 248.929 26.5151H242.249C242.332 25.3407 242.661 24.4291 243.233 23.7904C243.806 23.1516 244.594 22.8322 245.605 22.8322C246.617 22.8322 247.418 23.1516 248.011 23.7904ZM229.068 24.5389C229.593 25.3972 229.856 26.6847 229.856 28.4014C229.856 31.9179 228.791 33.6778 226.659 33.6778C225.451 33.6778 224.57 33.2719 224.014 32.4635C223.458 31.6517 223.179 30.311 223.179 28.438V27.9223C223.199 26.2589 223.482 25.0646 224.021 24.3426C224.563 23.6207 225.421 23.2581 226.596 23.2581C227.717 23.2514 228.542 23.6806 229.068 24.5389ZM231.556 36.4557C232.564 35.7371 233.343 34.6925 233.891 33.3185C234.437 31.9445 234.71 30.3277 234.71 28.4679C234.71 25.6368 234.128 23.4277 232.96 21.8342C231.796 20.2439 230.182 19.4488 228.123 19.4488C225.937 19.4488 224.29 20.3138 223.176 22.0371H222.956L222.284 19.7749H218.415V44.8993H223.172V37.8297C223.172 37.6002 223.089 36.7551 222.923 35.3013H223.172C224.337 36.7917 225.944 37.5336 227.996 37.5336C229.36 37.5303 230.548 37.171 231.556 36.4557ZM213.957 23.6739C213.268 22.3099 212.287 21.2653 211.006 20.5367C209.729 19.8081 208.251 19.4455 206.575 19.4455C203.88 19.4455 201.787 20.234 200.3 21.8175C198.813 23.3978 198.068 25.6135 198.068 28.4646C198.068 30.2944 198.414 31.8979 199.099 33.2719C199.788 34.6459 200.769 35.6972 202.05 36.4324C203.331 37.1643 204.805 37.5303 206.482 37.5303C209.156 37.5303 211.242 36.7319 212.739 35.1283C214.24 33.5281 214.988 31.3057 214.988 28.4646C214.985 26.6348 214.642 25.0379 213.957 23.6739ZM203.767 24.5689C204.329 23.7139 205.244 23.2814 206.515 23.2814C207.792 23.2814 208.714 23.7139 209.276 24.5788C209.842 25.4438 210.121 26.738 210.121 28.4646C210.121 30.2012 209.842 31.5087 209.286 32.387C208.73 33.2686 207.816 33.7044 206.548 33.7044C205.267 33.7044 204.346 33.2653 203.777 32.3803C203.211 31.4954 202.928 30.1879 202.928 28.4646C202.922 26.7247 203.205 25.4305 203.767 24.5689ZM191.857 20.3437C190.935 20.9393 190.206 21.731 189.664 22.7091H189.428L188.726 19.7715H185.12V37.2209H189.877V28.3415C189.877 26.9376 190.303 25.8464 191.151 25.0646C192 24.2827 193.184 23.8935 194.701 23.8935C195.253 23.8935 195.722 23.9467 196.105 24.0499L196.464 19.5852C196.038 19.4887 195.503 19.4455 194.857 19.4455C193.78 19.4455 192.778 19.7449 191.857 20.3437ZM180.752 37.2176V19.7682H175.991V27.9756C175.991 30.0349 175.695 31.512 175.103 32.4003C174.507 33.2886 173.546 33.7344 172.215 33.7344C171.237 33.7344 170.525 33.4216 170.079 32.7929C169.633 32.1607 169.407 31.2192 169.407 29.9584V19.7682H164.646V31.1461C164.646 33.2054 165.169 34.7856 166.207 35.8802C167.248 36.978 168.792 37.527 170.841 37.527C172.039 37.527 173.103 37.3041 174.041 36.8616C174.976 36.4225 175.698 35.7937 176.21 34.9819H176.46L177.099 37.2142H180.752V37.2176ZM160.96 33.2253H152.66V27.3401H160.385V23.3778H152.66V18.3676H160.96V14.402H147.822V37.2176H160.96V33.2253Z" fill="white"/>
</g>
<defs>
<clipPath id="clip0_14_29">
<rect width="346" height="116" fill="white"/>
</clipPath>
</defs>
</svg>
