<svg width="392" height="172" viewBox="0 0 392 172" fill="none" xmlns="http://www.w3.org/2000/svg">
<path d="M391.573 0.079834V25.3867H342.087V41.2905H382.098V65.6379H342.087V83.5566H391.573V109.727H309.08V0.079834H391.573Z" fill="white"/>
<path d="M190.15 109.727H156.495V0.079834H190.15V109.727Z" fill="white"/>
<path d="M88.3942 0.079834L104.658 63.3111L120.034 0.079834H145.796L116.7 109.727H88.4182L73.0901 49.2544L58.6016 109.727H29.1209L0 0.079834H31.6636L47.0156 63.1911L61.9599 0.079834H88.3942Z" fill="white"/>
<path d="M249.144 38.0211C261.951 40.7042 271.014 43.0601 276.399 45.1542C281.785 47.2483 286.25 50.7821 289.928 55.8211C293.54 60.86 295.314 66.8151 295.314 73.621C295.314 84.3533 290.979 93.1224 282.179 99.7973C273.378 106.472 261.885 109.81 247.634 109.81C221.561 109.81 205.471 99.012 199.363 77.3511L229.836 71.9195C232.398 80.4923 239.031 84.8114 249.604 84.8114C257.813 84.8114 261.951 82.6518 261.951 78.2673C261.951 75.9769 260.966 74.1445 259.061 72.9011C257.157 71.5923 253.742 70.4798 248.816 69.4982C230.033 65.899 218.015 61.1872 212.695 55.4284C207.376 49.6696 204.683 42.8638 204.683 35.0763C204.683 24.9984 208.558 16.6874 216.176 10.0124C223.86 3.33748 234.827 0 249.21 0C270.948 0 285.331 8.76908 292.358 26.1764L265.169 34.3565C262.345 27.2234 256.631 23.6896 248.028 23.6896C240.87 23.6896 237.323 25.8491 237.323 30.2991C237.323 32.2623 238.111 33.7675 239.753 34.88C241.329 35.9925 244.482 37.0395 249.144 38.0211Z" fill="white"/>
<path d="M29.12 155.321H40.778V140.713H53.5154V131.933H40.778V125.577H57.3534V116.27H29.12V155.321ZM94.5821 133.733C95.4936 132.005 95.9494 130.014 95.9494 127.76C95.9494 124.305 94.702 121.523 92.2073 119.412C89.7126 117.301 86.2344 116.246 81.7247 116.246H61.3353V155.297H73.3291V140.353H77.1191L82.8282 155.297H96.1173L89.0409 138.266C91.8235 136.971 93.6706 135.46 94.5821 133.733ZM82.0846 131.094C81.173 131.718 79.9497 132.029 78.4624 132.029H73.3531V124.569H78.8702C81.9406 124.569 83.4758 125.817 83.4758 128.311C83.4518 129.535 82.9961 130.446 82.0846 131.094ZM100.579 155.321H129.964V145.99H112.333V139.61H126.582V130.95H112.333V125.289H129.964V116.27H100.579V155.321ZM159.277 132.221C157.31 131.454 153.999 130.59 149.322 129.607C147.619 129.247 146.467 128.863 145.891 128.455C145.292 128.048 145.004 127.496 145.004 126.776C145.004 125.145 146.299 124.353 148.914 124.353C152.056 124.353 154.143 125.649 155.175 128.263L165.106 125.265C162.539 118.884 157.286 115.67 149.346 115.67C144.092 115.67 140.087 116.893 137.28 119.34C134.497 121.787 133.082 124.833 133.082 128.527C133.082 131.382 134.066 133.876 136.009 135.987C137.952 138.098 142.341 139.825 149.202 141.145C151.001 141.505 152.248 141.912 152.944 142.392C153.639 142.848 153.999 143.519 153.999 144.359C153.999 145.966 152.488 146.758 149.49 146.758C145.628 146.758 143.205 145.175 142.269 142.032L131.139 144.023C133.37 151.963 139.247 155.921 148.77 155.921C153.975 155.921 158.173 154.698 161.387 152.251C164.602 149.804 166.185 146.59 166.185 142.656C166.185 140.161 165.537 137.978 164.218 136.131C162.875 134.284 161.244 132.989 159.277 132.221ZM190.868 130.638H181.705V116.27H169.711V155.321H181.705V140.137H190.868V155.321H202.862V116.27H190.868V130.638ZM249.902 116.27L244.432 138.794L238.627 116.27H229.224L223.899 138.746L218.43 116.27H207.156L217.542 155.321H228.049L233.206 133.781L238.675 155.321H248.75L259.065 116.27H249.902ZM269.763 116.27L257.698 155.321H267.437L269.787 147.621H280.246L282.453 155.321H294.686L282.429 116.27H269.763ZM271.826 139.106L274.993 127.784L278.159 139.106H271.826ZM292.192 125.625H300.299V155.321H311.67V125.625H319.777V116.27H292.216V125.625H292.192ZM322.176 155.321H351.561V145.99H333.93V139.61H348.179V130.95H333.93V125.289H351.561V116.27H322.176V155.321ZM384.424 138.29C387.206 136.971 389.054 135.46 389.965 133.733C390.877 132.005 391.332 130.014 391.332 127.76C391.332 124.305 390.085 121.523 387.59 119.412C385.096 117.301 381.617 116.246 377.108 116.246H356.718V155.297H368.712V140.353H372.502L378.211 155.297H391.5L384.424 138.29ZM377.468 131.094C376.556 131.718 375.333 132.029 373.845 132.029H368.736V124.569H374.253C377.324 124.569 378.859 125.817 378.859 128.311C378.859 129.535 378.403 130.446 377.468 131.094Z" fill="white"/>
<path fill-rule="evenodd" clip-rule="evenodd" d="M161.982 67.5651V61.668C164.274 62.0453 168.883 62.6343 173.176 62.6343C177.501 62.6343 182.437 61.8892 184.903 61.4181V67.5786C183.081 67.2043 178.915 66.6322 173.176 66.6322C167.506 66.6322 163.651 67.1907 161.982 67.5651ZM173.176 61.5682C176.41 61.5682 180.011 61.1403 182.613 60.7319C182.358 60.6981 182.085 60.6647 181.793 60.6321C179.821 60.4125 176.998 60.2355 173.176 60.2355C169.353 60.2355 166.621 60.4126 164.763 60.6317C164.264 60.6906 163.829 60.7523 163.454 60.8143C165.907 61.1635 169.656 61.5682 173.176 61.5682ZM173.176 59.1694C169.323 59.1694 166.547 59.3478 164.638 59.5729C163.684 59.6854 162.942 59.8101 162.388 59.9314C161.846 60.0499 161.45 60.172 161.21 60.2918L160.916 60.4392V60.7686V61.0351V80.4917V80.4982L160.916 80.5047C161.005 84.1536 161.232 89.9721 161.623 95.5744C162.014 101.157 162.571 106.585 163.333 109.415L163.439 109.81H163.848H182.771H183.175L183.284 109.421C183.925 107.133 185.329 98.2104 185.969 80.511L185.969 80.5014V80.4917V60.7686V60.4077L185.634 60.2737C185.118 60.0671 183.91 59.7951 181.911 59.5725C179.893 59.3478 177.03 59.1694 173.176 59.1694ZM161.982 68.2317C163.188 68.9036 167.317 70.3426 173.717 70.3426C180.121 70.3426 183.886 68.9016 184.903 68.2484V68.9441C183.245 69.7588 179.47 70.897 173.717 70.897C167.833 70.897 163.749 69.7067 161.982 68.9028V68.2317ZM163.223 87.0166C163.584 93.506 164.138 103.46 165.18 105.545C165.713 106.612 170.244 107.145 172.376 106.345C173.299 105.999 172.703 105.522 171.608 104.645C170.314 103.609 168.323 102.014 167.312 99.4153C166.392 97.0483 165.264 91.988 164.395 88.0928C163.504 84.0928 162.886 81.3214 163.048 83.9566C163.101 84.8258 163.159 85.8668 163.223 87.0166Z" fill="#B2BFC5"/>
<path fill-rule="evenodd" clip-rule="evenodd" d="M80.7538 79.4906L88.4178 109.727H113.395C114.154 106.645 115.407 101.281 110.876 93.2848C109.697 91.2053 108.251 89.32 106.87 87.5202L106.87 87.5202L106.869 87.5193L106.869 87.5192C103.761 83.4683 100.986 79.8508 102.347 75.4274C104.479 68.4976 108.884 63.7001 110.076 63.7001C110.282 63.7001 110.326 63.8559 110.411 64.1557C110.546 64.6328 110.784 65.4744 111.942 66.6319C113.807 68.4976 121.824 74.1522 122.869 74.3612C124.09 74.6055 123.372 73.209 122.97 72.4266C122.933 72.3551 122.899 72.2886 122.869 72.229C122.147 71.0244 121.086 69.5039 120.121 68.1204C118.951 66.443 117.922 64.9671 117.805 64.4997C117.634 63.8155 118.012 63.0216 118.375 62.2589L118.375 62.2583L118.376 62.2574C118.578 61.832 118.776 61.4163 118.871 61.0348C118.885 60.9802 118.901 60.9192 118.918 60.8525C119.237 59.6178 120.067 56.4082 117.539 54.6381C115.136 52.9561 110.783 53.2238 107.411 55.4411L106.386 56.2024L104.657 63.311L103.523 58.9026C99.3476 63.5935 95.9391 68.236 95.1504 75.4274C94.5188 81.1854 96.2551 87.6428 99.1855 92.6324C100.852 95.4698 103.701 100.32 101.281 102.08C98.3487 104.212 95.6834 98.6154 94.3508 95.417L94.3484 95.4113L94.3482 95.4109C93.0126 92.2056 88.7405 81.9532 80.7538 79.4906ZM116.138 61.9444C116.138 62.386 115.78 62.744 115.338 62.744C114.896 62.744 114.538 62.386 114.538 61.9444C114.538 61.5028 114.896 61.1448 115.338 61.1448C115.78 61.1448 116.138 61.5028 116.138 61.9444ZM52.2401 109.727H58.6021L66.1174 78.3591C65.7561 78.2703 64.5006 78.2526 63.4344 78.8922C62.1018 79.6918 62.6349 80.4914 64.234 81.291C64.767 81.5575 64.767 82.8901 62.9013 82.0905C62.321 81.8418 61.8696 81.5931 61.491 81.3845C60.6525 80.9225 60.171 80.6572 59.4365 81.0245C58.7258 81.3798 59.6735 82.209 60.6211 83.0382C61.0949 83.4528 61.5687 83.8674 61.8353 84.2228C62.8593 85.588 61.8352 86.6215 60.5026 85.5554C59.1699 84.4893 58.194 83.9337 57.0377 84.2228C55.9716 84.4893 55.7051 85.822 57.3042 87.1546C59.6208 89.085 60.236 91.4191 57.5708 91.6856C50.6754 92.3751 49.8415 95.417 50.108 99.1484C50.3486 102.518 54.9374 104.149 57.3947 105.022C57.6582 105.116 57.8973 105.201 58.1038 105.279C59.7029 106.078 58.3703 106.878 55.705 106.878C53.0397 106.878 52.2401 106.078 51.7071 105.545C51.5958 105.434 51.4846 105.299 51.3782 105.171C50.9747 104.683 50.641 104.28 50.641 105.545C50.641 106.824 51.7071 108.866 52.2401 109.727Z" fill="#B2BFC5"/>
<path fill-rule="evenodd" clip-rule="evenodd" d="M43.9782 140.713C38.6549 139.116 34.2611 137.601 31.1099 136.379L30.7246 137.373C33.3061 138.374 36.7137 139.57 40.7785 140.846V140.713H43.9782ZM61.3358 145.293V146.387C65.1552 147.262 69.1712 148.099 73.3296 148.861V147.777C69.1692 147.011 65.1528 146.171 61.3358 145.293ZM80.4164 148.983L80.8544 150.13C85.3645 150.822 89.9955 151.409 94.6849 151.849L94.2217 150.734C89.5382 150.283 84.9154 149.685 80.4164 148.983ZM100.58 151.251V152.319C104.571 152.58 108.586 152.723 112.587 152.723C118.99 152.723 124.735 152.652 129.964 152.503V151.437C124.739 151.585 118.995 151.657 112.587 151.657C108.587 151.657 104.572 151.513 100.58 151.251ZM135.166 151.256C135.525 151.616 135.904 151.956 136.302 152.274C147.42 151.779 156.116 150.861 164.134 149.447C164.411 149.055 164.659 148.649 164.88 148.231C156.402 149.776 147.215 150.756 135.166 151.256ZM169.712 147.275V148.365C173.703 147.52 177.623 146.541 181.705 145.42V144.314C177.614 145.443 173.696 146.426 169.712 147.275ZM190.869 141.658V142.772C194.164 141.783 197.642 140.713 201.397 139.557C201.881 139.408 202.369 139.257 202.863 139.106V137.99C202.262 138.175 201.668 138.358 201.081 138.538L201.079 138.539C197.439 139.659 194.065 140.698 190.869 141.658ZM212.16 135.083L212.434 136.115C213.969 135.607 215.592 135.055 217.309 134.472L217.31 134.472C218.935 133.92 220.643 133.339 222.438 132.741L222.185 131.7C220.351 132.312 218.608 132.904 216.953 133.466C215.265 134.04 213.668 134.582 212.16 135.083ZM225.855 130.493L225.567 131.709C230.283 130.173 235.545 128.558 241.398 127.016L241.131 125.984C235.505 127.465 230.426 129.014 225.855 130.493ZM247.954 124.292L247.673 125.452C250.697 124.741 253.863 124.059 257.176 123.424L257.477 122.282C254.159 122.911 250.986 123.586 247.954 124.292ZM268.466 120.47L268.118 121.596C272.99 120.9 278.136 120.32 283.569 119.9L283.241 118.856C278.06 119.263 273.138 119.813 268.466 120.47ZM292.216 118.313V119.38C295.859 119.224 299.621 119.141 303.504 119.141C308.93 119.141 314.381 119.377 319.778 119.799V118.729C314.381 118.31 308.931 118.074 303.504 118.074C299.622 118.074 295.86 118.158 292.216 118.313ZM322.177 118.928V119.998C332.39 120.9 342.366 122.438 351.562 124.255V123.168C342.361 121.357 332.387 119.825 322.177 118.928ZM356.719 124.229V125.319C360.944 126.228 364.97 127.185 368.737 128.15V127.05C364.966 126.087 360.941 125.134 356.719 124.229ZM378.595 129.745C378.448 130.092 378.241 130.401 377.972 130.674C382.481 131.986 386.402 133.251 389.582 134.368C389.724 134.16 389.852 133.948 389.966 133.733C390.019 133.632 390.071 133.53 390.121 133.427C386.967 132.315 383.075 131.054 378.595 129.745Z" fill="#B2BFC5"/>
<path fill-rule="evenodd" clip-rule="evenodd" d="M363.051 23.4195C363.403 23.8519 363.603 24.4876 363.691 25.3867H346.206C346.294 24.4876 346.494 23.8519 346.846 23.4195C347.362 22.7845 348.143 22.6547 349.085 22.6547H350.403C350.371 21.4185 350.795 20.3108 351.343 19.4229C351.893 18.5337 352.576 17.8499 353.083 17.4575V16.2482C350.623 15.4994 348.792 13.3088 348.574 10.6609L344.554 10.6609C343.843 11.7271 341.729 13.8593 338.957 13.8593C335.492 13.8593 333.626 11.9936 333.626 9.06177C333.626 6.12996 336.291 4.79731 338.957 4.79731C341.089 4.79731 343.577 6.57417 344.554 7.4626L349.132 7.4626C350.142 5.26051 352.367 3.7312 354.948 3.7312C358.118 3.7312 360.749 6.03645 361.257 9.06177H365.343C366.054 7.99566 368.168 5.86343 370.94 5.86343C374.405 5.86343 376.271 7.72913 376.271 10.6609C376.271 13.5928 373.605 14.9254 370.94 14.9254C368.808 14.9254 366.32 13.1485 365.343 12.2601H360.981C360.308 14.1656 358.757 15.6567 356.814 16.2482V17.4575C357.321 17.8499 358.004 18.5337 358.553 19.4229C359.102 20.3108 359.526 21.4185 359.494 22.6547H360.812C361.754 22.6547 362.535 22.7845 363.051 23.4195ZM342.087 33.5824H329.895C322.006 33.5824 319.323 37.4915 318.967 39.446V62.3675C317.634 62.3675 316.568 62.7406 316.568 64.2332C316.568 65.7258 317.634 66.0989 319.234 66.0989H334.159C335.492 66.0989 336.291 65.5125 336.291 64.2332C336.291 62.9538 335.492 62.3675 334.159 62.3675V50.6402H382.098V41.2904H342.087V33.5824ZM321.366 87.6329C321.366 83.5518 326.65 72.857 327.186 71.7832C327.205 71.744 327.254 71.744 327.273 71.7832C327.809 72.857 333.093 83.5518 333.093 87.6329C333.093 91.932 330.468 95.417 327.229 95.417C323.991 95.417 321.366 91.932 321.366 87.6329ZM391.574 24.8071V25.3866H385.547C386.276 23.9153 387.352 22.3882 388.531 22.3882C389.593 22.3882 390.71 23.5589 391.574 24.8071ZM329.563 92.3188C329.969 92.4925 330.533 92.0848 330.822 91.4081C331.112 90.7315 331.017 90.0421 330.611 89.8684C330.205 89.6947 329.642 90.1024 329.352 90.779C329.063 91.4557 329.157 92.1451 329.563 92.3188Z" fill="#B2BFC5"/>
<path fill-rule="evenodd" clip-rule="evenodd" d="M244.872 68.7053C243.593 68.4354 242.35 68.1599 241.141 67.8786V46.9092H236.077V43.1778H241.141V40.7791H244.872V43.1778H270.493C272.8 43.8619 274.769 44.5201 276.4 45.1544C277.69 45.6563 278.928 46.2409 280.115 46.9092H270.805L267.565 52.8179C269.65 53.1496 271.258 55.2702 271.258 57.8369C271.258 59.1917 270.81 60.4222 270.081 61.3309L271.213 82.624H277.388L277.283 83.4268L277.31 83.4769L277.35 83.5519C277.374 83.5957 277.399 83.6418 277.425 83.6902C277.492 83.8155 277.566 83.9554 277.643 84.1061C277.945 84.6986 278.305 85.4764 278.512 86.2535C278.716 87.019 278.79 87.8464 278.439 88.4938C278.117 89.0891 277.481 89.4588 276.479 89.5378L276.056 92.7521H288.849V54.4139C289.216 54.8692 289.576 55.3383 289.928 55.8213C290.963 57.2641 291.846 58.782 292.581 60.3736V87.1036C290.414 91.9375 286.954 96.1757 282.179 99.7975C273.379 106.472 261.886 109.81 247.634 109.81C245.396 109.81 243.232 109.73 241.141 109.571V99.1488H237.143V92.7521H241.141V83.6424C242.304 84.0104 243.548 84.2917 244.872 84.486V92.7521H258.313L260.351 82.1356C260.616 81.8858 260.849 81.6183 261.048 81.3332L258.855 92.7521H266.727L265.395 82.624H270.679L269.575 61.868C268.859 62.5161 267.964 62.9009 266.994 62.9009C266.164 62.9009 265.39 62.6195 264.734 62.1325L261.86 77.1025C261.793 76.6863 261.688 76.2885 261.546 75.9102L264.269 61.732C263.328 60.8031 262.729 59.403 262.729 57.8369C262.729 55.2477 264.366 53.1124 266.477 52.8096L263.812 46.9092H244.872V68.7053ZM264.397 46.9092L267.017 52.7095L270.197 46.9092H264.397ZM276.55 88.9963C277.364 88.91 277.773 88.6052 277.97 88.24C278.22 87.7796 278.193 87.1245 277.997 86.3908C277.805 85.6687 277.465 84.9306 277.168 84.3486L277.163 84.3388L276.55 88.9963Z" fill="#B2BFC5"/>
<path d="M35.3622 167.316H30.9185V171.853H29V161.147H36.0143V162.647H30.9185V165.831H35.3622V167.316Z" fill="white"/>
<path d="M41.5955 167.728H39.457V171.853H37.5385V161.147H41.421C42.695 161.147 43.6783 161.424 44.3709 161.978C45.0634 162.532 45.4097 163.333 45.4097 164.382C45.4097 165.098 45.2303 165.699 44.8713 166.184C44.5175 166.664 44.022 167.034 43.3851 167.294L45.8647 171.757V171.853H43.8097L41.5955 167.728ZM39.457 166.235H41.4286C42.0757 166.235 42.5813 166.078 42.9452 165.765C43.3092 165.446 43.4912 165.012 43.4912 164.463C43.4912 163.89 43.3219 163.446 42.9832 163.132C42.6495 162.819 42.149 162.657 41.4817 162.647H39.457V166.235Z" fill="white"/>
<path d="M53.6829 167.074H49.1482V170.368H54.4487V171.853H47.2297V161.147H54.3957V162.647H49.1482V165.603H53.6829V167.074Z" fill="white"/>
<path d="M61.7816 169.096C61.7816 168.625 61.6097 168.262 61.2659 168.007C60.9272 167.752 60.313 167.495 59.4232 167.235C58.5335 166.975 57.8257 166.686 57.3 166.368C56.294 165.755 55.7909 164.956 55.7909 163.971C55.7909 163.108 56.1524 162.397 56.8753 161.838C57.6033 161.279 58.5461 161 59.7038 161C60.4722 161 61.1572 161.137 61.7588 161.412C62.3604 161.686 62.8331 162.078 63.1768 162.588C63.5206 163.093 63.6925 163.654 63.6925 164.272H61.7816C61.7816 163.713 61.5996 163.277 61.2356 162.963C60.8766 162.645 60.361 162.485 59.6886 162.485C59.0618 162.485 58.5739 162.615 58.2251 162.875C57.8813 163.135 57.7095 163.498 57.7095 163.963C57.7095 164.355 57.8965 164.684 58.2706 164.949C58.6447 165.208 59.2615 165.463 60.1209 165.713C60.9803 165.958 61.6703 166.24 62.191 166.559C62.7117 166.873 63.0934 167.235 63.3361 167.647C63.5787 168.054 63.7001 168.532 63.7001 169.081C63.7001 169.973 63.3462 170.684 62.6384 171.213C61.9357 171.738 60.9803 172 59.772 172C58.9733 172 58.2377 171.858 57.5654 171.574C56.8981 171.284 56.3774 170.887 56.0033 170.382C55.6342 169.877 55.4497 169.289 55.4497 168.618H57.3682C57.3682 169.225 57.5755 169.696 57.99 170.029C58.4046 170.363 58.9986 170.529 59.772 170.529C60.4394 170.529 60.9398 170.4 61.2735 170.14C61.6122 169.875 61.7816 169.527 61.7816 169.096Z" fill="white"/>
<path d="M74.1495 171.853H72.2386V167.096H67.302V171.853H65.3835V161.147H67.302V165.603H72.2386V161.147H74.1495V171.853Z" fill="white"/>
<path d="M85.0843 169.206L86.7829 161.147H88.6862L86.1383 171.853H84.3032L82.2027 164.037L80.0567 171.853H78.214L75.6661 161.147H77.5695L79.2833 169.191L81.3913 161.147H82.999L85.0843 169.206Z" fill="white"/>
<path d="M95.9356 169.36H91.6588L90.764 171.853H88.7697L92.9403 161.147H94.6617L98.84 171.853H96.838L95.9356 169.36ZM92.1972 167.86H95.3973L93.7972 163.419L92.1972 167.86Z" fill="white"/>
<path d="M107.166 162.647H103.723V171.853H101.82V162.647H98.4077V161.147H107.166V162.647Z" fill="white"/>
<path d="M115.075 167.074H110.541V170.368H115.841V171.853H108.622V161.147H115.788V162.647H110.541V165.603H115.075V167.074Z" fill="white"/>
<path d="M121.46 167.728H119.322V171.853H117.403V161.147H121.286C122.56 161.147 123.543 161.424 124.236 161.978C124.928 162.532 125.275 163.333 125.275 164.382C125.275 165.098 125.095 165.699 124.736 166.184C124.382 166.664 123.887 167.034 123.25 167.294L125.729 171.757V171.853H123.674L121.46 167.728ZM119.322 166.235H121.293C121.94 166.235 122.446 166.078 122.81 165.765C123.174 165.446 123.356 165.012 123.356 164.463C123.356 163.89 123.187 163.446 122.848 163.132C122.514 162.819 122.014 162.657 121.346 162.647H119.322V166.235Z" fill="white"/>
<path d="M132.986 171.853H131.076V161.147H132.986V171.853Z" fill="white"/>
<path d="M144.103 171.853H142.185L137.263 164.257V171.853H135.345V161.147H137.263L142.2 168.772V161.147H144.103V171.853Z" fill="white"/>
<path d="M152.733 167.316H148.289V171.853H146.371V161.147H153.385V162.647H148.289V165.831H152.733V167.316Z" fill="white"/>
<path d="M163.721 166.779C163.721 167.828 163.534 168.75 163.159 169.544C162.785 170.333 162.249 170.941 161.552 171.368C160.859 171.789 160.061 172 159.156 172C158.261 172 157.462 171.789 156.759 171.368C156.062 170.941 155.521 170.336 155.137 169.551C154.757 168.767 154.565 167.863 154.56 166.838V166.235C154.56 165.191 154.75 164.27 155.129 163.471C155.513 162.672 156.052 162.061 156.744 161.64C157.442 161.213 158.241 161 159.14 161C160.04 161 160.837 161.211 161.529 161.632C162.227 162.049 162.765 162.652 163.144 163.441C163.523 164.225 163.716 165.14 163.721 166.184V166.779ZM161.802 166.221C161.802 165.034 161.57 164.125 161.104 163.493C160.644 162.86 159.99 162.544 159.14 162.544C158.311 162.544 157.662 162.86 157.192 163.493C156.727 164.12 156.489 165.01 156.479 166.162V166.779C156.479 167.956 156.714 168.865 157.184 169.507C157.659 170.15 158.316 170.471 159.156 170.471C160.005 170.471 160.657 170.157 161.112 169.529C161.572 168.902 161.802 167.985 161.802 166.779V166.221Z" fill="white"/>
<path d="M169.688 167.728H167.55V171.853H165.632V161.147H169.514C170.788 161.147 171.771 161.424 172.464 161.978C173.156 162.532 173.503 163.333 173.503 164.382C173.503 165.098 173.323 165.699 172.964 166.184C172.61 166.664 172.115 167.034 171.478 167.294L173.958 171.757V171.853H171.903L169.688 167.728ZM167.55 166.235H169.522C170.169 166.235 170.674 166.078 171.038 165.765C171.402 165.446 171.584 165.012 171.584 164.463C171.584 163.89 171.415 163.446 171.076 163.132C170.743 162.819 170.242 162.657 169.575 162.647H167.55V166.235Z" fill="white"/>
<path d="M177.81 161.147L180.995 169.353L184.172 161.147H186.652V171.853H184.741V168.324L184.93 163.603L181.67 171.853H180.297L177.044 163.61L177.234 168.324V171.853H175.323V161.147H177.81Z" fill="white"/>
<path d="M195.243 169.36H190.967L190.072 171.853H188.077L192.248 161.147H193.969L198.148 171.853H196.146L195.243 169.36ZM191.505 167.86H194.705L193.105 163.419L191.505 167.86Z" fill="white"/>
<path d="M206.474 162.647H203.031V171.853H201.128V162.647H197.715V161.147H206.474V162.647Z" fill="white"/>
<path d="M209.955 171.853H208.044V161.147H209.955V171.853Z" fill="white"/>
<path d="M221.124 166.779C221.124 167.828 220.937 168.75 220.563 169.544C220.189 170.333 219.653 170.941 218.956 171.368C218.263 171.789 217.464 172 216.559 172C215.665 172 214.866 171.789 214.163 171.368C213.465 170.941 212.925 170.336 212.54 169.551C212.161 168.767 211.969 167.863 211.964 166.838V166.235C211.964 165.191 212.154 164.27 212.533 163.471C212.917 162.672 213.455 162.061 214.148 161.64C214.846 161.213 215.644 161 216.544 161C217.444 161 218.24 161.211 218.933 161.632C219.63 162.049 220.169 162.652 220.548 163.441C220.927 164.225 221.119 165.14 221.124 166.184V166.779ZM219.206 166.221C219.206 165.034 218.973 164.125 218.508 163.493C218.048 162.86 217.393 162.544 216.544 162.544C215.715 162.544 215.065 162.86 214.595 163.493C214.13 164.12 213.893 165.01 213.883 166.162V166.779C213.883 167.956 214.118 168.865 214.588 169.507C215.063 170.15 215.72 170.471 216.559 170.471C217.409 170.471 218.061 170.157 218.516 169.529C218.976 168.902 219.206 167.985 219.206 166.779V166.221Z" fill="white"/>
<path d="M231.794 171.853H229.875L224.954 164.257V171.853H223.035V161.147H224.954L229.89 168.772V161.147H231.794V171.853Z" fill="white"/>
<path d="M243.699 169.096C243.699 168.625 243.527 168.262 243.183 168.007C242.845 167.752 242.231 167.495 241.341 167.235C240.451 166.975 239.743 166.686 239.218 166.368C238.212 165.755 237.708 164.956 237.708 163.971C237.708 163.108 238.07 162.397 238.793 161.838C239.521 161.279 240.464 161 241.621 161C242.39 161 243.075 161.137 243.676 161.412C244.278 161.686 244.751 162.078 245.094 162.588C245.438 163.093 245.61 163.654 245.61 164.272H243.699C243.699 163.713 243.517 163.277 243.153 162.963C242.794 162.645 242.279 162.485 241.606 162.485C240.979 162.485 240.491 162.615 240.143 162.875C239.799 163.135 239.627 163.498 239.627 163.963C239.627 164.355 239.814 164.684 240.188 164.949C240.562 165.208 241.179 165.463 242.038 165.713C242.898 165.958 243.588 166.24 244.109 166.559C244.629 166.873 245.011 167.235 245.254 167.647C245.496 168.054 245.618 168.532 245.618 169.081C245.618 169.973 245.264 170.684 244.556 171.213C243.853 171.738 242.898 172 241.69 172C240.891 172 240.155 171.858 239.483 171.574C238.816 171.284 238.295 170.887 237.921 170.382C237.552 169.877 237.367 169.289 237.367 168.618H239.286C239.286 169.225 239.493 169.696 239.908 170.029C240.322 170.363 240.916 170.529 241.69 170.529C242.357 170.529 242.857 170.4 243.191 170.14C243.53 169.875 243.699 169.527 243.699 169.096Z" fill="white"/>
<path d="M250.903 166.221L253.443 161.147H255.567L251.866 167.912V171.853H249.94V167.912L246.232 161.147H248.363L250.903 166.221Z" fill="white"/>
<path d="M262.414 169.096C262.414 168.625 262.242 168.262 261.898 168.007C261.56 167.752 260.946 167.495 260.056 167.235C259.166 166.975 258.458 166.686 257.933 166.368C256.926 165.755 256.423 164.956 256.423 163.971C256.423 163.108 256.785 162.397 257.508 161.838C258.236 161.279 259.179 161 260.336 161C261.105 161 261.79 161.137 262.391 161.412C262.993 161.686 263.466 162.078 263.809 162.588C264.153 163.093 264.325 163.654 264.325 164.272H262.414C262.414 163.713 262.232 163.277 261.868 162.963C261.509 162.645 260.994 162.485 260.321 162.485C259.694 162.485 259.206 162.615 258.858 162.875C258.514 163.135 258.342 163.498 258.342 163.963C258.342 164.355 258.529 164.684 258.903 164.949C259.277 165.208 259.894 165.463 260.753 165.713C261.613 165.958 262.303 166.24 262.824 166.559C263.344 166.873 263.726 167.235 263.969 167.647C264.211 168.054 264.333 168.532 264.333 169.081C264.333 169.973 263.979 170.684 263.271 171.213C262.568 171.738 261.613 172 260.405 172C259.606 172 258.87 171.858 258.198 171.574C257.531 171.284 257.01 170.887 256.636 170.382C256.267 169.877 256.082 169.289 256.082 168.618H258.001C258.001 169.225 258.208 169.696 258.623 170.029C259.037 170.363 259.631 170.529 260.405 170.529C261.072 170.529 261.572 170.4 261.906 170.14C262.245 169.875 262.414 169.527 262.414 169.096Z" fill="white"/>
<path d="M273.993 162.647H270.551V171.853H268.647V162.647H265.235V161.147H273.993V162.647Z" fill="white"/>
<path d="M281.903 167.074H277.368V170.368H282.668V171.853H275.449V161.147H282.615V162.647H277.368V165.603H281.903V167.074Z" fill="white"/>
<path d="M286.718 161.147L289.903 169.353L293.08 161.147H295.56V171.853H293.649V168.324L293.838 163.603L290.578 171.853H289.205L285.952 163.61L286.141 168.324V171.853H284.231V161.147H286.718Z" fill="white"/>
<path d="M308.064 167.316H303.62V171.853H301.702V161.147H308.716V162.647H303.62V165.831H308.064V167.316Z" fill="white"/>
<path d="M319.052 166.779C319.052 167.828 318.865 168.75 318.491 169.544C318.117 170.333 317.581 170.941 316.883 171.368C316.191 171.789 315.392 172 314.487 172C313.592 172 312.793 171.789 312.091 171.368C311.393 170.941 310.852 170.336 310.468 169.551C310.089 168.767 309.897 167.863 309.892 166.838V166.235C309.892 165.191 310.081 164.27 310.46 163.471C310.845 162.672 311.383 162.061 312.076 161.64C312.773 161.213 313.572 161 314.472 161C315.372 161 316.168 161.211 316.86 161.632C317.558 162.049 318.096 162.652 318.476 163.441C318.855 164.225 319.047 165.14 319.052 166.184V166.779ZM317.133 166.221C317.133 165.034 316.901 164.125 316.436 163.493C315.976 162.86 315.321 162.544 314.472 162.544C313.643 162.544 312.993 162.86 312.523 163.493C312.058 164.12 311.82 165.01 311.81 166.162V166.779C311.81 167.956 312.045 168.865 312.515 169.507C312.991 170.15 313.648 170.471 314.487 170.471C315.336 170.471 315.988 170.157 316.443 169.529C316.903 168.902 317.133 167.985 317.133 166.779V166.221Z" fill="white"/>
<path d="M325.02 167.728H322.881V171.853H320.963V161.147H324.845C326.119 161.147 327.103 161.424 327.795 161.978C328.488 162.532 328.834 163.333 328.834 164.382C328.834 165.098 328.655 165.699 328.296 166.184C327.942 166.664 327.446 167.034 326.809 167.294L329.289 171.757V171.853H327.234L325.02 167.728ZM322.881 166.235H324.853C325.5 166.235 326.006 166.078 326.37 165.765C326.734 165.446 326.916 165.012 326.916 164.463C326.916 163.89 326.746 163.446 326.408 163.132C326.074 162.819 325.573 162.657 324.906 162.647H322.881V166.235Z" fill="white"/>
<path d="M340.975 167.074H336.44V170.368H341.74V171.853H334.521V161.147H341.687V162.647H336.44V165.603H340.975V167.074Z" fill="white"/>
<path d="M351.379 161.147V168.301C351.379 169.439 351.002 170.341 350.249 171.007C349.5 171.669 348.502 172 347.253 172C345.99 172 344.986 171.674 344.243 171.022C343.5 170.365 343.128 169.456 343.128 168.294V161.147H345.039V168.309C345.039 169.025 345.226 169.571 345.6 169.949C345.974 170.326 346.525 170.515 347.253 170.515C348.73 170.515 349.468 169.76 349.468 168.25V161.147H351.379Z" fill="white"/>
<path d="M357.49 167.728H355.352V171.853H353.434V161.147H357.316C358.59 161.147 359.573 161.424 360.266 161.978C360.958 162.532 361.305 163.333 361.305 164.382C361.305 165.098 361.125 165.699 360.766 166.184C360.412 166.664 359.917 167.034 359.28 167.294L361.76 171.757V171.853H359.705L357.49 167.728ZM355.352 166.235H357.324C357.971 166.235 358.476 166.078 358.84 165.765C359.204 165.446 359.386 165.012 359.386 164.463C359.386 163.89 359.217 163.446 358.878 163.132C358.545 162.819 358.044 162.657 357.377 162.647H355.352V166.235Z" fill="white"/>
<path d="M371.936 166.779C371.936 167.828 371.749 168.75 371.375 169.544C371.001 170.333 370.465 170.941 369.767 171.368C369.075 171.789 368.276 172 367.371 172C366.476 172 365.678 171.789 364.975 171.368C364.277 170.941 363.736 170.336 363.352 169.551C362.973 168.767 362.781 167.863 362.776 166.838V166.235C362.776 165.191 362.965 164.27 363.345 163.471C363.729 162.672 364.267 162.061 364.96 161.64C365.657 161.213 366.456 161 367.356 161C368.256 161 369.052 161.211 369.745 161.632C370.442 162.049 370.981 162.652 371.36 163.441C371.739 164.225 371.931 165.14 371.936 166.184V166.779ZM370.018 166.221C370.018 165.034 369.785 164.125 369.32 163.493C368.86 162.86 368.205 162.544 367.356 162.544C366.527 162.544 365.877 162.86 365.407 163.493C364.942 164.12 364.704 165.01 364.694 166.162V166.779C364.694 167.956 364.929 168.865 365.4 169.507C365.875 170.15 366.532 170.471 367.371 170.471C368.221 170.471 368.873 170.157 369.328 169.529C369.788 168.902 370.018 167.985 370.018 166.779V166.221Z" fill="white"/>
<path d="M375.766 167.875V171.853H373.847V161.147H378.071C379.304 161.147 380.283 161.458 381.006 162.081C381.734 162.703 382.098 163.527 382.098 164.551C382.098 165.6 381.741 166.417 381.028 167C380.321 167.583 379.327 167.875 378.048 167.875H375.766ZM375.766 166.382H378.071C378.753 166.382 379.274 166.228 379.633 165.919C379.992 165.605 380.171 165.154 380.171 164.566C380.171 163.988 379.989 163.527 379.625 163.184C379.261 162.836 378.761 162.657 378.124 162.647H375.766V166.382Z" fill="white"/>
<path d="M390.234 167.074H385.699V170.368H391V171.853H383.781V161.147H390.947V162.647H385.699V165.603H390.234V167.074Z" fill="white"/>
</svg>
