<svg width="392" height="172" viewBox="0 0 392 172" fill="none" xmlns="http://www.w3.org/2000/svg">
<path d="M391.573 0.492188V25.7991H342.087V41.7028H382.098V66.0502H342.087V83.9689H391.573V110.139H309.08V0.492188H391.573Z" fill="white"/>
<path d="M190.15 110.139H156.495V0.492188H190.15V110.139Z" fill="white"/>
<path d="M88.3942 0.492188L104.658 63.7234L120.034 0.492188H145.796L116.7 110.139H88.4182L73.0901 49.6667L58.6016 110.139H29.1209L0 0.492188H31.6636L47.0156 63.6035L61.9599 0.492188H88.3942Z" fill="white"/>
<path d="M249.144 38.4335C261.951 41.1166 271.014 43.4724 276.399 45.5665C281.785 47.6607 286.25 51.1945 289.928 56.2334C293.54 61.2724 295.314 67.2275 295.314 74.0333C295.314 84.7656 290.979 93.5347 282.179 100.21C273.378 106.885 261.885 110.222 247.634 110.222C221.561 110.222 205.471 99.4244 199.363 77.7635L229.836 72.3319C232.398 80.9046 239.031 85.2237 249.604 85.2237C257.813 85.2237 261.951 83.0642 261.951 78.6796C261.951 76.3892 260.966 74.5569 259.061 73.3135C257.157 72.0047 253.742 70.8922 248.816 69.9106C230.033 66.3113 218.015 61.5996 212.695 55.8408C207.376 50.082 204.683 43.2761 204.683 35.4887C204.683 25.4108 208.558 17.0998 216.176 10.4248C223.86 3.74983 234.827 0.412354 249.21 0.412354C270.948 0.412354 285.331 9.18143 292.358 26.5887L265.169 34.7688C262.345 27.6358 256.631 24.1019 248.028 24.1019C240.87 24.1019 237.323 26.2615 237.323 30.7115C237.323 32.6747 238.111 34.1798 239.753 35.2923C241.329 36.4048 244.482 37.4519 249.144 38.4335Z" fill="white"/>
<path d="M29.12 155.734H40.778V141.125H53.5154V132.346H40.778V125.989H57.3534V116.682H29.12V155.734ZM94.5821 134.145C95.4936 132.418 95.9494 130.427 95.9494 128.172C95.9494 124.718 94.702 121.935 92.2073 119.824C89.7126 117.713 86.2344 116.658 81.7247 116.658H61.3353V155.71H73.3291V140.765H77.1191L82.8282 155.71H96.1173L89.0409 138.679C91.8235 137.383 93.6706 135.872 94.5821 134.145ZM82.0846 131.506C81.173 132.13 79.9497 132.442 78.4624 132.442H73.3531V124.982H78.8702C81.9406 124.982 83.4758 126.229 83.4758 128.724C83.4518 129.947 82.9961 130.859 82.0846 131.506ZM100.579 155.734H129.964V146.403H112.333V140.022H126.582V131.362H112.333V125.701H129.964V116.682H100.579V155.734ZM159.277 132.634C157.31 131.866 153.999 131.003 149.322 130.019C147.619 129.659 146.467 129.275 145.891 128.868C145.292 128.46 145.004 127.908 145.004 127.189C145.004 125.557 146.299 124.766 148.914 124.766C152.056 124.766 154.143 126.061 155.175 128.676L165.106 125.677C162.539 119.297 157.286 116.082 149.346 116.082C144.092 116.082 140.087 117.306 137.28 119.752C134.497 122.199 133.082 125.246 133.082 128.94C133.082 131.794 134.066 134.289 136.009 136.4C137.952 138.511 142.341 140.238 149.202 141.557C151.001 141.917 152.248 142.325 152.944 142.804C153.639 143.26 153.999 143.932 153.999 144.771C153.999 146.379 152.488 147.17 149.49 147.17C145.628 147.17 143.205 145.587 142.269 142.445L131.139 144.436C133.37 152.375 139.247 156.333 148.77 156.333C153.975 156.333 158.173 155.11 161.387 152.663C164.602 150.217 166.185 147.002 166.185 143.068C166.185 140.574 165.537 138.391 164.218 136.544C162.875 134.697 161.244 133.401 159.277 132.634ZM190.868 131.051H181.705V116.682H169.711V155.734H181.705V140.55H190.868V155.734H202.862V116.682H190.868V131.051ZM249.902 116.682L244.432 139.206L238.627 116.682H229.224L223.899 139.158L218.43 116.682H207.156L217.542 155.734H228.049L233.206 134.193L238.675 155.734H248.75L259.065 116.682H249.902ZM269.763 116.682L257.698 155.734H267.437L269.787 148.034H280.246L282.453 155.734H294.686L282.429 116.682H269.763ZM271.826 139.518L274.993 128.196L278.159 139.518H271.826ZM292.192 126.037H300.299V155.734H311.67V126.037H319.777V116.682H292.216V126.037H292.192ZM322.176 155.734H351.561V146.403H333.93V140.022H348.179V131.362H333.93V125.701H351.561V116.682H322.176V155.734ZM384.424 138.703C387.206 137.383 389.054 135.872 389.965 134.145C390.877 132.418 391.332 130.427 391.332 128.172C391.332 124.718 390.085 121.935 387.59 119.824C385.096 117.713 381.617 116.658 377.108 116.658H356.718V155.71H368.712V140.765H372.502L378.211 155.71H391.5L384.424 138.703ZM377.468 131.506C376.556 132.13 375.333 132.442 373.845 132.442H368.736V124.982H374.253C377.324 124.982 378.859 126.229 378.859 128.724C378.859 129.947 378.403 130.859 377.468 131.506Z" fill="white"/>
<path d="M35.3622 167.316H30.9185V171.853H29V161.147H36.0143V162.647H30.9185V165.831H35.3622V167.316Z" fill="white"/>
<path d="M41.5955 167.728H39.457V171.853H37.5385V161.147H41.421C42.695 161.147 43.6783 161.424 44.3709 161.978C45.0634 162.532 45.4097 163.333 45.4097 164.382C45.4097 165.098 45.2303 165.699 44.8713 166.184C44.5175 166.664 44.022 167.034 43.3851 167.294L45.8647 171.757V171.853H43.8097L41.5955 167.728ZM39.457 166.235H41.4286C42.0757 166.235 42.5813 166.078 42.9452 165.765C43.3092 165.446 43.4912 165.012 43.4912 164.463C43.4912 163.89 43.3219 163.446 42.9832 163.132C42.6495 162.819 42.149 162.657 41.4817 162.647H39.457V166.235Z" fill="white"/>
<path d="M53.6829 167.074H49.1482V170.368H54.4487V171.853H47.2297V161.147H54.3957V162.647H49.1482V165.603H53.6829V167.074Z" fill="white"/>
<path d="M61.7816 169.096C61.7816 168.625 61.6097 168.262 61.2659 168.007C60.9272 167.752 60.313 167.495 59.4232 167.235C58.5335 166.975 57.8257 166.686 57.3 166.368C56.294 165.755 55.7909 164.956 55.7909 163.971C55.7909 163.108 56.1524 162.397 56.8753 161.838C57.6033 161.279 58.5461 161 59.7038 161C60.4722 161 61.1572 161.137 61.7588 161.412C62.3604 161.686 62.8331 162.078 63.1768 162.588C63.5206 163.093 63.6925 163.654 63.6925 164.272H61.7816C61.7816 163.713 61.5996 163.277 61.2356 162.963C60.8766 162.645 60.361 162.485 59.6886 162.485C59.0618 162.485 58.5739 162.615 58.2251 162.875C57.8813 163.135 57.7095 163.498 57.7095 163.963C57.7095 164.355 57.8965 164.684 58.2706 164.949C58.6447 165.208 59.2615 165.463 60.1209 165.713C60.9803 165.958 61.6703 166.24 62.191 166.559C62.7117 166.873 63.0934 167.235 63.3361 167.647C63.5787 168.054 63.7001 168.532 63.7001 169.081C63.7001 169.973 63.3462 170.684 62.6384 171.213C61.9357 171.738 60.9803 172 59.772 172C58.9733 172 58.2377 171.858 57.5654 171.574C56.8981 171.284 56.3774 170.887 56.0033 170.382C55.6342 169.877 55.4497 169.289 55.4497 168.618H57.3682C57.3682 169.225 57.5755 169.696 57.99 170.029C58.4046 170.363 58.9986 170.529 59.772 170.529C60.4394 170.529 60.9398 170.4 61.2735 170.14C61.6122 169.875 61.7816 169.527 61.7816 169.096Z" fill="white"/>
<path d="M74.1495 171.853H72.2386V167.096H67.302V171.853H65.3835V161.147H67.302V165.603H72.2386V161.147H74.1495V171.853Z" fill="white"/>
<path d="M85.0843 169.206L86.7829 161.147H88.6862L86.1383 171.853H84.3032L82.2027 164.037L80.0567 171.853H78.214L75.6661 161.147H77.5695L79.2833 169.191L81.3913 161.147H82.999L85.0843 169.206Z" fill="white"/>
<path d="M95.9356 169.36H91.6588L90.764 171.853H88.7697L92.9403 161.147H94.6617L98.84 171.853H96.838L95.9356 169.36ZM92.1972 167.86H95.3973L93.7972 163.419L92.1972 167.86Z" fill="white"/>
<path d="M107.166 162.647H103.723V171.853H101.82V162.647H98.4077V161.147H107.166V162.647Z" fill="white"/>
<path d="M115.075 167.074H110.541V170.368H115.841V171.853H108.622V161.147H115.788V162.647H110.541V165.603H115.075V167.074Z" fill="white"/>
<path d="M121.46 167.728H119.322V171.853H117.403V161.147H121.286C122.56 161.147 123.543 161.424 124.236 161.978C124.928 162.532 125.275 163.333 125.275 164.382C125.275 165.098 125.095 165.699 124.736 166.184C124.382 166.664 123.887 167.034 123.25 167.294L125.729 171.757V171.853H123.674L121.46 167.728ZM119.322 166.235H121.293C121.94 166.235 122.446 166.078 122.81 165.765C123.174 165.446 123.356 165.012 123.356 164.463C123.356 163.89 123.187 163.446 122.848 163.132C122.514 162.819 122.014 162.657 121.346 162.647H119.322V166.235Z" fill="white"/>
<path d="M132.986 171.853H131.076V161.147H132.986V171.853Z" fill="white"/>
<path d="M144.103 171.853H142.185L137.263 164.257V171.853H135.345V161.147H137.263L142.2 168.772V161.147H144.103V171.853Z" fill="white"/>
<path d="M152.733 167.316H148.289V171.853H146.371V161.147H153.385V162.647H148.289V165.831H152.733V167.316Z" fill="white"/>
<path d="M163.721 166.779C163.721 167.828 163.534 168.75 163.159 169.544C162.785 170.333 162.249 170.941 161.552 171.368C160.859 171.789 160.061 172 159.156 172C158.261 172 157.462 171.789 156.759 171.368C156.062 170.941 155.521 170.336 155.137 169.551C154.757 168.767 154.565 167.863 154.56 166.838V166.235C154.56 165.191 154.75 164.27 155.129 163.471C155.513 162.672 156.052 162.061 156.744 161.64C157.442 161.213 158.241 161 159.14 161C160.04 161 160.837 161.211 161.529 161.632C162.227 162.049 162.765 162.652 163.144 163.441C163.523 164.225 163.716 165.14 163.721 166.184V166.779ZM161.802 166.221C161.802 165.034 161.57 164.125 161.104 163.493C160.644 162.86 159.99 162.544 159.14 162.544C158.311 162.544 157.662 162.86 157.192 163.493C156.727 164.12 156.489 165.01 156.479 166.162V166.779C156.479 167.956 156.714 168.865 157.184 169.507C157.659 170.15 158.316 170.471 159.156 170.471C160.005 170.471 160.657 170.157 161.112 169.529C161.572 168.902 161.802 167.985 161.802 166.779V166.221Z" fill="white"/>
<path d="M169.688 167.728H167.55V171.853H165.632V161.147H169.514C170.788 161.147 171.771 161.424 172.464 161.978C173.156 162.532 173.503 163.333 173.503 164.382C173.503 165.098 173.323 165.699 172.964 166.184C172.61 166.664 172.115 167.034 171.478 167.294L173.958 171.757V171.853H171.903L169.688 167.728ZM167.55 166.235H169.522C170.169 166.235 170.674 166.078 171.038 165.765C171.402 165.446 171.584 165.012 171.584 164.463C171.584 163.89 171.415 163.446 171.076 163.132C170.743 162.819 170.242 162.657 169.575 162.647H167.55V166.235Z" fill="white"/>
<path d="M177.81 161.147L180.995 169.353L184.172 161.147H186.652V171.853H184.741V168.324L184.93 163.603L181.67 171.853H180.297L177.044 163.61L177.234 168.324V171.853H175.323V161.147H177.81Z" fill="white"/>
<path d="M195.243 169.36H190.967L190.072 171.853H188.077L192.248 161.147H193.969L198.148 171.853H196.146L195.243 169.36ZM191.505 167.86H194.705L193.105 163.419L191.505 167.86Z" fill="white"/>
<path d="M206.474 162.647H203.031V171.853H201.128V162.647H197.715V161.147H206.474V162.647Z" fill="white"/>
<path d="M209.955 171.853H208.044V161.147H209.955V171.853Z" fill="white"/>
<path d="M221.124 166.779C221.124 167.828 220.937 168.75 220.563 169.544C220.189 170.333 219.653 170.941 218.956 171.368C218.263 171.789 217.464 172 216.559 172C215.665 172 214.866 171.789 214.163 171.368C213.465 170.941 212.925 170.336 212.54 169.551C212.161 168.767 211.969 167.863 211.964 166.838V166.235C211.964 165.191 212.154 164.27 212.533 163.471C212.917 162.672 213.455 162.061 214.148 161.64C214.846 161.213 215.644 161 216.544 161C217.444 161 218.24 161.211 218.933 161.632C219.63 162.049 220.169 162.652 220.548 163.441C220.927 164.225 221.119 165.14 221.124 166.184V166.779ZM219.206 166.221C219.206 165.034 218.973 164.125 218.508 163.493C218.048 162.86 217.393 162.544 216.544 162.544C215.715 162.544 215.065 162.86 214.595 163.493C214.13 164.12 213.893 165.01 213.883 166.162V166.779C213.883 167.956 214.118 168.865 214.588 169.507C215.063 170.15 215.72 170.471 216.559 170.471C217.409 170.471 218.061 170.157 218.516 169.529C218.976 168.902 219.206 167.985 219.206 166.779V166.221Z" fill="white"/>
<path d="M231.794 171.853H229.875L224.954 164.257V171.853H223.035V161.147H224.954L229.89 168.772V161.147H231.794V171.853Z" fill="white"/>
<path d="M243.699 169.096C243.699 168.625 243.527 168.262 243.183 168.007C242.845 167.752 242.231 167.495 241.341 167.235C240.451 166.975 239.743 166.686 239.218 166.368C238.212 165.755 237.708 164.956 237.708 163.971C237.708 163.108 238.07 162.397 238.793 161.838C239.521 161.279 240.464 161 241.621 161C242.39 161 243.075 161.137 243.676 161.412C244.278 161.686 244.751 162.078 245.094 162.588C245.438 163.093 245.61 163.654 245.61 164.272H243.699C243.699 163.713 243.517 163.277 243.153 162.963C242.794 162.645 242.279 162.485 241.606 162.485C240.979 162.485 240.491 162.615 240.143 162.875C239.799 163.135 239.627 163.498 239.627 163.963C239.627 164.355 239.814 164.684 240.188 164.949C240.562 165.208 241.179 165.463 242.038 165.713C242.898 165.958 243.588 166.24 244.109 166.559C244.629 166.873 245.011 167.235 245.254 167.647C245.496 168.054 245.618 168.532 245.618 169.081C245.618 169.973 245.264 170.684 244.556 171.213C243.853 171.738 242.898 172 241.69 172C240.891 172 240.155 171.858 239.483 171.574C238.816 171.284 238.295 170.887 237.921 170.382C237.552 169.877 237.367 169.289 237.367 168.618H239.286C239.286 169.225 239.493 169.696 239.908 170.029C240.322 170.363 240.916 170.529 241.69 170.529C242.357 170.529 242.857 170.4 243.191 170.14C243.53 169.875 243.699 169.527 243.699 169.096Z" fill="white"/>
<path d="M250.903 166.221L253.443 161.147H255.567L251.866 167.912V171.853H249.94V167.912L246.232 161.147H248.363L250.903 166.221Z" fill="white"/>
<path d="M262.414 169.096C262.414 168.625 262.242 168.262 261.898 168.007C261.56 167.752 260.946 167.495 260.056 167.235C259.166 166.975 258.458 166.686 257.933 166.368C256.926 165.755 256.423 164.956 256.423 163.971C256.423 163.108 256.785 162.397 257.508 161.838C258.236 161.279 259.179 161 260.336 161C261.105 161 261.79 161.137 262.391 161.412C262.993 161.686 263.466 162.078 263.809 162.588C264.153 163.093 264.325 163.654 264.325 164.272H262.414C262.414 163.713 262.232 163.277 261.868 162.963C261.509 162.645 260.994 162.485 260.321 162.485C259.694 162.485 259.206 162.615 258.858 162.875C258.514 163.135 258.342 163.498 258.342 163.963C258.342 164.355 258.529 164.684 258.903 164.949C259.277 165.208 259.894 165.463 260.753 165.713C261.613 165.958 262.303 166.24 262.824 166.559C263.344 166.873 263.726 167.235 263.969 167.647C264.211 168.054 264.333 168.532 264.333 169.081C264.333 169.973 263.979 170.684 263.271 171.213C262.568 171.738 261.613 172 260.405 172C259.606 172 258.87 171.858 258.198 171.574C257.531 171.284 257.01 170.887 256.636 170.382C256.267 169.877 256.082 169.289 256.082 168.618H258.001C258.001 169.225 258.208 169.696 258.623 170.029C259.037 170.363 259.631 170.529 260.405 170.529C261.072 170.529 261.572 170.4 261.906 170.14C262.245 169.875 262.414 169.527 262.414 169.096Z" fill="white"/>
<path d="M273.993 162.647H270.551V171.853H268.647V162.647H265.235V161.147H273.993V162.647Z" fill="white"/>
<path d="M281.903 167.074H277.368V170.368H282.668V171.853H275.449V161.147H282.615V162.647H277.368V165.603H281.903V167.074Z" fill="white"/>
<path d="M286.718 161.147L289.903 169.353L293.08 161.147H295.56V171.853H293.649V168.324L293.838 163.603L290.578 171.853H289.205L285.952 163.61L286.141 168.324V171.853H284.231V161.147H286.718Z" fill="white"/>
<path d="M308.064 167.316H303.62V171.853H301.702V161.147H308.716V162.647H303.62V165.831H308.064V167.316Z" fill="white"/>
<path d="M319.052 166.779C319.052 167.828 318.865 168.75 318.491 169.544C318.117 170.333 317.581 170.941 316.883 171.368C316.191 171.789 315.392 172 314.487 172C313.592 172 312.793 171.789 312.091 171.368C311.393 170.941 310.852 170.336 310.468 169.551C310.089 168.767 309.897 167.863 309.892 166.838V166.235C309.892 165.191 310.081 164.27 310.46 163.471C310.845 162.672 311.383 162.061 312.076 161.64C312.773 161.213 313.572 161 314.472 161C315.372 161 316.168 161.211 316.86 161.632C317.558 162.049 318.096 162.652 318.476 163.441C318.855 164.225 319.047 165.14 319.052 166.184V166.779ZM317.133 166.221C317.133 165.034 316.901 164.125 316.436 163.493C315.976 162.86 315.321 162.544 314.472 162.544C313.643 162.544 312.993 162.86 312.523 163.493C312.058 164.12 311.82 165.01 311.81 166.162V166.779C311.81 167.956 312.045 168.865 312.515 169.507C312.991 170.15 313.648 170.471 314.487 170.471C315.336 170.471 315.988 170.157 316.443 169.529C316.903 168.902 317.133 167.985 317.133 166.779V166.221Z" fill="white"/>
<path d="M325.02 167.728H322.881V171.853H320.963V161.147H324.845C326.119 161.147 327.103 161.424 327.795 161.978C328.488 162.532 328.834 163.333 328.834 164.382C328.834 165.098 328.655 165.699 328.296 166.184C327.942 166.664 327.446 167.034 326.809 167.294L329.289 171.757V171.853H327.234L325.02 167.728ZM322.881 166.235H324.853C325.5 166.235 326.006 166.078 326.37 165.765C326.734 165.446 326.916 165.012 326.916 164.463C326.916 163.89 326.746 163.446 326.408 163.132C326.074 162.819 325.573 162.657 324.906 162.647H322.881V166.235Z" fill="white"/>
<path d="M340.975 167.074H336.44V170.368H341.74V171.853H334.521V161.147H341.687V162.647H336.44V165.603H340.975V167.074Z" fill="white"/>
<path d="M351.379 161.147V168.301C351.379 169.439 351.002 170.341 350.249 171.007C349.5 171.669 348.502 172 347.253 172C345.99 172 344.986 171.674 344.243 171.022C343.5 170.365 343.128 169.456 343.128 168.294V161.147H345.039V168.309C345.039 169.025 345.226 169.571 345.6 169.949C345.974 170.326 346.525 170.515 347.253 170.515C348.73 170.515 349.468 169.76 349.468 168.25V161.147H351.379Z" fill="white"/>
<path d="M357.49 167.728H355.352V171.853H353.434V161.147H357.316C358.59 161.147 359.573 161.424 360.266 161.978C360.958 162.532 361.305 163.333 361.305 164.382C361.305 165.098 361.125 165.699 360.766 166.184C360.412 166.664 359.917 167.034 359.28 167.294L361.76 171.757V171.853H359.705L357.49 167.728ZM355.352 166.235H357.324C357.971 166.235 358.476 166.078 358.84 165.765C359.204 165.446 359.386 165.012 359.386 164.463C359.386 163.89 359.217 163.446 358.878 163.132C358.545 162.819 358.044 162.657 357.377 162.647H355.352V166.235Z" fill="white"/>
<path d="M371.936 166.779C371.936 167.828 371.749 168.75 371.375 169.544C371.001 170.333 370.465 170.941 369.767 171.368C369.075 171.789 368.276 172 367.371 172C366.476 172 365.678 171.789 364.975 171.368C364.277 170.941 363.736 170.336 363.352 169.551C362.973 168.767 362.781 167.863 362.776 166.838V166.235C362.776 165.191 362.965 164.27 363.345 163.471C363.729 162.672 364.267 162.061 364.96 161.64C365.657 161.213 366.456 161 367.356 161C368.256 161 369.052 161.211 369.745 161.632C370.442 162.049 370.981 162.652 371.36 163.441C371.739 164.225 371.931 165.14 371.936 166.184V166.779ZM370.018 166.221C370.018 165.034 369.785 164.125 369.32 163.493C368.86 162.86 368.205 162.544 367.356 162.544C366.527 162.544 365.877 162.86 365.407 163.493C364.942 164.12 364.704 165.01 364.694 166.162V166.779C364.694 167.956 364.929 168.865 365.4 169.507C365.875 170.15 366.532 170.471 367.371 170.471C368.221 170.471 368.873 170.157 369.328 169.529C369.788 168.902 370.018 167.985 370.018 166.779V166.221Z" fill="white"/>
<path d="M375.766 167.875V171.853H373.847V161.147H378.071C379.304 161.147 380.283 161.458 381.006 162.081C381.734 162.703 382.098 163.527 382.098 164.551C382.098 165.6 381.741 166.417 381.028 167C380.321 167.583 379.327 167.875 378.048 167.875H375.766ZM375.766 166.382H378.071C378.753 166.382 379.274 166.228 379.633 165.919C379.992 165.605 380.171 165.154 380.171 164.566C380.171 163.988 379.989 163.527 379.625 163.184C379.261 162.836 378.761 162.657 378.124 162.647H375.766V166.382Z" fill="white"/>
<path d="M390.234 167.074H385.699V170.368H391V171.853H383.781V161.147H390.947V162.647H385.699V165.603H390.234V167.074Z" fill="white"/>
</svg>
