<svg width="409" height="214" viewBox="0 0 409 214" fill="none" xmlns="http://www.w3.org/2000/svg">
<path d="M408.902 122.57V138.647H376.752V148.692H402.874V164.766H376.752V175.818H408.902V192.897H355.654V122.57H408.902Z" fill="white"/>
<path fill-rule="evenodd" clip-rule="evenodd" d="M132.94 192.897L137.246 179.03H156.402L160.444 192.897H182.85L160.4 122.57H137.202L110.514 192.897H132.94ZM140.981 163.695L146.78 143.305L149.68 153.5L152.579 163.695H140.981Z" fill="white"/>
<path d="M30.1401 192.897V122.57H57.574L67.4502 158.824L77.3264 122.57H104.486V192.897H86.1052V143.832L73.76 192.897H60.8661L48.7952 143.832V192.897H30.1401Z" fill="white"/>
<path d="M279.299 192.897H258.201V122.57H279.299V192.897Z" fill="white"/>
<path fill-rule="evenodd" clip-rule="evenodd" d="M248.752 154.062C250.393 150.951 251.214 147.366 251.214 143.305C251.214 137.085 248.968 132.074 244.475 128.272C239.982 124.471 233.719 122.57 225.597 122.57H188.879V192.897H209.977V165.771H217.303L227.584 192.897H251.516L238.773 162.226C243.784 159.894 247.11 157.172 248.752 154.062ZM226.244 149.31C224.603 150.433 222.4 150.701 219.721 150.701H214.849H209.976V137.64H220.456C225.985 137.64 228.75 139.806 228.75 144.299C228.706 146.502 227.886 148.144 226.244 149.31Z" fill="white"/>
<path d="M287.336 122.57V192.897H305.448V150.919L329.506 192.897H347.617V122.57H330.317V159.642L308.691 122.57H287.336Z" fill="white"/>
<path d="M408.902 0V26.1215H356.659V43.2009L398.855 43.1373V68.3178H356.659V87.4065H408.902V114.533H322.5V0H408.902Z" fill="white"/>
<path d="M260.894 39.6564C274.252 42.4549 283.704 44.9121 289.321 47.0963C294.938 49.2804 299.596 52.9663 303.432 58.2219C307.2 63.4776 309.049 69.6889 309.049 76.7874C309.049 87.9813 304.528 97.1276 295.349 104.09C286.17 111.052 274.183 114.533 259.319 114.533C232.125 114.533 215.342 103.271 208.972 80.678L240.756 75.0128C243.427 83.9542 250.345 88.4591 261.374 88.4591C269.936 88.4591 274.252 86.2067 274.252 81.6336C274.252 79.2446 273.224 77.3335 271.238 76.0366C269.251 74.6715 265.689 73.5112 260.552 72.4873C240.961 68.7333 228.426 63.8189 222.877 57.8124C217.329 51.8059 214.52 44.7074 214.52 36.5849C214.52 26.0736 218.562 17.4051 226.508 10.4431C234.522 3.48102 245.961 0 260.963 0C283.636 0 298.637 9.14624 305.967 27.3022L277.608 35.8341C274.663 28.3943 268.703 24.7085 259.73 24.7085C252.263 24.7085 248.564 26.9609 248.564 31.6023C248.564 33.6499 249.386 35.2198 251.099 36.3802C252.743 37.5405 256.031 38.6326 260.894 39.6564Z" fill="white"/>
<path d="M197.921 114.533H162.757V0H197.921V114.533Z" fill="white"/>
<path d="M92.3612 0L109.355 66.0486L125.421 0H152.34L121.937 114.533H92.3863L76.3703 51.3656L61.2316 114.533H30.1402L0 0H33.0846L49.1256 65.9233L64.7406 0H92.3612Z" fill="white"/>
<path d="M32.9287 200.187L36.6789 210.631L40.4201 200.187H43.3399V213.813H41.0898V209.321L41.313 203.313L37.4736 213.813H35.8574L32.0269 203.322L32.2501 209.321V213.813H30V200.187H32.9287Z" fill="white"/>
<path d="M53.4565 210.64H48.4205L47.3669 213.813H45.0186L49.9295 200.187H51.9564L56.8763 213.813H54.519L53.4565 210.64ZM49.0545 208.731H52.8225L50.9385 203.079L49.0545 208.731Z" fill="white"/>
<path d="M63.1355 208.563H60.6175V213.813H58.3585V200.187H62.9301C64.4302 200.187 65.588 200.54 66.4035 201.245C67.219 201.95 67.6268 202.97 67.6268 204.305C67.6268 205.216 67.4155 205.98 66.9928 206.598C66.5761 207.209 65.9928 207.68 65.2427 208.011L68.1625 213.691V213.813H65.7428L63.1355 208.563ZM60.6175 206.663H62.9391C63.701 206.663 64.2963 206.463 64.7248 206.064C65.1534 205.659 65.3677 205.107 65.3677 204.408C65.3677 203.678 65.1683 203.113 64.7695 202.714C64.3766 202.315 63.7873 202.109 63.0016 202.096H60.6175V206.663Z" fill="white"/>
<path d="M72.1538 213.813H69.9037V200.187H72.1538V213.813Z" fill="white"/>
<path d="M85.2437 213.813H82.9846L77.1897 204.146V213.813H74.9307V200.187H77.1897L83.0025 209.892V200.187H85.2437V213.813Z" fill="white"/>
<path d="M95.512 207.73H90.1725V211.922H96.4138V213.813H87.9134V200.187H96.3513V202.096H90.1725V205.858H95.512V207.73Z" fill="white"/>
<path d="M105.191 213.813H102.941V200.187H105.191V213.813Z" fill="white"/>
<path d="M118.281 213.813H116.022L110.227 204.146V213.813H107.968V200.187H110.227L116.04 209.892V200.187H118.281V213.813Z" fill="white"/>
<path d="M128.442 208.039H123.21V213.813H120.951V200.187H129.21V202.096H123.21V206.148H128.442V208.039Z" fill="white"/>
<path d="M141.38 207.356C141.38 208.691 141.16 209.864 140.719 210.874C140.279 211.879 139.648 212.652 138.827 213.195C138.011 213.732 137.071 214 136.005 214C134.951 214 134.011 213.732 133.183 213.195C132.362 212.652 131.725 211.882 131.273 210.884C130.826 209.885 130.6 208.734 130.594 207.43V206.663C130.594 205.334 130.817 204.161 131.264 203.144C131.716 202.127 132.35 201.351 133.166 200.814C133.987 200.271 134.928 200 135.987 200C137.047 200 137.984 200.268 138.8 200.805C139.621 201.335 140.255 202.102 140.702 203.107C141.148 204.105 141.374 205.269 141.38 206.598V207.356ZM139.121 206.644C139.121 205.135 138.847 203.977 138.3 203.172C137.758 202.368 136.987 201.965 135.987 201.965C135.011 201.965 134.246 202.368 133.692 203.172C133.145 203.971 132.865 205.103 132.853 206.57V207.356C132.853 208.853 133.13 210.01 133.683 210.828C134.243 211.645 135.017 212.053 136.005 212.053C137.005 212.053 137.773 211.654 138.309 210.856C138.85 210.057 139.121 208.89 139.121 207.356V206.644Z" fill="white"/>
<path d="M148.407 208.563H145.889V213.813H143.63V200.187H148.202C149.702 200.187 150.86 200.54 151.675 201.245C152.491 201.95 152.899 202.97 152.899 204.305C152.899 205.216 152.687 205.98 152.265 206.598C151.848 207.209 151.265 207.68 150.515 208.011L153.434 213.691V213.813H151.015L148.407 208.563ZM145.889 206.663H148.211C148.973 206.663 149.568 206.463 149.997 206.064C150.425 205.659 150.64 205.107 150.64 204.408C150.64 203.678 150.44 203.113 150.041 202.714C149.648 202.315 149.059 202.109 148.273 202.096H145.889V206.663Z" fill="white"/>
<path d="M157.97 200.187L161.72 210.631L165.462 200.187H168.382V213.813H166.131V209.321L166.355 203.313L162.515 213.813H160.899L157.068 203.322L157.292 209.321V213.813H155.042V200.187H157.97Z" fill="white"/>
<path d="M178.498 210.64H173.462L172.408 213.813H170.06L174.971 200.187H176.998L181.918 213.813H179.561L178.498 210.64ZM174.096 208.731H177.864L175.98 203.079L174.096 208.731Z" fill="white"/>
<path d="M191.722 202.096H187.668V213.813H185.427V202.096H181.409V200.187H191.722V202.096Z" fill="white"/>
<path d="M195.82 213.813H193.57V200.187H195.82V213.813Z" fill="white"/>
<path d="M208.973 207.356C208.973 208.691 208.752 209.864 208.312 210.874C207.871 211.879 207.24 212.652 206.419 213.195C205.604 213.732 204.663 214 203.597 214C202.544 214 201.603 213.732 200.776 213.195C199.954 212.652 199.317 211.882 198.865 210.884C198.419 209.885 198.192 208.734 198.186 207.43V206.663C198.186 205.334 198.41 204.161 198.856 203.144C199.309 202.127 199.943 201.351 200.758 200.814C201.58 200.271 202.52 200 203.58 200C204.639 200 205.577 200.268 206.392 200.805C207.214 201.335 207.848 202.102 208.294 203.107C208.741 204.105 208.967 205.269 208.973 206.598V207.356ZM206.714 206.644C206.714 205.135 206.44 203.977 205.892 203.172C205.351 202.368 204.58 201.965 203.58 201.965C202.603 201.965 201.838 202.368 201.285 203.172C200.737 203.971 200.457 205.103 200.446 206.57V207.356C200.446 208.853 200.722 210.01 201.276 210.828C201.835 211.645 202.609 212.053 203.597 212.053C204.598 212.053 205.365 211.654 205.901 210.856C206.443 210.057 206.714 208.89 206.714 207.356V206.644Z" fill="white"/>
<path d="M221.536 213.813H219.277L213.482 204.146V213.813H211.223V200.187H213.482L219.295 209.892V200.187H221.536V213.813Z" fill="white"/>
<path d="M235.554 210.303C235.554 209.705 235.352 209.243 234.947 208.918C234.548 208.594 233.825 208.266 232.777 207.936C231.73 207.605 230.896 207.237 230.277 206.832C229.093 206.052 228.5 205.035 228.5 203.781C228.5 202.683 228.926 201.778 229.777 201.067C230.634 200.356 231.745 200 233.108 200C234.013 200 234.819 200.175 235.528 200.524C236.236 200.873 236.792 201.373 237.197 202.021C237.602 202.664 237.804 203.378 237.804 204.164H235.554C235.554 203.453 235.34 202.898 234.911 202.499C234.489 202.093 233.882 201.89 233.09 201.89C232.352 201.89 231.777 202.056 231.367 202.386C230.962 202.717 230.759 203.179 230.759 203.771C230.759 204.27 230.98 204.689 231.42 205.025C231.861 205.356 232.587 205.68 233.599 205.999C234.611 206.311 235.423 206.669 236.036 207.075C236.65 207.474 237.099 207.936 237.385 208.46C237.67 208.978 237.813 209.586 237.813 210.285C237.813 211.42 237.397 212.325 236.563 212.999C235.736 213.666 234.611 214 233.188 214C232.248 214 231.382 213.819 230.59 213.457C229.804 213.089 229.191 212.584 228.75 211.941C228.316 211.299 228.099 210.55 228.099 209.695H230.358C230.358 210.469 230.602 211.068 231.09 211.492C231.578 211.916 232.277 212.128 233.188 212.128C233.974 212.128 234.563 211.963 234.956 211.632C235.355 211.295 235.554 210.852 235.554 210.303Z" fill="white"/>
<path d="M244.037 206.644L247.028 200.187H249.528L245.171 208.797V213.813H242.903V208.797L238.537 200.187H241.046L244.037 206.644Z" fill="white"/>
<path d="M257.591 210.303C257.591 209.705 257.389 209.243 256.984 208.918C256.585 208.594 255.862 208.266 254.814 207.936C253.766 207.605 252.933 207.237 252.314 206.832C251.129 206.052 250.537 205.035 250.537 203.781C250.537 202.683 250.963 201.778 251.814 201.067C252.671 200.356 253.781 200 255.145 200C256.049 200 256.856 200.175 257.564 200.524C258.273 200.873 258.829 201.373 259.234 202.021C259.639 202.664 259.841 203.378 259.841 204.164H257.591C257.591 203.453 257.377 202.898 256.948 202.499C256.526 202.093 255.918 201.89 255.127 201.89C254.389 201.89 253.814 202.056 253.403 202.386C252.999 202.717 252.796 203.179 252.796 203.771C252.796 204.27 253.016 204.689 253.457 205.025C253.897 205.356 254.624 205.68 255.636 205.999C256.648 206.311 257.46 206.669 258.073 207.075C258.686 207.474 259.136 207.936 259.422 208.46C259.707 208.978 259.85 209.586 259.85 210.285C259.85 211.42 259.433 212.325 258.6 212.999C257.773 213.666 256.648 214 255.225 214C254.284 214 253.418 213.819 252.627 213.457C251.841 213.089 251.228 212.584 250.787 211.941C250.353 211.299 250.135 210.55 250.135 209.695H252.394C252.394 210.469 252.638 211.068 253.127 211.492C253.615 211.916 254.314 212.128 255.225 212.128C256.011 212.128 256.6 211.963 256.993 211.632C257.392 211.295 257.591 210.852 257.591 210.303Z" fill="white"/>
<path d="M271.226 202.096H267.172V213.813H264.931V202.096H260.913V200.187H271.226V202.096Z" fill="white"/>
<path d="M280.539 207.73H275.199V211.922H281.44V213.813H272.94V200.187H281.378V202.096H275.199V205.858H280.539V207.73Z" fill="white"/>
<path d="M286.208 200.187L289.959 210.631L293.7 200.187H296.62V213.813H294.37V209.321L294.593 203.313L290.753 213.813H289.137L285.307 203.322L285.53 209.321V213.813H283.28V200.187H286.208Z" fill="white"/>
<path d="M311.344 208.039H306.111V213.813H303.852V200.187H312.111V202.096H306.111V206.148H311.344V208.039Z" fill="white"/>
<path d="M324.282 207.356C324.282 208.691 324.061 209.864 323.621 210.874C323.18 211.879 322.549 212.652 321.728 213.195C320.913 213.732 319.972 214 318.906 214C317.853 214 316.912 213.732 316.085 213.195C315.263 212.652 314.626 211.882 314.174 210.884C313.728 209.885 313.501 208.734 313.495 207.43V206.663C313.495 205.334 313.719 204.161 314.165 203.144C314.618 202.127 315.252 201.351 316.067 200.814C316.889 200.271 317.829 200 318.889 200C319.948 200 320.886 200.268 321.701 200.805C322.523 201.335 323.157 202.102 323.603 203.107C324.05 204.105 324.276 205.269 324.282 206.598V207.356ZM322.023 206.644C322.023 205.135 321.749 203.977 321.201 203.172C320.66 202.368 319.889 201.965 318.889 201.965C317.912 201.965 317.147 202.368 316.594 203.172C316.046 203.971 315.766 205.103 315.755 206.57V207.356C315.755 208.853 316.031 210.01 316.585 210.828C317.144 211.645 317.918 212.053 318.906 212.053C319.907 212.053 320.674 211.654 321.21 210.856C321.752 210.057 322.023 208.89 322.023 207.356V206.644Z" fill="white"/>
<path d="M331.309 208.563H328.791V213.813H326.532V200.187H331.103C332.604 200.187 333.761 200.54 334.577 201.245C335.392 201.95 335.8 202.97 335.8 204.305C335.8 205.216 335.589 205.98 335.166 206.598C334.749 207.209 334.166 207.68 333.416 208.011L336.336 213.691V213.813H333.916L331.309 208.563ZM328.791 206.663H331.112C331.874 206.663 332.47 206.463 332.898 206.064C333.327 205.659 333.541 205.107 333.541 204.408C333.541 203.678 333.342 203.113 332.943 202.714C332.55 202.315 331.961 202.109 331.175 202.096H328.791V206.663Z" fill="white"/>
<path d="M350.095 207.73H344.756V211.922H350.997V213.813H342.497V200.187H350.935V202.096H344.756V205.858H350.095V207.73Z" fill="white"/>
<path d="M362.346 200.187V209.293C362.346 210.74 361.903 211.888 361.016 212.737C360.135 213.579 358.959 214 357.489 214C356 214 354.819 213.585 353.944 212.755C353.069 211.919 352.631 210.762 352.631 209.283V200.187H354.881V209.302C354.881 210.213 355.102 210.909 355.542 211.389C355.983 211.869 356.631 212.11 357.489 212.11C359.227 212.11 360.096 211.149 360.096 209.227V200.187H362.346Z" fill="white"/>
<path d="M369.543 208.563H367.025V213.813H364.766V200.187H369.337C370.837 200.187 371.995 200.54 372.811 201.245C373.626 201.95 374.034 202.97 374.034 204.305C374.034 205.216 373.823 205.98 373.4 206.598C372.983 207.209 372.4 207.68 371.65 208.011L374.57 213.691V213.813H372.15L369.543 208.563ZM367.025 206.663H369.346C370.108 206.663 370.704 206.463 371.132 206.064C371.561 205.659 371.775 205.107 371.775 204.408C371.775 203.678 371.576 203.113 371.177 202.714C370.784 202.315 370.195 202.109 369.409 202.096H367.025V206.663Z" fill="white"/>
<path d="M386.553 207.356C386.553 208.691 386.332 209.864 385.892 210.874C385.451 211.879 384.82 212.652 383.999 213.195C383.183 213.732 382.243 214 381.177 214C380.124 214 379.183 213.732 378.356 213.195C377.534 212.652 376.897 211.882 376.445 210.884C375.998 209.885 375.772 208.734 375.766 207.43V206.663C375.766 205.334 375.99 204.161 376.436 203.144C376.888 202.127 377.522 201.351 378.338 200.814C379.159 200.271 380.1 200 381.159 200C382.219 200 383.157 200.268 383.972 200.805C384.793 201.335 385.427 202.102 385.874 203.107C386.32 204.105 386.547 205.269 386.553 206.598V207.356ZM384.293 206.644C384.293 205.135 384.02 203.977 383.472 203.172C382.93 202.368 382.159 201.965 381.159 201.965C380.183 201.965 379.418 202.368 378.865 203.172C378.317 203.971 378.037 205.103 378.025 206.57V207.356C378.025 208.853 378.302 210.01 378.856 210.828C379.415 211.645 380.189 212.053 381.177 212.053C382.177 212.053 382.945 211.654 383.481 210.856C384.023 210.057 384.293 208.89 384.293 207.356V206.644Z" fill="white"/>
<path d="M391.062 208.75V213.813H388.803V200.187H393.776C395.229 200.187 396.38 200.583 397.232 201.376C398.089 202.168 398.517 203.216 398.517 204.52C398.517 205.855 398.098 206.894 397.258 207.636C396.425 208.379 395.255 208.75 393.749 208.75H391.062ZM391.062 206.85H393.776C394.58 206.85 395.193 206.654 395.615 206.261C396.038 205.861 396.249 205.287 396.249 204.539C396.249 203.803 396.035 203.216 395.607 202.779C395.178 202.336 394.589 202.109 393.839 202.096H391.062V206.85Z" fill="white"/>
<path d="M408.098 207.73H402.759V211.922H409V213.813H400.5V200.187H408.937V202.096H402.759V205.858H408.098V207.73Z" fill="white"/>
</svg>
