<svg width="409" height="214" viewBox="0 0 409 214" fill="none" xmlns="http://www.w3.org/2000/svg">
<path d="M408.902 122.57V138.647H376.752V148.692H402.874V164.766H376.752V175.818H408.902V192.897H355.654V122.57H408.902Z" fill="white"/>
<path fill-rule="evenodd" clip-rule="evenodd" d="M132.94 192.897L137.246 179.03H156.402L160.444 192.897H182.851L160.4 122.57H137.202L110.514 192.897H132.94ZM140.981 163.695L146.78 143.305L149.68 153.5L152.58 163.695H140.981Z" fill="white"/>
<path d="M30.1402 192.897V122.57H57.5741L67.4503 158.824L77.3265 122.57H104.486V192.897H86.1053V143.832L73.7601 192.897H60.8661L48.7952 143.832V192.897H30.1402Z" fill="white"/>
<path d="M279.299 192.897H258.201V122.57H279.299V192.897Z" fill="white"/>
<path fill-rule="evenodd" clip-rule="evenodd" d="M248.752 154.062C250.393 150.951 251.214 147.366 251.214 143.305C251.214 137.085 248.968 132.074 244.475 128.272C239.982 124.471 233.719 122.57 225.597 122.57H188.879V192.897H209.977V165.771H217.303L227.584 192.897H251.516L238.773 162.226C243.784 159.894 247.11 157.172 248.752 154.062ZM226.244 149.31C224.603 150.433 222.4 150.701 219.721 150.701H214.849H209.976V137.64H220.456C225.985 137.64 228.75 139.806 228.75 144.299C228.706 146.502 227.886 148.144 226.244 149.31Z" fill="white"/>
<path d="M287.337 122.57V192.897H305.448V150.919L329.506 192.897H347.617V122.57H330.317V159.642L308.691 122.57H287.337Z" fill="white"/>
<path fill-rule="evenodd" clip-rule="evenodd" d="M155.528 179.031C155.586 178.687 155.751 178.391 156.137 178.16C156.631 177.865 156.807 178.058 157.046 178.32L157.074 178.35C159.392 180.881 162.574 180.856 163.588 180.848H163.588L163.589 180.848C163.639 180.847 163.684 180.847 163.723 180.847C164.085 180.847 164.237 181.167 164.407 181.528C164.627 181.993 164.879 182.527 165.658 182.527C166.764 182.527 166.672 180.66 166.488 179.727C167.517 179.032 167.801 178.445 168.001 178.033C168.123 177.781 168.213 177.594 168.423 177.488C168.622 177.387 168.893 177.504 169.184 177.63C169.701 177.853 170.281 178.103 170.635 177.208C171.188 175.808 169.529 175.248 168.423 174.968C167.765 174.802 167.205 174.041 166.685 173.334L166.685 173.334C166.33 172.852 165.994 172.396 165.658 172.169C164.829 171.609 164 170.769 165.382 170.769C166.764 170.769 168.699 169.65 166.488 169.09C164.276 168.53 162.341 169.09 161.235 169.65C160.649 169.946 160.529 169.928 160.257 169.888C160.016 169.852 159.656 169.798 158.747 169.929C157.697 170.081 157.054 170.316 156.553 170.498L156.553 170.498C156.13 170.652 155.809 170.769 155.43 170.769C155.067 170.769 154.863 170.663 154.634 170.542C154.337 170.387 153.997 170.209 153.218 170.209C151.685 170.209 149.9 171.049 150.73 172.169C151.04 172.589 151.856 172.904 152.642 173.208C153.183 173.417 153.709 173.62 154.047 173.849C154.877 174.408 154.664 175.58 153.771 176.648C153.377 177.115 152.855 178.051 152.921 179.031H155.528Z" fill="#B2BFC5"/>
<path fill-rule="evenodd" clip-rule="evenodd" d="M141.236 162.796L140.981 163.695H141.017C140.852 163.935 140.582 163.996 140.152 163.762C138.678 162.958 137.589 160.686 137.229 159.65C137.006 158.04 137.845 156.458 138.467 155.693C139.799 154.044 140.115 152.236 138.879 151.372C138.376 151.019 137.591 150.705 136.785 150.383C135.614 149.914 134.399 149.427 133.935 148.779C132.7 147.051 135.36 145.755 137.643 145.755C138.804 145.755 139.311 146.029 139.753 146.268C140.096 146.454 140.4 146.619 140.939 146.619C141.505 146.619 141.984 146.438 142.613 146.2L142.613 146.2C143.36 145.919 144.318 145.557 145.883 145.322C146.001 145.305 146.113 145.289 146.22 145.276L142.658 157.798C142.484 157.789 142.273 157.854 141.994 158.027C141.32 158.444 141.098 159.001 141.055 159.65C141.019 159.83 141.065 160.26 141.12 160.782C141.188 161.414 141.269 162.181 141.236 162.796ZM152.145 162.167C152.532 162.18 152.856 162.177 153.097 162.175H153.097H153.097C153.173 162.174 153.24 162.174 153.299 162.174C153.838 162.174 154.064 162.668 154.318 163.224C154.646 163.943 155.022 164.766 156.183 164.766C157.83 164.766 157.693 161.886 157.418 160.445C158.953 159.373 159.376 158.467 159.673 157.83C159.855 157.441 159.99 157.153 160.302 156.989C160.599 156.833 161.003 157.014 161.436 157.208C162.206 157.552 163.071 157.939 163.598 156.557C164.422 154.396 161.95 153.532 160.302 153.1C159.322 152.843 158.488 151.669 157.712 150.577L157.712 150.577C157.184 149.834 156.683 149.129 156.183 148.779C154.947 147.915 153.711 146.619 155.771 146.619C157.83 146.619 160.714 144.89 157.418 144.026C154.123 143.162 151.239 144.026 149.591 144.89C148.717 145.349 148.538 145.321 148.133 145.258C147.943 145.229 147.703 145.191 147.317 145.193L149.68 153.5L152.145 162.167Z" fill="#B2BFC5"/>
<path fill-rule="evenodd" clip-rule="evenodd" d="M54.6542 167.647L54.1852 165.741C54.3148 165.648 54.4793 165.575 54.6773 165.527C55.2571 165.388 55.6871 165.826 56.1528 166.3L56.1529 166.3C56.6186 166.774 57.1203 167.285 57.8434 167.291C59.2897 167.305 59.0083 166.434 57.8591 165.556C57.6839 165.422 57.5086 165.295 57.3385 165.171C56.3925 164.485 55.6038 163.913 55.8578 162.934C56.1575 161.78 57.6012 162.082 58.1745 162.666C58.7478 163.25 59.0423 162.674 59.342 161.519C59.6417 160.365 60.5173 159.505 61.3824 159.802C62.2476 160.099 62.5185 162.127 62.2162 163.57C62.0147 164.533 62.3366 164.471 63.0879 164.328C63.4636 164.257 63.9465 164.165 64.525 164.17C66.2606 164.186 66.5444 164.767 66.5419 165.056C66.5385 165.465 65.8133 165.592 64.8038 165.329C63.6494 165.03 61.9034 166.171 61.0252 167.32C60.147 168.469 62.7529 168.204 63.9125 167.925C65.0722 167.646 65.3484 169.095 63.6128 169.079C61.8773 169.064 60.1365 169.626 59.5476 170.778C58.9586 171.93 62.1456 171.38 62.7268 171.096C63.3079 170.812 65.0432 170.828 64.4571 171.69C64.1306 172.171 62.6728 172.478 61.0549 172.819C60.2553 172.987 59.4167 173.164 58.6561 173.374C57.9364 173.572 57.1888 174.171 56.4539 174.963L55.6028 171.503C56.0068 171.575 56.3591 171.486 56.3657 170.749C56.3762 169.592 56.384 168.725 54.9456 167.844C54.8408 167.78 54.7437 167.714 54.6542 167.647ZM57.3812 178.732C57.8845 178.513 58.465 178.413 58.9351 178.386C59.9763 178.326 61.4563 177.517 61.1464 176.329C60.8366 175.142 59.1499 175.159 58.6078 175.512C58.2449 175.748 57.3498 176.123 56.7357 176.108L57.3812 178.732Z" fill="#B2BFC5"/>
<path fill-rule="evenodd" clip-rule="evenodd" d="M39.1962 192.897L48.7954 192.897V189.967C47.8662 190.947 46.7325 191.789 45.5333 191.964C42.543 192.401 43.2331 189.778 44.6132 188.466C44.6776 188.405 44.7418 188.344 44.8057 188.283L44.8065 188.282C46.1124 187.045 47.2751 185.944 46.4533 184.967C45.5333 183.874 44.1533 184.53 43.6931 185.405C42.9441 186.828 41.853 186.061 42.543 184.967C42.708 184.706 42.9125 184.432 43.1218 184.152C43.7879 183.259 44.5034 182.301 44.1533 181.469C43.6931 180.376 42.313 180.813 41.8531 181.032C41.393 181.251 40.0129 181.688 40.933 179.72C41.8531 177.752 40.9329 176.878 40.4729 176.659C40.0129 176.44 38.6327 176.44 37.9427 177.315C37.2526 178.19 36.6662 176.998 37.2526 176.44C37.9427 175.785 38.1725 174.91 37.7126 174.691C37.2526 174.473 36.4546 174.729 36.1024 175.566C35.6424 176.659 34.4923 176.878 34.0322 175.347C33.5722 173.817 32.1921 173.38 31.272 174.254C30.812 174.691 30.3519 175.566 31.042 176.44C31.633 177.19 31.7179 177.778 30.1403 177.794V180.946C30.4007 180.916 30.6996 180.872 31.042 180.813C33.0662 180.463 32.9031 181.469 32.6522 182.344C32.4221 183.145 32.4221 184.53 33.5722 185.186C34.0077 185.434 34.5506 185.365 35.036 185.303C35.4833 185.246 35.8818 185.195 36.1024 185.405C36.4324 185.718 36.1538 186.173 35.8906 186.603C35.505 187.233 35.1521 187.81 36.7925 187.81C37.1505 187.81 37.5009 187.806 37.8379 187.803L37.838 187.803C40.0992 187.779 41.7633 187.761 41.1629 188.903C40.8843 189.433 40.2683 189.713 39.663 189.988C38.769 190.395 37.8983 190.791 38.1726 191.964C38.2628 192.35 38.6403 192.656 39.1962 192.897Z" fill="#B2BFC5"/>
<path fill-rule="evenodd" clip-rule="evenodd" d="M86.1057 153.622C86.5929 153.03 86.7566 152.746 86.9336 152.257C87.1521 151.647 87.3544 150.435 87.3561 149.713C87.3578 148.967 87.1746 148.13 86.7603 147.004L86.7111 146.87L86.7106 146.868C86.6494 146.702 86.5844 146.524 86.5516 146.432C86.4414 146.132 86.2888 145.648 86.244 145.453C86.1258 144.931 86.2097 144.051 86.4545 143.276C86.5252 143.05 86.6132 142.812 86.7178 142.561C87.2196 143.492 87.4789 144.12 87.6966 144.891C87.8962 145.597 87.9878 146.167 88.0359 146.998C88.1027 148.171 88.0153 149.128 87.7727 149.874C87.7148 150.061 87.5812 150.402 87.477 150.632C87.2429 151.154 87.1637 151.442 87.1575 151.781C87.1427 152.558 87.2731 153.281 87.5221 153.816C87.7015 154.198 87.9129 154.486 88.3565 154.942C88.5664 155.156 88.7007 155.247 88.777 155.225C88.8353 155.209 88.8922 155.111 88.8963 155.018C88.904 154.815 88.8409 154.707 88.4921 154.332C88.0971 153.909 87.9453 153.687 87.8098 153.33C87.6964 153.028 87.6179 152.421 87.6341 151.963C87.6427 151.702 87.6917 151.545 87.9267 151.026C88.2302 150.351 88.4127 149.676 88.4895 148.894C88.5334 148.936 88.6003 148.934 88.639 148.88C88.6849 148.815 88.6968 148.727 88.7155 148.281C88.7244 148.083 88.7708 147.681 88.8406 147.188C88.9006 146.759 88.9594 146.314 88.9685 146.195C89.0428 145.309 88.9246 144.511 88.6247 143.893C88.3946 143.414 88.3352 143.23 88.2927 142.862C88.226 142.287 88.2694 141.845 88.4326 141.449C88.4719 141.492 88.5136 141.537 88.5582 141.583C88.8793 141.921 89.1672 142.272 89.3062 142.495C89.5661 142.909 89.6759 143.382 89.6612 144.036C89.653 144.406 89.6109 144.595 89.4263 145.093C89.1851 145.737 89.1416 146.542 89.2977 147.418C89.3177 147.535 89.4177 147.973 89.5172 148.394C89.6325 148.879 89.716 149.274 89.7433 149.471C89.8033 149.913 89.8234 150 89.8751 150.06C89.9297 150.123 90.021 150.1 90.0496 150.017C90.0749 149.946 90.0414 149.574 89.98 149.234C89.96 149.117 89.8618 148.685 89.7641 148.27C89.6653 147.859 89.566 147.4 89.5411 147.25C89.4236 146.498 89.4746 145.921 89.7179 145.242C89.7188 145.401 89.7225 145.574 89.7285 145.769C89.7769 147.44 90.0489 148.567 90.6686 149.661C90.9509 150.156 91.0142 150.307 91.047 150.567C91.1055 151.021 91.0839 151.633 90.9989 151.944C90.8972 152.312 90.7666 152.547 90.4126 153.005C90.1001 153.411 90.0473 153.524 90.0738 153.726C90.0865 153.818 90.1523 153.91 90.2119 153.921C90.2899 153.935 90.4151 153.832 90.6043 153.6C91.0036 153.104 91.1874 152.798 91.3306 152.401C91.3797 152.263 91.4205 152.115 91.4528 151.957C91.5792 152.456 91.7387 152.948 91.8867 153.264C92.147 153.817 92.3629 154.09 93.1554 154.86C93.7723 155.462 93.7897 155.477 93.8741 155.454C93.9705 155.426 94.0071 155.372 94.0126 155.237C94.0239 154.986 93.8979 154.824 93.1328 154.097C92.771 153.753 92.676 153.647 92.5248 153.434C92.2568 153.054 92.0438 152.515 91.8695 151.767C91.7063 151.075 91.6721 150.785 91.6869 150.307C91.7 149.939 91.7298 149.699 91.8238 149.234L91.8257 149.224C91.8538 149.083 91.8717 148.993 91.8915 148.903C91.9265 148.745 91.9675 148.589 92.0807 148.157L92.1019 148.076C92.4307 146.829 92.4771 146.478 92.4029 145.832C92.3079 145.035 92.102 144.368 91.6863 143.518C91.4483 143.034 91.2626 142.72 90.7558 141.954C90.8928 141.575 91.0651 141.158 91.2887 140.656C91.2988 140.699 91.3099 140.742 91.3219 140.785C91.45 141.239 91.6322 141.561 92.0179 141.997C91.891 142.588 91.9092 143.164 92.0751 143.496C92.3443 144.039 92.4441 144.384 92.518 145.031C92.6296 146.014 92.5436 147.021 92.2955 147.618C92.181 147.894 92.1784 148 92.2869 148.033C92.3453 148.051 92.3702 148.042 92.4182 147.978C92.5871 147.752 92.7615 147.095 92.8113 146.491C92.8253 146.321 92.8347 146.115 92.8393 145.907C92.8919 146.003 92.9597 146.119 93.0501 146.272C93.6333 147.262 93.8373 148.076 93.6394 148.642C93.6021 148.748 93.54 148.882 93.4973 148.938C93.4107 149.061 93.3729 149.181 93.3961 149.263C93.4045 149.293 93.4246 149.323 93.4493 149.349C93.3608 149.607 93.3011 149.864 93.2519 150.167C93.1432 150.86 93.188 151.308 93.4219 151.881C93.4998 152.069 93.6179 152.384 93.6838 152.579C93.7496 152.774 93.8405 153.041 93.8869 153.169C94.0104 153.535 94.1314 153.628 94.2743 153.474C94.3776 153.363 94.4117 153.19 94.3679 153.002C94.3202 152.8 93.9874 151.842 93.8418 151.492C93.6895 151.121 93.6363 150.788 93.6701 150.397C93.7119 149.929 93.9034 149.351 94.1836 148.856C94.5294 148.247 94.5397 148.226 94.5784 148.016C94.6514 147.62 94.6216 147.195 94.4989 146.859C94.41 146.616 94.263 146.365 94.0094 146.025C93.4613 145.291 93.3397 144.972 93.4119 144.466C93.4653 144.094 93.5896 143.772 93.8412 143.36C94.5142 144.261 94.8697 144.93 94.9636 145.459C94.9816 145.557 94.9948 145.675 95.006 145.861C94.9993 146.059 95.0073 146.252 95.0293 146.438C95.0316 146.516 95.0339 146.6 95.0363 146.692C95.0524 147.317 95.0425 147.497 94.9572 148.001C94.8553 148.615 94.7449 149.545 94.7307 149.887C94.7068 150.608 94.8951 151.113 95.5698 152.135C95.7935 152.474 96.0095 152.862 96.1223 153.123C96.2489 153.417 96.3789 153.878 96.4316 154.21C96.4932 154.605 96.5331 154.723 96.6326 154.814C96.7796 154.943 96.9182 154.842 96.9293 154.597C96.9384 154.384 96.867 153.985 96.7405 153.537C96.5498 152.862 96.4083 152.569 95.8426 151.68C95.4236 151.019 95.3256 150.825 95.253 150.522C95.2129 150.35 95.1987 150.238 95.2048 150.083C95.2148 149.811 95.3334 148.841 95.4277 148.277C95.4597 148.084 95.4896 147.865 95.5047 147.729C95.5327 147.766 95.5619 147.802 95.5921 147.837C95.7221 147.984 95.817 148.021 95.89 147.948C95.9988 147.842 95.9683 147.696 95.793 147.507C95.6851 147.391 95.591 147.243 95.5138 147.073C95.5045 146.548 95.479 145.844 95.4569 145.647C95.4392 145.49 95.4068 145.329 95.3599 145.162C95.3855 145.031 95.4143 144.916 95.4421 144.84C95.4675 144.772 95.6199 144.463 95.7811 144.153C96.036 143.662 96.1602 143.382 96.2383 143.097C96.2752 143.326 96.2698 143.558 96.2271 143.928C96.1408 144.674 96.1404 145.379 96.2294 145.847C96.2801 146.119 96.3187 146.217 96.5229 146.602C96.6595 146.863 96.7047 146.969 96.7927 147.258C96.9733 147.832 97.019 148.269 97.0118 149.409C96.9798 149.503 96.9478 149.612 96.9283 149.696C96.8228 150.153 96.891 150.485 97.1819 150.922C97.3509 151.18 97.3958 151.281 97.4449 151.51C97.4957 151.753 97.6111 151.817 97.7485 151.683C97.8261 151.607 97.8364 151.586 97.8697 151.405C97.8991 151.234 97.8992 151.187 97.8577 151.01C97.8193 150.85 97.7717 150.751 97.6276 150.531C97.4069 150.197 97.3634 150.099 97.3617 149.936C97.3606 149.792 97.3712 149.757 97.5991 149.166C98.1248 147.801 98.2506 146.451 97.9713 145.157C97.8608 144.64 97.718 144.194 97.4218 143.406C97.152 142.694 97.0761 142.403 97.0862 142.118C97.0891 142.054 97.1 141.976 97.1254 141.858C97.243 142.339 97.51 142.87 98.5189 144.707C99.5109 146.514 99.7443 147.34 99.5282 148.279C99.4662 148.559 99.4271 148.658 99.1648 149.219C98.8714 149.847 98.762 150.358 98.7345 151.22C98.7254 151.495 98.7312 151.892 98.7451 152.103C98.7677 152.444 98.7826 152.535 98.8714 152.887C99.0398 153.545 99.239 153.958 99.5912 154.383C99.6993 154.513 99.859 154.709 99.9498 154.823C100.201 155.144 100.309 155.236 100.406 155.208C100.589 155.157 100.565 154.843 100.356 154.535C100.298 154.452 100.146 154.26 100.017 154.11C99.6712 153.707 99.5635 153.533 99.416 153.149C99.3117 152.872 99.2267 152.464 99.2088 152.132C99.1856 151.719 99.2211 150.947 99.2787 150.621C99.3452 150.234 99.4178 150.023 99.654 149.531C100.018 148.767 100.136 148.158 100.06 147.421C100.037 147.209 100.007 147.071 99.8982 146.687C99.6809 145.917 99.4484 145.425 98.3765 143.474C97.8397 142.495 97.7133 142.224 97.6017 141.837C97.5311 141.595 97.5029 141.456 97.4953 141.322C97.4696 140.918 97.5098 140.532 97.6395 140.019C97.7071 139.79 97.7671 139.582 97.8203 139.394L97.9365 139.022L98.0731 139.014C99.3866 138.146 100.001 136.443 98.9561 133.463C97.9112 130.484 93.7553 127.925 88.5761 128.166C82.4939 128.449 80.4234 131.278 79.0074 133.566C77.9517 135.271 78.2158 137.849 78.9388 138.7L78.9983 138.667C79.1183 138.6 79.1984 138.555 79.2511 138.528C79.2747 138.543 79.3005 138.558 79.3286 138.575C79.2783 138.782 79.2566 139.207 79.2829 139.488C79.3351 140.049 79.4936 140.568 80.0394 141.944C79.9502 142.201 79.8096 142.541 79.5628 143.111C78.6767 145.153 78.4909 145.666 78.3459 146.452C78.2734 146.845 78.2561 146.985 78.253 147.198C78.2457 147.939 78.4203 148.534 78.8532 149.261C79.134 149.729 79.226 149.932 79.3281 150.311C79.4156 150.63 79.5227 151.396 79.5379 151.809C79.5509 152.141 79.5042 152.556 79.426 152.841C79.3148 153.237 79.2237 153.42 78.9167 153.853C78.8019 154.016 78.6685 154.221 78.6184 154.308C78.4393 154.635 78.445 154.949 78.6318 154.984C78.7304 155.002 78.8298 154.9 79.05 154.558C79.1298 154.436 79.2706 154.225 79.3662 154.086C79.6774 153.631 79.8374 153.2 79.944 152.53C79.9997 152.171 80.0061 152.079 79.9969 151.737C79.9912 151.526 79.9602 151.131 79.9256 150.858C79.8182 150.002 79.6618 149.503 79.3114 148.905C78.9981 148.371 78.9499 148.276 78.8622 148.003C78.5598 147.088 78.7155 146.243 79.5355 144.352C79.8818 143.554 80.1217 142.992 80.2889 142.572C80.7053 143.625 80.8103 143.924 80.8366 144.112C80.8731 144.395 80.8245 144.691 80.6221 145.426C80.4002 146.237 80.2995 146.695 80.2374 147.22C80.0795 148.534 80.3301 149.866 80.9803 151.177C81.262 151.744 81.2759 151.778 81.288 151.921C81.3016 152.084 81.2674 152.186 81.0786 152.539C80.9555 152.771 80.9173 152.874 80.894 153.037C80.8691 153.217 80.8735 153.264 80.9187 153.431C80.9686 153.608 80.9809 153.628 81.0652 153.697C81.2144 153.818 81.3234 153.743 81.3514 153.496C81.379 153.264 81.4143 153.159 81.5586 152.886C81.8077 152.424 81.8448 152.087 81.6973 151.642C81.6547 151.514 81.5763 151.329 81.5228 151.232C80.9224 150.128 80.6427 149.076 80.6712 148.033C80.6888 147.382 80.7745 146.894 81.0304 145.957C81.286 145.027 81.3485 144.672 81.3221 144.295C81.2987 143.921 81.2191 143.684 80.5238 141.936C80.6244 141.625 80.6613 141.42 80.6809 141.192C80.7458 140.437 80.6288 139.759 80.2825 138.909L80.106 138.474L80.3081 138.368C80.3279 138.356 80.3525 138.342 80.3805 138.326C80.4821 138.352 80.5896 138.377 80.7032 138.401C80.9152 138.499 81.1318 138.583 81.3258 138.642C81.5929 138.72 81.5958 138.722 81.6301 138.828C81.6491 138.888 81.7108 139.037 81.7674 139.161C81.8699 139.386 82.0486 139.973 82.1349 140.344C82.072 140.506 81.9964 140.685 81.9033 140.894C81.3394 142.156 81.2748 142.587 81.4931 143.59C81.5168 143.7 81.5383 143.813 81.5574 143.928C81.5629 144.136 81.5891 144.343 81.6362 144.551C81.662 144.852 81.6673 145.128 81.6474 145.331C81.6328 145.469 81.607 145.551 81.494 145.83C81.42 146.012 81.3263 146.278 81.2858 146.418C81.1441 146.921 81.088 147.594 81.1354 148.269C81.1717 148.809 81.3104 150.094 81.3397 150.142C81.3741 150.209 81.4492 150.216 81.5001 150.159C81.5789 150.077 81.577 149.88 81.4952 149.115C81.3594 147.814 81.3567 147.357 81.491 146.732C81.5519 146.437 81.587 146.326 81.6989 146.054C81.8549 145.679 81.891 145.566 81.9157 145.33C82.011 145.516 82.1392 145.728 82.325 146.017C82.5143 146.311 82.6946 146.604 82.7263 146.67C82.7426 146.704 82.76 146.747 82.7778 146.796C82.786 146.882 82.7935 146.949 82.7999 146.99C82.8169 147.093 82.8811 147.378 82.9448 147.62C82.9621 147.685 82.9802 147.756 82.9988 147.831C83.0314 148.426 82.8926 149.01 82.6245 149.358C82.4675 149.562 82.4507 149.71 82.5689 149.806C82.6483 149.872 82.7394 149.826 82.8551 149.667C83.0293 149.426 83.1518 149.129 83.2208 148.798C83.2768 149.063 83.32 149.287 83.3344 149.397C83.3549 149.551 83.3511 149.664 83.3272 149.839C83.2831 150.148 83.2034 150.349 82.8476 151.047C82.3669 151.984 82.2533 152.29 82.1261 152.979C82.0417 153.437 82.0076 153.841 82.0365 154.052C82.0702 154.295 82.2176 154.382 82.352 154.241C82.4426 154.141 82.4714 154.019 82.4961 153.621C82.5177 153.285 82.6044 152.814 82.7031 152.509C82.7912 152.239 82.9702 151.832 83.1615 151.475C83.6716 150.52 83.8406 150.003 83.8102 149.4C83.8251 149.519 83.8488 149.637 83.8812 149.752C83.9391 149.956 83.9514 149.977 84.3523 150.551C84.3677 150.574 84.383 150.596 84.3981 150.619L84.5557 149.992C84.3207 149.644 84.2813 149.55 84.2697 149.346C84.2491 149.034 84.3437 148.748 84.6264 148.278C84.7221 148.434 84.8345 148.565 84.8933 148.575C84.8993 148.577 84.9056 148.577 84.9122 148.576L85.0052 148.206C84.9846 148.171 84.9588 148.135 84.9282 148.099C84.8994 148.067 84.861 148.009 84.8248 147.945C84.9996 147.64 85.0729 147.468 85.1447 147.229C85.2981 146.713 85.2641 146.199 85.0318 145.611C85.0616 145.543 85.093 145.474 85.126 145.403C85.3805 144.864 85.4198 144.754 85.4644 144.466C85.5246 144.071 85.4875 143.881 85.2331 143.257C85.0416 142.785 84.9847 142.588 85.0019 142.377C85.3774 142.958 85.5571 143.35 85.6793 143.847C85.7354 144.079 85.7656 144.23 85.7625 144.381C85.7575 144.43 85.753 144.479 85.7491 144.528C85.7249 144.681 85.6678 144.858 85.5712 145.13C85.4668 145.429 85.3685 146.056 85.3515 146.541C85.3493 146.608 85.3514 146.7 85.357 146.808L86.1057 143.832V146.746C86.1456 146.858 86.1894 146.979 86.2375 147.111L86.2662 147.19C86.419 147.609 86.4744 147.761 86.5238 147.915C86.5519 148.002 86.5781 148.091 86.6192 148.229L86.6219 148.238C86.7588 148.693 86.8107 148.929 86.858 149.294C86.917 149.768 86.9099 150.06 86.8117 150.765C86.7076 151.526 86.5455 152.082 86.314 152.486C86.2457 152.604 86.19 152.691 86.1057 152.801V153.622ZM86.1057 149.567C86.1228 149.57 86.1409 149.565 86.1643 149.556C86.2692 149.513 86.2568 149.407 86.1172 149.144C86.1134 149.136 86.1096 149.129 86.1057 149.122V149.567ZM82.6484 139.582C82.7251 139.227 82.7508 138.926 82.7248 138.666C82.8943 138.678 83.0704 138.689 83.2536 138.698C83.2083 138.959 83.1541 139.315 83.1218 139.578C82.9584 140.919 82.9974 142.053 83.2402 143.07C83.1527 143.242 83.0788 143.4 83.0235 143.533C82.7978 144.078 82.6802 144.566 82.6716 145.004C82.6685 145.164 82.6939 145.652 82.7246 146.11C82.6665 146.017 82.5966 145.908 82.511 145.777C82.1558 145.234 82.0399 145.008 81.9443 144.677C81.9366 144.651 81.9294 144.625 81.9226 144.599C81.9079 144.375 81.8802 144.133 81.8406 143.881C81.8409 143.863 81.8415 143.844 81.8422 143.825C81.8571 143.402 81.9191 143.183 82.2503 142.344C82.4868 141.753 82.5372 141.432 82.4817 140.852C82.469 140.714 82.4439 140.553 82.4096 140.382C82.5186 140.088 82.5898 139.845 82.6484 139.582ZM83.5784 142.448C83.4277 141.362 83.4955 140.097 83.7759 138.72C83.857 138.723 83.9394 138.725 84.023 138.727C84.2377 139.059 84.3509 139.289 84.4197 139.519C84.4395 139.587 84.4565 139.658 84.4707 139.732C84.3293 140.27 84.3015 140.736 84.385 141.147L84.3781 141.161C84.3398 141.23 84.2287 141.406 84.1345 141.549C83.9426 141.837 83.751 142.148 83.5784 142.448ZM84.7469 138.873C84.7277 138.826 84.7089 138.781 84.6894 138.738L84.8223 138.739L84.7855 138.826C84.7755 138.849 84.7657 138.873 84.7561 138.896L84.7469 138.873ZM85.0604 139.03C85.1097 138.912 85.1471 138.814 85.1721 138.739C85.4143 138.738 85.6652 138.735 85.9249 138.73C85.7419 139.1 85.6564 139.409 85.6415 139.721C85.6262 140.019 85.6509 140.252 85.7318 140.56C85.6805 140.639 85.6235 140.719 85.5607 140.802C85.1965 141.284 85.0188 141.529 84.9167 141.73C84.8446 141.615 84.8033 141.542 84.7724 141.474C84.8092 141.408 84.8344 141.352 84.8536 141.295C84.8856 141.199 84.9009 141.097 84.9262 140.93L84.9262 140.93L84.9278 140.919C85.0131 140.366 85.0078 139.87 84.911 139.413C84.956 139.288 85.0059 139.16 85.0604 139.03ZM86.3852 139.11C86.4477 138.996 86.5258 138.867 86.6251 138.711C86.8892 138.702 87.1617 138.691 87.4429 138.678L87.4875 138.676C87.5226 138.847 87.5433 139.002 87.5522 139.154C87.5636 139.323 87.5546 139.418 87.4969 139.73L87.43 140.104L87.0184 140.875C86.8796 141.134 86.769 141.344 86.6766 141.526C86.3245 140.907 86.2012 140.644 86.1511 140.396C86.2385 140.201 86.2957 140.005 86.3373 139.779C86.377 139.56 86.3932 139.338 86.3852 139.11ZM88.4157 138.637C88.4328 138.637 88.4499 138.636 88.4669 138.635C88.8687 138.62 89.25 138.608 89.612 138.599C89.6196 138.81 89.5945 138.945 89.5106 139.182C89.4122 139.45 89.2773 139.675 89.0134 140.013C88.7387 140.362 88.5286 140.664 88.3791 140.922C88.2626 140.773 88.1792 140.637 88.1069 140.485C88.001 140.256 87.9636 140.124 87.9517 139.913C87.9507 139.894 87.9501 139.875 87.9499 139.855C87.9792 139.709 87.9991 139.565 88.0095 139.421C88.0368 139.32 88.0737 139.213 88.1209 139.099C88.1825 138.948 88.2398 138.782 88.2494 138.732C88.2633 138.643 88.2653 138.642 88.4157 138.637ZM90.165 139.24C90.2186 138.979 90.2607 138.764 90.2919 138.584C90.6978 138.577 91.0771 138.574 91.4318 138.573L91.3798 138.764C91.2917 139.082 91.2374 139.381 91.2165 139.664C91.1615 139.795 91.0947 139.946 91.0135 140.125C90.7709 140.664 90.586 141.094 90.4392 141.475L90.2641 141.21L90.1627 140.844C90.0763 140.538 90.0585 140.444 90.0542 140.275C90.0441 139.978 90.0773 139.666 90.165 139.24ZM91.9231 138.645C92.1564 138.688 92.3644 138.667 92.547 138.58C92.6666 138.582 92.7828 138.584 92.8957 138.587C92.971 138.833 93.0138 139.052 93.0195 139.23C92.9275 139.418 92.8749 139.557 92.8213 139.735C92.7654 139.923 92.7267 140.115 92.7052 140.313L92.6358 140.445C92.3769 140.931 92.2243 141.276 92.1112 141.643C91.7017 141.172 91.5231 140.756 91.4907 140.206C91.7349 139.658 91.8094 139.435 91.8675 139.12C91.9004 138.942 91.9187 138.791 91.9231 138.645ZM93.2511 138.793C93.2402 138.728 93.2269 138.662 93.2114 138.595L93.3582 138.599L93.2801 138.741L93.2511 138.793ZM93.6761 139.252C93.8111 139.008 93.9598 138.731 94.0079 138.623L94.0466 138.625C94.2003 139.492 94.2462 140.303 94.1803 141.036C94.1304 141.592 93.9992 142.085 93.7948 142.487C93.7564 142.438 93.7179 142.39 93.6795 142.342C93.5724 142.209 93.4455 142.044 93.4009 141.979C93.1904 141.663 93.1003 140.899 93.207 140.348C93.2655 140.056 93.3917 139.758 93.6761 139.252ZM95.4156 138.843C95.4962 138.814 95.5745 138.771 95.6472 138.719C96.2456 138.756 96.6115 138.768 96.9302 138.694C97.0393 138.748 97.136 138.794 97.194 138.82L97.405 138.907L97.2697 139.357C97.1476 139.76 97.0703 140.123 97.0354 140.47C96.6537 141.784 96.6096 142.012 96.6197 142.346C96.6285 142.724 96.7237 143.071 97.0646 143.974C97.4063 144.883 97.5369 145.36 97.6149 146.007C97.719 146.869 97.6116 147.755 97.2878 148.693C97.2668 148.038 97.15 147.399 96.9679 146.926C96.9146 146.791 96.7967 146.535 96.706 146.36C96.5676 146.092 96.5344 146.013 96.507 145.878C96.428 145.468 96.4251 144.743 96.4991 144.13C96.5812 143.456 96.5634 143.043 96.3459 142.492C96.3791 142.116 96.3462 141.75 96.247 141.374C96.1755 141.094 96.0848 140.884 95.7857 140.296C95.4841 139.703 95.401 139.397 95.4156 138.843ZM80.2231 141.17C80.2387 141.057 80.2435 140.971 80.2404 140.887C80.2246 140.351 80.097 139.858 79.7716 139.078L79.7674 139.068C79.7359 139.274 79.7398 139.463 79.7742 139.707C79.8254 140.064 79.9104 140.359 80.2231 141.17ZM82.4367 138.71C82.2403 138.757 82.0573 138.776 81.9221 138.756C81.8884 138.752 81.8928 138.768 81.9633 138.925C82.0804 139.185 82.198 139.535 82.2924 139.886C82.3267 139.769 82.3556 139.654 82.3815 139.533C82.4414 139.254 82.4587 139.137 82.4579 138.981C82.458 138.884 82.4507 138.793 82.4367 138.71ZM82.2133 140.871C82.1842 140.94 82.1532 141.012 82.1203 141.087C81.8336 141.744 81.7441 141.988 81.6912 142.274C81.6473 142.512 81.6396 142.705 81.6745 142.969C81.7278 142.783 81.8123 142.555 81.9623 142.177C82.1803 141.627 82.2474 141.319 82.2133 140.871ZM83.438 143.752C83.2643 144.149 83.1691 144.484 83.1453 144.771C83.1276 144.971 83.1363 145.246 83.1874 146.005C83.2293 146.629 83.2559 146.808 83.3877 147.302C83.5462 147.904 83.7424 148.82 83.7882 149.158L83.7932 149.199C83.7842 148.986 83.804 148.777 83.8528 148.592C83.9188 148.342 84.0419 148.079 84.2629 147.717C84.3022 147.652 84.3389 147.591 84.3731 147.532C84.3431 147.282 84.3578 147.008 84.4157 146.688C84.4673 146.408 84.5374 146.144 84.6394 145.858C84.5315 145.553 84.3598 145.267 84.077 144.909C83.7872 144.54 83.5965 144.203 83.438 143.752ZM84.8792 145.27C84.7361 144.981 84.5363 144.667 84.3748 144.481C84.0879 144.148 83.8666 143.702 83.7226 143.174C83.9182 142.812 84.1655 142.407 84.4681 141.95L84.4873 141.921C84.5308 141.855 84.5693 141.797 84.6034 141.745C84.6529 141.835 84.7149 141.937 84.7958 142.063C84.7877 142.095 84.78 142.13 84.7721 142.166C84.7128 142.442 84.7104 142.455 84.7418 142.71C84.7703 142.935 84.8053 143.045 84.9812 143.484C85.2172 144.057 85.2456 144.203 85.1921 144.493C85.1648 144.641 85.124 144.747 84.9843 145.044C84.9472 145.122 84.9122 145.197 84.8792 145.27ZM84.6414 147.008C84.6559 146.813 84.6944 146.602 84.7566 146.376C84.7715 146.578 84.7382 146.771 84.6414 147.008ZM85.895 143.598C85.9738 143.264 86.0829 142.918 86.2282 142.535C86.2955 142.358 86.3584 142.203 86.4303 142.041C86.4043 141.995 86.3777 141.948 86.3506 141.9C86.0718 141.413 85.9371 141.157 85.8472 140.924C85.7837 141.016 85.7127 141.112 85.6331 141.215C85.3288 141.61 85.1781 141.827 85.0966 142.008L85.1124 142.032C85.4355 142.523 85.6232 142.865 85.7747 143.248C85.8207 143.364 85.8609 143.481 85.895 143.598ZM86.9574 142.026C87.5912 143.173 87.8453 143.782 88.1245 144.77C88.3686 145.634 88.4391 146.06 88.5014 147.064C88.5115 147.22 88.5191 147.372 88.5243 147.52C88.5425 147.383 88.5628 147.234 88.5833 147.087C88.6435 146.668 88.6998 146.202 88.7107 146.051C88.7591 145.27 88.6475 144.69 88.3223 144.014C88.2314 143.827 88.1334 143.576 88.1017 143.46C88.0296 143.183 87.9807 142.758 87.9868 142.426C87.9929 142.071 88.0862 141.565 88.1933 141.295C88.2042 141.268 88.216 141.24 88.2288 141.212C88.0373 140.972 87.9214 140.763 87.8123 140.486C87.8041 140.465 87.7963 140.444 87.7889 140.423C87.7221 140.589 87.6277 140.767 87.4618 141.06C87.2731 141.395 87.1045 141.718 86.9574 142.026ZM88.5782 141.157C88.6099 141.192 88.6435 141.229 88.6791 141.266C89.1454 141.758 89.4519 142.151 89.6146 142.466C89.7259 142.685 89.8429 143.072 89.9002 143.4C89.9946 142.895 90.0931 142.484 90.2367 142.042C89.96 141.639 89.8826 141.487 89.7667 141.146C89.6064 140.672 89.5492 140.225 89.5917 139.691C89.4909 139.88 89.3573 140.072 89.1632 140.317C88.9261 140.619 88.7121 140.927 88.5782 141.157ZM90.5664 142.528C90.4672 142.862 90.3923 143.183 90.3281 143.531C90.195 144.252 90.1567 144.828 90.1859 145.66C90.2283 146.834 90.4042 147.779 90.715 148.5C90.79 148.68 90.9547 149.007 91.0798 149.227C91.1491 149.349 91.2078 149.459 91.2574 149.559C91.313 149.107 91.4165 148.601 91.5715 148.018L91.608 147.88C91.6536 147.708 91.7021 147.524 91.7262 147.429C91.8081 147.12 91.9151 146.624 91.9415 146.425C92.0108 145.895 91.8455 145.026 91.5299 144.278C91.3109 143.755 90.9853 143.165 90.5664 142.528ZM92.6933 140.943C92.5158 141.299 92.4018 141.588 92.3254 141.88C92.9023 142.515 92.9853 142.646 93.102 143.016C93.1866 143.285 93.1902 143.298 93.1827 143.555C93.1819 143.577 93.1811 143.598 93.1799 143.618C93.2732 143.38 93.3981 143.128 93.5159 142.937C93.4732 142.883 93.4294 142.829 93.3846 142.773L93.3624 142.745C93.1044 142.425 93.003 142.299 92.9399 142.156C92.8991 142.064 92.8744 141.964 92.8337 141.8L92.8311 141.789C92.7569 141.494 92.7111 141.213 92.6933 140.943ZM94.1155 142.907C94.4726 143.391 94.7929 143.88 94.9699 144.215C95.0599 144.385 95.1379 144.551 95.2037 144.712C95.2694 144.52 95.3671 144.323 95.5736 143.932C95.8769 143.358 95.9713 143.122 96.0358 142.784C96.0522 142.698 96.0644 142.616 96.0725 142.534C95.99 142.339 95.8644 142.098 95.6422 141.696C95.2872 141.054 95.1165 140.68 94.9766 140.246C94.8118 139.724 94.7736 139.313 94.8606 138.968L94.8982 138.825L94.7389 138.768C94.6953 138.752 94.6261 138.721 94.551 138.684C94.703 139.689 94.7113 140.584 94.5793 141.416C94.4774 142.053 94.3475 142.479 94.1155 142.907ZM95.1463 139.132C95.1059 139.265 95.0921 139.437 95.1104 139.63C95.1242 139.786 95.1522 139.901 95.2378 140.173C95.3656 140.579 95.5217 140.916 95.8402 141.483C95.9175 141.621 95.9874 141.748 96.0503 141.867C95.9955 141.484 95.9026 141.255 95.5144 140.489C95.2424 139.958 95.1551 139.649 95.1463 139.132ZM92.9301 144.642C92.8322 145.002 92.8348 145.142 92.8997 145.372C92.9407 145.517 92.9911 145.618 93.1579 145.901C93.5293 146.525 93.7324 146.975 93.8767 147.486C93.9492 147.746 93.9891 147.977 93.9968 148.193C94.1378 147.924 94.1603 147.827 94.1538 147.648C94.1451 147.327 94.017 147.043 93.6681 146.576C93.3177 146.104 93.2058 145.917 93.0861 145.622C92.9598 145.308 92.9075 144.987 92.9301 144.642ZM92.2484 142.249C92.2454 142.267 92.2425 142.286 92.2398 142.304C92.1617 142.843 92.1781 142.949 92.4666 143.572C92.5425 143.738 92.6266 144.013 92.696 144.308C92.7107 144.257 92.7268 144.203 92.7442 144.146C92.9198 143.561 92.9404 143.389 92.8627 143.121C92.7914 142.884 92.6686 142.705 92.2484 142.249Z" fill="#B2BFC5"/>
<path fill-rule="evenodd" clip-rule="evenodd" d="M258.201 151.045C260.132 151.665 261.491 152.408 262.504 152.961C263.233 153.359 263.782 153.659 264.236 153.745C265.079 153.905 266.753 153.451 268.038 153.103C268.786 152.9 269.402 152.733 269.649 152.742C270.32 152.768 270.528 153.18 269.14 154.337C269.002 154.452 268.876 154.555 268.762 154.649C267.716 155.506 267.59 155.609 268.152 156.722C268.777 157.957 269.393 159.393 268.075 158.737C267.582 158.492 267.033 158.075 266.469 157.647C265.524 156.929 264.536 156.179 263.696 156.147C263.276 156.13 262.739 156.346 262.042 156.626C261.093 157.007 259.847 157.508 258.201 157.703V151.045Z" fill="#B2BFC5"/>
<path fill-rule="evenodd" clip-rule="evenodd" d="M262.483 136.212C263.175 137.794 271.143 142.424 279.299 144.366V131.535C273.441 131.436 267.84 132.574 265.323 133.316C263.302 133.833 261.685 134.389 262.483 136.212ZM268.248 135.631C268.803 135.631 269.252 135.181 269.252 134.626C269.252 134.071 268.803 133.622 268.248 133.622C267.693 133.622 267.243 134.071 267.243 134.626C267.243 135.181 267.693 135.631 268.248 135.631Z" fill="#B2BFC5"/>
<path fill-rule="evenodd" clip-rule="evenodd" d="M361.978 192.897H355.654V180.12C356.545 181.297 357.685 182.342 362.014 180.836C368.403 178.614 366.737 174.725 365.07 173.058C364.737 172.725 364.271 172.315 363.767 171.871C361.749 170.093 359.125 167.78 362.014 167.78C363.936 167.78 365.464 168.567 366.975 169.344C368.305 170.028 369.621 170.706 371.181 170.836C372.55 170.95 374.856 171.298 376.752 171.843V175.818H377.355C373.003 178.114 370.425 180.343 367.848 184.725C365.07 189.447 361.181 190.002 359.514 190.002C358.523 190.002 360.235 191.538 361.978 192.897Z" fill="#B2BFC5"/>
<path fill-rule="evenodd" clip-rule="evenodd" d="M355.654 140.897C358.395 140.715 360.331 139.755 361.734 139.06C362.576 138.642 363.226 138.32 363.741 138.32C364.774 138.32 366.023 139.29 367.217 140.218C367.93 140.772 368.624 141.311 369.241 141.62C370.891 142.445 370.066 140.52 369.241 138.87C368.497 137.384 368.647 137.236 369.891 136.015C370.028 135.881 370.177 135.734 370.341 135.571C371.99 133.921 371.715 133.371 370.891 133.371C370.587 133.371 369.838 133.631 368.93 133.946C367.368 134.489 365.335 135.194 364.291 135.021C363.73 134.927 363.041 134.547 362.128 134.043C360.673 133.24 358.646 132.122 355.654 131.346V140.897Z" fill="#B2BFC5"/>
<path fill-rule="evenodd" clip-rule="evenodd" d="M248.752 154.062C249.415 152.805 249.944 151.472 250.339 150.06C248.085 150.165 246.125 150.521 245.09 150.789C243.961 151.038 243.055 151.316 243.463 152.341C243.687 152.904 245.501 154.195 247.939 155.38C248.245 154.948 248.516 154.509 248.752 154.062ZM246.212 152.054C246.518 152.054 246.766 151.806 246.766 151.499C246.766 151.193 246.518 150.945 246.212 150.945C245.905 150.945 245.657 151.193 245.657 151.499C245.657 151.806 245.905 152.054 246.212 152.054Z" fill="#B2BFC5"/>
<path fill-rule="evenodd" clip-rule="evenodd" d="M217.707 163.419C216.997 163.918 216.105 164.8 216.004 165.771H213.575C213.451 165.623 213.285 165.49 213.069 165.376C211.213 164.397 210.595 163.419 211.213 162.44C211.831 161.462 213.069 161.788 213.687 162.44C214.305 163.092 215.542 161.462 215.852 160.809C216.161 160.157 217.707 159.179 218.635 160.157C219.562 161.135 218.635 162.766 217.707 163.419ZM209.977 167.211C209.839 167.074 209.644 166.966 209.396 166.901C208.962 166.787 208.774 167.019 208.506 167.35L208.505 167.351C208.42 167.457 208.325 167.573 208.213 167.691L208.212 167.692C207.746 168.181 207.244 168.706 206.528 168.706C205.093 168.706 205.38 167.804 206.528 166.901C206.635 166.817 206.743 166.735 206.849 166.655L207.047 166.506C207.992 165.802 208.779 165.214 208.536 164.194C208.249 162.991 206.815 163.292 206.241 163.894C205.667 164.495 205.38 163.894 205.093 162.69C204.806 161.487 203.945 160.585 203.085 160.886C202.224 161.186 201.937 163.292 202.224 164.796C202.415 165.798 202.097 165.732 201.353 165.576L201.353 165.576C200.981 165.498 200.502 165.397 199.929 165.397C198.208 165.397 197.921 165.999 197.921 166.3C197.921 166.725 198.638 166.864 199.642 166.601C200.789 166.3 202.511 167.503 203.372 168.706C204.232 169.909 201.65 169.609 200.502 169.308C199.355 169.007 199.068 170.511 200.789 170.511C202.511 170.511 204.232 171.112 204.806 172.316C205.38 173.519 202.224 172.917 201.65 172.616C201.076 172.316 199.355 172.316 199.929 173.218C200.248 173.72 201.691 174.053 203.293 174.423L203.296 174.424L203.296 174.424C203.701 174.517 204.117 174.613 204.526 174.715C204.916 174.811 205.301 174.913 205.667 175.023C207.112 175.455 208.655 177.6 209.977 179.665V177.142L209.97 177.128C209.5 176.143 209.608 175.158 209.977 174.503V172.768C209.786 172.815 209.591 172.866 209.396 172.917L209.396 172.917C209.321 172.937 209.241 172.962 209.158 172.987L209.158 172.987L209.158 172.987L209.156 172.988C208.61 173.158 207.962 173.359 207.962 172.316C207.962 172.224 207.96 172.134 207.958 172.045C207.956 171.963 207.953 171.882 207.95 171.802C207.915 170.846 207.887 170.077 209.109 169.308C209.506 169.058 209.793 168.785 209.977 168.515V167.211ZM209.977 184.369C209.778 184.34 209.581 184.24 209.396 184.046C208.83 183.452 208.893 182.858 208.964 182.192L208.964 182.191C209.036 181.508 209.117 180.749 208.536 179.835C207.788 178.66 207.528 179.016 207.12 179.573L207.12 179.573C206.901 179.871 206.641 180.227 206.241 180.437C205.093 181.038 204.806 180.738 205.093 179.534C205.38 178.331 204.233 175.624 203.372 178.031C202.511 180.437 203.659 182.242 206.241 183.144C208.823 184.046 207.675 186.753 206.241 186.753C204.806 186.753 204.519 187.054 204.233 187.656C203.87 188.417 204.519 190.062 206.815 189.761C209.11 189.46 209.683 191.265 207.675 191.867C206.995 192.071 206.771 192.461 206.789 192.897H209.977V184.369ZM225.283 186.826C226.655 186.552 226.258 185.064 224.807 184.795C224.692 184.773 224.585 184.749 224.486 184.722L225.283 186.826ZM223.655 182.53C224.104 182.203 224.939 182.053 226.406 182.424C229.923 183.313 230.243 180.942 228.964 179.757C227.685 178.571 227.685 177.386 228.324 177.386C228.532 177.386 228.775 177.574 229.062 177.798L229.062 177.798C229.656 178.261 230.444 178.874 231.522 178.275C233.12 177.386 232.161 175.311 231.522 174.126C230.882 172.94 232.161 172.644 232.8 173.533C233.44 174.422 235.039 175.608 235.678 174.719C236.318 173.83 236.318 172.94 235.039 172.644C233.76 172.348 232.8 172.051 233.44 171.755C234.079 171.459 235.998 170.57 234.399 169.384C232.8 168.199 231.841 169.088 231.522 169.384C231.446 169.455 231.352 169.625 231.24 169.828L231.24 169.828L231.24 169.828L231.239 169.829C230.88 170.482 230.334 171.473 229.603 170.57C228.644 169.384 228.004 169.088 227.365 169.088C226.725 169.088 226.406 170.273 227.365 171.459C228.324 172.644 228.324 173.533 227.685 173.237C227.516 173.159 227.325 172.916 227.094 172.622L227.094 172.622C226.45 171.801 225.496 170.586 223.848 171.459C221.61 172.644 223.208 174.719 224.167 175.311C225.127 175.904 224.807 176.793 224.167 176.793C223.978 176.793 223.788 176.584 223.556 176.329L223.556 176.329C223.056 175.779 222.362 175.015 221.054 175.668L223.655 182.53Z" fill="#B2BFC5"/>
<path fill-rule="evenodd" clip-rule="evenodd" d="M287.337 145.201C291.338 144.975 294.174 143.725 296.229 142.819C297.468 142.272 298.424 141.851 299.181 141.855C300.697 141.862 302.523 143.155 304.27 144.392C305.312 145.13 306.327 145.848 307.23 146.261C309.646 147.364 308.448 144.812 307.249 142.623C306.168 140.651 306.388 140.458 308.222 138.851C308.424 138.674 308.645 138.481 308.885 138.266C311.318 136.096 310.918 135.367 309.707 135.36C309.262 135.358 308.161 135.697 306.826 136.107C304.529 136.813 301.54 137.732 300.01 137.494C299.187 137.366 298.179 136.858 296.842 136.184C294.707 135.109 291.734 133.612 287.337 132.563V145.201Z" fill="#B2BFC5"/>
<path fill-rule="evenodd" clip-rule="evenodd" d="M347.617 176.518C342.043 175.047 334.025 173.26 327.293 172.225C322.189 171.44 319.404 171.965 317.995 172.812L325.949 186.691C332.124 189.083 340.44 191.543 345.967 192.897H347.617V176.518Z" fill="#B2BFC5"/>
<path fill-rule="evenodd" clip-rule="evenodd" d="M340.644 131.996C341.986 131.549 344.619 130.91 347.617 130.68V139.486C343.057 137.827 339.122 135.202 338.719 134.196C338.169 132.821 339.269 132.394 340.644 131.996ZM342.232 134.031C342.538 134.031 342.787 133.783 342.787 133.477C342.787 133.17 342.538 132.922 342.232 132.922C341.925 132.922 341.677 133.17 341.677 133.477C341.677 133.783 341.925 134.031 342.232 134.031Z" fill="#B2BFC5"/>
<path d="M408.902 0V26.1215H356.659V43.2009L398.855 43.1373V68.3178H356.659V87.4065H408.902V114.533H322.5V0H408.902Z" fill="white"/>
<path d="M260.894 39.6564C274.252 42.4549 283.704 44.9121 289.321 47.0963C294.938 49.2804 299.596 52.9663 303.432 58.2219C307.2 63.4776 309.049 69.6889 309.049 76.7874C309.049 87.9813 304.528 97.1276 295.349 104.09C286.17 111.052 274.183 114.533 259.319 114.533C232.125 114.533 215.342 103.271 208.972 80.678L240.756 75.0128C243.427 83.9542 250.345 88.4591 261.374 88.4591C269.936 88.4591 274.252 86.2067 274.252 81.6336C274.252 79.2446 273.224 77.3335 271.238 76.0366C269.251 74.6715 265.689 73.5112 260.552 72.4873C240.961 68.7333 228.426 63.8189 222.877 57.8124C217.329 51.8059 214.52 44.7074 214.52 36.5849C214.52 26.0736 218.562 17.4051 226.508 10.4431C234.522 3.48102 245.961 0 260.963 0C283.636 0 298.637 9.14624 305.967 27.3022L277.608 35.8341C274.663 28.3943 268.703 24.7085 259.73 24.7085C252.263 24.7085 248.564 26.9609 248.564 31.6023C248.564 33.6499 249.386 35.2198 251.099 36.3802C252.743 37.5405 256.031 38.6326 260.894 39.6564Z" fill="white"/>
<path d="M197.921 114.533H162.757V0H197.921V114.533Z" fill="white"/>
<path d="M92.3612 0L109.355 66.0486L125.421 0H152.34L121.937 114.533H92.3863L76.3703 51.3656L61.2316 114.533H30.1402L0 0H33.0846L49.1256 65.9233L64.7406 0H92.3612Z" fill="white"/>
<path fill-rule="evenodd" clip-rule="evenodd" d="M322.5 70.3619V68.554L323.819 67.6116V61.6674C323.912 61.205 324.097 60.2804 324.929 60.2804C325.595 60.2804 325.761 61.205 325.761 61.6674V67.7054L348.033 87.3812L356.659 81.3432V83.6025L349.575 88.7438L368.852 105.773H370.699C371.809 105.773 373.196 106.051 371.809 107.992C370.825 109.37 369.913 112.595 369.462 114.533H322.5V90.7939H323.819V69.5137L322.5 70.3619ZM357.384 87.4066H358.494V87.5599C359.14 87.7884 359.603 88.4049 359.603 89.1295C359.603 89.8542 359.14 90.4707 358.494 90.6992V91.094C358.974 91.1692 359.603 91.4484 359.603 92.1809C359.603 92.2379 359.605 92.2962 359.607 92.3554L359.61 92.462C359.638 93.2424 359.669 94.1226 357.939 94.1226C357.569 94.1226 356.829 94.0117 356.829 93.5679C356.829 93.0131 357.384 93.0131 357.939 93.0131C358.494 93.0131 359.049 92.4583 358.216 91.9035L358.215 91.9027C357.752 91.5939 357.547 91.4572 357.456 91.3487H357.384V91.0713V90.6992C356.738 90.4707 356.275 89.8542 356.275 89.1295C356.275 88.4049 356.738 87.7884 357.384 87.5599V87.4066ZM326.444 91.0178C326.501 91.1137 326.552 91.2235 326.593 91.3487C327.037 92.6802 326.408 93.7528 326.039 94.1226V102.777L330.754 99.4764V84.5525L326.444 91.0178ZM325.761 89.8764L330.754 82.0026V79.4207C330.847 78.9584 331.032 78.0337 331.864 78.0337C332.53 78.0337 332.696 78.9584 332.696 79.4207V80.7824L345.668 89.0371L346.651 88.3489L325.761 69.3833V89.8764ZM344.242 90.035L332.696 82.8188V98.1171L344.242 90.035ZM328.66 103.925L330.754 102.404V104.083L328.66 103.925ZM353.154 105.773H365.843L348.192 89.748L332.696 100.995V104.229L353.154 105.773Z" fill="#B2BFC5"/>
<path fill-rule="evenodd" clip-rule="evenodd" d="M309.049 76.697L278.468 94.2054L293.024 96.7471V89.5348C292.655 89.2574 291.915 88.4807 291.915 87.593C291.915 86.7053 293.209 86.2985 293.857 86.206H307.852C307.649 86.9576 307.419 87.6974 307.164 88.4252H305.23V91.1991H306.039C303.771 96.0959 300.214 100.399 295.349 104.089C291.696 106.861 287.597 109.08 283.049 110.749C278.548 107.396 274.485 98.6379 273.723 96.9941L273.723 96.994L273.723 96.9939L273.722 96.9937C273.664 96.8678 273.625 96.7838 273.607 96.7471C273.529 96.5908 273.34 96.4124 273.129 96.2121C272.59 95.7013 271.899 95.0475 272.497 94.2505C273.163 93.3628 274.809 93.5108 275.549 93.6957L276.074 93.7875L309 74.8011C309.031 75.4259 309.048 76.0578 309.049 76.697ZM295.799 88.4252H298.573V91.1991H295.799V88.4252ZM303.566 88.4252H300.792V91.1991H303.566V88.4252Z" fill="#B2BFC5"/>
<path fill-rule="evenodd" clip-rule="evenodd" d="M197.921 42.4041H195.33C194.775 42.3117 193.61 42.2932 193.388 42.9589C193.111 43.7911 192.556 44.0685 190.891 44.0685H187.84V44.9007L189.195 114.533H182.33L183.956 42.9589C183.587 42.6815 182.736 42.2932 182.292 42.9589C182.012 43.3794 182.086 44.1541 182.156 44.8892C182.224 45.6089 182.289 46.2906 182.015 46.5651C181.581 46.999 169.269 66.9112 162.757 77.4783V70.9519L175.357 46.2877C175.912 45.0856 177.521 42.626 179.518 42.4041C181.515 42.1822 181.275 40.6473 180.905 39.9076C180.72 39.0754 180.461 37.1336 180.905 36.024C181.177 35.3431 181.116 35.3308 180.785 35.2649C180.442 35.1966 179.811 35.0707 178.963 34.0823C177.731 32.645 168.33 16.6902 162.757 7.13527V3.23303L180.628 27.7022C181.46 28.8117 183.013 31.5302 182.569 33.5275C182.015 36.024 184.789 37.1336 185.621 37.411C186.16 37.5909 192.81 37.7829 197.921 37.8984V42.4041Z" fill="#B2BFC5"/>
<path fill-rule="evenodd" clip-rule="evenodd" d="M64.7057 100.037L61.2316 114.533H61.045V103.366H58.8258V101.146H59.9354V100.037H64.7057ZM69.9673 78.0825L68.419 84.5431L61.5998 73.9616H59.9354V90.8828H61.045V91.7149H58.2711V90.8828H59.3806V73.1294H59.658H59.9354H61.8772L62.432 72.5747H63.5416L69.9673 78.0825ZM128.951 88.1088H127.62V86.9992H128.73V72.0199H126.771L116.721 88.6636V93.1019L118.675 94.2115V96.9854H120.908C121.746 97.0779 123.421 97.9841 123.421 100.869V105.307H121.746V114.533H113.929V105.307H106.111V114.533H102.202V105.307H97.1767V114.533H92.3863L86.8467 92.6844L95.2224 44.8351L98.7708 42.9367V38.1776H99.3256V43.1679L102.202 44.8351L107.228 91.9923H107.786V87.8314H108.903L110.857 82.0061L126.771 70.3555L129.284 70.9103V71.4651V72.0199V86.8537L128.951 88.1088Z" fill="#B2BFC5"/>
<path fill-rule="evenodd" clip-rule="evenodd" d="M214.815 41.0381C214.679 40.0315 214.589 39.0074 214.548 37.9658H223.109H225.05C224.773 38.6131 223.608 40.0185 221.167 40.4624C219.864 40.6992 217.345 40.8939 214.815 41.0381Z" fill="#B2BFC5"/>
<path d="M32.9287 200.187L36.6789 210.631L40.4201 200.187H43.3399V213.813H41.0898V209.321L41.313 203.313L37.4736 213.813H35.8574L32.0269 203.322L32.2501 209.321V213.813H30V200.187H32.9287Z" fill="white"/>
<path d="M53.4565 210.64H48.4205L47.3669 213.813H45.0186L49.9295 200.187H51.9564L56.8763 213.813H54.519L53.4565 210.64ZM49.0545 208.731H52.8225L50.9385 203.079L49.0545 208.731Z" fill="white"/>
<path d="M63.1355 208.563H60.6175V213.813H58.3585V200.187H62.9301C64.4302 200.187 65.588 200.54 66.4035 201.245C67.219 201.95 67.6268 202.97 67.6268 204.305C67.6268 205.216 67.4155 205.98 66.9928 206.598C66.5761 207.209 65.9928 207.68 65.2427 208.011L68.1625 213.691V213.813H65.7428L63.1355 208.563ZM60.6175 206.663H62.9391C63.701 206.663 64.2963 206.463 64.7248 206.064C65.1534 205.659 65.3677 205.107 65.3677 204.408C65.3677 203.678 65.1683 203.113 64.7695 202.714C64.3766 202.315 63.7873 202.109 63.0016 202.096H60.6175V206.663Z" fill="white"/>
<path d="M72.1538 213.813H69.9037V200.187H72.1538V213.813Z" fill="white"/>
<path d="M85.2437 213.813H82.9846L77.1897 204.146V213.813H74.9307V200.187H77.1897L83.0025 209.892V200.187H85.2437V213.813Z" fill="white"/>
<path d="M95.512 207.73H90.1725V211.922H96.4138V213.813H87.9134V200.187H96.3513V202.096H90.1725V205.858H95.512V207.73Z" fill="white"/>
<path d="M105.191 213.813H102.941V200.187H105.191V213.813Z" fill="white"/>
<path d="M118.281 213.813H116.022L110.227 204.146V213.813H107.968V200.187H110.227L116.04 209.892V200.187H118.281V213.813Z" fill="white"/>
<path d="M128.442 208.039H123.21V213.813H120.951V200.187H129.21V202.096H123.21V206.148H128.442V208.039Z" fill="white"/>
<path d="M141.38 207.356C141.38 208.691 141.16 209.864 140.719 210.874C140.279 211.879 139.648 212.652 138.827 213.195C138.011 213.732 137.071 214 136.005 214C134.951 214 134.011 213.732 133.183 213.195C132.362 212.652 131.725 211.882 131.273 210.884C130.826 209.885 130.6 208.734 130.594 207.43V206.663C130.594 205.334 130.817 204.161 131.264 203.144C131.716 202.127 132.35 201.351 133.166 200.814C133.987 200.271 134.928 200 135.987 200C137.047 200 137.984 200.268 138.8 200.805C139.621 201.335 140.255 202.102 140.702 203.107C141.148 204.105 141.374 205.269 141.38 206.598V207.356ZM139.121 206.644C139.121 205.135 138.847 203.977 138.3 203.172C137.758 202.368 136.987 201.965 135.987 201.965C135.011 201.965 134.246 202.368 133.692 203.172C133.145 203.971 132.865 205.103 132.853 206.57V207.356C132.853 208.853 133.13 210.01 133.683 210.828C134.243 211.645 135.017 212.053 136.005 212.053C137.005 212.053 137.773 211.654 138.309 210.856C138.85 210.057 139.121 208.89 139.121 207.356V206.644Z" fill="white"/>
<path d="M148.407 208.563H145.889V213.813H143.63V200.187H148.202C149.702 200.187 150.86 200.54 151.675 201.245C152.491 201.95 152.899 202.97 152.899 204.305C152.899 205.216 152.687 205.98 152.265 206.598C151.848 207.209 151.265 207.68 150.515 208.011L153.434 213.691V213.813H151.015L148.407 208.563ZM145.889 206.663H148.211C148.973 206.663 149.568 206.463 149.997 206.064C150.425 205.659 150.64 205.107 150.64 204.408C150.64 203.678 150.44 203.113 150.041 202.714C149.648 202.315 149.059 202.109 148.273 202.096H145.889V206.663Z" fill="white"/>
<path d="M157.97 200.187L161.72 210.631L165.462 200.187H168.382V213.813H166.131V209.321L166.355 203.313L162.515 213.813H160.899L157.068 203.322L157.292 209.321V213.813H155.042V200.187H157.97Z" fill="white"/>
<path d="M178.498 210.64H173.462L172.408 213.813H170.06L174.971 200.187H176.998L181.918 213.813H179.561L178.498 210.64ZM174.096 208.731H177.864L175.98 203.079L174.096 208.731Z" fill="white"/>
<path d="M191.722 202.096H187.668V213.813H185.427V202.096H181.409V200.187H191.722V202.096Z" fill="white"/>
<path d="M195.82 213.813H193.57V200.187H195.82V213.813Z" fill="white"/>
<path d="M208.973 207.356C208.973 208.691 208.752 209.864 208.312 210.874C207.871 211.879 207.24 212.652 206.419 213.195C205.604 213.732 204.663 214 203.597 214C202.544 214 201.603 213.732 200.776 213.195C199.954 212.652 199.317 211.882 198.865 210.884C198.419 209.885 198.192 208.734 198.186 207.43V206.663C198.186 205.334 198.41 204.161 198.856 203.144C199.309 202.127 199.943 201.351 200.758 200.814C201.58 200.271 202.52 200 203.58 200C204.639 200 205.577 200.268 206.392 200.805C207.214 201.335 207.848 202.102 208.294 203.107C208.741 204.105 208.967 205.269 208.973 206.598V207.356ZM206.714 206.644C206.714 205.135 206.44 203.977 205.892 203.172C205.351 202.368 204.58 201.965 203.58 201.965C202.603 201.965 201.838 202.368 201.285 203.172C200.737 203.971 200.457 205.103 200.446 206.57V207.356C200.446 208.853 200.722 210.01 201.276 210.828C201.835 211.645 202.609 212.053 203.597 212.053C204.598 212.053 205.365 211.654 205.901 210.856C206.443 210.057 206.714 208.89 206.714 207.356V206.644Z" fill="white"/>
<path d="M221.536 213.813H219.277L213.482 204.146V213.813H211.223V200.187H213.482L219.295 209.892V200.187H221.536V213.813Z" fill="white"/>
<path d="M235.554 210.303C235.554 209.705 235.352 209.243 234.947 208.918C234.548 208.594 233.825 208.266 232.777 207.936C231.73 207.605 230.896 207.237 230.277 206.832C229.093 206.052 228.5 205.035 228.5 203.781C228.5 202.683 228.926 201.778 229.777 201.067C230.634 200.356 231.745 200 233.108 200C234.013 200 234.819 200.175 235.528 200.524C236.236 200.873 236.792 201.373 237.197 202.021C237.602 202.664 237.804 203.378 237.804 204.164H235.554C235.554 203.453 235.34 202.898 234.911 202.499C234.489 202.093 233.882 201.89 233.09 201.89C232.352 201.89 231.777 202.056 231.367 202.386C230.962 202.717 230.759 203.179 230.759 203.771C230.759 204.27 230.98 204.689 231.42 205.025C231.861 205.356 232.587 205.68 233.599 205.999C234.611 206.311 235.423 206.669 236.036 207.075C236.65 207.474 237.099 207.936 237.385 208.46C237.67 208.978 237.813 209.586 237.813 210.285C237.813 211.42 237.397 212.325 236.563 212.999C235.736 213.666 234.611 214 233.188 214C232.248 214 231.382 213.819 230.59 213.457C229.804 213.089 229.191 212.584 228.75 211.941C228.316 211.299 228.099 210.55 228.099 209.695H230.358C230.358 210.469 230.602 211.068 231.09 211.492C231.578 211.916 232.277 212.128 233.188 212.128C233.974 212.128 234.563 211.963 234.956 211.632C235.355 211.295 235.554 210.852 235.554 210.303Z" fill="white"/>
<path d="M244.037 206.644L247.028 200.187H249.528L245.171 208.797V213.813H242.903V208.797L238.537 200.187H241.046L244.037 206.644Z" fill="white"/>
<path d="M257.591 210.303C257.591 209.705 257.389 209.243 256.984 208.918C256.585 208.594 255.862 208.266 254.814 207.936C253.766 207.605 252.933 207.237 252.314 206.832C251.129 206.052 250.537 205.035 250.537 203.781C250.537 202.683 250.963 201.778 251.814 201.067C252.671 200.356 253.781 200 255.145 200C256.049 200 256.856 200.175 257.564 200.524C258.273 200.873 258.829 201.373 259.234 202.021C259.639 202.664 259.841 203.378 259.841 204.164H257.591C257.591 203.453 257.377 202.898 256.948 202.499C256.526 202.093 255.918 201.89 255.127 201.89C254.389 201.89 253.814 202.056 253.403 202.386C252.999 202.717 252.796 203.179 252.796 203.771C252.796 204.27 253.016 204.689 253.457 205.025C253.897 205.356 254.624 205.68 255.636 205.999C256.648 206.311 257.46 206.669 258.073 207.075C258.686 207.474 259.136 207.936 259.422 208.46C259.707 208.978 259.85 209.586 259.85 210.285C259.85 211.42 259.433 212.325 258.6 212.999C257.773 213.666 256.648 214 255.225 214C254.284 214 253.418 213.819 252.627 213.457C251.841 213.089 251.228 212.584 250.787 211.941C250.353 211.299 250.135 210.55 250.135 209.695H252.394C252.394 210.469 252.638 211.068 253.127 211.492C253.615 211.916 254.314 212.128 255.225 212.128C256.011 212.128 256.6 211.963 256.993 211.632C257.392 211.295 257.591 210.852 257.591 210.303Z" fill="white"/>
<path d="M271.226 202.096H267.172V213.813H264.931V202.096H260.913V200.187H271.226V202.096Z" fill="white"/>
<path d="M280.539 207.73H275.199V211.922H281.44V213.813H272.94V200.187H281.378V202.096H275.199V205.858H280.539V207.73Z" fill="white"/>
<path d="M286.208 200.187L289.959 210.631L293.7 200.187H296.62V213.813H294.37V209.321L294.593 203.313L290.753 213.813H289.137L285.307 203.322L285.53 209.321V213.813H283.28V200.187H286.208Z" fill="white"/>
<path d="M311.344 208.039H306.111V213.813H303.852V200.187H312.111V202.096H306.111V206.148H311.344V208.039Z" fill="white"/>
<path d="M324.282 207.356C324.282 208.691 324.061 209.864 323.621 210.874C323.18 211.879 322.549 212.652 321.728 213.195C320.913 213.732 319.972 214 318.906 214C317.853 214 316.912 213.732 316.085 213.195C315.263 212.652 314.626 211.882 314.174 210.884C313.728 209.885 313.501 208.734 313.495 207.43V206.663C313.495 205.334 313.719 204.161 314.165 203.144C314.618 202.127 315.252 201.351 316.067 200.814C316.889 200.271 317.829 200 318.889 200C319.948 200 320.886 200.268 321.701 200.805C322.523 201.335 323.157 202.102 323.603 203.107C324.05 204.105 324.276 205.269 324.282 206.598V207.356ZM322.023 206.644C322.023 205.135 321.749 203.977 321.201 203.172C320.66 202.368 319.889 201.965 318.889 201.965C317.912 201.965 317.147 202.368 316.594 203.172C316.046 203.971 315.766 205.103 315.755 206.57V207.356C315.755 208.853 316.031 210.01 316.585 210.828C317.144 211.645 317.918 212.053 318.906 212.053C319.907 212.053 320.674 211.654 321.21 210.856C321.752 210.057 322.023 208.89 322.023 207.356V206.644Z" fill="white"/>
<path d="M331.309 208.563H328.791V213.813H326.532V200.187H331.103C332.604 200.187 333.761 200.54 334.577 201.245C335.392 201.95 335.8 202.97 335.8 204.305C335.8 205.216 335.589 205.98 335.166 206.598C334.749 207.209 334.166 207.68 333.416 208.011L336.336 213.691V213.813H333.916L331.309 208.563ZM328.791 206.663H331.112C331.874 206.663 332.47 206.463 332.898 206.064C333.327 205.659 333.541 205.107 333.541 204.408C333.541 203.678 333.342 203.113 332.943 202.714C332.55 202.315 331.961 202.109 331.175 202.096H328.791V206.663Z" fill="white"/>
<path d="M350.095 207.73H344.756V211.922H350.997V213.813H342.497V200.187H350.935V202.096H344.756V205.858H350.095V207.73Z" fill="white"/>
<path d="M362.346 200.187V209.293C362.346 210.74 361.903 211.888 361.016 212.737C360.135 213.579 358.959 214 357.489 214C356 214 354.819 213.585 353.944 212.755C353.069 211.919 352.631 210.762 352.631 209.283V200.187H354.881V209.302C354.881 210.213 355.102 210.909 355.542 211.389C355.983 211.869 356.631 212.11 357.489 212.11C359.227 212.11 360.096 211.149 360.096 209.227V200.187H362.346Z" fill="white"/>
<path d="M369.543 208.563H367.025V213.813H364.766V200.187H369.337C370.837 200.187 371.995 200.54 372.811 201.245C373.626 201.95 374.034 202.97 374.034 204.305C374.034 205.216 373.823 205.98 373.4 206.598C372.983 207.209 372.4 207.68 371.65 208.011L374.57 213.691V213.813H372.15L369.543 208.563ZM367.025 206.663H369.346C370.108 206.663 370.704 206.463 371.132 206.064C371.561 205.659 371.775 205.107 371.775 204.408C371.775 203.678 371.576 203.113 371.177 202.714C370.784 202.315 370.195 202.109 369.409 202.096H367.025V206.663Z" fill="white"/>
<path d="M386.553 207.356C386.553 208.691 386.332 209.864 385.892 210.874C385.451 211.879 384.82 212.652 383.999 213.195C383.183 213.732 382.243 214 381.177 214C380.124 214 379.183 213.732 378.356 213.195C377.534 212.652 376.897 211.882 376.445 210.884C375.998 209.885 375.772 208.734 375.766 207.43V206.663C375.766 205.334 375.99 204.161 376.436 203.144C376.888 202.127 377.522 201.351 378.338 200.814C379.159 200.271 380.1 200 381.159 200C382.219 200 383.157 200.268 383.972 200.805C384.793 201.335 385.427 202.102 385.874 203.107C386.32 204.105 386.547 205.269 386.553 206.598V207.356ZM384.293 206.644C384.293 205.135 384.02 203.977 383.472 203.172C382.93 202.368 382.159 201.965 381.159 201.965C380.183 201.965 379.418 202.368 378.865 203.172C378.317 203.971 378.037 205.103 378.025 206.57V207.356C378.025 208.853 378.302 210.01 378.856 210.828C379.415 211.645 380.189 212.053 381.177 212.053C382.177 212.053 382.945 211.654 383.481 210.856C384.023 210.057 384.293 208.89 384.293 207.356V206.644Z" fill="white"/>
<path d="M391.062 208.75V213.813H388.803V200.187H393.776C395.229 200.187 396.38 200.583 397.232 201.376C398.089 202.168 398.517 203.216 398.517 204.52C398.517 205.855 398.098 206.894 397.258 207.636C396.425 208.379 395.255 208.75 393.749 208.75H391.062ZM391.062 206.85H393.776C394.58 206.85 395.193 206.654 395.615 206.261C396.038 205.861 396.249 205.287 396.249 204.539C396.249 203.803 396.035 203.216 395.607 202.779C395.178 202.336 394.589 202.109 393.839 202.096H391.062V206.85Z" fill="white"/>
<path d="M408.098 207.73H402.759V211.922H409V213.813H400.5V200.187H408.937V202.096H402.759V205.858H408.098V207.73Z" fill="white"/>
</svg>
