<svg width="409" height="165" viewBox="0 0 409 165" fill="none" xmlns="http://www.w3.org/2000/svg">
<path fill-rule="evenodd" clip-rule="evenodd" d="M406.829 148.245C363.898 132.834 314.063 127.691 263.944 136.228C248.406 138.874 236.117 143.021 223.19 147.384C217.302 149.371 211.281 151.402 204.761 153.357C184.011 159.579 158.753 164.807 117.81 164.807C74.5622 164.807 44.3146 155.879 29.5566 150.555L30.8736 146.904C45.3141 152.114 75.1105 160.926 117.81 160.926C158.365 160.926 183.248 155.756 203.647 149.64C209.912 147.761 215.808 145.773 221.638 143.806C234.708 139.398 247.449 135.101 263.292 132.402C314.074 123.752 364.585 128.958 408.141 144.593L406.829 148.245Z" fill="#064C7F"/>
<path fill-rule="evenodd" clip-rule="evenodd" d="M408.407 139.734C365.249 124.241 314.063 118.523 263.711 127.1C248.065 129.765 235.615 133.965 222.636 138.344C216.768 140.324 210.792 142.341 204.363 144.268C183.739 150.452 158.614 155.659 117.81 155.659C74.754 155.659 46.0527 146.678 31.413 141.397L31.7892 140.354C46.348 145.606 74.9186 154.551 117.81 154.551C158.504 154.551 183.521 149.36 204.045 143.206C210.401 141.3 216.341 139.296 222.192 137.322C235.212 132.93 247.791 128.687 263.525 126.007C314.073 117.397 365.452 123.136 408.781 138.69L408.407 139.734Z" fill="white"/>
<path d="M408.902 0V26.1215H356.659V43.2009L398.855 43.1373V68.3178H356.659V87.4065H408.902V114.533H322.5V0H408.902Z" fill="#064C7F"/>
<path d="M260.894 39.6564C274.252 42.4549 283.704 44.9121 289.321 47.0963C294.938 49.2804 299.596 52.9663 303.432 58.2219C307.2 63.4776 309.049 69.6889 309.049 76.7874C309.049 87.9813 304.528 97.1276 295.349 104.09C286.17 111.052 274.183 114.533 259.319 114.533C232.125 114.533 215.342 103.271 208.972 80.678L240.756 75.0128C243.427 83.9542 250.345 88.4591 261.374 88.4591C269.936 88.4591 274.252 86.2067 274.252 81.6336C274.252 79.2446 273.224 77.3335 271.238 76.0366C269.251 74.6715 265.689 73.5112 260.552 72.4873C240.961 68.7333 228.426 63.8189 222.877 57.8124C217.329 51.8059 214.52 44.7074 214.52 36.5849C214.52 26.0736 218.562 17.4051 226.508 10.4431C234.522 3.48102 245.961 0 260.963 0C283.636 0 298.637 9.14624 305.967 27.3022L277.608 35.8341C274.663 28.3943 268.703 24.7085 259.73 24.7085C252.263 24.7085 248.564 26.9609 248.564 31.6023C248.564 33.6499 249.386 35.2198 251.099 36.3802C252.743 37.5405 256.031 38.6326 260.894 39.6564Z" fill="#064C7F"/>
<path d="M197.921 114.533H162.757V0H197.921V114.533Z" fill="#064C7F"/>
<path d="M92.3612 0L109.355 66.0486L125.421 0H152.34L121.937 114.533H92.3863L76.3703 51.3656L61.2316 114.533H30.1402L0 0H33.0846L49.1256 65.9233L64.7406 0H92.3612Z" fill="#064C7F"/>
<path d="M41.6424 135.444L43.7422 125.187H46.0951L42.9454 138.813H40.6769L38.0803 128.865L35.4275 138.813H33.1496L30 125.187H32.3529L34.4714 135.425L37.0773 125.187H39.0646L41.6424 135.444Z" fill="#004B7F"/>
<path d="M55.0565 135.64H49.7696L48.6635 138.813H46.1982L51.3538 125.187H53.4817L58.6468 138.813H56.172L55.0565 135.64ZM50.4352 133.731H54.391L52.4131 128.079L50.4352 133.731Z" fill="#004B7F"/>
<path d="M68.9393 127.096H64.6836V138.813H62.3307V127.096H58.1124V125.187H68.9393V127.096Z" fill="#004B7F"/>
<path d="M78.7164 132.73H73.1107V136.922H79.6631V138.813H70.7391V125.187H79.5975V127.096H73.1107V130.858H78.7164V132.73Z" fill="#004B7F"/>
<path d="M86.6092 133.563H83.9658V138.813H81.5942V125.187H86.3936C87.9684 125.187 89.1839 125.54 90.0401 126.245C90.8962 126.95 91.3243 127.97 91.3243 129.305C91.3243 130.216 91.1024 130.98 90.6587 131.598C90.2213 132.209 89.6089 132.68 88.8215 133.011L91.8867 138.691V138.813H89.3464L86.6092 133.563ZM83.9658 131.663H86.403C87.2029 131.663 87.8278 131.463 88.2778 131.064C88.7277 130.659 88.9527 130.107 88.9527 129.408C88.9527 128.678 88.7433 128.113 88.3246 127.714C87.9122 127.315 87.2935 127.109 86.4686 127.096H83.9658V131.663Z" fill="#004B7F"/>
<path d="M100.858 138.813H98.4954V125.187H100.858V138.813Z" fill="#004B7F"/>
<path d="M114.6 138.813H112.228L106.144 129.146V138.813H103.773V125.187H106.144L112.247 134.892V125.187H114.6V138.813Z" fill="#004B7F"/>
<path d="M125.267 133.039H119.774V138.813H117.403V125.187H126.073V127.096H119.774V131.148H125.267V133.039Z" fill="#004B7F"/>
<path d="M138.85 132.356C138.85 133.691 138.619 134.864 138.156 135.874C137.694 136.879 137.032 137.652 136.169 138.195C135.313 138.732 134.326 139 133.207 139C132.101 139 131.114 138.732 130.245 138.195C129.382 137.652 128.714 136.882 128.239 135.884C127.77 134.885 127.533 133.734 127.526 132.43V131.663C127.526 130.334 127.761 129.161 128.229 128.144C128.704 127.127 129.37 126.351 130.226 125.814C131.089 125.271 132.076 125 133.188 125C134.301 125 135.285 125.268 136.141 125.805C137.003 126.335 137.669 127.102 138.138 128.107C138.606 129.105 138.844 130.269 138.85 131.598V132.356ZM136.479 131.644C136.479 130.135 136.191 128.977 135.616 128.172C135.047 127.368 134.238 126.965 133.188 126.965C132.163 126.965 131.36 127.368 130.779 128.172C130.204 128.971 129.911 130.103 129.898 131.57V132.356C129.898 133.853 130.189 135.01 130.77 135.828C131.357 136.645 132.17 137.053 133.207 137.053C134.257 137.053 135.063 136.654 135.626 135.856C136.194 135.057 136.479 133.89 136.479 132.356V131.644Z" fill="#004B7F"/>
<path d="M146.227 133.563H143.584V138.813H141.212V125.187H146.012C147.587 125.187 148.802 125.54 149.658 126.245C150.514 126.95 150.943 127.97 150.943 129.305C150.943 130.216 150.721 130.98 150.277 131.598C149.84 132.209 149.227 132.68 148.44 133.011L151.505 138.691V138.813H148.965L146.227 133.563ZM143.584 131.663H146.021C146.821 131.663 147.446 131.463 147.896 131.064C148.346 130.659 148.571 130.107 148.571 129.408C148.571 128.678 148.362 128.113 147.943 127.714C147.53 127.315 146.912 127.109 146.087 127.096H143.584V131.663Z" fill="#004B7F"/>
<path d="M156.267 125.187L160.204 135.631L164.132 125.187H167.197V138.813H164.835V134.321L165.069 128.313L161.038 138.813H159.342L155.32 128.322L155.555 134.321V138.813H153.192V125.187H156.267Z" fill="#004B7F"/>
<path d="M177.818 135.64H172.531L171.425 138.813H168.959L174.115 125.187H176.243L181.408 138.813H178.933L177.818 135.64ZM173.196 133.731H177.152L175.174 128.079L173.196 133.731Z" fill="#004B7F"/>
<path d="M191.7 127.096H187.445V138.813H185.092V127.096H180.874V125.187H191.7V127.096Z" fill="#004B7F"/>
<path d="M196.003 138.813H193.641V125.187H196.003V138.813Z" fill="#004B7F"/>
<path d="M209.811 132.356C209.811 133.691 209.58 134.864 209.117 135.874C208.655 136.879 207.992 137.652 207.13 138.195C206.274 138.732 205.286 139 204.168 139C203.062 139 202.074 138.732 201.206 138.195C200.343 137.652 199.675 136.882 199.2 135.884C198.731 134.885 198.493 133.734 198.487 132.43V131.663C198.487 130.334 198.721 129.161 199.19 128.144C199.665 127.127 200.331 126.351 201.187 125.814C202.049 125.271 203.037 125 204.149 125C205.261 125 206.246 125.268 207.102 125.805C207.964 126.335 208.63 127.102 209.098 128.107C209.567 129.105 209.805 130.269 209.811 131.598V132.356ZM207.439 131.644C207.439 130.135 207.152 128.977 206.577 128.172C206.008 127.368 205.199 126.965 204.149 126.965C203.124 126.965 202.321 127.368 201.74 128.172C201.165 128.971 200.871 130.103 200.859 131.57V132.356C200.859 133.853 201.149 135.01 201.731 135.828C202.318 136.645 203.13 137.053 204.168 137.053C205.218 137.053 206.024 136.654 206.586 135.856C207.155 135.057 207.439 133.89 207.439 132.356V131.644Z" fill="#004B7F"/>
<path d="M223 138.813H220.628L214.545 129.146V138.813H212.173V125.187H214.545L220.647 134.892V125.187H223V138.813Z" fill="#004B7F"/>
<path d="M224.831 161.303C224.831 160.705 224.618 160.243 224.193 159.918C223.774 159.594 223.014 159.266 221.914 158.936C220.814 158.605 219.938 158.237 219.288 157.832C218.044 157.052 217.422 156.035 217.422 154.781C217.422 153.683 217.869 152.778 218.763 152.067C219.663 151.356 220.829 151 222.261 151C223.211 151 224.059 151.175 224.803 151.524C225.547 151.873 226.131 152.373 226.556 153.021C226.981 153.664 227.194 154.378 227.194 155.164H224.831C224.831 154.453 224.606 153.898 224.155 153.499C223.712 153.093 223.074 152.89 222.242 152.89C221.467 152.89 220.864 153.056 220.432 153.386C220.007 153.717 219.795 154.179 219.795 154.771C219.795 155.27 220.026 155.689 220.489 156.025C220.951 156.356 221.714 156.68 222.777 156.999C223.84 157.311 224.693 157.669 225.337 158.075C225.981 158.474 226.453 158.936 226.753 159.46C227.053 159.978 227.203 160.586 227.203 161.285C227.203 162.42 226.766 163.325 225.89 163.999C225.021 164.666 223.84 165 222.346 165C221.358 165 220.448 164.819 219.616 164.457C218.791 164.089 218.147 163.584 217.685 162.941C217.228 162.299 217 161.55 217 160.695H219.373C219.373 161.469 219.629 162.068 220.142 162.492C220.654 162.916 221.389 163.128 222.346 163.128C223.171 163.128 223.79 162.963 224.202 162.632C224.621 162.295 224.831 161.852 224.831 161.303Z" fill="#004B7F"/>
<path d="M233.74 157.644L236.882 151.187H239.507L234.931 159.797V164.813H232.549V159.797L227.963 151.187H230.598L233.74 157.644Z" fill="#004B7F"/>
<path d="M247.976 161.303C247.976 160.705 247.763 160.243 247.338 159.918C246.919 159.594 246.16 159.266 245.059 158.936C243.959 158.605 243.084 158.237 242.433 157.832C241.189 157.052 240.567 156.035 240.567 154.781C240.567 153.683 241.014 152.778 241.908 152.067C242.808 151.356 243.974 151 245.406 151C246.357 151 247.204 151.175 247.948 151.524C248.692 151.873 249.276 152.373 249.701 153.021C250.127 153.664 250.339 154.378 250.339 155.164H247.976C247.976 154.453 247.751 153.898 247.301 153.499C246.857 153.093 246.219 152.89 245.387 152.89C244.612 152.89 244.009 153.056 243.577 153.386C243.152 153.717 242.94 154.179 242.94 154.771C242.94 155.27 243.171 155.689 243.634 156.025C244.096 156.356 244.859 156.68 245.922 156.999C246.985 157.311 247.838 157.669 248.482 158.075C249.126 158.474 249.598 158.936 249.898 159.46C250.198 159.978 250.348 160.586 250.348 161.285C250.348 162.42 249.911 163.325 249.036 163.999C248.167 164.666 246.985 165 245.491 165C244.503 165 243.593 164.819 242.762 164.457C241.936 164.089 241.292 163.584 240.83 162.941C240.373 162.299 240.145 161.55 240.145 160.695H242.518C242.518 161.469 242.774 162.068 243.287 162.492C243.799 162.916 244.534 163.128 245.491 163.128C246.316 163.128 246.935 162.963 247.347 162.632C247.766 162.295 247.976 161.852 247.976 161.303Z" fill="#004B7F"/>
<path d="M262.296 153.096H258.039V164.813H255.685V153.096H251.464V151.187H262.296V153.096Z" fill="#004B7F"/>
<path d="M272.077 158.73H266.469V162.922H273.025V164.813H264.097V151.187H272.959V153.096H266.469V156.858H272.077V158.73Z" fill="#004B7F"/>
<path d="M278.033 151.187L281.971 161.631L285.901 151.187H288.967V164.813H286.604V160.321L286.839 154.313L282.806 164.813H281.109L277.085 154.322L277.32 160.321V164.813H274.957V151.187H278.033Z" fill="#004B7F"/>
<path d="M304.432 159.039H298.936V164.813H296.564V151.187H305.238V153.096H298.936V157.148H304.432V159.039Z" fill="#004B7F"/>
<path d="M318.021 158.356C318.021 159.691 317.789 160.864 317.327 161.874C316.864 162.879 316.201 163.652 315.339 164.195C314.482 164.732 313.494 165 312.375 165C311.269 165 310.281 164.732 309.412 164.195C308.549 163.652 307.88 162.882 307.405 161.884C306.936 160.885 306.698 159.734 306.692 158.43V157.663C306.692 156.334 306.926 155.161 307.395 154.144C307.871 153.127 308.536 152.351 309.393 151.814C310.256 151.271 311.244 151 312.356 151C313.469 151 314.454 151.268 315.31 151.805C316.173 152.335 316.839 153.102 317.308 154.107C317.777 155.105 318.014 156.269 318.021 157.598V158.356ZM315.648 157.644C315.648 156.135 315.36 154.977 314.785 154.172C314.216 153.368 313.407 152.965 312.356 152.965C311.331 152.965 310.528 153.368 309.946 154.172C309.371 154.971 309.077 156.103 309.065 157.57V158.356C309.065 159.853 309.355 161.01 309.937 161.828C310.525 162.645 311.337 163.053 312.375 163.053C313.425 163.053 314.232 162.654 314.795 161.856C315.364 161.057 315.648 159.89 315.648 158.356V157.644Z" fill="#004B7F"/>
<path d="M325.401 159.563H322.757V164.813H320.384V151.187H325.186C326.761 151.187 327.977 151.54 328.834 152.245C329.69 152.95 330.118 153.97 330.118 155.305C330.118 156.216 329.897 156.98 329.453 157.598C329.015 158.209 328.402 158.68 327.615 159.011L330.681 164.691V164.813H328.14L325.401 159.563ZM322.757 157.663H325.195C325.995 157.663 326.62 157.463 327.071 157.064C327.521 156.659 327.746 156.107 327.746 155.408C327.746 154.678 327.536 154.113 327.117 153.714C326.705 153.315 326.086 153.109 325.261 153.096H322.757V157.663Z" fill="#004B7F"/>
<path d="M345.133 158.73H339.525V162.922H346.08V164.813H337.152V151.187H346.014V153.096H339.525V156.858H345.133V158.73Z" fill="#004B7F"/>
<path d="M358 151.187V160.293C358 161.74 357.534 162.888 356.602 163.737C355.677 164.579 354.442 165 352.898 165C351.335 165 350.094 164.585 349.175 163.755C348.256 162.919 347.796 161.762 347.796 160.283V151.187H350.159V160.302C350.159 161.213 350.391 161.909 350.853 162.389C351.316 162.869 351.998 163.11 352.898 163.11C354.723 163.11 355.636 162.149 355.636 160.227V151.187H358Z" fill="#004B7F"/>
<path d="M365.558 159.563H362.914V164.813H360.541V151.187H365.343C366.918 151.187 368.134 151.54 368.991 152.245C369.847 152.95 370.275 153.97 370.275 155.305C370.275 156.216 370.053 156.98 369.61 157.598C369.172 158.209 368.559 158.68 367.771 159.011L370.838 164.691V164.813H368.297L365.558 159.563ZM362.914 157.663H365.352C366.152 157.663 366.777 157.463 367.228 157.064C367.678 156.659 367.903 156.107 367.903 155.408C367.903 154.678 367.693 154.113 367.274 153.714C366.862 153.315 366.243 153.109 365.418 153.096H362.914V157.663Z" fill="#004B7F"/>
<path d="M383.423 158.356C383.423 159.691 383.192 160.864 382.73 161.874C382.267 162.879 381.604 163.652 380.741 164.195C379.885 164.732 378.897 165 377.778 165C376.671 165 375.683 164.732 374.814 164.195C373.952 163.652 373.283 162.882 372.808 161.884C372.339 160.885 372.101 159.734 372.095 158.43V157.663C372.095 156.334 372.329 155.161 372.798 154.144C373.273 153.127 373.939 152.351 374.796 151.814C375.658 151.271 376.646 151 377.759 151C378.872 151 379.857 151.268 380.713 151.805C381.576 152.335 382.242 153.102 382.711 154.107C383.18 155.105 383.417 156.269 383.423 157.598V158.356ZM381.051 157.644C381.051 156.135 380.763 154.977 380.188 154.172C379.619 153.368 378.809 152.965 377.759 152.965C376.734 152.965 375.93 153.368 375.349 154.172C374.774 154.971 374.48 156.103 374.467 157.57V158.356C374.467 159.853 374.758 161.01 375.34 161.828C375.927 162.645 376.74 163.053 377.778 163.053C378.828 163.053 379.635 162.654 380.197 161.856C380.766 161.057 381.051 159.89 381.051 158.356V157.644Z" fill="#004B7F"/>
<path d="M388.159 159.75V164.813H385.787V151.187H391.01C392.536 151.187 393.746 151.583 394.64 152.376C395.54 153.168 395.99 154.216 395.99 155.52C395.99 156.855 395.549 157.894 394.668 158.636C393.793 159.379 392.564 159.75 390.982 159.75H388.159ZM388.159 157.85H391.01C391.854 157.85 392.498 157.654 392.942 157.261C393.386 156.861 393.608 156.287 393.608 155.539C393.608 154.803 393.383 154.216 392.933 153.779C392.483 153.336 391.864 153.109 391.076 153.096H388.159V157.85Z" fill="#004B7F"/>
<path d="M406.053 158.73H400.445V162.922H407V164.813H398.072V151.187H406.934V153.096H400.445V156.858H406.053V158.73Z" fill="#004B7F"/>
</svg>
