<?xml version="1.0" encoding="UTF-8"?>

<svg width="350" height="129" id="Text_labels" data-name="Text labels" xmlns="http://www.w3.org/2000/svg" viewBox="0 0 1280 200.04">

  <defs>

    <style>

      .cls-1 {

        fill: #50b0a4;

        stroke-width: 0px;

      }

    </style>

  </defs>

  <g>

    <path class="cls-1" d="m0,197.37V2.67h69.93c25.05,0,44.11,4.59,57.16,13.77,13.06,9.18,19.59,22.51,19.59,39.98,0,10.08-2.32,18.67-6.95,25.81-4.63,7.13-11.45,12.39-20.46,15.78,10.16,2.67,17.97,7.67,23.4,14.98,5.43,7.31,8.16,16.23,8.16,26.74,0,19.07-6.04,33.41-18.12,42.99-12.08,9.58-29.97,14.46-53.69,14.64H0Zm46.93-113.53h24.47c10.25-.09,17.56-1.97,21.93-5.64,4.36-3.66,6.55-9.07,6.55-16.23,0-8.22-2.36-14.15-7.09-17.77-4.73-3.62-12.35-5.43-22.87-5.43h-23v45.06Zm0,30.75v46.67h30.75c8.47,0,14.98-1.94,19.52-5.82,4.55-3.88,6.82-9.34,6.82-16.38,0-16.23-8.07-24.38-24.2-24.47h-32.89Z"/>

    <path class="cls-1" d="m226.65,197.37h-46.8V2.67h46.8v194.69Z"/>

    <path class="cls-1" d="m359.7,145.62c0-6.87-2.43-12.22-7.29-16.05-4.86-3.83-13.39-7.8-25.61-11.9-12.22-4.1-22.2-8.07-29.95-11.9-25.22-12.39-37.84-29.42-37.84-51.08,0-10.78,3.14-20.31,9.43-28.55,6.28-8.24,15.18-14.66,26.68-19.26,11.5-4.59,24.42-6.89,38.78-6.89s26.54,2.49,37.64,7.49c11.1,5,19.72,12.1,25.87,21.33s9.23,19.77,9.23,31.62h-46.8c0-7.94-2.43-14.09-7.29-18.45-4.86-4.36-11.43-6.55-19.72-6.55s-15,1.85-19.86,5.55c-4.86,3.7-7.29,8.41-7.29,14.11,0,5,2.67,9.51,8.02,13.57,5.35,4.06,14.76,8.24,28.21,12.57,13.46,4.33,24.52,8.98,33.16,13.97,21.04,12.12,31.56,28.83,31.56,50.14,0,17.03-6.42,30.4-19.26,40.11-12.84,9.71-30.44,14.58-52.82,14.58-15.78,0-30.07-2.83-42.86-8.49-12.79-5.66-22.42-13.42-28.88-23.27-6.47-9.85-9.69-21.19-9.69-34.03h47.07c0,10.43,2.69,18.12,8.09,23.07,5.4,4.95,14.15,7.42,26.28,7.42,7.76,0,13.89-1.67,18.39-5.01,4.5-3.34,6.75-8.04,6.75-14.11Z"/>

    <path class="cls-1" d="m551.45,114.73h-73.81v46.53h87.18v36.1h-134.12V2.67h134.38v36.24h-87.45v41.05h73.81v34.77Z"/>

  </g>

  <g>

    <g>

      <path class="cls-1" d="m602.66,45.22V.61h16.02c5.74,0,10.11,1.05,13.1,3.16,2.99,2.1,4.49,5.16,4.49,9.16,0,2.31-.53,4.28-1.59,5.91-1.06,1.63-2.62,2.84-4.69,3.61,2.33.61,4.12,1.76,5.36,3.43,1.25,1.67,1.87,3.72,1.87,6.13,0,4.37-1.38,7.65-4.15,9.85-2.77,2.19-6.87,3.31-12.3,3.35h-18.11Zm10.75-26.01h5.61c2.35-.02,4.02-.45,5.02-1.29,1-.84,1.5-2.08,1.5-3.72,0-1.88-.54-3.24-1.62-4.07s-2.83-1.25-5.24-1.25h-5.27v10.32Zm0,7.05v10.69h7.05c1.94,0,3.43-.44,4.47-1.33s1.56-2.14,1.56-3.75c0-3.72-1.85-5.59-5.54-5.61h-7.54Z"/>

      <path class="cls-1" d="m654.59,45.22h-10.72V.61h10.72v44.6Z"/>

      <path class="cls-1" d="m699.83,23.83c0,4.35-.81,8.2-2.42,11.55-1.61,3.35-3.91,5.93-6.88,7.74-2.97,1.81-6.36,2.71-10.16,2.71s-7.17-.87-10.11-2.62-5.23-4.24-6.88-7.49c-1.64-3.25-2.51-6.97-2.59-11.18v-2.51c0-4.37.8-8.23,2.4-11.56,1.6-3.34,3.9-5.92,6.89-7.74,2.99-1.82,6.4-2.73,10.22-2.73s7.15.9,10.11,2.7c2.96,1.8,5.26,4.35,6.91,7.67,1.64,3.32,2.48,7.12,2.5,11.41v2.05Zm-10.94-1.87c0-4.43-.74-7.8-2.22-10.09-1.48-2.3-3.6-3.45-6.36-3.45-5.39,0-8.24,4.04-8.55,12.13l-.03,3.28c0,4.37.72,7.73,2.18,10.08,1.45,2.35,3.6,3.52,6.46,3.52s4.81-1.15,6.28-3.46,2.22-5.63,2.24-9.96v-2.05Z"/>

      <path class="cls-1" d="m705.38,45.22V.61h14.37c3.94,0,7.49.89,10.63,2.68,3.14,1.79,5.6,4.31,7.37,7.57,1.77,3.26,2.66,6.91,2.68,10.95v2.05c0,4.09-.86,7.75-2.59,10.98-1.73,3.24-4.16,5.77-7.29,7.6-3.14,1.83-6.63,2.75-10.49,2.77h-14.67Zm10.75-36.3v28.03h3.74c3.08,0,5.45-1.1,7.11-3.29,1.65-2.19,2.48-5.46,2.48-9.79v-1.93c0-4.31-.83-7.56-2.48-9.74-1.65-2.19-4.06-3.28-7.23-3.28h-3.61Z"/>

      <path class="cls-1" d="m757.4,45.22h-10.72V.61h10.72v44.6Z"/>

      <path class="cls-1" d="m782.18,33.09l8.88-32.47h12.01l-15.01,44.6h-11.76l-14.89-44.6h11.92l8.85,32.47Z"/>

      <path class="cls-1" d="m833.98,26.28h-16.91v10.66h19.97v8.27h-30.73V.61h30.79v8.3h-20.04v9.4h16.91v7.97Z"/>

      <path class="cls-1" d="m858,29.44h-5.82v15.78h-10.75V.61h17.55c5.29,0,9.42,1.17,12.41,3.52,2.98,2.35,4.47,5.66,4.47,9.95,0,3.1-.63,5.67-1.88,7.71-1.26,2.04-3.22,3.69-5.9,4.96l9.31,18.01v.46h-11.52l-7.87-15.78Zm-5.82-8.27h6.8c2.04,0,3.58-.54,4.61-1.61,1.03-1.07,1.55-2.57,1.55-4.5s-.52-3.44-1.56-4.53c-1.04-1.1-2.57-1.64-4.6-1.64h-6.8v12.28Z"/>

      <path class="cls-1" d="m905.36,33.36c0-1.57-.56-2.8-1.67-3.68-1.11-.88-3.07-1.79-5.87-2.73-2.8-.94-5.09-1.85-6.86-2.73-5.78-2.84-8.67-6.74-8.67-11.7,0-2.47.72-4.65,2.16-6.54,1.44-1.89,3.48-3.36,6.11-4.41,2.63-1.05,5.6-1.58,8.88-1.58s6.08.57,8.62,1.72c2.54,1.14,4.52,2.77,5.93,4.89,1.41,2.11,2.11,4.53,2.11,7.25h-10.72c0-1.82-.56-3.23-1.67-4.23s-2.62-1.5-4.52-1.5-3.44.42-4.55,1.27-1.67,1.93-1.67,3.23c0,1.14.61,2.18,1.84,3.11s3.38,1.89,6.46,2.88c3.08.99,5.62,2.06,7.6,3.2,4.82,2.78,7.23,6.61,7.23,11.49,0,3.9-1.47,6.97-4.41,9.19-2.94,2.23-6.97,3.34-12.1,3.34-3.61,0-6.89-.65-9.82-1.95-2.93-1.3-5.14-3.07-6.62-5.33-1.48-2.26-2.22-4.86-2.22-7.8h10.78c0,2.39.62,4.15,1.85,5.28,1.24,1.13,3.24,1.7,6.02,1.7,1.78,0,3.18-.38,4.21-1.15,1.03-.77,1.55-1.84,1.55-3.23Z"/>

      <path class="cls-1" d="m933.09,45.22h-10.72V.61h10.72v44.6Z"/>

      <path class="cls-1" d="m975.58,8.91h-13.39v36.3h-10.75V8.91h-13.14V.61h37.28v8.3Z"/>

      <path class="cls-1" d="m996.93,19.97l8.21-19.36h11.61l-14.37,28.58v16.02h-10.91v-16.02l-14.34-28.58h11.55l8.24,19.36Z"/>

    </g>

    <g>

      <path class="cls-1" d="m630.75,181.66h-17.34v17.77h-10.75v-44.6h29.84v8.3h-19.09v10.26h17.34v8.27Z"/>

      <path class="cls-1" d="m674.74,178.04c0,4.35-.81,8.2-2.42,11.55-1.61,3.35-3.91,5.93-6.88,7.74-2.97,1.81-6.36,2.71-10.16,2.71s-7.17-.87-10.11-2.62c-2.94-1.75-5.23-4.24-6.88-7.49s-2.51-6.97-2.59-11.18v-2.51c0-4.37.8-8.23,2.4-11.56,1.6-3.34,3.9-5.92,6.89-7.74,2.99-1.82,6.4-2.73,10.22-2.73s7.15.9,10.11,2.7c2.96,1.8,5.26,4.35,6.91,7.67,1.64,3.32,2.48,7.12,2.5,11.41v2.05Zm-10.94-1.87c0-4.43-.74-7.8-2.22-10.09-1.48-2.3-3.6-3.45-6.36-3.45-5.39,0-8.24,4.04-8.55,12.13l-.03,3.28c0,4.37.72,7.73,2.18,10.08,1.45,2.35,3.6,3.52,6.46,3.52s4.81-1.15,6.28-3.46c1.47-2.31,2.22-5.63,2.24-9.96v-2.05Z"/>

      <path class="cls-1" d="m696.86,183.65h-5.82v15.78h-10.75v-44.6h17.55c5.29,0,9.42,1.17,12.41,3.52,2.98,2.35,4.47,5.66,4.47,9.95,0,3.1-.63,5.67-1.88,7.71-1.26,2.04-3.22,3.69-5.9,4.96l9.31,18.01v.46h-11.52l-7.87-15.78Zm-5.82-8.27h6.8c2.04,0,3.58-.54,4.61-1.61,1.03-1.07,1.55-2.57,1.55-4.5s-.52-3.44-1.56-4.53c-1.04-1.1-2.57-1.64-4.6-1.64h-6.8v12.28Z"/>

      <path class="cls-1" d="m764.5,180.49h-16.91v10.66h19.97v8.27h-30.73v-44.6h30.79v8.3h-20.04v9.4h16.91v7.97Z"/>

      <path class="cls-1" d="m806.93,154.82v29.2c0,3.31-.7,6.17-2.11,8.59-1.41,2.42-3.43,4.26-6.07,5.53-2.63,1.27-5.75,1.9-9.34,1.9-5.43,0-9.71-1.41-12.84-4.23-3.12-2.82-4.72-6.68-4.78-11.58v-29.41h10.81v29.62c.12,4.88,2.39,7.32,6.8,7.32,2.23,0,3.91-.61,5.05-1.84s1.72-3.22,1.72-5.97v-29.13h10.75Z"/>

      <path class="cls-1" d="m830.22,183.65h-5.82v15.78h-10.75v-44.6h17.55c5.29,0,9.42,1.17,12.41,3.52,2.98,2.35,4.47,5.66,4.47,9.95,0,3.1-.63,5.67-1.88,7.71-1.26,2.04-3.22,3.69-5.9,4.96l9.31,18.01v.46h-11.52l-7.87-15.78Zm-5.82-8.27h6.8c2.04,0,3.58-.54,4.61-1.61,1.03-1.07,1.55-2.57,1.55-4.5s-.52-3.44-1.56-4.53c-1.04-1.1-2.57-1.64-4.6-1.64h-6.8v12.28Z"/>

      <path class="cls-1" d="m892.34,178.04c0,4.35-.81,8.2-2.42,11.55-1.61,3.35-3.91,5.93-6.88,7.74-2.97,1.81-6.36,2.71-10.16,2.71s-7.17-.87-10.11-2.62c-2.94-1.75-5.23-4.24-6.88-7.49-1.64-3.25-2.51-6.97-2.59-11.18v-2.51c0-4.37.8-8.23,2.4-11.56,1.6-3.34,3.9-5.92,6.89-7.74,2.99-1.82,6.4-2.73,10.22-2.73s7.15.9,10.11,2.7c2.96,1.8,5.26,4.35,6.91,7.67,1.64,3.32,2.48,7.12,2.5,11.41v2.05Zm-10.94-1.87c0-4.43-.74-7.8-2.22-10.09-1.48-2.3-3.6-3.45-6.36-3.45-5.39,0-8.24,4.04-8.55,12.13l-.03,3.28c0,4.37.72,7.73,2.18,10.08,1.45,2.35,3.6,3.52,6.46,3.52s4.81-1.15,6.28-3.46c1.47-2.31,2.22-5.63,2.24-9.96v-2.05Z"/>

      <path class="cls-1" d="m908.64,184.29v15.13h-10.75v-44.6h17.8c3.41,0,6.43.63,9.05,1.88,2.62,1.26,4.66,3.04,6.1,5.36s2.16,4.95,2.16,7.89c0,4.35-1.56,7.83-4.67,10.43-3.11,2.6-7.39,3.91-12.82,3.91h-6.86Zm0-8.3h7.05c2.08,0,3.67-.52,4.76-1.56,1.09-1.04,1.64-2.51,1.64-4.41,0-2.08-.56-3.75-1.68-4.99-1.12-1.25-2.65-1.88-4.6-1.9h-7.17v12.87Z"/>

      <path class="cls-1" d="m966.39,180.49h-16.91v10.66h19.97v8.27h-30.73v-44.6h30.79v8.3h-20.04v9.4h16.91v7.97Z"/>

    </g>

    <g>

      <path class="cls-1" d="m614.12,122.32h-10.72v-44.6h10.72v44.6Z"/>

      <path class="cls-1" d="m658.84,122.32h-10.69l-15.81-27.76v27.76h-10.75v-44.6h10.75l15.78,27.76v-27.76h10.72v44.6Z"/>

      <path class="cls-1" d="m693.74,104.55h-17.34v17.77h-10.75v-44.6h29.84v8.3h-19.09v10.26h17.34v8.27Z"/>

      <path class="cls-1" d="m737.73,100.94c0,4.35-.81,8.2-2.42,11.55-1.61,3.35-3.91,5.93-6.88,7.74-2.97,1.81-6.36,2.71-10.16,2.71s-7.17-.87-10.11-2.62c-2.94-1.75-5.23-4.24-6.88-7.49-1.64-3.25-2.51-6.97-2.59-11.18v-2.51c0-4.37.8-8.23,2.4-11.56,1.6-3.34,3.9-5.92,6.89-7.74,2.99-1.82,6.4-2.73,10.22-2.73s7.15.9,10.11,2.7c2.96,1.8,5.26,4.35,6.91,7.67,1.64,3.32,2.48,7.12,2.5,11.41v2.05Zm-10.94-1.87c0-4.43-.74-7.8-2.22-10.09-1.48-2.3-3.6-3.45-6.36-3.45-5.39,0-8.24,4.04-8.55,12.13l-.03,3.28c0,4.37.72,7.73,2.18,10.08,1.45,2.35,3.6,3.52,6.46,3.52s4.81-1.15,6.28-3.46c1.47-2.31,2.22-5.63,2.24-9.96v-2.05Z"/>

      <path class="cls-1" d="m759.85,106.55h-5.82v15.78h-10.75v-44.6h17.55c5.29,0,9.42,1.17,12.41,3.52,2.98,2.35,4.47,5.66,4.47,9.95,0,3.1-.63,5.67-1.88,7.71-1.26,2.04-3.22,3.69-5.9,4.96l9.31,18.01v.46h-11.52l-7.87-15.78Zm-5.82-8.27h6.8c2.04,0,3.58-.54,4.61-1.61,1.03-1.07,1.55-2.57,1.55-4.5s-.52-3.44-1.56-4.53c-1.04-1.1-2.57-1.64-4.6-1.64h-6.8v12.28Z"/>

      <path class="cls-1" d="m798.33,77.72l9.96,31.03,9.93-31.03h14.15v44.6h-10.78v-10.42l1.04-21.32-10.78,31.74h-7.11l-10.81-31.77,1.04,21.35v10.42h-10.75v-44.6h14.12Z"/>

      <path class="cls-1" d="m864.53,113.99h-14.74l-2.57,8.33h-11.49l16.36-44.6h10.11l16.48,44.6h-11.55l-2.6-8.33Zm-12.16-8.3h9.59l-4.81-15.47-4.78,15.47Z"/>

      <path class="cls-1" d="m913.27,86.02h-13.39v36.3h-10.75v-36.3h-13.14v-8.3h37.28v8.3Z"/>

      <path class="cls-1" d="m929.26,122.32h-10.72v-44.6h10.72v44.6Z"/>

      <path class="cls-1" d="m974.51,100.94c0,4.35-.81,8.2-2.42,11.55-1.61,3.35-3.91,5.93-6.88,7.74-2.97,1.81-6.36,2.71-10.16,2.71s-7.17-.87-10.11-2.62c-2.94-1.75-5.23-4.24-6.88-7.49-1.64-3.25-2.51-6.97-2.59-11.18v-2.51c0-4.37.8-8.23,2.4-11.56,1.6-3.34,3.9-5.92,6.89-7.74,2.99-1.82,6.4-2.73,10.22-2.73s7.15.9,10.11,2.7c2.96,1.8,5.26,4.35,6.91,7.67,1.64,3.32,2.48,7.12,2.5,11.41v2.05Zm-10.94-1.87c0-4.43-.74-7.8-2.22-10.09-1.48-2.3-3.6-3.45-6.36-3.45-5.39,0-8.24,4.04-8.55,12.13l-.03,3.28c0,4.37.72,7.73,2.18,10.08,1.45,2.35,3.6,3.52,6.46,3.52s4.81-1.15,6.28-3.46c1.47-2.31,2.22-5.63,2.24-9.96v-2.05Z"/>

      <path class="cls-1" d="m1017.3,122.32h-10.69l-15.81-27.76v27.76h-10.75v-44.6h10.75l15.78,27.76v-27.76h10.72v44.6Z"/>

      <path class="cls-1" d="m1062.74,110.47c0-1.57-.56-2.8-1.67-3.68-1.11-.88-3.07-1.79-5.87-2.73-2.8-.94-5.09-1.85-6.86-2.73-5.78-2.84-8.67-6.74-8.67-11.7,0-2.47.72-4.65,2.16-6.54,1.44-1.89,3.48-3.36,6.11-4.41,2.63-1.05,5.6-1.58,8.88-1.58s6.08.57,8.62,1.72c2.54,1.14,4.52,2.77,5.93,4.89,1.41,2.11,2.11,4.53,2.11,7.25h-10.72c0-1.82-.56-3.23-1.67-4.23-1.11-1-2.62-1.5-4.52-1.5s-3.44.42-4.55,1.27-1.67,1.93-1.67,3.23c0,1.14.61,2.18,1.84,3.11,1.23.93,3.38,1.89,6.46,2.88,3.08.99,5.62,2.06,7.6,3.2,4.82,2.78,7.23,6.61,7.23,11.49,0,3.9-1.47,6.97-4.41,9.19-2.94,2.23-6.97,3.34-12.1,3.34-3.61,0-6.89-.65-9.82-1.95-2.93-1.3-5.14-3.07-6.62-5.33-1.48-2.26-2.22-4.86-2.22-7.8h10.78c0,2.39.62,4.15,1.85,5.28,1.24,1.13,3.24,1.7,6.02,1.7,1.78,0,3.18-.38,4.21-1.15,1.03-.77,1.55-1.84,1.55-3.23Z"/>

      <path class="cls-1" d="m1095.33,97.08l8.21-19.36h11.61l-14.37,28.58v16.02h-10.91v-16.02l-14.34-28.58h11.55l8.24,19.36Z"/>

      <path class="cls-1" d="m1140.92,110.47c0-1.57-.56-2.8-1.67-3.68-1.11-.88-3.07-1.79-5.87-2.73-2.8-.94-5.09-1.85-6.86-2.73-5.78-2.84-8.67-6.74-8.67-11.7,0-2.47.72-4.65,2.16-6.54,1.44-1.89,3.48-3.36,6.11-4.41,2.63-1.05,5.6-1.58,8.88-1.58s6.08.57,8.62,1.72,4.52,2.77,5.93,4.89c1.41,2.11,2.11,4.53,2.11,7.25h-10.72c0-1.82-.56-3.23-1.67-4.23-1.11-1-2.62-1.5-4.52-1.5s-3.44.42-4.55,1.27-1.67,1.93-1.67,3.23c0,1.14.61,2.18,1.84,3.11,1.23.93,3.38,1.89,6.46,2.88,3.08.99,5.62,2.06,7.6,3.2,4.82,2.78,7.23,6.61,7.23,11.49,0,3.9-1.47,6.97-4.41,9.19-2.94,2.23-6.97,3.34-12.1,3.34-3.61,0-6.89-.65-9.82-1.95-2.93-1.3-5.14-3.07-6.62-5.33-1.48-2.26-2.22-4.86-2.22-7.8h10.78c0,2.39.62,4.15,1.85,5.28s3.24,1.7,6.02,1.7c1.78,0,3.18-.38,4.21-1.15,1.03-.77,1.55-1.84,1.55-3.23Z"/>

      <path class="cls-1" d="m1192.2,86.02h-13.39v36.3h-10.75v-36.3h-13.14v-8.3h37.28v8.3Z"/>

      <path class="cls-1" d="m1224.4,103.39h-16.91v10.66h19.97v8.27h-30.73v-44.6h30.79v8.3h-20.04v9.4h16.91v7.97Z"/>

      <path class="cls-1" d="m1245.96,77.72l9.96,31.03,9.93-31.03h14.15v44.6h-10.78v-10.42l1.04-21.32-10.78,31.74h-7.11l-10.81-31.77,1.04,21.35v10.42h-10.75v-44.6h14.12Z"/>

    </g>

  </g>

</svg>
