<?xml version="1.0" encoding="UTF-8"?>
<svg id="Layer_1" data-name="Layer 1" xmlns="http://www.w3.org/2000/svg" version="1.1" xmlns:xlink="http://www.w3.org/1999/xlink" viewBox="0 0 205.7 34.2">
  <defs>
    <style>
      .cls-1, .cls-2, .cls-3, .cls-4, .cls-5, .cls-6, .cls-7, .cls-8, .cls-9 {
        stroke-width: 0px;
      }

      .cls-1, .cls-2, .cls-4, .cls-5, .cls-6, .cls-7, .cls-9 {
        fill-rule: evenodd;
      }

      .cls-1, .cls-8 {
        fill: #fff;
      }

      .cls-2 {
        fill: url(#linear-gradient-3);
      }

      .cls-3 {
        fill: #289588;
      }

      .cls-4 {
        fill: url(#linear-gradient);
      }

      .cls-5 {
        fill: url(#linear-gradient-2);
      }

      .cls-6 {
        fill: url(#linear-gradient-5);
      }

      .cls-7 {
        fill: #084c7e;
      }

      .cls-9 {
        fill: url(#linear-gradient-4);
      }
    </style>
    <linearGradient id="linear-gradient" x1="-9.3" y1="114.3" x2="8" y2="114.3" gradientTransform="translate(12.6 -105.5) rotate(-1.2)" gradientUnits="userSpaceOnUse">
      <stop offset="0" stop-color="#68aca2"/>
      <stop offset="1" stop-color="#4a9287"/>
    </linearGradient>
    <linearGradient id="linear-gradient-2" x1="-4.2" y1="131.1" x2="13.1" y2="131.1" xlink:href="#linear-gradient"/>
    <linearGradient id="linear-gradient-3" x1="-9856.5" y1="-1230.1" x2="-9849.3" y2="-1237.2" gradientTransform="translate(-9865 -994.7) rotate(178.8)" gradientUnits="userSpaceOnUse">
      <stop offset="0" stop-color="#18304f"/>
      <stop offset="1" stop-color="#2f6baf"/>
    </linearGradient>
    <linearGradient id="linear-gradient-4" x1="-4171.2" y1="-5572.6" x2="-4153.9" y2="-5572.6" gradientTransform="translate(-5456.8 4295.3) rotate(88.8)" xlink:href="#linear-gradient"/>
    <linearGradient id="linear-gradient-5" x1="-4166.1" y1="-5555.8" x2="-4148.8" y2="-5555.8" gradientTransform="translate(-5456.8 4295.3) rotate(88.8)" xlink:href="#linear-gradient"/>
  </defs>
  <g>
    <path class="cls-3" d="M53.2,10.5c0,.9-.3,1.8-.8,2.5-.5.7-1.1,1.3-2,1.7-.8.4-1.8.6-2.9.6-1.8,0-3.2-.6-4.2-1.7-1-1.2-1.5-2.8-1.5-4.9v-.7c0-1.3.2-2.5.7-3.5.5-1,1.1-1.8,2-2.3.9-.5,1.9-.8,3-.8,1.6,0,3,.4,4,1.3,1,.9,1.6,2.1,1.7,3.6h-3.3c0-.8-.2-1.4-.6-1.8-.4-.4-1-.5-1.8-.5s-1.4.3-1.8.9c-.4.6-.6,1.6-.6,2.9v1c0,1.4.2,2.5.5,3.1.4.6,1,.9,1.9.9s1.3-.2,1.7-.5c.4-.4.6-.9.6-1.7h3.2Z"/>
    <path class="cls-3" d="M58.4,15h-3.1V.8h3.1v14.3Z"/>
    <path class="cls-3" d="M60.8,2.4c0-.4.2-.8.5-1.1.3-.3.7-.4,1.3-.4s.9.1,1.3.4c.3.3.5.7.5,1.1s-.2.8-.5,1.1c-.3.3-.7.4-1.3.4s-.9-.1-1.3-.4c-.3-.3-.5-.7-.5-1.1ZM64.1,15h-3.1V5h3.1v10.1Z"/>
    <path class="cls-3" d="M69.5,5v1.2c.8-.9,1.8-1.4,3-1.4s2.1.5,2.6,1.5c.7-1,1.7-1.5,3-1.5,2,0,3.1,1.2,3.1,3.7v6.5h-3.1v-6.3c0-.5,0-.9-.3-1.1-.2-.2-.5-.4-.9-.4s-1.1.3-1.4.8h0v7h-3.1v-6.3c0-.5,0-.9-.3-1.1-.2-.2-.5-.4-1-.4s-1.1.3-1.4.8v7h-3.1V5h2.9Z"/>
    <path class="cls-3" d="M89,15c-.1-.2-.2-.5-.3-.9-.6.7-1.4,1.1-2.4,1.1s-1.8-.3-2.4-.9c-.7-.6-1-1.3-1-2.2s.4-1.9,1.2-2.5c.8-.6,2-.8,3.5-.8h1v-.5c0-.9-.4-1.4-1.2-1.4s-1.1.4-1.1,1.1h-3.1c0-1,.4-1.8,1.2-2.4s1.9-.9,3.2-.9,2.3.3,3,.9c.7.6,1.1,1.5,1.1,2.6v4.5c0,.9.2,1.6.4,2.1v.2h-3.1ZM87.1,13c.4,0,.7,0,1-.3.3-.2.4-.4.6-.6v-1.6h-.9c-1.1,0-1.6.5-1.6,1.5s0,.5.3.7c.2.2.4.3.7.3Z"/>
    <path class="cls-3" d="M97.6,2.5v2.5h1.7v2.2h-1.7v4.6c0,.4,0,.6.2.8.1.1.4.2.8.2s.6,0,.8,0v2.2c-.6.2-1.2.3-1.8.3-1.1,0-1.9-.3-2.4-.8-.5-.5-.8-1.3-.8-2.3v-5h-1.3v-2.2h1.3v-2.5h3.1Z"/>
    <path class="cls-3" d="M105.8,15.2c-1.5,0-2.8-.5-3.7-1.4-1-.9-1.4-2.1-1.4-3.6v-.3c0-1,.2-1.9.6-2.7.4-.8.9-1.4,1.7-1.8.7-.4,1.6-.6,2.6-.6s2.5.4,3.3,1.3c.8.9,1.2,2.1,1.2,3.7v1.2h-6.2c.1.6.4,1,.7,1.3.4.3.9.5,1.5.5,1,0,1.8-.3,2.3-1l1.4,1.7c-.4.5-.9,1-1.7,1.3s-1.5.5-2.3.5ZM105.5,7.2c-.9,0-1.5.6-1.6,1.8h3.2v-.2c0-.5-.1-.9-.4-1.2-.3-.3-.6-.4-1.1-.4Z"/>
    <path class="cls-3" d="M56.4,31.5h-4.5l-.8,2.5h-3.5l5-13.5h3.1l5,13.5h-3.5l-.8-2.5ZM52.7,29h2.9l-1.5-4.7-1.5,4.7Z"/>
    <path class="cls-3" d="M61.8,34.1v-13.5h4.4c1.2,0,2.3.3,3.2.8,1,.5,1.7,1.3,2.2,2.3.5,1,.8,2.1.8,3.3v.6c0,1.2-.3,2.4-.8,3.3-.5,1-1.3,1.8-2.2,2.3-1,.6-2,.8-3.2.8h-4.5ZM65,23v8.5h1.1c.9,0,1.7-.3,2.2-1,.5-.7.8-1.7.8-3v-.6c0-1.3-.3-2.3-.8-3-.5-.7-1.2-1-2.2-1h-1.1Z"/>
    <path class="cls-3" d="M81.8,31.5h-4.5l-.8,2.5h-3.5l5-13.5h3.1l5,13.5h-3.5l-.8-2.5ZM78.1,29h2.9l-1.5-4.7-1.5,4.7Z"/>
    <path class="cls-3" d="M90.4,29.5v4.6h-3.3v-13.5h5.4c1,0,2,.2,2.7.6.8.4,1.4.9,1.8,1.6.4.7.7,1.5.7,2.4,0,1.3-.5,2.4-1.4,3.2-.9.8-2.2,1.2-3.9,1.2h-2.1ZM90.4,26.9h2.1c.6,0,1.1-.2,1.4-.5.3-.3.5-.8.5-1.3s-.2-1.1-.5-1.5c-.3-.4-.8-.6-1.4-.6h-2.2v3.9Z"/>
    <path class="cls-3" d="M110.2,23h-4.1v11h-3.3v-11h-4v-2.5h11.3v2.5Z"/>
  </g>
  <g>
    <path class="cls-3" d="M124.6,5.2c0-.2,0-.4-.2-.5-.2-.1-.4-.2-.8-.4s-.7-.3-1-.4c-.6-.3-1-.8-1-1.4s0-.6.3-.8c.2-.2.4-.4.7-.6.3-.1.7-.2,1.1-.2s.8,0,1.1.2c.3.1.6.4.7.6s.3.6.3.9h-1.2c0-.3,0-.5-.2-.6-.2-.1-.4-.2-.7-.2s-.5,0-.7.2-.2.3-.2.5,0,.3.3.5.5.2.8.3c.7.2,1.1.4,1.4.7.3.3.5.7.5,1.1s-.2.9-.6,1.2c-.4.3-.9.4-1.5.4s-.8,0-1.2-.2c-.4-.2-.6-.4-.8-.7-.2-.3-.3-.6-.3-1h1.2c0,.6.4.9,1.1.9s.5,0,.6-.2c.2-.1.2-.3.2-.5Z"/>
    <path class="cls-3" d="M131.2,6.7h-1.2v-2.4h-2.3v2.4h-1.2V1.1h1.2v2.3h2.3V1.1h1.2v5.7Z"/>
    <path class="cls-3" d="M135.5,5.6h-2l-.4,1.2h-1.2l2.1-5.7h1.1l2.1,5.7h-1.2l-.4-1.2ZM133.7,4.6h1.4l-.7-2.1-.7,2.1Z"/>
    <path class="cls-3" d="M139.7,4.6h-.9v2.1h-1.2V1.1h2.1c.7,0,1.2.1,1.5.4.4.3.5.7.5,1.3s0,.7-.3,1c-.2.3-.4.5-.8.6l1.2,2.3h0c0,0-1.3,0-1.3,0l-1.1-2.1ZM138.8,3.7h.9c.3,0,.5,0,.7-.2.2-.1.2-.4.2-.6s0-.5-.2-.6-.4-.2-.7-.2h-.9v1.7Z"/>
    <path class="cls-3" d="M143.9,6.7h-1.2V1.1h1.2v5.7Z"/>
    <path class="cls-3" d="M149.6,6.7h-1.2l-2.3-3.7v3.7h-1.2V1.1h1.2l2.3,3.7V1.1h1.2v5.7Z"/>
    <path class="cls-3" d="M155.1,6c-.2.3-.5.4-.9.6-.4.1-.8.2-1.3.2s-.9-.1-1.3-.3c-.4-.2-.7-.5-.9-.9s-.3-.9-.3-1.4v-.4c0-.6,0-1.1.3-1.5.2-.4.5-.7.8-.9.4-.2.8-.3,1.3-.3s1.2.2,1.6.5c.4.3.6.8.7,1.4h-1.1c0-.3-.2-.6-.3-.7-.2-.2-.4-.2-.7-.2s-.7.1-.9.4c-.2.3-.3.7-.3,1.3v.4c0,.6.1,1,.3,1.3.2.3.6.5,1,.5s.7,0,.9-.3v-1h-1.1v-.9h2.2v2.3Z"/>
    <path class="cls-3" d="M161.2,5.6h-2l-.4,1.2h-1.2l2.1-5.7h1.1l2.1,5.7h-1.2l-.4-1.2ZM159.5,4.6h1.4l-.7-2.1-.7,2.1Z"/>
    <path class="cls-3" d="M163.4,6.7V1.1h1.7c.5,0,.9.1,1.3.3.4.2.7.5.9,1,.2.4.3.9.3,1.4v.3c0,.5-.1,1-.3,1.4-.2.4-.5.7-.9,1-.4.2-.8.3-1.3.3h-1.8ZM164.5,2v3.8h.6c.5,0,.8-.1,1-.4.2-.3.4-.7.4-1.3v-.3c0-.6-.1-1-.4-1.3-.2-.3-.6-.4-1-.4h-.6Z"/>
    <path class="cls-3" d="M171.7,5.6h-2l-.4,1.2h-1.2l2.1-5.7h1.1l2.1,5.7h-1.2l-.4-1.2ZM170,4.6h1.4l-.7-2.1-.7,2.1Z"/>
    <path class="cls-3" d="M175.1,4.7v2h-1.2V1.1h2.2c.4,0,.8,0,1.1.2s.6.4.7.7c.2.3.3.6.3,1,0,.6-.2,1-.6,1.3-.4.3-.9.5-1.6.5h-1ZM175.1,3.8h1c.3,0,.5,0,.7-.2s.2-.4.2-.6,0-.5-.2-.7c-.2-.2-.4-.3-.7-.3h-1.1v1.8Z"/>
    <path class="cls-3" d="M183.3,2h-1.7v4.7h-1.2V2h-1.7v-.9h4.6v.9Z"/>
    <path class="cls-3" d="M186.7,5.6h-2l-.4,1.2h-1.2l2.1-5.7h1.1l2.1,5.7h-1.2l-.4-1.2ZM184.9,4.6h1.4l-.7-2.1-.7,2.1Z"/>
    <path class="cls-3" d="M192.6,2h-1.7v4.7h-1.2V2h-1.7v-.9h4.6v.9Z"/>
    <path class="cls-3" d="M194.5,6.7h-1.2V1.1h1.2v5.7Z"/>
    <path class="cls-3" d="M200.3,4c0,.6,0,1-.3,1.5s-.5.7-.8,1c-.4.2-.8.3-1.3.3s-.9-.1-1.3-.3c-.4-.2-.7-.5-.9-1s-.3-.9-.3-1.4v-.3c0-.6.1-1,.3-1.5.2-.4.5-.7.9-1,.4-.2.8-.3,1.3-.3s.9.1,1.3.3c.4.2.6.6.9,1,.2.4.3.9.3,1.5v.3ZM199.1,3.8c0-.6-.1-1-.3-1.4-.2-.3-.5-.5-.9-.5s-.7.2-.9.5c-.2.3-.3.7-.3,1.3v.3c0,.6.1,1,.3,1.3.2.3.5.5.9.5s.7-.2.9-.5c.2-.3.3-.8.3-1.3v-.3Z"/>
    <path class="cls-3" d="M205.7,6.7h-1.2l-2.3-3.7v3.7h-1.2V1.1h1.2l2.3,3.7V1.1h1.2v5.7Z"/>
    <path class="cls-3" d="M123.5,13.6l-.6.7v1.6h-1.2v-5.7h1.2v2.6l.5-.7,1.4-1.9h1.4l-2,2.5,2.1,3.1h-1.4l-1.5-2.3Z"/>
    <path class="cls-3" d="M131.3,15.8h-1.2l-2.3-3.7v3.7h-1.2v-5.7h1.2l2.3,3.7v-3.7h1.2v5.7Z"/>
    <path class="cls-3" d="M137,13.1c0,.6,0,1-.3,1.5s-.5.7-.8,1-.8.3-1.3.3-.9-.1-1.3-.3c-.4-.2-.7-.5-.9-1-.2-.4-.3-.9-.3-1.4v-.3c0-.6.1-1,.3-1.5.2-.4.5-.7.9-1,.4-.2.8-.3,1.3-.3s.9.1,1.3.3c.4.2.6.6.9,1,.2.4.3.9.3,1.5v.3ZM135.8,12.9c0-.6-.1-1-.3-1.4-.2-.3-.5-.5-.9-.5s-.7.2-.9.5c-.2.3-.3.7-.3,1.3v.3c0,.6.1,1,.3,1.3.2.3.5.5.9.5s.7-.2.9-.5c.2-.3.3-.8.3-1.3v-.3Z"/>
    <path class="cls-3" d="M142.3,14.2l.8-4h1.2l-1.3,5.7h-1.2l-.9-3.8-.9,3.8h-1.2l-1.3-5.7h1.2l.8,4,.9-4h1l.9,4Z"/>
    <path class="cls-3" d="M146,14.9h2.5v.9h-3.6v-5.7h1.2v4.7Z"/>
    <path class="cls-3" d="M152.5,13.4h-2.2v1.5h2.6v.9h-3.8v-5.7h3.8v.9h-2.6v1.3h2.2v.9Z"/>
    <path class="cls-3" d="M153.6,15.8v-5.7h1.7c.5,0,.9.1,1.3.3.4.2.7.5.9,1,.2.4.3.9.3,1.4v.3c0,.5-.1,1-.3,1.4-.2.4-.5.7-.9,1-.4.2-.8.3-1.3.3h-1.8ZM154.8,11.1v3.8h.6c.5,0,.8-.1,1-.4.2-.3.4-.7.4-1.3v-.3c0-.6-.1-1-.4-1.3-.2-.3-.6-.4-1-.4h-.6Z"/>
    <path class="cls-3" d="M163.2,15.1c-.2.3-.5.4-.9.6-.4.1-.8.2-1.3.2s-.9-.1-1.3-.3c-.4-.2-.7-.5-.9-.9-.2-.4-.3-.9-.3-1.4v-.4c0-.6,0-1.1.3-1.5.2-.4.5-.7.8-.9.4-.2.8-.3,1.3-.3s1.2.2,1.6.5c.4.3.6.8.7,1.4h-1.1c0-.3-.2-.6-.3-.7-.2-.2-.4-.2-.7-.2s-.7.1-.9.4c-.2.3-.3.7-.3,1.3v.4c0,.6.1,1,.3,1.3.2.3.6.5,1,.5s.7,0,.9-.3v-1h-1.1v-.9h2.2v2.3Z"/>
    <path class="cls-3" d="M167.6,13.4h-2.2v1.5h2.6v.9h-3.8v-5.7h3.8v.9h-2.6v1.3h2.2v.9Z"/>
    <path class="cls-3" d="M174,13.5h-2.2v2.3h-1.2v-5.7h3.7v.9h-2.5v1.5h2.2v.9Z"/>
    <path class="cls-3" d="M179.6,13.1c0,.6,0,1-.3,1.5-.2.4-.5.7-.8,1-.4.2-.8.3-1.3.3s-.9-.1-1.3-.3c-.4-.2-.7-.5-.9-1-.2-.4-.3-.9-.3-1.4v-.3c0-.6.1-1,.3-1.5.2-.4.5-.7.9-1,.4-.2.8-.3,1.3-.3s.9.1,1.3.3c.4.2.6.6.9,1,.2.4.3.9.3,1.5v.3ZM178.4,12.9c0-.6-.1-1-.3-1.4-.2-.3-.5-.5-.9-.5s-.7.2-.9.5c-.2.3-.3.7-.3,1.3v.3c0,.6.1,1,.3,1.3.2.3.5.5.9.5s.7-.2.9-.5.3-.8.3-1.3v-.3Z"/>
    <path class="cls-3" d="M182.6,13.8h-.9v2.1h-1.2v-5.7h2.1c.7,0,1.2.1,1.5.4.4.3.5.7.5,1.3s0,.7-.3,1c-.2.3-.4.5-.8.6l1.2,2.3h0c0,0-1.3,0-1.3,0l-1.1-2.1ZM181.6,12.8h.9c.3,0,.5,0,.7-.2.2-.1.2-.4.2-.6s0-.5-.2-.6-.4-.2-.7-.2h-.9v1.7Z"/>
    <path class="cls-3" d="M124.9,23.8h-2l-.4,1.2h-1.2l2.1-5.7h1.1l2.1,5.7h-1.2l-.4-1.2ZM123.2,22.9h1.4l-.7-2.1-.7,2.1Z"/>
    <path class="cls-3" d="M133.5,23.1c0,.6-.3,1.1-.7,1.4-.4.3-.9.5-1.6.5s-1.3-.2-1.7-.7c-.4-.5-.6-1.2-.6-2v-.3c0-.5,0-1,.3-1.4.2-.4.5-.7.8-1,.4-.2.8-.3,1.2-.3s1.2.2,1.6.5c.4.3.6.8.7,1.5h-1.2c0-.4-.1-.6-.3-.8-.2-.2-.4-.2-.8-.2s-.7.1-.9.4c-.2.3-.3.7-.3,1.3v.4c0,.6,0,1.1.3,1.3.2.3.5.4.9.4s.6,0,.8-.2c.2-.2.3-.4.3-.8h1.2Z"/>
    <path class="cls-3" d="M135.4,24h2.5v.9h-3.6v-5.7h1.2v4.7Z"/>
    <path class="cls-3" d="M139.8,25h-1.2v-5.7h1.2v5.7Z"/>
    <path class="cls-3" d="M142.4,19.3l1.5,4.1,1.4-4.1h1.5v5.7h-1.2v-4.2c.1,0-1.4,4.2-1.4,4.2h-.8l-1.5-4.2v2.7c.1,0,.1,1.5.1,1.5h-1.2v-5.7h1.5Z"/>
    <path class="cls-3" d="M151,23.8h-2l-.4,1.2h-1.2l2.1-5.7h1.1l2.1,5.7h-1.2l-.4-1.2ZM149.3,22.9h1.4l-.7-2.1-.7,2.1Z"/>
    <path class="cls-3" d="M157,20.2h-1.7v4.7h-1.2v-4.7h-1.7v-.9h4.6v.9Z"/>
    <path class="cls-3" d="M161,22.5h-2.2v1.5h2.6v.9h-3.8v-5.7h3.8v.9h-2.6v1.3h2.2v.9Z"/>
    <path class="cls-3" d="M164.2,23h-2.2v-.9h2.2v.9Z"/>
    <path class="cls-3" d="M167.3,22.9h-.9v2.1h-1.2v-5.7h2.1c.7,0,1.2.1,1.5.4.4.3.5.7.5,1.3s0,.7-.3,1c-.2.3-.4.5-.8.6l1.2,2.3h0c0,0-1.3,0-1.3,0l-1.1-2.1ZM166.3,21.9h.9c.3,0,.5,0,.7-.2.2-.1.2-.4.2-.6s0-.5-.2-.6-.4-.2-.7-.2h-.9v1.7Z"/>
    <path class="cls-3" d="M173.7,22.5h-2.2v1.5h2.6v.9h-3.8v-5.7h3.8v.9h-2.6v1.3h2.2v.9Z"/>
    <path class="cls-3" d="M177.7,23.5c0-.2,0-.4-.2-.5-.2-.1-.4-.2-.8-.4-.4-.1-.7-.3-1-.4-.6-.3-1-.8-1-1.4s0-.6.3-.8c.2-.2.4-.4.7-.6.3-.1.7-.2,1.1-.2s.8,0,1.1.2c.3.1.6.4.7.6.2.3.3.6.3.9h-1.2c0-.3,0-.5-.2-.6-.2-.1-.4-.2-.7-.2s-.5,0-.7.2c-.2.1-.2.3-.2.5s0,.3.3.5c.2.1.5.2.8.3.7.2,1.1.4,1.4.7.3.3.5.7.5,1.1s-.2.9-.6,1.2c-.4.3-.9.4-1.5.4s-.8,0-1.2-.2-.6-.4-.8-.7c-.2-.3-.3-.6-.3-1h1.2c0,.6.4.9,1.1.9s.5,0,.6-.2c.2-.1.2-.3.2-.5Z"/>
    <path class="cls-3" d="M180.9,25h-1.2v-5.7h1.2v5.7Z"/>
    <path class="cls-3" d="M183.1,24h2.5v.9h-3.6v-5.7h1.2v4.7Z"/>
    <path class="cls-3" d="M187.5,25h-1.2v-5.7h1.2v5.7Z"/>
    <path class="cls-3" d="M192,22.5h-2.2v1.5h2.6v.9h-3.8v-5.7h3.8v.9h-2.6v1.3h2.2v.9Z"/>
    <path class="cls-3" d="M197.6,25h-1.2l-2.3-3.7v3.7h-1.2v-5.7h1.2l2.3,3.7v-3.7h1.2v5.7Z"/>
    <path class="cls-3" d="M202.9,20.2h-1.7v4.7h-1.2v-4.7h-1.7v-.9h4.6v.9Z"/>
    <path class="cls-3" d="M125.1,31.6h-2.2v1.5h2.6v.9h-3.8v-5.7h3.8v.9h-2.6v1.3h2.2v.9Z"/>
    <path class="cls-3" d="M130.5,28.4v3.7c0,.6-.2,1.1-.6,1.5s-.9.5-1.6.5-1.2-.2-1.6-.5c-.4-.3-.6-.8-.6-1.4v-3.8h1.2v3.7c0,.4,0,.6.3.8.2.2.4.3.7.3.7,0,1-.3,1-1v-3.8h1.2Z"/>
    <path class="cls-3" d="M133.5,32h-.9v2.1h-1.2v-5.7h2.1c.7,0,1.2.1,1.5.4.4.3.5.7.5,1.3s0,.7-.3,1c-.2.3-.4.5-.8.6l1.2,2.3h0c0,0-1.3,0-1.3,0l-1.1-2.1ZM132.6,31.1h.9c.3,0,.5,0,.7-.2.2-.1.2-.4.2-.6s0-.5-.2-.6-.4-.2-.7-.2h-.9v1.7Z"/>
    <path class="cls-3" d="M141.1,31.4c0,.6,0,1-.3,1.5-.2.4-.5.7-.8,1-.4.2-.8.3-1.3.3s-.9-.1-1.3-.3c-.4-.2-.7-.5-.9-1-.2-.4-.3-.9-.3-1.4v-.3c0-.6.1-1,.3-1.5.2-.4.5-.7.9-1,.4-.2.8-.3,1.3-.3s.9.1,1.3.3c.4.2.6.6.9,1,.2.4.3.9.3,1.5v.3ZM139.9,31.1c0-.6-.1-1-.3-1.4-.2-.3-.5-.5-.9-.5s-.7.2-.9.5c-.2.3-.3.7-.3,1.3v.3c0,.6.1,1,.3,1.3.2.3.5.5.9.5s.7-.2.9-.5.3-.8.3-1.3v-.3Z"/>
    <path class="cls-3" d="M143.1,32.1v2h-1.2v-5.7h2.2c.4,0,.8,0,1.1.2s.6.4.7.7c.2.3.3.6.3,1,0,.6-.2,1-.6,1.3-.4.3-.9.5-1.6.5h-1ZM143.1,31.1h1c.3,0,.5,0,.7-.2s.2-.4.2-.6,0-.5-.2-.7c-.2-.2-.4-.3-.7-.3h-1.1v1.8Z"/>
    <path class="cls-3" d="M150.5,31.6h-2.2v1.5h2.6v.9h-3.8v-5.7h3.8v.9h-2.6v1.3h2.2v.9Z"/>
  </g>
  <g>
    <path class="cls-4" d="M15.8,8.2h0s0,0,0,0c-.2-.2-.4-.4-.5-.7-1.4-2.6-4.5-5-9.7-3.9,3,1.1,1.3,5.3,5.9,7s1.5.8,2.1,1.3l1.2,1.1c2.1,2,4.5,1.1,5.8-.3l2.3-2.5c-3.5,2.3-7.2-2.1-7.2-2.1Z"/>
    <path class="cls-7" d="M15.8,8.2c1.7,1.6,1.9,1.6,3.6-.1l4.3-4.6c2,1.8,3.2,2.7,1.1,4.9l-1.8,1.9c-3.5,2.3-7.2-2.1-7.2-2.1Z"/>
    <path class="cls-7" d="M19.4,4.5c1-1.1,1-2.8-.1-3.8-1.1-1-2.8-1-3.8.1-1,1.1-1,2.8.1,3.8,1.1,1,2.8,1,3.8-.1Z"/>
    <g>
      <path class="cls-1" d="M14.6,10.7c-.6-1.3-1.5-2.5-2.5-3.5s-2.7-2.4-4.9-3.1h0c3,1.4,4.4,2.7,6.2,5.1l1.2,1.5h0Z"/>
      <line class="cls-8" x1="13.3" y1="6.7" x2="13.3" y2="6.7"/>
    </g>
  </g>
  <g>
    <path class="cls-5" d="M18.4,26h0s0,0,0,0c.2.2.4.4.5.7,1.4,2.6,4.5,5,9.7,3.9-3-1.1-1.3-5.3-5.9-7-.8-.3-1.5-.8-2.1-1.3l-1.2-1.1c-2.1-2-4.5-1.1-5.8.3l-2.3,2.5c3.5-2.3,7.2,2.1,7.2,2.1Z"/>
    <path class="cls-2" d="M18.4,26c-1.7-1.6-1.9-1.6-3.6.1l-4.3,4.6c-2-1.8-3.2-2.7-1.1-4.9l1.8-1.9c3.5-2.3,7.2,2.1,7.2,2.1Z"/>
    <path class="cls-7" d="M14.8,29.7c-1,1.1-1,2.8.1,3.8,1.1,1,2.8,1,3.8-.1,1-1.1,1-2.8-.1-3.8-1.1-1-2.8-1-3.8.1Z"/>
    <g>
      <path class="cls-1" d="M19.5,23.4c.6,1.3,1.5,2.5,2.5,3.5s2.7,2.4,4.9,3.1h0c-3-1.4-4.4-2.7-6.2-5.1l-1.2-1.5h0Z"/>
      <line class="cls-8" x1="20.9" y1="27.5" x2="20.9" y2="27.5"/>
    </g>
  </g>
  <g>
    <path class="cls-9" d="M26,15.8h0s0,0,0,0c.2-.2.4-.4.7-.5,2.6-1.4,5-4.5,3.9-9.7-1.1,3-5.3,1.3-7,5.9s-.8,1.5-1.3,2.1l-1.1,1.2c-2,2.1-1.1,4.5.3,5.8l2.5,2.3c-2.3-3.5,2.1-7.2,2.1-7.2Z"/>
    <path class="cls-7" d="M26,15.8c-1.6,1.7-1.6,1.9.1,3.6l4.6,4.3c-1.8,2-2.7,3.2-4.9,1.1l-1.9-1.8c-2.3-3.5,2.1-7.2,2.1-7.2Z"/>
    <path class="cls-7" d="M29.7,19.4c1.1,1,2.8,1,3.8-.1,1-1.1,1-2.8-.1-3.8-1.1-1-2.8-1-3.8.1-1,1.1-1,2.8.1,3.8Z"/>
    <g>
      <path class="cls-1" d="M23.4,14.6c1.3-.6,2.5-1.5,3.5-2.5s2.4-2.7,3.1-4.9h0c-1.3,3-2.7,4.4-5.1,6.2l-1.5,1.2h0Z"/>
      <line class="cls-8" x1="27.5" y1="13.3" x2="27.5" y2="13.3"/>
    </g>
  </g>
  <g>
    <path class="cls-6" d="M8.2,18.4h0s0,0,0,0c-.2.2-.4.4-.7.5-2.6,1.4-5,4.5-3.9,9.7,1.1-3,5.3-1.3,7-5.9s.8-1.5,1.3-2.1l1.1-1.2c2-2.1,1.1-4.5-.3-5.8l-2.5-2.3c2.3,3.5-2.1,7.2-2.1,7.2Z"/>
    <path class="cls-7" d="M8.2,18.4c1.6-1.7,1.6-1.9-.1-3.6l-4.6-4.3c1.8-2,2.7-3.2,4.9-1.1l1.9,1.8c2.3,3.5-2.1,7.2-2.1,7.2Z"/>
    <path class="cls-7" d="M4.5,14.8c-1.1-1-2.8-1-3.8.1-1,1.1-1,2.8.1,3.8,1.1,1,2.8,1,3.8-.1,1-1.1,1-2.8-.1-3.8Z"/>
    <g>
      <path class="cls-1" d="M10.7,19.5c-1.3.6-2.5,1.5-3.5,2.5s-2.4,2.7-3.1,4.9h0c1.3-3,2.7-4.4,5.1-6.2l1.5-1.2h0Z"/>
      <line class="cls-8" x1="6.7" y1="20.9" x2="6.7" y2="20.9"/>
    </g>
  </g>
</svg>