<svg width="65" height="65" viewBox="0 0 65 65" fill="none" xmlns="http://www.w3.org/2000/svg">
<path fill-rule="evenodd" clip-rule="evenodd" d="M8 36C7.44772 36 7 35.5523 7 35L7 30C7 29.4477 7.44772 29 8 29C8.55228 29 9 29.4477 9 30L9 35C9 35.5523 8.55228 36 8 36Z" fill="#002D54"/>
<path d="M2 10C2 7.79086 3.79086 6 6 6H59C61.2091 6 63 7.79086 63 10V46C63 48.2091 61.2091 50 59 50H32.5H6C3.79086 50 2 48.2091 2 46V10Z" stroke="#002D54" stroke-width="2"/>
<path d="M1 44H63" stroke="#002D54" stroke-width="2"/>
<path fill-rule="evenodd" clip-rule="evenodd" d="M49 59C49 59.5523 48.5523 60 48 60H17C16.4477 60 16 59.5523 16 59C16 58.4477 16.4477 58 17 58H48C48.5523 58 49 58.4477 49 59Z" fill="#002D54"/>
<path fill-rule="evenodd" clip-rule="evenodd" d="M24 38C23.4477 38 23 37.5523 23 37L23 29C23 28.4477 23.4477 28 24 28C24.5523 28 25 28.4477 25 29L25 37C25 37.5523 24.5523 38 24 38Z" fill="#002D54"/>
<path fill-rule="evenodd" clip-rule="evenodd" d="M12 38C11.4477 38 11 37.5523 11 37L11 26C11 25.4477 11.4477 25 12 25C12.5523 25 13 25.4477 13 26L13 37C13 37.5523 12.5523 38 12 38Z" fill="#002D54"/>
<path fill-rule="evenodd" clip-rule="evenodd" d="M20 38C19.4477 38 19 37.5523 19 37L19 22C19 21.4477 19.4477 21 20 21C20.5523 21 21 21.4477 21 22L21 37C21 37.5523 20.5523 38 20 38Z" fill="#002D54"/>
<path fill-rule="evenodd" clip-rule="evenodd" d="M16 38C15.4477 38 15 37.5523 15 37L15 18C15 17.4477 15.4477 17 16 17C16.5523 17 17 17.4477 17 18L17 37C17 37.5523 16.5523 38 16 38Z" fill="#002D54"/>
<line x1="25.5992" y1="49.1909" x2="22.5325" y2="59.1569" stroke="#002D54" stroke-width="2"/>
<line y1="-1" x2="10.4272" y2="-1" transform="matrix(0.294108 0.955772 0.955772 -0.294108 40.7815 48.8968)" stroke="#002D54" stroke-width="2"/>
<path fill-rule="evenodd" clip-rule="evenodd" d="M42.6217 13V25.4843V26.3783H43.5157H56C55.5416 32.8733 50.1274 38 43.5157 38C36.6035 38 31 32.3965 31 25.4843C31 18.8726 36.1267 13.4584 42.6217 13Z" fill="#0087D9"/>
<path d="M56 24C55.5847 18.116 50.884 13.4153 45 13V24H56Z" fill="#002D54"/>
</svg>
