<?xml version="1.0" encoding="utf-8"?>
<!-- Generator: Adobe Illustrator 20.1.0, SVG Export Plug-In . SVG Version: 6.00 Build 0)  -->
<svg version="1.1" id="Layer_1" xmlns="http://www.w3.org/2000/svg" xmlns:xlink="http://www.w3.org/1999/xlink" x="0px" y="0px"
	 viewBox="0 0 170.0800018 42.5200005" style="enable-background:new 0 0 170.0800018 42.5200005;" xml:space="preserve">
<style type="text/css">
	.st0{fill:#404040;}
	.st1{fill:#034EA2;}
	.st2{fill:#B3B3B3;}
	.st3{fill:#FFF200;}
</style>
<g>
	<path class="st0" d="M94.2233047,20.6836967c0-0.1380959,0.0639801-0.2127438,0.2127151-0.2127438H98.35112
		c0.1276855,0,0.2020493,0.0746479,0.2020493,0.202076v0.6598206c0,0.1276798-0.0533142,0.1913795-0.2127151,0.1913795H95.436264
		v1.8298569h2.5744095c0.1383743,0,0.212738,0.0636997,0.212738,0.1914082v0.6595402
		c0,0.1276798-0.0533066,0.1916599-0.212738,0.1916599H95.436264v2.0956306h2.9788361
		c0.1274338,0,0.1914139,0.0639801,0.1914139,0.202076v0.6491528c0,0.1380672-0.0533447,0.1913795-0.2023621,0.1913795h-3.968132
		c-0.148735,0-0.2127151-0.0636997-0.2127151-0.1913795V20.6836967z"/>
	<path class="st0" d="M103.9691544,27.5349331h-0.7554932c-0.1594315,0-0.2020798-0.0743675-0.2020798-0.2020473v-0.3297844
		l-0.0213318-0.0106678c-0.4147949,0.2871113-1.1383133,0.6382046-1.7871857,0.6382046
		c-1.4360962,0-1.57444-0.8509216-1.57444-1.9682045v-3.127573c0-0.1276798,0.0530319-0.2127151,0.2020493-0.2127151h0.7765808
		c0.1383438,0,0.191658,0.0743675,0.191658,0.2127151v2.9895058c0,0.6382027,0.1274261,1.0426064,0.7765808,1.0426064
		c0.4571838,0,1.1593628-0.3404236,1.4360886-0.4787712v-3.5533409c0-0.1276798,0.0426483-0.2127151,0.2020798-0.2127151h0.7554932
		c0.1487656,0,0.2017975,0.0743675,0.2017975,0.2127151v4.7980251
		C104.1709518,27.4712334,104.1179199,27.5349331,103.9691544,27.5349331z"/>
	<path class="st0" d="M106.6718292,27.3328857c0,0.1276798-0.0530624,0.2020473-0.2020798,0.2020473h-0.7659073
		c-0.1487427,0-0.2020798-0.0636997-0.2020798-0.2020473v-4.7980251c0-0.1383476,0.0533371-0.2127151,0.2020798-0.2127151h0.7552414
		c0.1596832,0,0.2127457,0.0850353,0.2127457,0.2127151v0.468132l0.0213089,0.0213375
		c0.3193893-0.2980614,1.0746078-0.6595402,1.5744629-0.7555237c0.1383514-0.0317249,0.2340546,0,0.2553864,0.1810188
		l0.0743713,0.7128525c0.0109482,0.1487637,0.0213394,0.2127419-0.2020798,0.2551079
		c-0.5958099,0.1170406-1.3510513,0.3297844-1.7234497,0.4894676V27.3328857z"/>
	<path class="st0" d="M111.3536224,27.619997c-2.1385574,0-2.2766495-1.5637989-2.2766495-2.7765083
		c0-0.9999352,0.2231293-2.6277161,2.2766495-2.6277161c2.0636292,0,2.3509903,1.372364,2.3509903,2.6277161
		C113.7046127,26.0561981,113.5555954,27.619997,111.3536224,27.619997z M111.3640137,23.2370453
		c-0.9042664,0-1.1063385,0.5745049-1.1063385,1.6808395c0,1.1276455,0.2020721,1.6808128,1.0959473,1.6808128
		c0.9679565,0,1.1593704-0.5424995,1.1593704-1.6808128C112.5129929,23.7902126,112.3322525,23.2370453,111.3640137,23.2370453z"/>
	<path class="st0" d="M117.2265091,27.6306381c-0.3510895,0-0.8405609-0.0637016-1.3297501-0.2340527l-0.0106354,0.0106678
		v1.8724995c0,0.1170406-0.0320053,0.2127438-0.2020721,0.2127438h-0.7555313c-0.1700668,0-0.2020493-0.0746479-0.2020493-0.2127438
		v-6.7448921c0-0.1383476,0.0533142-0.2127151,0.2020493-0.2127151h0.7555313c0.1487274,0,0.1914063,0.0850353,0.1914063,0.2127151
		v0.3191166l0.0319748,0.0213089c0.3828125-0.2660561,1.0636902-0.6382046,1.6808395-0.6382046
		c1.3936996,0,1.7551804,1.0530243,1.7551804,2.6594677C119.3434525,26.6307011,118.9073257,27.6306381,117.2265091,27.6306381z
		 M117.3115463,23.3007736c-0.4361267,0-1.1063385,0.3087006-1.4254227,0.4787712v2.6597481
		c0.4787674,0.1380692,0.8615875,0.1807404,1.2233429,0.1807404c0.7658844,0,1.0319443-0.3934841,1.0319443-1.7341518
		C118.1414108,23.5348263,117.875351,23.3007736,117.3115463,23.3007736z"/>
	<path class="st0" d="M121.3868637,25.2476406c0.0319748,1.0746136,0.4150696,1.3723927,1.287323,1.3723927
		c0.3831024,0,0.9786301-0.0743961,1.3830643-0.1170406c0.1914063-0.0213356,0.2551041-0.0213356,0.2871094,0.1810207
		l0.0639801,0.3508129c0.031723,0.1596832,0.0106659,0.2447186-0.181015,0.3300343
		c-0.4147949,0.1594334-1.1913757,0.2657776-1.712822,0.2657776c-2.0318985,0-2.3296814-1.2977161-2.3296814-2.6807785
		c0-1.0319386,0.1914063-2.734087,2.2659836-2.734087c1.9042206,0,2.2446518,1.2340164,2.2766266,2.3829975
		c0.0106659,0.3828144-0.0957031,0.6488705-0.5214462,0.6488705H121.3868637z M121.3975296,24.4497528h2.1065521
		c0-0.6488705-0.1703491-1.2766876-1.0532761-1.2766876C121.663559,23.1730652,121.4508438,23.651865,121.3975296,24.4497528z"/>
	<path class="st0" d="M128.98349,26.9284534c-0.5318298,0.4044323-1.2446899,0.6915436-1.9575424,0.6915436
		c-1.1276398,0-1.457428-0.6168957-1.457428-1.5104885c-0.0106659-1.2446823,0.6595459-1.7767944,1.9999313-1.7767944h1.3617249
		v-0.2764454c0-0.638483-0.2340546-0.8618679-1.1063385-0.8618679c-0.3510895,0-1.0212708,0.0533123-1.4467621,0.095705
		c-0.2127151,0.0319748-0.2660522,0.0213356-0.2977448-0.1274281L125.983345,22.76894
		c-0.0210571-0.1383743,0.0106659-0.2234097,0.2447205-0.3191147c0.4574661-0.1596851,1.2979889-0.2340527,1.7978439-0.2340527
		c1.8404999,0,2.0639191,0.7552166,2.0639191,1.9468689v2.0532398c0,0.4361286,0.053299,0.4467964,0.3830872,0.4891872
		c0.1594086,0.0106697,0.2020569,0.0426445,0.2020569,0.1596851v0.4467964c0,0.1170387-0.0743713,0.1914082-0.2554016,0.2233829
		c-0.1700592,0.0320034-0.3404236,0.0533409-0.4998169,0.0533409c-0.5001373,0-0.8085632-0.149044-0.9149323-0.6491528
		L128.98349,26.9284534z M128.9197845,25.1626053h-1.2980194c-0.5318375,0-0.872261,0.1914082-0.872261,0.8935928
		c0,0.468132,0.1594086,0.6171474,0.6595459,0.6171474c0.4574585,0,1.1063004-0.2660561,1.5107346-0.5001087V25.1626053z"/>
	<path class="st0" d="M135.7395782,27.5349331h-0.7658844c-0.138382,0-0.2020721-0.0636997-0.2020721-0.2020473l0.0106659-2.9895058
		c0-0.6275349-0.1490173-1.0426064-0.7661591-1.0426064c-0.4254913,0-1.1700745,0.3404236-1.457428,0.4787712v3.5533409
		c0,0.1276798-0.0530701,0.2020473-0.2020874,0.2020473h-0.7552338c-0.1490173,0-0.2023315-0.0636997-0.2023315-0.2020473
		v-4.7980251c0-0.1383476,0.0533142-0.2127151,0.2023315-0.2127151h0.7552338c0.1490173,0,0.2020874,0.0743675,0.2020874,0.2127151
		v0.3191166c0.0106659,0,0.0213318,0.0106678,0.0319672,0.0106678c0.3934937-0.2764435,1.1383362-0.6382027,1.7871857-0.6382027
		c1.4361267,0,1.563797,0.9466228,1.563797,2.0212345v3.0852089
		C135.9416504,27.4605656,135.8992615,27.5349331,135.7395782,27.5349331z"/>
	<path class="st0" d="M97.0785217,31.5965862c0.5214462,0,1.3830643,0.0743675,1.9468994,0.3084469
		c0.1700668,0.0746479,0.2340469,0.1596832,0.2023239,0.3297577l-0.0957031,0.4361267
		c-0.0322571,0.1277084-0.0853119,0.1810188-0.2767258,0.1596832c-0.5211639-0.0637016-1.1596451-0.1383476-1.7127838-0.1383476
		c-1.4470444,0-1.6597824,1.1703148-1.6597824,2.5533485c0,1.3934479,0.2660522,2.4893951,1.6597824,2.4893951
		c0.6168671,0,1.1383133-0.0640068,1.7127838-0.1383781c0.2020798-0.0213318,0.2444687,0.0320053,0.287117,0.1703529
		l0.0853119,0.4041519c0.0423965,0.1700745-0.0109177,0.2660561-0.181015,0.3404236
		c-0.5211639,0.2233849-1.4467621,0.319088-1.9682083,0.319088c-2.3723297,0-2.8721848-1.7551765-2.8721848-3.5636978
		C94.206337,33.4477501,94.6531372,31.5965862,97.0785217,31.5965862z"/>
	<path class="st0" d="M102.2711258,38.8199959c-2.1383057,0-2.2766571-1.563797-2.2766571-2.7765083
		c0-0.9999352,0.2233887-2.6277161,2.2766571-2.6277161c2.0639038,0,2.3509903,1.372364,2.3509903,2.6277161
		C104.6221161,37.2561989,104.473381,38.8199959,102.2711258,38.8199959z M102.2815094,34.4370461
		c-0.9039764,0-1.1063385,0.5745049-1.1063385,1.6808395c0,1.1276436,0.2023621,1.6808128,1.0959549,1.6808128
		c0.9679565,0,1.1593628-0.5424995,1.1593628-1.6808128C103.4304886,34.9902115,103.2497482,34.4370461,102.2815094,34.4370461z"/>
	<path class="st0" d="M113.0910187,38.7349319h-0.7658768c-0.1487656,0-0.2020798-0.0636978-0.2020798-0.2020493v-3.0215073
		c0-0.78722-0.1914063-1.010601-0.7235184-1.010601c-0.393486,0-1.0319443,0.3087006-1.3617249,0.4787712
		c0,0.1063728,0.0109482,0.2977791,0.0109482,0.5424995v3.0108376c0,0.1276817-0.0426483,0.2020493-0.2023544,0.2020493h-0.7765579
		c-0.1383438,0-0.181015-0.0636978-0.181015-0.2020493v-3.0745392c0-0.6488686-0.1700745-0.9575691-0.7021866-0.9575691
		c-0.3721466,0-0.9679565,0.2660561-1.3721085,0.4787712v3.5533371c0,0.1276817-0.0530319,0.2020493-0.2023315,0.2020493h-0.7656326
		c-0.1383743,0-0.1916885-0.0636978-0.1916885-0.2020493v-4.7980232c0-0.1383476,0.0533142-0.2127151,0.1916885-0.2127151h0.755249
		c0.1596832,0,0.2127151,0.0850372,0.2127151,0.2127151v0.3084488l0.0103836,0.0106697
		c0.4151001-0.2871132,1.0002441-0.6062279,1.5853882-0.6275368c0.6168976,0,1.1276703,0.1276817,1.457428,0.7445488
		c0.5318375-0.3934555,1.1916504-0.7445488,1.8725052-0.7445488c1.4041138,0,1.5424576,0.9148979,1.5424576,1.9785919v3.1278496
		C113.2827072,38.6605644,113.2400665,38.7349319,113.0910187,38.7349319z"/>
	<path class="st0" d="M121.8585205,38.7349319h-0.7661591c-0.1487427,0-0.2020798-0.0636978-0.2020798-0.2020493v-3.0215073
		c0-0.78722-0.1914063-1.010601-0.7235184-1.010601c-0.3934555,0-1.031662,0.3087006-1.3616943,0.4787712
		c0,0.1063728,0.0106354,0.2977791,0.0106354,0.5424995v3.0108376c0,0.1276817-0.042366,0.2020493-0.2020493,0.2020493h-0.7765732
		c-0.1383514,0-0.1807404-0.0636978-0.1807404-0.2020493v-3.0745392c0-0.6488686-0.1703568-0.9575691-0.7021866-0.9575691
		c-0.3724289,0-0.9682388,0.2660561-1.3723907,0.4787712v3.5533371c0,0.1276817-0.0533142,0.2020493-0.2020493,0.2020493h-0.7661896
		c-0.1380692,0-0.1914139-0.0636978-0.1914139-0.2020493v-4.7980232c0-0.1383476,0.0533447-0.2127151,0.1914139-0.2127151h0.7555237
		c0.1594009,0,0.2127151,0.0850372,0.2127151,0.2127151v0.3084488l0.0106659,0.0106697
		c0.4148178-0.2871132,0.9999619-0.6062279,1.5851364-0.6275368c0.6168671,0,1.1276474,0.1276817,1.4574051,0.7445488
		c0.5318527-0.3934555,1.1913681-0.7445488,1.8722458-0.7445488c1.4043655,0,1.5427094,0.9148979,1.5427094,1.9785919v3.1278496
		C122.0499268,38.6605644,122.0072861,38.7349319,121.8585205,38.7349319z"/>
	<path class="st0" d="M123.9445801,32.7562332c-0.5531693,0-0.6275406-0.3087006-0.6275406-0.6171494
		c0-0.3404236,0.1170425-0.6064777,0.6275406-0.6064777c0.5214386,0,0.6278152,0.2447186,0.6278152,0.6064777
		C124.5723953,32.4688416,124.4766922,32.7562332,123.9445801,32.7562332z M124.5084152,38.5328827
		c0,0.117012-0.0423965,0.2020493-0.1914063,0.2020493h-0.755249c-0.1490173,0-0.2127151-0.0636978-0.2127151-0.2020493v-4.8086891
		c0-0.1490173,0.0636978-0.2020493,0.2127151-0.2020493h0.755249c0.1490097,0,0.1914063,0.0850372,0.1914063,0.2020493V38.5328827z"
		/>
	<path class="st0" d="M127.5728149,38.8199959c-0.5321121,0-1.2446823-0.0743942-1.649086-0.2340813
		c-0.2127457-0.0850334-0.2553864-0.1807365-0.2234116-0.3510895l0.0743942-0.350811
		c0.0319748-0.1703529,0.1063461-0.1810226,0.2766953-0.1596832c0.468132,0.0743675,1.1490097,0.1276779,1.5107727,0.1276779
		c0.6808472,0,0.9572906-0.1810188,0.9572906-0.6064796c0-0.4894409-0.1807404-0.5958138-0.8509445-0.6915169
		c-1.0426102-0.1487617-1.9575424-0.3724289-1.9575424-1.5317955c0-1.0532761,0.8085556-1.6064453,1.9999313-1.6064453
		c0.4361343,0,1.170311,0.0637016,1.6171188,0.2340546c0.1807404,0.0743675,0.2553864,0.1594048,0.2233734,0.3191147
		l-0.0850372,0.3830681c-0.0319672,0.1487656-0.0957031,0.1700706-0.2873535,0.1487656
		c-0.4574738-0.0530624-1.0530243-0.1170425-1.4467697-0.1170425c-0.6808701,0-0.8402786,0.1916885-0.8402786,0.5958138
		c0,0.4148178,0.2551117,0.468132,0.9042587,0.5745049c1.0106277,0.1490135,1.9255295,0.3510895,1.9255295,1.6171112
		C129.721756,38.415844,128.6684875,38.8199959,127.5728149,38.8199959z"/>
	<path class="st0" d="M132.4566956,38.8199959c-0.5321198,0-1.2446899-0.0743942-1.6490936-0.2340813
		c-0.212738-0.0850334-0.2553864-0.1807365-0.2234192-0.3510895l0.0743713-0.350811
		c0.0320129-0.1703529,0.106369-0.1810226,0.2767334-0.1596832c0.4681244,0.0743675,1.1489716,0.1276779,1.5107269,0.1276779
		c0.6808777,0,0.9573212-0.1810188,0.9573212-0.6064796c0-0.4894409-0.1807404-0.5958138-0.8509369-0.6915169
		c-1.0426178-0.1487617-1.9575348-0.3724289-1.9575348-1.5317955c0-1.0532761,0.808548-1.6064453,1.9999237-1.6064453
		c0.4364014,0,1.1703186,0.0637016,1.6171112,0.2340546c0.181015,0.0743675,0.2553864,0.1594048,0.2233887,0.3191147
		l-0.0850372,0.3830681c-0.0319824,0.1487656-0.0957031,0.1700706-0.2873993,0.1487656
		c-0.457428-0.0530624-1.0529938-0.1170425-1.4467316-0.1170425c-0.6808777,0-0.840271,0.1916885-0.840271,0.5958138
		c0,0.4148178,0.2550964,0.468132,0.9042511,0.5745049c1.0106049,0.1490135,1.9255371,0.3510895,1.9255371,1.6171112
		C134.6056366,38.415844,133.5523529,38.8199959,132.4566956,38.8199959z"/>
	<path class="st0" d="M136.3403168,32.7562332c-0.5531464,0-0.627533-0.3087006-0.627533-0.6171494
		c0-0.3404236,0.1170349-0.6064777,0.627533-0.6064777c0.5214386,0,0.6278229,0.2447186,0.6278229,0.6064777
		C136.9681396,32.4688416,136.8724365,32.7562332,136.3403168,32.7562332z M136.9041595,38.5328827
		c0,0.117012-0.0424042,0.2020493-0.1914215,0.2020493h-0.7552032c-0.1490479,0-0.2127533-0.0636978-0.2127533-0.2020493v-4.8086891
		c0-0.1490173,0.0637054-0.2020493,0.2127533-0.2020493h0.7552032c0.1490173,0,0.1914215,0.0850372,0.1914215,0.2020493V38.5328827z
		"/>
	<path class="st0" d="M140.394043,38.8199959c-2.1382751,0-2.2766418-1.563797-2.2766418-2.7765083
		c0-0.9999352,0.2234039-2.6277161,2.2766418-2.6277161c2.0639038,0,2.3510284,1.372364,2.3510284,2.6277161
		C142.7450714,37.2561989,142.5960236,38.8199959,140.394043,38.8199959z M140.4047089,34.4370461
		c-0.9042511,0-1.1066132,0.5745049-1.1066132,1.6808395c0,1.1276436,0.2023621,1.6808128,1.0959473,1.6808128
		c0.9679718,0,1.1596527-0.5424995,1.1596527-1.6808128C141.5536957,34.9902115,141.3726807,34.4370461,140.4047089,34.4370461z"/>
	<path class="st0" d="M148.08638,38.7349319h-0.7658844c-0.138382,0-0.2020874-0.0636978-0.2020874-0.2020493l0.0106659-2.989502
		c0-0.6275368-0.1490021-1.0426064-0.7661591-1.0426064c-0.4254913,0-1.1700592,0.3404236-1.457428,0.4787712v3.5533371
		c0,0.1276817-0.0530548,0.2020493-0.2020721,0.2020493h-0.755249c-0.1490173,0-0.2023315-0.0636978-0.2023315-0.2020493v-4.7980232
		c0-0.1383476,0.0533142-0.2127151,0.2023315-0.2127151h0.755249c0.1490173,0,0.2020721,0.0743675,0.2020721,0.2127151v0.3191185
		c0.0106659,0,0.0213318,0.0106659,0.0319824,0.0106659c0.3934784-0.2764435,1.1383362-0.6382027,1.7872009-0.6382027
		c1.4360962,0,1.5637817,0.9466248,1.5637817,2.0212364v3.0852051
		C148.2884521,38.6605644,148.2460632,38.7349319,148.08638,38.7349319z"/>
</g>
<polygon class="st1" points="155.0057068,38.7335892 155.0057068,17.3514462 153.1813354,17.3514462 153.1813354,38.7335892 
	155.0057068,38.7335892 "/>
<g>
	<path class="st2" d="M15.1403875,15.6534138c0,0,21.9824638-2.8660517,22.603447-2.9684477
		c0.9511337-0.1562681,1.7963409-0.3391924,2.5843735-0.5590487c1.7781754-0.4906712,3.4148369-1.2397556,4.8636436-2.2264471
		c1.3890648-0.9390097,2.6813202-2.3048205,3.9622345-3.8029885c0.8145752-0.9533439,1.6700325-2.1963758,2.4680595-3.3960917
		v-0.578872c-0.9467888,1.4121799-1.8793297,2.628696-2.8382759,3.702888
		c-1.2710876,1.425704-2.6043587,2.5919318-3.9636154,3.4667916c-1.402462,0.9102802-2.9811554,1.589756-4.6923294,2.0198917
		c-0.7669792,0.194684-1.5882454,0.3524647-2.5112381,0.482048c-0.608551,0.0861559-1.2356682,0.1524601-1.8420067,0.2168598
		C35.5323944,12.0357008,15.1403875,14.21525,15.1403875,14.21525V15.6534138z"/>
	<path class="st2" d="M44.619957,11.9392977c-1.3759346,0.7974958-2.9652901,1.3808765-4.7232285,1.7344322
		c-0.750988,0.1527119-1.5692596,0.2768354-2.5026398,0.3793707c-0.5479622,0.0598936-1.1002884,0.1081648-1.6532059,0.1561289
		c-0.2984505,0.026124-0.5967636,0.0521078-0.8941231,0.0797167c-6.7365475,0.6086636-13.438488,1.256052-19.7063713,1.8692226
		v1.4369049c6.3172197-0.7678165,13.0658083-1.58074,19.8000298-2.3486958
		c0.2994041-0.0353918,0.5990906-0.0687685,0.8989143-0.101696c0.5516548-0.0614042,1.1040115-0.1226406,1.6581306-0.1961966
		c0.9582443-0.12852,1.7967606-0.2761641,2.5629234-0.4513054c1.8265648-0.4115419,3.4766235-1.0612259,4.9021912-1.9310179
		c1.4170876-0.8569679,2.6694298-2.0569363,4.0158386-3.524332c0.8382339-0.9132757,1.7710571-2.2021441,2.6437302-3.4133401
		V5.1015859c-1.0279922,1.4053202-2.003624,2.5859122-2.9692574,3.5929599
		C47.3383446,10.066658,45.981678,11.157958,44.619957,11.9392977z"/>
	<path class="st2" d="M48.4670792,11.5872536c-1.3413391,1.2396164-2.7416115,2.2145758-4.1628036,2.8983078
		c-1.3893356,0.6752481-2.9441032,1.1491203-4.7538528,1.4490843c-0.7467575,0.1245432-1.5587311,0.2265196-2.4810219,0.3110247
		l-21.9290123,1.814539v1.4339085l19.4929543-2.0842915l2.5221863-0.2672882
		c0.9497871-0.1104603,1.7785606-0.2346115,2.5328522-0.379261c1.8742752-0.3562717,3.4820862-0.8890829,4.9144897-1.6278915
		c1.4642563-0.7462282,2.9275513-1.9877758,4.2877655-3.3023195c0.9131622-0.8815517,1.7921104-2.0200052,2.7315102-3.2141199
		V8.1412659C50.5371475,9.5001059,49.5012321,10.632678,48.4670792,11.5872536z"/>
	<path class="st2" d="M43.1643143,19.0329571c-1.2765427,0.7196846-2.2312508,1.1343651-4.0543861,1.3260231
		c-1.1018295,0.1195049-2.2344017,0.1765137-3.3299294,0.2314777c-0.5302086,0.0266552-1.0610886,0.0531712-1.5907364,0.0867996
		c-3.3129578,0.190876-6.5663071,0.4023876-9.8854256,0.6204529l-9.1634493,0.6217957v1.4336281l9.2548971-0.8557358
		c2.9905949-0.2702847,6.4658432-0.5820084,9.8585186-0.8609161l2.4661293-0.1923599
		c0.96278-0.0746479,1.7523232-0.1538048,2.4837685-0.2499294c1.8759155-0.2439079,3.4785423-0.6257439,4.8983688-1.1664791
		c1.528923-0.5764084,2.9707489-1.4708138,4.4146538-2.5223236c1.3018341-0.9479961,3.1033821-2.8176403,3.105423-2.8421125
		v-0.5065479c-1.1778183,1.1578836-1.8560905,1.8081284-3.1452103,2.6641169
		C46.9361229,17.8437691,44.3089256,18.3877811,43.1643143,19.0329571z"/>
	<path class="st2" d="M43.6305237,21.7577496c-1.3834572,0.4085197-2.9406662,0.6852436-4.7604141,0.8456287
		c-0.7371864,0.0642319-1.5323296,0.113596-2.4312706,0.1501064l-2.4528542,0.1084156
		c-6.0947895,0.2853203-12.1597843,0.6044369-18.8455963,0.9608498v1.430212
		c6.3862677-0.4982052,12.644969-0.9828568,18.9009514-1.4314442l2.4456329-0.1682796
		c0.944046-0.0623569,1.7266197-0.130312,2.4629898-0.2138367c1.8656693-0.2102795,3.4613037-0.5347157,4.8774376-0.9914799
		c1.5696678-0.500948,3.0995407-1.2273235,4.5471382-2.1586609c1.0691261-0.685915,2.138279-1.5034866,3.2476082-2.4792595
		v-0.0250034c-1.2225342,1.0514832-2.3875313,1.2847233-3.5486641,1.9913025
		C46.6517372,20.6441898,45.1569901,21.3108139,43.6305237,21.7577496z"/>
	<path class="st2" d="M43.4043922,24.1332417c-1.3934364,0.3282719-2.9033699,0.5393639-4.7526283,0.6640472
		c-0.7133827,0.0482731-1.4798279,0.0843639-2.4136276,0.1136246l-2.4292259,0.08708
		c-6.120882,0.2332401-12.3272228,0.5013409-18.6685219,0.7786236v1.4293728
		c6.3004198-0.4331036,12.481616-0.8546162,18.7162628-1.2478199l2.4237366-0.1463013
		c0.9503212-0.0545425,1.7247162-0.1103191,2.4363365-0.1756706c1.8835602-0.1750011,3.4246597-0.430109,4.8495445-0.8020039
		c1.5987892-0.4150734,3.1528702-1.0234566,4.6193275-1.8082409c1.1339417-0.6056671,2.2647247-1.333807,3.4365501-2.2104607
		v-0.6114063c-1.266552,0.922039-2.4813042,1.6731682-3.6977081,2.2859478
		C46.4848022,23.2164097,44.9643517,23.7690182,43.4043922,24.1332417z"/>
	<path class="st2" d="M43.1968536,26.4623928c-1.3980865,0.2579918-2.903759,0.4226055-4.739212,0.5183067
		c-0.690567,0.0355339-1.4292603,0.0612373-2.3958778,0.0836658l-20.9213753,0.5709209v1.4279156l18.5524635-0.9756317
		l2.4033813-0.1230602c0.9378853-0.0442963,1.705143-0.0902157,2.4145775-0.1454601
		c1.8605995-0.1432762,3.3913155-0.3494701,4.8166084-0.6496849c1.6180687-0.3385201,3.188282-0.8326359,4.6674423-1.4678154
		c1.1910896-0.508873,2.3845062-1.1298561,3.627285-1.8849316v-0.5738316
		c-1.3279533,0.778204-2.5904198,1.4030228-3.8438377,1.9025993C46.3196487,25.7297173,44.7784157,26.1723976,43.1968536,26.4623928
		z"/>
	<path class="st2" d="M43.0326538,28.8012333c-2.5671616,0.3450718-5.2099419,0.3850002-7.7657547,0.4232769
		c-0.5858421,0.0082035-1.1718254,0.0174999-1.7569695,0.0295391l-18.3695412,0.3335915v1.4262371l18.4012642-0.7989807
		c0.5834923-0.0267963,1.1678505-0.0503159,1.7525749-0.0738087c2.5738716-0.1039085,5.2355232-0.2105598,7.8371391-0.6272831
		c1.6473236-0.2614079,3.2323036-0.648592,4.7112007-1.1495113c1.2250023-0.4134483,2.4941559-0.9483051,3.7795792-1.5804882
		V26.236517c-1.350914,0.6342564-2.6795425,1.160881-3.9551392,1.5557365
		C46.205349,28.2472534,44.646347,28.5868645,43.0326538,28.8012333z"/>
	<path class="st2" d="M42.886776,31.1549969c-2.4054375,0.2001438-4.8670578,0.2007027-7.2480087,0.2007027
		c-0.7406006,0-1.4811974,0-2.2218285,0.0059929c-6.0854626,0.0267963-12.1228504,0.0771122-18.2765503,0.1307049v1.426796
		c5.8611288-0.2007027,12.0792284-0.4101448,18.2972145-0.5960922c0.7379951-0.0246124,1.4764137-0.0437355,2.2156677-0.0628891
		c2.3936653-0.0607033,4.8688087-0.1241226,7.2988548-0.388834c1.6979141-0.183176,3.242424-0.4522572,4.7222748-0.8213806
		c1.2908821-0.3193951,2.616375-0.7459488,3.9477463-1.2583771v-0.5239067
		c-1.3742943,0.4971123-2.7438011,0.9028873-4.0773582,1.198204C46.0792961,30.7918644,44.555294,31.0171795,42.886776,31.1549969z"
		/>
	<path class="st2" d="M42.793808,33.4753838c-1.0021477,0.0399017-2.0872917,0.0590553-3.3181725,0.0590553
		c-0.465107,0-0.9302139-0.0027466-1.3941193-0.0071144l-4.7346878-0.0579605
		c-3.230669-0.0240784-6.4490452-0.0295372-9.4683399-0.0322838l-8.738101,0.0082054v1.4262619l8.7588758-0.2313347
		c3.0085163-0.0743675,6.2363014-0.1514816,9.4565792-0.2099991l4.7306023-0.0628891
		c1.2977448-0.0207748,3.0102806-0.0590515,4.7449608-0.1739082c1.699688-0.1110191,3.2466583-0.2816238,4.729229-0.5200729
		c1.3343964-0.2154579,2.6977463-0.5047531,4.061512-0.8547554v-0.5064087
		c-1.4012299,0.3259201-2.7936974,0.5857048-4.1450348,0.7678185C46.0028687,33.2790489,44.4710732,33.4081001,42.793808,33.4753838
		z"/>
	<path class="st2" d="M38.026413,35.7175674l-4.7184219-0.0508728c-6.0193272-0.0853157-12.0331669-0.1963081-18.1676025-0.3116989
		v1.426796c5.8555288-0.0393944,12.0572214-0.0842209,18.1719704-0.1536903l4.7209129-0.0705338
		c1.5907097-0.0273552,3.1486282-0.0563354,4.723896-0.1093674c3.2437859-0.1049995,6.1494827-0.3347092,8.8649788-0.6967239
		v-0.4960175c-2.725769,0.2953148-5.6358185,0.4511604-8.8815231,0.4724998
		C41.1701393,35.7421799,39.5982742,35.7307014,38.026413,35.7175674z"/>
	<polygon class="st2" points="51.6221466,38.2397537 15.1403875,37.3078842 15.1403875,38.7335892 51.6221466,38.7335892 	"/>
</g>
<g>
	<path class="st2" d="M48.3372154,14.2815533c-1.3858032,1.1216526-2.4562988,1.9187279-4.1524315,2.5979519
		c-1.4769745,0.591444-3.0635872,0.8337002-4.8762245,1.0826759c-1.1663399,0.1646118-2.3854599,0.4082394-3.5500336,0.4863052
		c-0.478775,0.0323944-0.9579926,0.0643997-1.4356728,0.1021156l-19.1824646,1.4087639V21.39081l19.2599678-1.881937
		l2.4970398-0.2359829c0.9262695-0.0881729,1.7484894-0.1909904,2.5137291-0.3152809
		c1.866333-0.3020077,3.4748306-0.7631397,4.916256-1.409687c1.4955673-0.6647205,3.0090294-1.7532768,4.4154701-2.9457417
		c0.95718-0.8096466,1.8775673-1.828763,2.8792953-2.9415102v-0.5129604
		C50.4104195,12.409894,49.4060593,13.418314,48.3372154,14.2815533z"/>
</g>
<path class="st2" d="M67.1477814,2.1215181c0,0,6.5657806,10.4572153,7.7661972,12.3745718
	c1.200386,1.916935,2.5724945,3.4335556,7.4302444,4.4638443c4.8577499,1.0300636,6.9725037,1.5166187,6.9725037,1.5166187v0.372036
	c0,0-3.0865555-0.658308-7.0583801-1.5453472c-3.9718018-0.8870125-5.5954895-1.1854916-7.4061661-3.7046518
	c-1.5066528-2.0968637-7.7043991-11.0069695-7.7043991-11.0069695V2.1215181z"/>
<path class="st2" d="M67.1477814,14.0636301c0,0,5.976799,6.2629557,7.7043991,8.0609484
	c1.8333817,1.9073582,4.1818008,2.6128197,7.4367981,3.1942959c3.1072159,0.5546799,7.026123,1.1953182,7.026123,1.1953182
	v0.3527451c0,0-3.679924-0.6029243-7.026123-1.1756363c-3.2807007-0.5619316-5.5771484-0.8754196-7.4562302-2.6066875
	c-1.6827164-1.5503883-7.684967-7.1788359-7.684967-7.1788359V14.0636301z"/>
<path class="st2" d="M67.1477814,16.8855247c0,0,5.6839447,5.2780285,7.7043991,7.0810604
	c1.8596497,1.6593647,3.3665543,2.1753197,7.4564819,2.9003525c4.0904922,0.7251434,7.0064392,1.1757755,7.0064392,1.1757755
	v0.372427c0,0-3.6990814-0.6075706-7.026123-1.1369381c-3.326622-0.5288372-5.4467239-0.7378845-7.4367981-2.3513012
	c-2.2968979-1.8629227-7.7043991-6.3168278-7.7043991-6.3168278V16.8855247z"/>
<path class="st2" d="M67.1477814,19.893734c0,0,6.4930649,5.1507397,7.7062988,6.0522556
	c1.2132416,0.9012642,2.8183136,1.9528885,7.4759216,2.626091c4.6187668,0.6672134,6.9867249,0.9991531,6.9867249,0.9991531
	v0.3921108c0,0-4.1879578-0.6075706-6.9867249-0.9603157c-2.7983475-0.3527431-4.9444351-0.5025711-7.4565125-2.1754589
	c-2.445076-1.6279202-7.725708-5.345705-7.725708-5.345705V19.893734z"/>
<path class="st2" d="M67.1477814,22.7856007c0,0,6.5121841,4.3361931,7.7453918,5.0219688
	c1.2332001,0.6857758,2.6813354,1.8030319,7.4368286,2.4106312c4.7560196,0.6075726,6.9867249,0.8815517,6.9867249,0.8815517
	v0.3724289c0,0-3.9336624-0.4309483-7.0064087-0.7639809c-3.0723572-0.3336201-5.1661987-0.7842236-7.4562378-2.0382023
	c-2.2900314-1.2540092-7.7062988-4.4187641-7.7062988-4.4187641V22.7856007z"/>
<path class="st2" d="M67.1477814,25.6774979c0,0,5.7564087,3.1313801,7.7043991,4.1091957
	c2.1727142,1.0910206,4.051651,1.6133041,7.4564819,2.0185204c3.3434525,0.3981323,7.0064392,0.7842216,7.0064392,0.7842216
	v0.3527451c0,0-3.386795-0.3625984-7.0064392-0.7054863c-3.588028-0.3401451-4.8659515-0.4965534-7.4564819-1.6460934
	c-2.3165817-1.0281029-7.7043991-3.5404606-7.7043991-3.5404606V25.6774979z"/>
<path class="st2" d="M67.1477814,28.6087341c0,0,4.548912,1.9479599,7.7453918,3.2161636
	c3.1445389,1.2474289,5.5451736,1.3524284,7.4565125,1.5678864c0.8416519,0.0946121,6.967041,0.725174,6.967041,0.725174v0.3521805
	c0,0-3.6596832-0.293663-6.9867249-0.5873528c-3.3271866-0.293663-4.7620468-0.4183502-7.4565125-1.3130341
	c-2.7261658-0.9050713-7.725708-2.6485176-7.725708-2.6485176V28.6087341z"/>
<path class="st2" d="M67.1477814,31.5968647c0,0,4.5926743,1.423521,7.7240829,2.2465534
	c3.1314087,0.8230591,6.0083771,1.1566505,7.4564819,1.2539787c1.4481354,0.0984497,6.9883804,0.5485191,6.9883804,0.5485191
	v0.3335915c0,0-3.1510925-0.2149277-7.0080643-0.4899979c-3.1182785-0.2220116-5.6231003-0.4571838-7.4564819-0.8624268
	c-2.0316544-0.4484215-7.7043991-1.7964821-7.7043991-1.7964821V31.5968647z"/>
<path class="st2" d="M67.1477814,34.5368652c0,0,3.7559509,0.6474991,7.7240829,1.3053894
	c2.9747162,0.4932747,7.0064087,0.8039055,7.4367981,0.8235893c0.4309464,0.0191536,7.0064392,0.4703178,7.0064392,0.4703178
	v0.3521843c0,0-4.2087631-0.2176476-7.0064392-0.3718681c-2.9142914-0.1613388-5.8109512-0.3379898-7.4564819-0.5096855
	c-3.6854172-0.3844681-7.7043991-0.8930588-7.7043991-0.8930588V34.5368652z"/>
<path class="st2" d="M67.1477814,37.5796814c0,0,5.9237671,0.2225723,7.7240829,0.26194
	c1.8005676,0.0388374,14.4432373,0.5485191,14.4432373,0.5485191v0.3434486H67.1477814V37.5796814z"/>
<path class="st2" d="M82.3086624,20.5763741c-5.3622513-1.1562328-6.5754929-3.1159534-7.475914-4.3309841
	c-0.9004288-1.2152843-7.684967-11.1312313-7.684967-11.1312313V7.351974
	c0.2674332,0.3499999,6.0744324,7.9518313,7.7043991,10.0495071c1.8372192,2.3637314,4.7166519,2.9003525,7.4564819,3.4883785
	c2.7397156,0.5878887,7.0080643,1.4075336,7.0080643,1.4075336v-0.3135166
	C89.3167267,21.9838772,83.6933441,20.8748264,82.3086624,20.5763741z"/>
<path class="st2" d="M82.3086624,22.1441212c-4.4033051-0.8622875-6.1841888-2.253664-7.475914-3.9391232
	c-1.2917252-1.6853485-7.684967-10.1121445-7.684967-10.1121445v2.1188726
	c0.2675705,0.3173237,6.116127,7.2545748,7.684967,9.0514746c1.8301086,2.0961647,4.3839035,2.6457767,7.475914,3.2139797
	c3.0924606,0.5683441,7.0064392,1.3128929,7.0064392,1.3128929v-0.3133488
	C89.3151016,23.4767246,84.8476715,22.6413727,82.3086624,22.1441212z"/>
<path class="st2" d="M82.3086624,23.7705288c-4.5791168-0.8881321-5.5183792-1.6198292-7.4564819-3.7430954
	c-1.2184525-1.334507-7.4418945-8.683136-7.7043991-8.9930677v1.9578152c0,0,5.8157425,6.2030649,7.684967,8.0348253
	c2.4532776,2.4040508,4.7557678,2.5868359,7.475914,3.0767231c2.7205658,0.4898605,7.0064392,1.2739449,7.0064392,1.2739449
	v-0.3332005C89.3151016,25.0444736,84.140564,24.1259899,82.3086624,23.7705288z"/>
<polygon class="st1" points="62.2661247,38.7335892 62.2661247,17.3522568 30.3040123,17.3522568 30.3040123,38.7335892 
	62.2661247,38.7335892 "/>
<g>
	<polygon class="st3" points="46.6315041,20.3923569 47.7436981,20.3923569 46.8472443,21.0905647 47.1955986,22.1982727 
		46.3026924,21.515913 45.4099197,22.1982727 45.7618332,21.0905647 44.8583984,20.3923569 45.966774,20.3923569 
		46.3026924,19.312006 46.6315041,20.3923569 	"/>
	<polygon class="st3" points="46.6706047,34.6511612 47.7843285,34.6511612 46.8879929,35.3243637 47.2361984,36.389122 
		46.3434372,35.7328835 45.4505234,36.389122 45.8023033,35.3243637 44.8972244,34.6511612 46.0075188,34.6511612 
		46.3434372,33.6115494 46.6706047,34.6511612 	"/>
	<polygon class="st3" points="50.1976776,33.7066917 51.311657,33.7066917 50.4151802,34.378273 50.7635574,35.4446831 
		49.870636,34.7867928 48.9778557,35.4446831 49.3296471,34.378273 48.4244347,33.7066917 49.5347214,33.7066917 
		49.870636,32.6670799 50.1976776,33.7066917 	"/>
	<polygon class="st3" points="50.1976776,21.3434887 51.311657,21.3434887 50.4151802,22.0153503 50.7635574,23.0814781 
		49.870636,22.4246807 48.9778557,23.0814781 49.3296471,22.0153503 48.4244347,21.3434887 49.5347214,21.3434887 
		49.870636,20.304018 50.1976776,21.3434887 	"/>
	<polygon class="st3" points="52.8163757,23.961937 53.9281731,23.961937 53.0318642,24.6329575 53.3802109,25.6998978 
		52.4874306,25.0431004 51.5963058,25.6998978 51.9480972,24.6329575 51.0428543,23.961937 52.1513748,23.961937 
		52.4874306,22.9223251 52.8163757,23.961937 	"/>
	<polygon class="st3" points="52.8163757,31.123806 53.9281731,31.123806 53.0318642,31.7975693 53.3802109,32.8634186 
		52.4874306,32.2055283 51.5963058,32.8634186 51.9480972,31.7975693 51.0428543,31.123806 52.1513748,31.123806 
		52.4874306,30.0841942 52.8163757,31.123806 	"/>
	<polygon class="st3" points="53.7974663,27.4882011 54.9114761,27.4882011 54.0148582,28.1602859 54.362957,29.2266941 
		53.4701767,28.5688057 52.5773964,29.2266941 52.9293289,28.1602859 52.0240898,27.4882011 53.1327477,27.4882011 
		53.4701767,26.4495411 53.7974663,27.4882011 	"/>
	<polygon class="st3" points="43.0355263,21.352253 44.1474609,21.352253 43.2511292,22.0250378 43.5994911,23.0911655 
		42.7065811,22.4334183 41.8136711,23.0911655 42.1657219,22.0250378 41.2621498,21.352253 42.3708,21.352253 
		42.7065811,20.3127804 43.0355263,21.352253 	"/>
	<polygon class="st3" points="40.4895439,23.9707012 41.6033974,23.9707012 40.7069359,24.6425343 41.0535202,25.7088013 
		40.1623917,25.0518646 39.2696114,25.7088013 39.6205635,24.6425343 38.7161636,23.9707012 39.8264771,23.9707012 
		40.1623917,22.9312286 40.4895439,23.9707012 	"/>
	<polygon class="st3" points="39.5445442,27.4969368 40.6575737,27.4969368 39.7611237,28.1695805 40.109333,29.2354565 
		39.2165527,28.5797539 38.3236618,29.2354565 38.6755638,28.1695805 37.7720032,27.4969368 38.8806343,27.4969368 
		39.2165527,26.4584179 39.5445442,27.4969368 	"/>
	<polygon class="st3" points="40.4895439,31.1325703 41.6033974,31.1325703 40.7069359,31.8063049 41.0535202,32.8721809 
		40.1623917,32.2148247 39.2696114,32.8721809 39.6205635,31.8063049 38.7161636,31.1325703 39.8264771,31.1325703 
		40.1623917,30.0945797 40.4895439,31.1325703 	"/>
	<polygon class="st3" points="43.0727119,33.7154579 44.1846466,33.7154579 43.2881813,34.3875694 43.6347656,35.4534187 
		42.7436295,34.7960892 41.8508606,35.4534187 42.2027702,34.3875694 41.2993355,33.7154579 42.4078484,33.7154579 
		42.7436295,32.6758461 43.0727119,33.7154579 	"/>
</g>
<g>
</g>
<g>
</g>
<g>
</g>
<g>
</g>
<g>
</g>
<g>
</g>
</svg>
