<svg width="65" height="65" viewBox="0 0 65 65" fill="none" xmlns="http://www.w3.org/2000/svg">
<g clip-path="url(#clip0)">
<path d="M18.1326 29.2212C19.114 27.1576 19.2926 22.6282 21.3289 24.5845C24.0286 27.1781 21.726 28.6008 22.4039 30.5505C22.7339 31.4996 22.8542 33.3357 22.2724 34.8143C21.6591 36.373 20.3095 35.3724 18.7463 36.6393C16.3164 38.6086 14.6491 34.7798 15.3125 32.6483C15.9268 30.6744 16.8202 30.498 17.5076 29.9807L18.1326 29.2212Z" fill="#002D54"/>
<path d="M42.4828 5.74203C46.7993 2.35736 50.6388 1.41591 52.9807 2.628C55.3226 3.84009 50.6951 7.75495 52.8158 9.7744C54.8497 11.7112 50.2 16.844 51.7989 20.3806C53.3978 23.9172 50.4725 24.3942 48.1125 25.9324C46.3178 27.1021 44.1913 26.9656 43.0445 26.2613C41.8978 25.5569 44.3605 19.1398 47.7913 17.1028C51.2221 15.0658 47.7602 12.7723 45.4339 13.7255C41.7074 15.2523 44.4088 15.2076 39.5053 19.6072C36.1121 22.6518 39 31.525 34.5 31.525C32.2566 31.525 33.3002 29.1278 31.5736 25.4648C30.3327 22.8324 28.0665 28.2149 26.6258 27.8204C25.1851 27.4259 27.0269 19.4493 30.8193 18.653C34.6117 17.8567 37.0873 9.97286 42.4828 5.74203Z" fill="#002D54"/>
<path d="M40.3888 36.9845C44.7872 37.455 36.5614 31.3506 42.2689 31.525C47.9764 31.6994 41.7399 28.9719 46.111 28.5058C50.4821 28.0397 46.2949 33.4988 49.4616 36.2415C52.097 38.524 51.6513 39.4468 51.1527 41.7975C50.6541 44.1481 54.4026 45.4165 55.589 48.1877C56.7755 50.959 54.2819 51.4423 50.861 51.0764C47.44 50.7104 45.1911 52.1446 44.8352 55.4721C44.4793 58.7996 40.1366 56.5784 39.3715 59.4223C37.8871 64.9401 36.8544 60.8319 36.0902 56.423C35.3261 52.0141 31.1276 54.6221 31.7971 51.494C32.409 48.6349 29.2676 49.6364 29.3407 51.132C29.5107 54.61 30.9291 54.9514 32.4343 55.8843C33.9395 56.8172 33.6105 60.4866 31.9488 59.179C30.722 58.2137 29.7905 56.6526 28.4727 54.5894C26.8492 52.0478 26.4484 50.7946 24.7788 50.4598C20.2739 49.5564 22.1051 51.5996 19.0457 52.4743C15.9863 53.3491 16.5344 54.4882 13.7095 57.792C12.2971 59.4439 10.362 59.719 8.2645 58.5331C6.16702 57.3471 6.38101 55.5338 6.81812 53.5704C7.16309 52.0209 5.7529 49.2303 9.1543 50.2143C14.4284 51.74 13.6551 50.3257 15.1057 48.3173C16.5562 46.3089 11.7063 41.8496 14.8829 42.1894C18.0595 42.5292 18.8581 42.3369 22.2225 38.61C25.587 34.8831 24.5211 41.5022 27.5084 34.3694C30.4957 27.2366 27.3939 37.5794 33.2671 36.6521C36.7533 36.1018 35.9904 36.514 40.3888 36.9845Z" fill="#002D54"/>
</g>
<defs>
<clipPath id="clip0">
<rect width="65" height="65" fill="white"/>
</clipPath>
</defs>
</svg>
