<svg width="393" height="124" viewBox="0 0 393 124" fill="none" xmlns="http://www.w3.org/2000/svg">
<g clip-path="url(#clip0_2118_22548)">
<path fill-rule="evenodd" clip-rule="evenodd" d="M74.9405 0.710388C109.009 23.6186 120.916 51.5663 120.916 76.9227C120.916 102.279 100.297 122.898 74.9405 122.898C49.5841 122.898 28.9651 102.279 28.9651 76.9227C29.1241 51.5822 39.6641 22.7124 74.9405 0.710388V0.710388Z" fill="#71B28D"/>
<path fill-rule="evenodd" clip-rule="evenodd" d="M28.6631 14.6206C69.599 12.0293 96.0205 27.1478 111.457 47.1468C126.877 67.3047 122.919 96.1745 102.745 111.452C82.7302 126.729 54.0195 122.914 38.5831 103.058C23.3056 83.0432 13.9897 53.7124 28.6631 14.6206V14.6206Z" fill="#3D9877"/>
<path fill-rule="evenodd" clip-rule="evenodd" d="M1.31952 57.2258C32.1764 30.1842 62.4134 26.0668 86.8636 32.6324C111.298 39.1981 125.971 64.3955 119.406 88.8457C112.84 113.28 87.6267 127.938 63.1923 121.372C38.5831 114.806 13.5287 97.0965 1.31952 57.2258V57.2258Z" fill="#028374"/>
<path d="M60.5852 106.714L61.6503 110.069L58.7411 107.939L55.8318 110.069L56.897 106.714L53.9877 104.584H57.66L58.7252 101.23L59.7903 104.584H63.3036L60.5852 106.714V106.714Z" fill="#FCE913" stroke="#FCE913" stroke-width="0.5" stroke-miterlimit="10"/>
<path d="M77.2298 111.134L78.295 114.647L75.3857 112.358L72.4765 114.488L73.7006 111.134L70.7914 109.147L74.3047 108.988L75.3698 105.777L76.435 108.988H79.9483L77.2298 111.134V111.134Z" fill="#FCE913" stroke="#FCE913" stroke-width="0.5" stroke-miterlimit="10"/>
<path d="M106.099 94.6483L107.165 98.0027L104.255 95.8724L101.346 97.8596L102.411 94.5052L99.661 92.3591H103.174L104.239 89.1478L105.305 92.3591H108.818L106.099 94.6483Z" fill="#FCE913" stroke="#FCE913" stroke-width="0.5" stroke-miterlimit="10"/>
<path d="M93.8744 106.714L95.0985 110.069L92.1892 107.939L89.1369 110.069L90.202 106.714L87.4518 104.584H90.9651L92.1892 101.23L93.1113 104.584H96.6246L93.8744 106.714Z" fill="#FCE913" stroke="#FCE913" stroke-width="0.5" stroke-miterlimit="10"/>
<path d="M48.36 94.6483L49.4251 98.0027L46.5159 95.8724L43.6066 97.8596L44.6718 94.5052L41.9215 92.3591H45.4348L46.5 89.1478L47.5651 92.3591H51.0784L48.36 94.6483V94.6483Z" fill="#FCE913" stroke="#FCE913" stroke-width="0.5" stroke-miterlimit="10"/>
<path d="M43.7816 77.8447L45.0057 81.1991L42.0964 79.0688L39.1872 81.1991L40.2523 77.8447L37.5021 75.8576L40.8564 75.6986L42.0805 72.3442L43.1457 75.6986H46.5L43.7816 77.8447V77.8447Z" fill="#FCE913" stroke="#FCE913" stroke-width="0.5" stroke-miterlimit="10"/>
<path d="M60.5852 48.975L61.6503 52.4883L58.7411 50.1991L55.8318 52.4883L56.897 48.975L53.9877 46.9878H57.66L58.7252 43.6335L59.7903 46.9878H63.3036L60.5852 48.975V48.975Z" fill="#FCE913" stroke="#FCE913" stroke-width="0.5" stroke-miterlimit="10"/>
<path d="M48.36 61.2001L49.4251 64.5545L46.5159 62.4242L43.6066 64.5545L44.6718 61.2001L41.9215 59.054H45.4348L46.5 55.8427L47.5651 59.054H51.0784L48.36 61.2001V61.2001Z" fill="#FCE913" stroke="#FCE913" stroke-width="0.5" stroke-miterlimit="10"/>
<path d="M77.2298 44.3965L78.295 47.9099L75.3857 45.6206L72.4765 47.7668L73.7006 44.4124L70.7914 42.4252L74.3047 42.2663L75.3698 39.055L76.435 42.2663H79.9483L77.2298 44.3965V44.3965Z" fill="#FCE913" stroke="#FCE913" stroke-width="0.5" stroke-miterlimit="10"/>
<path d="M93.8744 48.975L95.0985 52.4883L92.1892 50.1991L89.1369 52.4883L90.202 48.975L87.4518 46.9878H90.9651L92.1892 43.6335L93.1113 46.9878H96.6246L93.8744 48.975Z" fill="#FCE913" stroke="#FCE913" stroke-width="0.5" stroke-miterlimit="10"/>
<path d="M110.678 77.8447L111.743 81.1991L108.993 79.0688L105.94 81.1991L107.006 77.8447L104.255 75.8576L107.769 75.6986L108.993 72.3442L109.915 75.6986H113.428L110.678 77.8447V77.8447Z" fill="#FCE913" stroke="#FCE913" stroke-width="0.5" stroke-miterlimit="10"/>
<path d="M106.099 61.2001L107.165 64.5545L104.255 62.4242L101.346 64.5545L102.411 61.2001L99.661 59.054H103.174L104.239 55.8427L105.305 59.054H108.818L106.099 61.2001Z" fill="#FCE913" stroke="#FCE913" stroke-width="0.5" stroke-miterlimit="10"/>
<path d="M133.093 52.2817H146.304V56.2878H137.99V61.216H145.748V65.1904H137.99V73.8863H133.093V52.2817V52.2817Z" fill="#028374"/>
<path d="M164.491 65.874C164.491 71.6129 160.405 74.236 156.208 74.236C151.63 74.236 148.101 71.2314 148.101 66.1601C148.101 61.0888 151.423 57.8458 156.479 57.8458C161.295 57.8458 164.491 61.1524 164.491 65.874V65.874ZM153.156 66.0329C153.156 68.7196 154.269 70.7545 156.367 70.7545C158.259 70.7545 159.483 68.8627 159.483 66.0329C159.483 63.696 158.577 61.3114 156.367 61.3114C154.014 61.3114 153.156 63.7119 153.156 66.0329Z" fill="#028374"/>
<path d="M166.875 63.3622C166.875 61.057 166.812 59.5468 166.748 58.1955H170.945L171.104 61.0888H171.231C172.026 58.8155 173.95 57.8458 175.46 57.8458C175.905 57.8458 176.128 57.8458 176.478 57.9093V62.4878C176.128 62.4242 175.714 62.3606 175.158 62.3606C173.362 62.3606 172.153 63.3304 171.835 64.8406C171.772 65.1586 171.74 65.5401 171.74 65.9217V73.8863H166.86V63.3622H166.875V63.3622Z" fill="#028374"/>
<path d="M182.566 67.5909C182.725 69.6099 184.728 70.5637 187.002 70.5637C188.671 70.5637 190.006 70.3412 191.326 69.9278L191.962 73.2345C190.356 73.8704 188.401 74.2042 186.286 74.2042C180.961 74.2042 177.908 71.1201 177.908 66.2237C177.908 62.2494 180.388 57.8617 185.841 57.8617C190.912 57.8617 192.836 61.8042 192.836 65.6832C192.836 66.5258 192.74 67.257 192.677 67.6068H182.566V67.5909ZM188.289 64.2524C188.289 63.0601 187.765 61.0729 185.523 61.0729C183.472 61.0729 182.63 62.9329 182.518 64.2524H188.289Z" fill="#028374"/>
<path d="M195.713 69.6258C196.62 70.1822 198.48 70.8181 199.91 70.8181C201.341 70.8181 201.993 70.2935 201.993 69.4986C201.993 68.7037 201.516 68.3063 199.688 67.7022C196.445 66.6212 195.205 64.8406 195.221 62.9806C195.221 60.0555 197.732 57.8458 201.611 57.8458C203.44 57.8458 205.077 58.2591 206.047 58.7519L205.172 62.1063C204.473 61.7247 203.122 61.2001 201.77 61.2001C200.578 61.2001 199.91 61.677 199.91 62.4878C199.91 63.2191 200.514 63.6006 202.438 64.2842C205.411 65.3017 206.667 66.8119 206.699 69.1329C206.699 72.0422 204.393 74.2042 199.894 74.2042C197.844 74.2042 196.015 73.7591 194.823 73.1232L195.713 69.6258V69.6258Z" fill="#028374"/>
<path d="M215.124 53.7124V58.1955H218.622V61.7883H215.124V67.4637C215.124 69.3555 215.569 70.2299 217.048 70.2299C217.652 70.2299 218.129 70.1663 218.478 70.1027L218.51 73.7909C217.874 74.0453 216.714 74.2042 215.331 74.2042C213.757 74.2042 212.437 73.6478 211.674 72.8529C210.768 71.915 210.323 70.4047 210.323 68.2109V61.8042H208.24V58.2114H210.323V54.8094L215.124 53.7124V53.7124Z" fill="#028374"/>
<path d="M231.705 52.2817V73.8863H226.809V52.2817H231.705V52.2817Z" fill="#028374"/>
<path d="M235.87 63.2191C235.87 61.2637 235.807 59.5945 235.743 58.2114H239.972L240.194 60.3576H240.29C240.926 59.3719 242.531 57.8458 245.139 57.8458C248.35 57.8458 250.75 59.976 250.75 64.5863V73.8863H245.87V65.1904C245.87 63.1714 245.17 61.7883 243.39 61.7883C242.039 61.7883 241.244 62.7263 240.91 63.6165C240.783 63.9027 240.719 64.3796 240.719 64.8406V73.8863H235.839L235.87 63.2191V63.2191Z" fill="#028374"/>
<path d="M255.217 73.8863V61.7883H253.167V58.1955H255.217V57.5914C255.217 55.6996 255.806 53.6171 257.205 52.3453C258.429 51.1848 260.13 50.7714 261.529 50.7714C262.61 50.7714 263.452 50.8986 264.12 51.0894L263.929 54.8412C263.516 54.714 262.991 54.6186 262.355 54.6186C260.75 54.6186 260.082 55.8745 260.082 57.4166V58.2114H263.23V61.8042H260.114V73.9022H255.217V73.8863V73.8863Z" fill="#028374"/>
<path d="M280.765 65.874C280.765 71.6129 276.679 74.236 272.482 74.236C267.904 74.236 264.374 71.2314 264.374 66.1601C264.374 61.0888 267.697 57.8458 272.752 57.8458C277.585 57.8458 280.765 61.1524 280.765 65.874V65.874ZM269.414 66.0329C269.414 68.7196 270.527 70.7545 272.625 70.7545C274.517 70.7545 275.741 68.8627 275.741 66.0329C275.741 63.696 274.835 61.3114 272.625 61.3114C270.288 61.3114 269.414 63.7119 269.414 66.0329Z" fill="#028374"/>
<path d="M283.801 63.3622C283.801 61.057 283.737 59.5468 283.674 58.1955H287.871L288.03 61.0888H288.157C288.968 58.8155 290.891 57.8458 292.385 57.8458C292.831 57.8458 293.053 57.8458 293.403 57.9093V62.4878C293.053 62.4242 292.64 62.3606 292.083 62.3606C290.287 62.3606 289.079 63.3304 288.761 64.8406C288.697 65.1586 288.665 65.5401 288.665 65.9217V73.8863H283.785V63.3622H283.801V63.3622Z" fill="#028374"/>
<path d="M295.978 63.2191C295.978 61.2637 295.915 59.5945 295.851 58.2114H299.953L300.175 60.3417H300.271C300.938 59.356 302.321 57.8617 305.024 57.8617C307.043 57.8617 308.649 58.8791 309.316 60.5165H309.38C309.968 59.7217 310.668 59.0858 311.399 58.6247C312.273 58.1001 313.227 57.8617 314.372 57.8617C317.376 57.8617 319.65 59.9919 319.65 64.6658V73.9022H314.896V65.3653C314.896 63.0919 314.165 61.7724 312.591 61.7724C311.478 61.7724 310.668 62.5355 310.35 63.4735C310.222 63.8232 310.159 64.3478 310.159 64.7294V73.9022H305.406V65.1268C305.406 63.1396 304.706 61.8042 303.164 61.8042C301.908 61.8042 301.177 62.774 300.891 63.5529C300.716 63.9345 300.7 64.3955 300.7 64.7771V73.9181H295.947V63.235H295.978V63.2191V63.2191Z" fill="#028374"/>
<path d="M332.495 73.8863L332.209 72.3124H332.113C331.096 73.5683 329.49 74.236 327.63 74.236C324.451 74.236 322.559 71.9309 322.559 69.4191C322.559 65.3335 326.215 63.394 331.764 63.4099V63.1873C331.764 62.3447 331.318 61.1683 328.902 61.1683C327.296 61.1683 325.595 61.7247 324.578 62.3606L323.672 59.2129C324.753 58.6088 326.915 57.8458 329.76 57.8458C334.991 57.8458 336.644 60.9299 336.644 64.6181V70.0709C336.644 71.5811 336.708 73.0119 336.867 73.8863H332.495V73.8863ZM331.907 66.4781C329.347 66.4463 327.36 67.0504 327.36 68.9581C327.36 70.214 328.203 70.8181 329.284 70.8181C330.508 70.8181 331.493 70.0232 331.827 69.0217C331.891 68.7673 331.923 68.4653 331.923 68.1791V66.4781H331.907Z" fill="#028374"/>
<path d="M345.706 53.7124V58.1955H349.203V61.7883H345.706V67.4637C345.706 69.3555 346.151 70.2299 347.629 70.2299C348.233 70.2299 348.71 70.1663 349.06 70.1027L349.092 73.7909C348.456 74.0453 347.295 74.2042 345.912 74.2042C344.338 74.2042 343.019 73.6478 342.256 72.8529C341.35 71.915 340.905 70.4047 340.905 68.2109V61.8042H338.822V58.2114H340.905V54.8094L345.706 53.7124V53.7124Z" fill="#028374"/>
<path d="M357.057 53.8555C357.057 55.2068 356.039 56.3037 354.433 56.3037C352.828 56.3037 351.874 55.2227 351.89 53.8555C351.858 52.4565 352.876 51.3755 354.449 51.3755C356.023 51.3755 357.025 52.4247 357.057 53.8555ZM352.033 73.8863V58.1955H356.913V73.8863H352.033Z" fill="#028374"/>
<path d="M376.292 65.874C376.292 71.6129 372.207 74.236 368.01 74.236C363.431 74.236 359.902 71.2314 359.902 66.1601C359.902 61.0888 363.225 57.8458 368.28 57.8458C373.097 57.8458 376.292 61.1524 376.292 65.874V65.874ZM364.957 66.0329C364.957 68.7196 366.086 70.7545 368.169 70.7545C370.061 70.7545 371.285 68.8627 371.285 66.0329C371.285 63.696 370.379 61.3114 368.169 61.3114C365.816 61.3114 364.957 63.7119 364.957 66.0329Z" fill="#028374"/>
<path d="M378.677 63.2191C378.677 61.2637 378.613 59.5945 378.55 58.2114H382.778L383.001 60.3576H383.096C383.732 59.3719 385.338 57.8458 387.945 57.8458C391.156 57.8458 393.557 59.976 393.557 64.5863V73.8863H388.676V65.1904C388.676 63.1714 387.977 61.7883 386.196 61.7883C384.845 61.7883 384.05 62.7263 383.716 63.6165C383.589 63.9027 383.526 64.3796 383.526 64.8406V73.8863H378.645L378.677 63.2191V63.2191Z" fill="#028374"/>
<path d="M133.268 96.3493C134.588 97.017 136.591 97.7006 138.689 97.7006C140.931 97.7006 142.123 96.7627 142.123 95.3637C142.123 93.9647 141.106 93.2334 138.498 92.3114C134.906 91.0555 132.569 89.0683 132.569 85.9206C132.569 82.2165 135.653 79.4186 140.74 79.4186C143.188 79.4186 144.969 79.9432 146.256 80.4996L145.175 84.4422C144.301 84.0288 142.775 83.4247 140.661 83.4247C138.546 83.4247 137.513 84.3945 137.513 85.5073C137.513 86.8745 138.737 87.4945 141.519 88.5596C145.334 89.9586 147.131 91.9617 147.131 94.9981C147.131 98.6227 144.333 101.707 138.403 101.707C135.923 101.707 133.507 101.071 132.283 100.387L133.268 96.3493V96.3493Z" fill="#028374"/>
<path d="M153.442 85.6981L155.779 93.3924C156.033 94.3304 156.367 95.4909 156.542 96.3176H156.637C156.86 95.475 157.114 94.2986 157.337 93.3924L159.26 85.6981H164.491L160.834 96.0155C158.593 102.231 157.083 104.743 155.318 106.317C153.617 107.796 151.82 108.304 150.596 108.463L149.579 104.33C150.183 104.235 150.946 103.948 151.709 103.487C152.44 103.106 153.251 102.327 153.728 101.532C153.887 101.309 153.983 101.055 153.983 100.832C153.983 100.673 153.951 100.419 153.76 100.038L148.021 85.6981H153.442Z" fill="#028374"/>
<path d="M166.653 97.1124C167.559 97.6688 169.419 98.3047 170.85 98.3047C172.281 98.3047 172.932 97.7801 172.932 96.9853C172.932 96.1904 172.455 95.7929 170.627 95.1888C167.384 94.1078 166.144 92.3273 166.16 90.4673C166.16 87.5422 168.672 85.3324 172.551 85.3324C174.379 85.3324 176.016 85.7458 176.986 86.2386L176.112 89.5929C175.412 89.2114 174.061 88.6868 172.71 88.6868C171.517 88.6868 170.85 89.1796 170.85 89.9745C170.85 90.7058 171.454 91.1032 173.377 91.7709C176.35 92.7883 177.606 94.2986 177.638 96.6196C177.638 99.5288 175.333 101.691 170.834 101.691C168.783 101.691 166.955 101.246 165.763 100.61L166.653 97.1124V97.1124Z" fill="#028374"/>
<path d="M186.048 81.1991V85.6822H189.545V89.275H186.048V94.9504C186.048 96.8422 186.493 97.7165 187.971 97.7165C188.575 97.7165 189.052 97.6529 189.402 97.5893L189.434 101.278C188.798 101.532 187.637 101.691 186.254 101.691C184.68 101.691 183.361 101.134 182.598 100.34C181.692 99.4016 181.247 97.8914 181.247 95.6975V89.275H179.164V85.6822H181.247V82.2801L186.048 81.1991V81.1991Z" fill="#028374"/>
<path d="M196.604 95.0935C196.762 97.1124 198.766 98.0663 201.039 98.0663C202.708 98.0663 204.043 97.8437 205.363 97.4304L205.999 100.737C204.393 101.373 202.438 101.691 200.323 101.691C194.998 101.691 191.946 98.6068 191.946 93.7104C191.946 89.736 194.426 85.3324 199.878 85.3324C204.95 85.3324 206.873 89.275 206.873 93.154C206.873 93.9965 206.778 94.7278 206.714 95.0776H196.604V95.0935ZM202.342 91.7709C202.342 90.5786 201.818 88.5914 199.576 88.5914C197.526 88.5914 196.683 90.4514 196.572 91.7709H202.342Z" fill="#028374"/>
<path d="M209.783 90.7058C209.783 88.7504 209.719 87.0812 209.655 85.6981H213.757L213.979 87.8283H214.075C214.743 86.8427 216.126 85.3483 218.828 85.3483C220.847 85.3483 222.453 86.3658 223.121 88.0032H223.184C223.772 87.2083 224.472 86.5725 225.203 86.1114C226.077 85.5868 227.031 85.3483 228.176 85.3483C231.181 85.3483 233.454 87.4786 233.454 92.1524V101.389H228.701V92.8678C228.701 90.5945 227.969 89.275 226.395 89.275C225.283 89.275 224.472 90.0381 224.154 90.976C224.027 91.3258 223.963 91.8504 223.963 92.2319V101.389H219.21V92.6135C219.21 90.6263 218.51 89.2909 216.968 89.2909C215.712 89.2909 214.981 90.2607 214.695 91.0396C214.536 91.4212 214.504 91.8822 214.504 92.2637V101.405H209.751V90.7217H209.783V90.7058V90.7058Z" fill="#028374"/>
<path d="M243.755 101.389V89.2909H241.705V85.6981H243.755V85.094C243.755 83.2022 244.344 81.1196 245.743 79.8478C246.967 78.6873 248.668 78.274 250.067 78.274C251.148 78.274 251.99 78.4011 252.658 78.5919L252.467 82.3437C252.054 82.2165 251.529 82.1211 250.893 82.1211C249.288 82.1211 248.62 83.377 248.62 84.9191V85.714H251.768V89.3068H248.652V101.405H243.755V101.389V101.389Z" fill="#028374"/>
<path d="M269.334 93.3606C269.334 99.0996 265.249 101.723 261.052 101.723C256.473 101.723 252.944 98.7181 252.944 93.6468C252.944 88.5755 256.267 85.3324 261.322 85.3324C266.123 85.3483 269.334 88.6391 269.334 93.3606ZM257.968 93.5355C257.968 96.2222 259.08 98.2571 261.179 98.2571C263.071 98.2571 264.295 96.3653 264.295 93.5355C264.295 91.1986 263.389 88.814 261.179 88.814C258.842 88.814 257.968 91.2145 257.968 93.5355Z" fill="#028374"/>
<path d="M272.339 90.8648C272.339 88.5596 272.275 87.0494 272.212 85.6981H276.409L276.568 88.5914H276.695C277.49 86.3181 279.413 85.3483 280.924 85.3483C281.369 85.3483 281.591 85.3483 281.941 85.4119V89.9904C281.591 89.9268 281.178 89.8632 280.622 89.8632C278.825 89.8632 277.617 90.833 277.299 92.3432C277.235 92.6612 277.204 93.0427 277.204 93.4242V101.389H272.323V90.8648H272.339V90.8648Z" fill="#028374"/>
<path d="M302.115 92.2478H294.15V97.3827H303.037V101.405H289.238V79.7842H302.576V83.7904H294.15V88.2735H302.115V92.2478V92.2478Z" fill="#028374"/>
<path d="M320.683 96.3494C320.683 98.4001 320.747 100.069 320.81 101.389H316.582L316.359 99.1791H316.264C315.66 100.149 314.181 101.739 311.367 101.739C308.188 101.739 305.851 99.7514 305.851 94.9186V85.714H310.747V94.1396C310.747 96.4129 311.479 97.796 313.195 97.796C314.547 97.796 315.326 96.8581 315.644 96.095C315.771 95.8088 315.819 95.4273 315.819 95.0458V85.714H320.715L320.683 96.3494V96.3494Z" fill="#028374"/>
<path d="M325.23 90.8648C325.23 88.5596 325.166 87.0494 325.103 85.6981H329.299L329.458 88.5914H329.586C330.396 86.3181 332.32 85.3483 333.814 85.3483C334.259 85.3483 334.482 85.3483 334.832 85.4119V89.9904C334.482 89.9268 334.069 89.8632 333.512 89.8632C331.716 89.8632 330.508 90.833 330.19 92.3432C330.126 92.6612 330.094 93.0427 330.094 93.4242V101.389H325.214V90.8648H325.23V90.8648Z" fill="#028374"/>
<path d="M352.653 93.3606C352.653 99.0996 348.567 101.723 344.37 101.723C339.792 101.723 336.263 98.7181 336.263 93.6468C336.263 88.5755 339.585 85.3324 344.641 85.3324C349.442 85.3483 352.653 88.6391 352.653 93.3606ZM341.302 93.5355C341.302 96.2222 342.431 98.2571 344.513 98.2571C346.405 98.2571 347.629 96.3653 347.629 93.5355C347.629 91.1986 346.723 88.814 344.513 88.814C342.176 88.814 341.302 91.2145 341.302 93.5355Z" fill="#028374"/>
<path d="M355.673 90.9601C355.673 88.9094 355.61 87.1447 355.546 85.714H359.775L359.997 87.8919H360.061C361.222 86.2227 363.002 85.3642 365.291 85.3642C368.725 85.3642 371.793 88.337 371.793 93.3447C371.793 99.0519 368.169 101.739 364.671 101.739C362.779 101.739 361.301 100.976 360.586 99.9422H360.554V107.732H355.673V90.9601V90.9601ZM360.554 94.6483C360.554 95.0299 360.586 95.3796 360.649 95.6658C360.967 96.9852 362.08 97.9709 363.511 97.9709C365.641 97.9709 366.881 96.2063 366.881 93.5355C366.881 91.0237 365.768 89.1319 363.574 89.1319C362.207 89.1319 360.983 90.1494 360.649 91.6119C360.586 91.8663 360.554 92.1842 360.554 92.4863V94.6483Z" fill="#028374"/>
<path d="M378.709 95.0935C378.884 97.1124 380.871 98.0663 383.144 98.0663C384.813 98.0663 386.149 97.8437 387.468 97.4304L388.104 100.737C386.498 101.373 384.543 101.691 382.429 101.691C377.103 101.691 374.051 98.6068 374.051 93.7104C374.051 89.736 376.531 85.3324 381.984 85.3324C387.055 85.3324 388.978 89.275 388.978 93.154C388.978 93.9965 388.883 94.7278 388.804 95.0776H378.709V95.0935ZM384.448 91.7709C384.448 90.5786 383.923 88.5914 381.697 88.5914C379.647 88.5914 378.804 90.4514 378.693 91.7709H384.448V91.7709Z" fill="#028374"/>
</g>
<defs>
<clipPath id="clip0_2118_22548">
<rect width="392.667" height="124" fill="white"/>
</clipPath>
</defs>
</svg>
