<?xml version="1.0" encoding="UTF-8"?>
<svg viewBox="0 0 139 105" xmlns="http://www.w3.org/2000/svg">
<path d="m48.5 93.42c-5.2998-2.8094-12.444-0.5605-16.889 4.7919-0.0611 0.0735-0.1533 0.1147-0.2488 0.1097l-4.8649-0.2539c-0.3267-0.017-0.4771 0.494-0.2081 0.6802 0.7406 0.5127 1.5834 1.2425 1.8696 2.0525 0.2811 0.795 0.0962 1.867-0.1509 2.724-0.0912 0.316 0.3571 0.621 0.5993 0.398l3.5779-3.294c0.0674-0.062 0.1615-0.09 0.2521-0.076 9.6551 1.465 15.045-3.5092 16.2-6.7903 0.0467-0.1325-0.0134-0.2763-0.1375-0.3421z" fill="#EFF2F4"/>
<path d="m31.14 68.765c-5.0069-2.5879-11.699-0.4143-15.834 4.6502-0.0604 0.0741-0.1523 0.1161-0.2478 0.112l-4.4837-0.194c-0.3268-0.0142-0.4741 0.5012-0.2052 0.6875 0.683 0.4733 1.4376 1.1323 1.7043 1.8659 0.2615 0.7192 0.1174 1.6846-0.0953 2.4774-0.0853 0.318 0.3691 0.6206 0.6093 0.3954l3.267-3.0626c0.0668-0.0626 0.1607-0.0909 0.2514-0.078 9.0788 1.2917 14.104-3.4165 15.174-6.513 0.0459-0.1327-0.0154-0.2763-0.1402-0.3408z" fill="#EFF2F4"/>
<path d="m16.98 95.448c-3.8258-1.9841-8.9518-0.365-12.16 3.4728-0.06131 0.0734-0.15348 0.1146-0.24895 0.1096l-3.0787-0.1607c-0.32667-0.017-0.48675 0.5114-0.22968 0.7137 0.43774 0.3445 0.86168 0.7771 1.0276 1.2461 0.16104 0.456 0.11108 1.037-0.00539 1.567-0.07061 0.322 0.39789 0.635 0.64006 0.412l2.2552-2.077c0.0674-0.062 0.16137-0.089 0.25198-0.076 6.9135 1.034 10.8-2.4909 11.683-4.8654 0.0489-0.1316-0.0106-0.2774-0.1353-0.3421z" fill="#EFF2F4"/>
<path d="m65.961 73.112c-3.9096-1.0571-8.2963 1.4457-10.487 5.6057-0.0445 0.0846-0.1259 0.1443-0.2203 0.1596l-2.7719 0.4478c-0.3229 0.0522-0.3693 0.6066-0.0777 0.7548 0.4454 0.2263 0.8834 0.5274 1.1159 0.9048 0.2248 0.3649 0.2994 0.8696 0.3056 1.3543 0.0042 0.3292 0.533 0.5374 0.7228 0.2684l1.6075-2.2793c0.0528-0.0748 0.1389-0.1214 0.2303-0.1273 6.5506-0.4228 9.4284-4.4218 9.7786-6.7835 0.0206-0.1389-0.0684-0.2686-0.204-0.3053z" fill="#EFF2F4"/>
<path d="m77.723 82.694c-4.5738-1.0243-9.509 2.1135-11.8 7.0468-0.0402 0.0867-0.1187 0.1503-0.2122 0.1701l-3.4072 0.7209c-0.3201 0.0677-0.3372 0.6141-0.0343 0.7377 0.5909 0.2411 1.2149 0.5907 1.5413 1.0674 0.3181 0.4644 0.4215 1.1486 0.437 1.7737 0.0081 0.3291 0.5354 0.5104 0.7119 0.2325l1.8593-2.9269c0.0491-0.0774 0.1329-0.1281 0.224-0.1383 7.5631-0.848 10.651-5.6549 10.899-8.3884 0.0127-0.1398-0.0824-0.2648-0.2194-0.2955z" fill="#EFF2F4"/>
<path d="m66.973 62.334c-3.3346-0.8809-7.0663 1.2513-8.9398 4.7915-0.0447 0.0845-0.1261 0.1443-0.2204 0.1595l-2.1433 0.3463c-0.3229 0.0521-0.373 0.6186-0.0893 0.7813 0.3132 0.1796 0.6026 0.4041 0.7689 0.6742 0.1588 0.2578 0.2301 0.5969 0.2532 0.9408 0.0221 0.3285 0.5645 0.5389 0.7542 0.2699l1.2386-1.7561c0.0528-0.0749 0.1388-0.1215 0.2302-0.1275 5.5658-0.3673 8.0289-3.7515 8.3505-5.7761 0.022-0.1387-0.067-0.2679-0.2028-0.3038z" fill="#EFF2F4"/>
<path d="m83.829 40.373c-4.4958-1.0942-9.4248 1.9113-11.778 6.7379-0.0419 0.0859-0.1215 0.148-0.2154 0.1661l-3.3578 0.6447c-0.3212 0.0617-0.3487 0.6085-0.0486 0.7386 0.5739 0.2486 1.1747 0.6032 1.4851 1.0752 0.3023 0.4598 0.393 1.1282 0.3984 1.7405 0.0028 0.3292 0.5276 0.5205 0.7093 0.2459l1.8787-2.8381c0.0506-0.0764 0.1353-0.1256 0.2265-0.1341 7.4794-0.6972 10.618-5.3824 10.915-8.0771 0.0154-0.1396-0.0773-0.2664-0.2138-0.2996z" fill="#EFF2F4"/>
<path d="m135.3 2.8247c-5.775 0.53163-10.368 6.1278-11.139 12.809-0.011 0.095-0.065 0.1799-0.148 0.228l-4.029 2.3408c-0.283 0.1643-0.13 0.6762 0.197 0.6867 0.862 0.0277 1.904 0.1768 2.552 0.6721 0.636 0.4858 1.05 1.4247 1.304 2.2387 0.098 0.3142 0.642 0.3245 0.723 0.0054l1.143-4.5086c0.022-0.0888 0.086-0.1632 0.169-0.2012 8.586-3.9173 10.324-10.788 9.529-14.06-0.033-0.13648-0.162-0.22421-0.301-0.21134z" fill="#EFF2F4"/>
<path d="m90.049 62.687c-5.113-1.2367-10.703 2.2077-13.343 7.7101-0.0413 0.0862-0.1207 0.1487-0.2145 0.1672l-4.0126 0.7915c-0.3209 0.0633-0.3437 0.6026-0.0399 0.7237 0.7027 0.2801 1.4829 0.7017 1.8704 1.2847 0.3791 0.5702 0.4704 1.4273 0.4613 2.1724-0.0041 0.3292 0.5131 0.5168 0.6934 0.2414l2.2338-3.4118c0.0502-0.0766 0.1347-0.1262 0.2259-0.1351 8.5125-0.8291 12.041-6.1948 12.341-9.2458 0.0138-0.1398-0.0796-0.2653-0.2161-0.2983z" fill="#EFF2F4"/>
<path d="m125.62 36.835c-6.305-0.4192-12.2 4.8257-14.157 11.887-0.026 0.0922-0.093 0.1676-0.182 0.2021l-4.858 1.8846c-0.305 0.1183-0.232 0.6435 0.09 0.7008 0.946 0.1684 2.114 0.5057 2.755 1.1772 0.629 0.6601 0.913 1.8141 1.04 2.7581 0.044 0.3263 0.575 0.4213 0.705 0.1186l2.047-4.7847c0.036-0.0842 0.111-0.1478 0.199-0.1724 9.915-2.7583 12.94-9.8715 12.626-13.516-0.012-0.1399-0.125-0.2462-0.265-0.2555z" fill="#EFF2F4"/>
<path d="m111.16 65.241c-6.544-1.1518-13.298 3.6715-16.132 10.836-0.0351 0.0889-0.1101 0.1567-0.2024 0.1816l-5.3642 1.4461c-0.3158 0.0851-0.2994 0.6126 0.0153 0.7018 0.9819 0.2786 2.2088 0.7662 2.8178 1.5587 0.5992 0.7797 0.7593 2.0616 0.7799 3.0748 0.0068 0.3291 0.5221 0.4797 0.6832 0.1925l2.7155-4.842c0.0448-0.0799 0.1258-0.1352 0.2162-0.1502 10.682-1.7711 14.636-8.8777 14.708-12.717 3e-3 -0.1405-0.099-0.258-0.237-0.2823z" fill="#EFF2F4"/>
<path d="m99.085 43.441c-8.1828-1.9845-17.095 3.6091-21.203 12.463-0.0402 0.0867-0.119 0.15-0.2127 0.1693l-7.2818 1.5072c-0.3203 0.0663-0.333 0.5836-0.0215 0.6835 1.2619 0.4043 3.0188 1.1446 3.7999 2.2962 0.7715 1.1374 0.8183 3.0106 0.7317 4.3303-0.0216 0.3285 0.4729 0.5079 0.6507 0.2308l4.0181-6.264c0.0495-0.0771 0.1337-0.1275 0.2248-0.137 13.671-1.4266 19.181-10.162 19.515-14.984 0.0098-0.1401-0.0848-0.2625-0.2213-0.2956z" fill="#EFF2F4"/>
<path d="m42.336 79.873c-4.6255-1.6323-10.141 1.0223-13.125 5.869-0.0501 0.0814-0.1355 0.1353-0.2307 0.144l-3.6981 0.3371c-0.3258 0.0297-0.4058 0.5677-0.1181 0.7233 0.6014 0.3254 1.2377 0.7763 1.5274 1.329 0.2829 0.5395 0.298 1.2954 0.2292 1.9634-0.0337 0.3274 0.4657 0.5685 0.6736 0.3133l2.3365-2.8685c0.0578-0.071 0.147-0.1116 0.2386-0.111 7.9686 0.05 11.765-4.5741 12.35-7.3805 0.0287-0.1374-0.0512-0.2724-0.1836-0.3191z" fill="#EFF2F4"/>
<path d="m54.292 62.463c-4.3214-1.4967-9.4527 0.9983-12.221 5.5264-0.0499 0.0816-0.1351 0.1358-0.2302 0.1449l-3.3471 0.3179c-0.3256 0.0309-0.4051 0.5734-0.119 0.7321 0.5369 0.2978 1.0873 0.7002 1.3461 1.1895 0.252 0.4763 0.2805 1.1347 0.2303 1.7333-0.0275 0.328 0.4775 0.5683 0.6845 0.3123l2.1035-2.6026c0.0576-0.0712 0.1466-0.1121 0.2382-0.1119 7.4234 0.0147 10.952-4.2989 11.499-6.9234 0.0287-0.1375-0.0516-0.2726-0.1843-0.3185z" fill="#EFF2F4"/>
<path d="m62.287 46.752c-4.8236-1.6877-10.561 1.0995-13.648 6.1616-0.0498 0.0816-0.135 0.1358-0.2302 0.1449l-3.9133 0.3717c-0.3257 0.0309-0.4027 0.5669-0.1133 0.7192 0.6425 0.3382 1.3357 0.815 1.648 1.4052 0.3053 0.577 0.3161 1.3939 0.2399 2.1042-0.0351 0.3273 0.4626 0.566 0.6695 0.31l2.463-3.0474c0.0576-0.0712 0.1466-0.1121 0.2382-0.1119 8.3061 0.023 12.24-4.8165 12.831-7.7391 0.0278-0.1376-0.0526-0.272-0.1851-0.3184z" fill="#EFF2F4"/>
<path d="m121.21 24.784c-6.697-0.655-13.14 4.7409-15.443 12.196-0.028 0.0914-0.098 0.1647-0.188 0.1967l-5.321 1.8841c-0.3084 0.1092-0.251 0.6332 0.069 0.6975 1.016 0.2036 2.304 0.6006 2.984 1.3574 0.67 0.745 0.93 2.0378 1.028 3.0619 0.032 0.3277 0.557 0.4381 0.695 0.1394l2.373-5.1177c0.038-0.0832 0.115-0.1445 0.204-0.1664 10.648-2.6198 14.085-10.105 13.857-13.985-8e-3 -0.1403-0.118-0.2496-0.258-0.2632z" fill="#EFF2F4"/>
<path d="m104.59 22.149c-6.268-0.5508-12.25 4.5463-14.349 11.536-0.0275 0.0915-0.0963 0.1655-0.1862 0.1982l-4.8712 1.7711c-0.3074 0.1118-0.246 0.6386 0.0747 0.703 0.9373 0.1881 2.0899 0.5487 2.7125 1.2296 0.6119 0.6693 0.8699 1.821 0.9769 2.7627 0.0372 0.3271 0.5664 0.4334 0.7023 0.1336l2.138-4.7151c0.0378-0.0834 0.1138-0.1454 0.2026-0.1681 9.9301-2.5359 13.094-9.5538 12.86-13.19-9e-3 -0.1402-0.121-0.2489-0.261-0.2612z" fill="#EFF2F4"/>
<path d="m79.1 23.503c-6.6956-1.8-14.157 2.5976-17.754 9.7874-0.0428 0.0855-0.1234 0.1465-0.2175 0.1632l-5.7713 1.0253c-0.3221 0.0572-0.3508 0.5823-0.0446 0.6972 1.0042 0.3766 2.2717 1.0018 2.843 1.8976 0.5627 0.8823 0.6026 2.2662 0.5253 3.3295-0.0238 0.3283 0.4743 0.523 0.6598 0.251l3.3017-4.8403c0.0516-0.0757 0.1372-0.1237 0.2285-0.1307 11.269-0.8647 16.024-7.8983 16.442-11.878 0.0146-0.1397-0.0764-0.2655-0.212-0.3019z" fill="#EFF2F4"/>
</svg>
