<?xml version="1.0" encoding="utf-8"?>
<!-- Generator: Adobe Illustrator 23.0.3, SVG Export Plug-In . SVG Version: 6.00 Build 0)  -->
<svg version="1.1" id="Layer_1" xmlns="http://www.w3.org/2000/svg" xmlns:xlink="http://www.w3.org/1999/xlink" x="0px" y="0px"
	 viewBox="0 0 302 82" style="enable-background:new 0 0 302 82;" xml:space="preserve">
<style type="text/css">
	.st0{fill-rule:evenodd;clip-rule:evenodd;fill:#77BB11;}
	.st1{fill-rule:evenodd;clip-rule:evenodd;fill:#CCEE66;}
	.st2{fill-rule:evenodd;clip-rule:evenodd;fill:#225511;}
	.st3{fill:#F4CF00;stroke:#F4CF00;stroke-width:0.5;stroke-miterlimit:10;}
</style>
<g>
	<path id="Forest_Information_System_For_Europe" class="st0" d="M95.3,38.3v13.6h3.3v-5.5h4.3v-2.5h-4.3v-3h5.6v-2.6L95.3,38.3
		L95.3,38.3z M111.6,38.1c-1.2,0-2.4,0.3-3.5,0.9c-1,0.6-1.9,1.4-2.5,2.5c-1.2,2.2-1.2,5,0,7.2c0.6,1,1.4,1.9,2.5,2.5
		c2.2,1.2,4.8,1.2,7,0c1-0.6,1.9-1.5,2.5-2.5c1.2-2.2,1.2-5,0-7.2c-0.6-1-1.4-1.9-2.5-2.5C114.1,38.4,112.9,38.1,111.6,38.1
		L111.6,38.1L111.6,38.1z M111.6,41.1c1,0,1.9,0.3,2.6,1.1c1.3,1.7,1.3,4,0,5.7c-1.4,1.4-3.7,1.4-5.1,0c-1.3-1.7-1.3-4,0-5.7
		C109.7,41.5,110.7,41.1,111.6,41.1L111.6,41.1L111.6,41.1z M131,51.9l-3.2-5.4c0.9-0.2,1.8-0.7,2.4-1.4c0.6-0.7,0.8-1.6,0.8-2.5
		c0-0.8-0.2-1.5-0.6-2.2c-0.4-0.7-1-1.2-1.7-1.5c-0.9-0.4-1.8-0.6-2.7-0.6h-5.6v13.6h3.3v-5.1h0.8l3,5.1H131z M123.7,41.1h2
		c0.5,0,1,0.1,1.4,0.5c0.3,0.3,0.5,0.8,0.5,1.3s-0.1,0.9-0.5,1.3c-0.4,0.3-0.9,0.5-1.4,0.4h-2V41.1z M141.3,40.9v-2.6h-8.5v13.6h8.5
		v-2.6h-5.2v-3h4.6v-2.5h-4.6v-2.9H141.3z M153,48.1c0-0.8-0.2-1.5-0.6-2.2c-0.4-0.5-0.9-1-1.4-1.3c-0.7-0.3-1.4-0.6-2.1-0.9
		c-0.6-0.2-1.1-0.4-1.4-0.5c-0.3-0.1-0.6-0.3-0.8-0.5s-0.3-0.5-0.3-0.8s0.1-0.7,0.4-0.9c0.3-0.2,0.6-0.3,0.9-0.3
		c0.4,0,0.8,0.1,1.1,0.4c0.3,0.3,0.5,0.7,0.5,1.1h3.6c-0.1-1.2-0.6-2.2-1.5-3c-1-0.8-2.3-1.1-3.6-1.1c-0.9,0-1.7,0.1-2.5,0.5
		c-0.7,0.3-1.3,0.8-1.7,1.4c-0.8,1.3-0.8,2.9,0,4.2c0.4,0.5,0.8,0.9,1.4,1.2c0.7,0.3,1.4,0.6,2.1,0.9c0.6,0.2,1.1,0.4,1.4,0.5
		c0.3,0.1,0.6,0.3,0.8,0.6c0.2,0.2,0.3,0.5,0.3,0.9c0,0.3-0.1,0.7-0.4,0.9c-0.3,0.2-0.6,0.4-1,0.3c-0.4,0-0.9-0.1-1.2-0.4
		c-0.3-0.3-0.5-0.8-0.5-1.2H143c0,1.2,0.6,2.4,1.6,3.1c1.1,0.8,2.4,1.2,3.8,1.1c0.9,0,1.8-0.2,2.6-0.5c0.7-0.3,1.2-0.8,1.6-1.4
		C152.8,49.5,153,48.8,153,48.1L153,48.1L153,48.1z M153.7,38.3v2.6h3.7v11h3.3v-11h3.7v-2.6H153.7z M169.3,38.3v13.6h3.3V38.3
		H169.3z M187.1,38.3h-3.3v8.4l-5.5-8.4H175v13.6h3.3v-8.4l5.5,8.4h3.3V38.3z M189.6,38.3v13.6h3.3v-5.5h4.3v-2.5h-4.3v-3h5.6v-2.6
		L189.6,38.3L189.6,38.3z M205.9,38.1c-1.2,0-2.4,0.3-3.5,0.9c-1,0.6-1.9,1.4-2.5,2.5c-1.2,2.2-1.2,5,0,7.2c0.6,1,1.4,1.9,2.5,2.5
		c2.2,1.2,4.8,1.2,7,0c1-0.6,1.9-1.5,2.5-2.5c1.2-2.2,1.2-5,0-7.2c-0.6-1-1.4-1.9-2.5-2.5C208.4,38.4,207.1,38.1,205.9,38.1
		L205.9,38.1L205.9,38.1z M205.9,41.1c1,0,1.9,0.3,2.6,1.1c1.3,1.7,1.3,4,0,5.7c-1.4,1.4-3.7,1.4-5.1,0c-1.3-1.7-1.3-4,0-5.7
		C204,41.5,204.9,41.1,205.9,41.1L205.9,41.1L205.9,41.1z M225.3,51.9l-3.2-5.4c0.9-0.2,1.8-0.7,2.4-1.4c0.6-0.7,0.8-1.6,0.8-2.5
		c0-0.8-0.2-1.5-0.6-2.2c-0.4-0.7-1-1.2-1.7-1.5c-0.9-0.4-1.8-0.6-2.7-0.6h-5.6v13.6h3.3v-5.1h0.8l3,5.1H225.3z M217.9,41.1h2
		c0.5,0,1,0.1,1.4,0.5c0.3,0.3,0.5,0.8,0.5,1.3s-0.1,0.9-0.5,1.3c-0.4,0.3-0.9,0.5-1.4,0.4h-2V41.1z M238.4,38.4l-3.6,9.4l-3.7-9.4
		h-4v13.5h3.3v-8.5l3,8.5h2.9l2.9-8.5v8.5h3.3V38.4H238.4L238.4,38.4z M253.8,51.9h3.5l-5-13.5h-3.8l-5,13.5h3.5l0.8-2.5h5.1
		L253.8,51.9z M248.7,46.9l1.7-5l1.7,5H248.7z M256.2,38.3v2.6h3.7v11h3.3v-11h3.7v-2.6H256.2z M268.1,38.3v13.6h3.3V38.3H268.1z
		 M280.2,38.1c-1.2,0-2.4,0.3-3.5,0.9c-1,0.6-1.9,1.4-2.5,2.5c-1.2,2.2-1.2,5,0,7.2c0.6,1,1.4,1.9,2.5,2.5c2.2,1.2,4.8,1.2,7,0
		c1-0.6,1.9-1.5,2.5-2.5c1.2-2.2,1.2-5,0-7.2c-0.6-1-1.4-1.9-2.5-2.5S281.4,38.1,280.2,38.1L280.2,38.1L280.2,38.1z M280.2,41.1
		c1,0,1.9,0.3,2.6,1.1c1.3,1.7,1.3,4,0,5.7c-1.4,1.4-3.7,1.4-5.1,0c-1.3-1.7-1.3-4,0-5.7C278.2,41.5,279.2,41.1,280.2,41.1
		L280.2,41.1L280.2,41.1z M301,38.3h-3.3v8.4l-5.5-8.4h-3.3v13.6h3.3v-8.4l5.5,8.4h3.3V38.3z M105.1,67.4c0-0.8-0.2-1.5-0.6-2.2
		c-0.4-0.5-0.9-1-1.4-1.3c-0.7-0.3-1.4-0.6-2.1-0.9c-0.6-0.2-1.1-0.4-1.4-0.5S99,62.2,98.8,62c-0.2-0.2-0.3-0.5-0.3-0.8
		s0.1-0.7,0.4-0.9s0.6-0.3,0.9-0.3c0.4,0,0.8,0.1,1.1,0.4c0.3,0.3,0.4,0.7,0.5,1.1h3.6c-0.1-1.2-0.6-2.2-1.5-3
		c-1-0.8-2.3-1.1-3.6-1.1c-0.9,0-1.7,0.1-2.5,0.5c-0.7,0.3-1.3,0.8-1.7,1.4c-0.8,1.3-0.8,2.9,0,4.2c0.4,0.5,0.8,0.9,1.4,1.2
		c0.7,0.3,1.4,0.6,2.1,0.9c0.6,0.2,1.1,0.4,1.4,0.5s0.6,0.3,0.8,0.6c0.2,0.2,0.3,0.5,0.3,0.9c0,0.3-0.1,0.7-0.4,0.9
		c-0.3,0.2-0.6,0.4-1,0.3c-0.4,0-0.9-0.1-1.2-0.4c-0.3-0.3-0.5-0.8-0.6-1.2H95c0,1.2,0.6,2.4,1.6,3.1c1.1,0.8,2.4,1.2,3.8,1.1
		c0.9,0,1.8-0.2,2.6-0.5c0.7-0.3,1.2-0.8,1.6-1.4C104.9,68.8,105.1,68.1,105.1,67.4L105.1,67.4L105.1,67.4z M114.2,57.6l-2.6,5.6
		l-2.6-5.6h-3.8l4.7,9.1v4.5h3.3v-4.5l4.7-9.1H114.2L114.2,57.6z M128.5,67.4c0-0.8-0.2-1.5-0.6-2.2c-0.4-0.5-0.9-1-1.4-1.3
		c-0.7-0.3-1.4-0.6-2.1-0.9c-0.6-0.2-1.1-0.4-1.4-0.5s-0.6-0.3-0.8-0.5c-0.2-0.2-0.3-0.5-0.3-0.8s0.1-0.7,0.4-0.9s0.6-0.3,0.9-0.3
		c0.4,0,0.8,0.1,1.1,0.4c0.3,0.3,0.5,0.7,0.5,1.1h3.6c-0.1-1.2-0.6-2.2-1.5-3c-1-0.8-2.3-1.1-3.6-1.1c-0.9,0-1.7,0.1-2.5,0.5
		c-0.7,0.3-1.3,0.8-1.7,1.4c-0.8,1.3-0.8,2.9,0,4.2c0.4,0.5,0.8,0.9,1.4,1.2c0.7,0.3,1.4,0.6,2.1,0.9c0.6,0.2,1.1,0.4,1.4,0.5
		s0.6,0.3,0.8,0.6c0.2,0.2,0.3,0.5,0.3,0.9c0,0.3-0.1,0.7-0.4,0.9c-0.3,0.2-0.6,0.4-1,0.3c-0.4,0-0.9-0.1-1.2-0.4
		c-0.3-0.3-0.5-0.8-0.5-1.2h-3.5c0,1.2,0.6,2.4,1.6,3.1c1.1,0.8,2.4,1.2,3.8,1.1c0.9,0,1.8-0.2,2.6-0.5c0.7-0.3,1.2-0.8,1.6-1.4
		C128.3,68.8,128.5,68.1,128.5,67.4L128.5,67.4L128.5,67.4z M129.2,57.6v2.6h3.7v11h3.3v-11h3.7v-2.6H129.2z M149.6,60.2v-2.6h-8.5
		v13.6h8.5v-2.6h-5.2v-3h4.6V63h-4.6v-2.9h5.2V60.2z M163,57.7l-3.6,9.4l-3.7-9.4h-4v13.5h3.3v-8.5l3,8.5h2.9l2.9-8.5v8.5h3.3V57.7
		H163L163,57.7z M172.8,57.6v13.6h3.3v-5.5h4.3v-2.5h-4.3v-3h5.6v-2.6H172.8L172.8,57.6z M189.1,57.4c-1.2,0-2.4,0.3-3.5,0.9
		c-1,0.6-1.9,1.4-2.5,2.5c-1.2,2.2-1.2,5,0,7.2c0.6,1,1.4,1.9,2.5,2.5c2.2,1.2,4.8,1.2,7,0c1-0.6,1.9-1.5,2.5-2.5
		c1.2-2.2,1.2-5,0-7.2c-0.6-1-1.4-1.9-2.5-2.5C191.6,57.7,190.4,57.3,189.1,57.4L189.1,57.4L189.1,57.4z M189.1,60.4
		c1,0,1.9,0.3,2.6,1.1c1.3,1.7,1.3,4,0,5.7c-1.4,1.4-3.7,1.4-5.1,0c-1.3-1.7-1.3-4,0-5.7C187.2,60.8,188.2,60.4,189.1,60.4
		L189.1,60.4z M208.5,71.2l-3.2-5.4c0.9-0.2,1.8-0.7,2.4-1.4c0.6-0.7,0.8-1.6,0.8-2.5c0-0.8-0.2-1.5-0.6-2.2c-0.4-0.7-1-1.2-1.7-1.5
		c-0.9-0.4-1.8-0.6-2.7-0.6h-5.6v13.6h3.3v-5.1h0.8l3,5.1H208.5z M201.2,60.3h2c0.5,0,1,0.1,1.4,0.5c0.3,0.3,0.5,0.8,0.5,1.3
		s-0.1,0.9-0.5,1.3c-0.4,0.3-0.9,0.5-1.4,0.4h-2V60.3z M222.1,60.2v-2.6h-8.5v13.6h8.5v-2.6h-5.2v-3h4.6V63h-4.6v-2.9h5.2V60.2z
		 M224,57.6v7.9c0,1.1,0.2,2.2,0.7,3.3c0.4,0.8,1.1,1.5,2,2s1.9,0.7,2.9,0.7s2-0.2,2.9-0.7c0.9-0.4,1.6-1.1,2.1-2
		c0.5-1,0.8-2.1,0.8-3.2v-7.9H232v7.9c0,0.7-0.2,1.5-0.6,2.1c-1,1-2.5,1-3.5,0c-0.4-0.6-0.7-1.3-0.6-2.1v-7.9L224,57.6L224,57.6z
		 M248.3,71.2l-3.2-5.4c0.9-0.2,1.8-0.7,2.4-1.4c0.6-0.7,0.8-1.6,0.8-2.5c0-0.8-0.2-1.5-0.6-2.2c-0.4-0.7-1-1.2-1.7-1.5
		c-0.9-0.4-1.8-0.6-2.7-0.6h-5.6v13.6h3.3v-5.1h0.8l3,5.1H248.3z M240.9,60.3h2c0.5,0,1,0.1,1.4,0.5c0.3,0.3,0.5,0.8,0.5,1.3
		s-0.1,0.9-0.5,1.3c-0.4,0.3-0.9,0.5-1.4,0.4h-2V60.3z M256.2,57.4c-1.2,0-2.4,0.3-3.5,0.9c-1,0.6-1.9,1.4-2.5,2.5
		c-1.2,2.2-1.2,5,0,7.2c0.6,1,1.4,1.9,2.5,2.5c2.2,1.2,4.8,1.2,7,0c1-0.6,1.9-1.5,2.5-2.5c1.2-2.2,1.2-5,0-7.2
		c-0.6-1-1.4-1.9-2.5-2.5S257.4,57.3,256.2,57.4L256.2,57.4L256.2,57.4z M256.2,60.4c1,0,1.9,0.3,2.6,1.1c1.3,1.7,1.3,4,0,5.7
		c-1.4,1.4-3.7,1.4-5.1,0c-1.3-1.7-1.3-4,0-5.7C254.3,60.8,255.2,60.4,256.2,60.4L256.2,60.4z M270.3,66.4c0.9,0,1.9-0.2,2.7-0.6
		c0.7-0.3,1.3-0.9,1.7-1.6c0.4-0.7,0.6-1.5,0.6-2.3c0.1-1.2-0.4-2.4-1.3-3.2c-1-0.9-2.4-1.3-3.7-1.2H265v13.6h3.3v-4.8L270.3,66.4
		L270.3,66.4z M269.9,63.8h-1.7v-3.5h1.7c1.3,0,2,0.6,2,1.8C271.9,63.2,271.2,63.8,269.9,63.8L269.9,63.8L269.9,63.8z M285.2,60.2
		v-2.6h-8.5v13.6h8.5v-2.6H280v-3h4.6V63H280v-2.9h5.2V60.2z"/>
	<path id="Ellipse_2_copy_7" class="st1" d="M49.2,1c22.3,15,30.1,33.3,30.1,49.9S65.8,81,49.2,81S19.1,67.5,19.1,50.9
		C19.2,34.3,26.1,15.4,49.2,1z"/>
	<path id="Ellipse_2_copy_9" class="st0" d="M18.9,10.1C45.7,8.4,63,18.3,73.1,31.4c10.1,13.2,7.5,32.1-5.7,42.1
		c-13.1,10-31.9,7.5-42-5.5C15.4,54.9,9.3,35.7,18.9,10.1z"/>
	<path id="Ellipse_2_copy_8" class="st2" d="M1,38c20.2-17.7,40-20.4,56-16.1s25.6,20.8,21.3,36.8C74,74.7,57.5,84.3,41.5,80l0,0
		C25.4,75.7,9,64.1,1,38z"/>
	<g>
		<polygon class="st3" points="39.8,70.4 40.5,72.6 38.6,71.2 36.7,72.6 37.4,70.4 35.5,69 37.9,69 38.6,66.8 39.3,69 41.6,69 		"/>
		<polygon class="st3" points="50.7,73.3 51.4,75.6 49.5,74.1 47.6,75.5 48.4,73.3 46.5,72 48.8,71.9 49.5,69.8 50.2,71.9 
			52.5,71.9 		"/>
		<polygon class="st3" points="69.6,62.5 70.3,64.7 68.4,63.3 66.5,64.6 67.2,62.4 65.4,61 67.7,61 68.4,58.9 69.1,61 71.4,61 		"/>
		<polygon class="st3" points="61.6,70.4 62.4,72.6 60.5,71.2 58.5,72.6 59.2,70.4 57.4,69 59.7,69 60.5,66.8 61.1,69 63.4,69 		"/>
		<polygon class="st3" points="31.8,62.5 32.5,64.7 30.6,63.3 28.7,64.6 29.4,62.4 27.6,61 29.9,61 30.6,58.9 31.3,61 33.6,61 		"/>
		<polygon class="st3" points="28.8,51.5 29.6,53.7 27.7,52.3 25.8,53.7 26.5,51.5 24.7,50.2 26.9,50.1 27.7,47.9 28.4,50.1 
			30.6,50.1 		"/>
		<polygon class="st3" points="39.8,32.6 40.5,34.9 38.6,33.4 36.7,34.9 37.4,32.6 35.5,31.3 37.9,31.3 38.6,29.1 39.3,31.3 
			41.6,31.3 		"/>
		<polygon class="st3" points="31.8,40.6 32.5,42.8 30.6,41.4 28.7,42.8 29.4,40.6 27.6,39.2 29.9,39.2 30.6,37.1 31.3,39.2 
			33.6,39.2 		"/>
		<polygon class="st3" points="50.7,29.6 51.4,31.9 49.5,30.4 47.6,31.8 48.4,29.6 46.5,28.3 48.8,28.2 49.5,26.1 50.2,28.2 
			52.5,28.2 		"/>
		<polygon class="st3" points="61.6,32.6 62.4,34.9 60.5,33.4 58.5,34.9 59.2,32.6 57.4,31.3 59.7,31.3 60.5,29.1 61.1,31.3 
			63.4,31.3 		"/>
		<polygon class="st3" points="72.6,51.5 73.3,53.7 71.5,52.3 69.5,53.7 70.2,51.5 68.4,50.2 70.7,50.1 71.5,47.9 72.1,50.1 
			74.4,50.1 		"/>
		<polygon class="st3" points="69.6,40.6 70.3,42.8 68.4,41.4 66.5,42.8 67.2,40.6 65.4,39.2 67.7,39.2 68.4,37.1 69.1,39.2 
			71.4,39.2 		"/>
	</g>
</g>
</svg>
