<?xml version="1.0" encoding="UTF-8"?>

<svg width="350" height="129" id="Text_labels" data-name="Text labels" xmlns="http://www.w3.org/2000/svg" viewBox="0 0 1280 337.62">

  <defs>

    <style>

      .cls-1 {

        fill: #0079cf;

        stroke-width: 0px;

      }

    </style>

  </defs>

  <g>

    <path class="cls-1" d="m179.48,137.6L204.11,2.95h51.32l-45.57,214.73h-53.68l-28.76-122.41-28.17,122.41h-53.53L0,2.95h51.47l24.63,134.65L105.59,2.95h43.95l29.94,134.65Z"/>

    <path class="cls-1" d="m330.79,217.68h-51.62V2.95h51.62v214.73Z"/>

    <path class="cls-1" d="m477.54,160.6c0-7.57-2.68-13.47-8.04-17.7-5.36-4.22-14.77-8.61-28.24-13.13-13.47-4.52-24.48-8.9-33.04-13.13-27.82-13.66-41.74-32.45-41.74-56.34,0-11.89,3.47-22.4,10.4-31.49,6.93-9.09,16.74-16.17,29.42-21.24,12.68-5.07,26.94-7.6,42.77-7.6s29.27,2.75,41.52,8.26c12.24,5.51,21.75,13.35,28.54,23.52,6.78,10.18,10.18,21.81,10.18,34.88h-51.62c0-8.75-2.68-15.54-8.04-20.35-5.36-4.81-12.61-7.23-21.75-7.23s-16.54,2.04-21.9,6.12c-5.36,4.08-8.04,9.27-8.04,15.56,0,5.51,2.95,10.49,8.85,14.97,5.9,4.48,16.28,9.09,31.12,13.86,14.84,4.77,27.04,9.9,36.57,15.41,23.21,13.37,34.8,31.8,34.8,55.3,0,18.78-7.08,33.53-21.24,44.24-14.16,10.71-33.57,16.08-58.25,16.08-17.4,0-33.16-3.12-47.27-9.36-14.11-6.25-24.72-14.8-31.86-25.66-7.13-10.86-10.69-23.38-10.69-37.53h51.91c0,11.5,2.97,19.98,8.92,25.44,5.95,5.46,15.61,8.19,28.98,8.19,8.55,0,15.32-1.84,20.28-5.53,4.96-3.69,7.45-8.87,7.45-15.56Z"/>

    <path class="cls-1" d="m689.02,126.54h-81.41v51.32h96.16v39.82h-147.92V2.95h148.22v39.97h-96.45v45.28h81.41v38.34Z"/>

  </g>

  <g>

    <path class="cls-1" d="m762.47,151.78h-13.77v-57.25h13.77v57.25Z"/>

    <path class="cls-1" d="m819.88,151.78h-13.73l-20.29-35.63v35.63h-13.8v-57.25h13.8l20.25,35.63v-35.63h13.77v57.25Z"/>

    <path class="cls-1" d="m864.67,128.98h-22.26v22.81h-13.8v-57.25h38.3v10.65h-24.5v13.18h22.26v10.62Z"/>

    <path class="cls-1" d="m921.13,124.33c0,5.58-1.03,10.53-3.11,14.83-2.06,4.3-5.01,7.61-8.83,9.92-3.81,2.33-8.15,3.49-13.03,3.49s-9.21-1.13-12.98-3.37c-3.77-2.23-6.72-5.45-8.83-9.61-2.11-4.17-3.22-8.95-3.32-14.36v-3.22c0-5.6,1.02-10.56,3.09-14.84,2.05-4.29,5-7.6,8.85-9.93,3.83-2.33,8.21-3.5,13.1-3.5s9.18,1.16,12.98,3.47c3.8,2.31,6.76,5.58,8.87,9.85,2.11,4.26,3.18,9.14,3.2,14.64v2.63Zm-14.03-2.39c0-5.69-.96-10.01-2.85-12.96s-4.62-4.42-8.16-4.42c-6.92,0-10.58,5.18-10.97,15.57l-.04,4.2c0,5.61.94,9.92,2.79,12.95,1.86,3.01,4.62,4.52,8.3,4.52,3.49,0,6.17-1.49,8.06-4.45,1.89-2.96,2.84-7.23,2.88-12.78v-2.63Z"/>

    <path class="cls-1" d="m949.52,131.54h-7.47v20.25h-13.8v-57.25h22.53c6.78,0,12.09,1.51,15.92,4.52,3.83,3.01,5.74,7.27,5.74,12.77,0,3.97-.8,7.28-2.41,9.89-1.61,2.62-4.14,4.74-7.57,6.36l11.96,23.12v.59h-14.78l-10.11-20.25Zm-7.47-10.62h8.73c2.61,0,4.59-.7,5.91-2.08,1.33-1.38,1.99-3.31,1.99-5.77s-.67-4.41-2-5.81c-1.34-1.4-3.31-2.11-5.9-2.11h-8.73v15.77Z"/>

    <path class="cls-1" d="m998.92,94.53l12.78,39.83,12.74-39.83h18.17v57.25h-13.84v-13.37l1.34-27.37-13.84,40.74h-9.12l-13.88-40.78,1.34,27.41v13.37h-13.8v-57.25h18.13Z"/>

    <path class="cls-1" d="m1083.9,141.09h-18.92l-3.3,10.69h-14.75l20.99-57.25h12.98l21.15,57.25h-14.82l-3.34-10.69Zm-15.61-10.66h12.3l-6.17-19.86-6.13,19.86Z"/>

    <path class="cls-1" d="m1146.45,105.18h-17.18v46.6h-13.8v-46.6h-16.88v-10.65h47.86v10.65Z"/>

    <path class="cls-1" d="m1166.99,151.78h-13.77v-57.25h13.77v57.25Z"/>

    <path class="cls-1" d="m1225.06,124.33c0,5.58-1.03,10.53-3.11,14.83-2.06,4.3-5.01,7.61-8.83,9.92-3.81,2.33-8.15,3.49-13.03,3.49s-9.21-1.13-12.98-3.37c-3.77-2.23-6.72-5.45-8.83-9.61-2.11-4.17-3.22-8.95-3.32-14.36v-3.22c0-5.6,1.02-10.56,3.09-14.84,2.05-4.29,5-7.6,8.85-9.93,3.83-2.33,8.21-3.5,13.1-3.5s9.18,1.16,12.98,3.47c3.8,2.31,6.76,5.58,8.87,9.85,2.11,4.26,3.18,9.14,3.2,14.64v2.63Zm-14.03-2.39c0-5.69-.96-10.01-2.85-12.96s-4.62-4.42-8.16-4.42c-6.92,0-10.58,5.18-10.97,15.57l-.04,4.2c0,5.61.94,9.92,2.79,12.95,1.86,3.01,4.62,4.52,8.3,4.52,3.49,0,6.17-1.49,8.06-4.45,1.89-2.96,2.84-7.23,2.88-12.78v-2.63Z"/>

    <path class="cls-1" d="m1280,151.78h-13.73l-20.29-35.63v35.63h-13.8v-57.25h13.8l20.25,35.63v-35.63h13.77v57.25Z"/>

  </g>

  <g>

    <path class="cls-1" d="m777.29,229.09c0-2.01-.72-3.59-2.14-4.72-1.43-1.13-3.94-2.29-7.53-3.5-3.59-1.2-6.53-2.37-8.81-3.5-7.43-3.64-11.13-8.65-11.13-15.02,0-3.17.93-5.97,2.77-8.4,1.85-2.42,4.47-4.31,7.85-5.67,3.38-1.35,7.18-2.02,11.41-2.02s7.81.74,11.06,2.2c3.27,1.47,5.8,3.56,7.62,6.28,1.8,2.71,2.71,5.81,2.71,9.29h-13.76c0-2.33-.72-4.14-2.15-5.43-1.42-1.29-3.36-1.93-5.79-1.93s-4.41.55-5.85,1.63c-1.42,1.1-2.14,2.48-2.14,4.15,0,1.47.79,2.8,2.36,3.99,1.57,1.19,4.34,2.42,8.3,3.7,3.95,1.27,7.21,2.64,9.74,4.11,6.19,3.57,9.28,8.48,9.28,14.75,0,5-1.89,8.94-5.66,11.8-3.78,2.85-8.95,4.29-15.54,4.29-4.64,0-8.84-.83-12.6-2.5-3.76-1.66-6.59-3.95-8.49-6.85-1.91-2.9-2.85-6.24-2.85-10.01h13.84c0,3.07.79,5.33,2.38,6.78,1.58,1.45,4.16,2.18,7.72,2.18,2.29,0,4.09-.5,5.41-1.47,1.32-.98,1.98-2.36,1.98-4.15Z"/>

    <path class="cls-1" d="m819.13,211.9l10.54-24.85h14.91l-18.45,36.69v20.56h-14v-20.56l-18.4-36.69h14.82l10.58,24.85Z"/>

    <path class="cls-1" d="m877.64,229.09c0-2.01-.72-3.59-2.14-4.72-1.43-1.13-3.94-2.29-7.53-3.5-3.59-1.2-6.53-2.37-8.81-3.5-7.43-3.64-11.13-8.65-11.13-15.02,0-3.17.93-5.97,2.77-8.4,1.85-2.42,4.47-4.31,7.85-5.67,3.38-1.35,7.18-2.02,11.41-2.02s7.81.74,11.06,2.2c3.27,1.47,5.8,3.56,7.62,6.28,1.8,2.71,2.71,5.81,2.71,9.29h-13.76c0-2.33-.72-4.14-2.15-5.43-1.42-1.29-3.36-1.93-5.79-1.93s-4.41.55-5.85,1.63c-1.42,1.1-2.14,2.48-2.14,4.15,0,1.47.79,2.8,2.36,3.99,1.57,1.19,4.34,2.42,8.3,3.7,3.95,1.27,7.21,2.64,9.74,4.11,6.19,3.57,9.28,8.48,9.28,14.75,0,5-1.89,8.94-5.66,11.8-3.78,2.85-8.95,4.29-15.54,4.29-4.64,0-8.84-.83-12.6-2.5-3.76-1.66-6.59-3.95-8.49-6.85-1.91-2.9-2.85-6.24-2.85-10.01h13.84c0,3.07.79,5.33,2.38,6.78,1.58,1.45,4.16,2.18,7.72,2.18,2.29,0,4.09-.5,5.41-1.47,1.32-.98,1.98-2.36,1.98-4.15Z"/>

    <path class="cls-1" d="m943.46,197.7h-17.18v46.6h-13.8v-46.6h-16.88v-10.65h47.86v10.65Z"/>

    <path class="cls-1" d="m984.79,220.01h-21.7v13.68h25.64v10.62h-39.44v-57.25h39.51v10.65h-25.71v12.07h21.7v10.23Z"/>

    <path class="cls-1" d="m1012.48,187.05l12.78,39.83,12.74-39.83h18.17v57.25h-13.84v-13.37l1.34-27.37-13.84,40.74h-9.12l-13.88-40.78,1.34,27.41v13.37h-13.8v-57.25h18.13Z"/>

    <path class="cls-1" d="m1121.06,221.5h-22.26v22.81h-13.8v-57.25h38.3v10.65h-24.5v13.18h22.26v10.62Z"/>

    <path class="cls-1" d="m1177.51,216.86c0,5.58-1.03,10.53-3.11,14.83-2.06,4.3-5.01,7.61-8.83,9.92-3.81,2.33-8.15,3.49-13.03,3.49s-9.21-1.13-12.98-3.37c-3.77-2.23-6.72-5.45-8.83-9.61-2.11-4.17-3.22-8.95-3.32-14.36v-3.22c0-5.6,1.02-10.56,3.09-14.84,2.05-4.29,5-7.6,8.85-9.93,3.83-2.33,8.21-3.5,13.1-3.5s9.18,1.16,12.98,3.47c3.8,2.31,6.76,5.58,8.87,9.85,2.11,4.26,3.18,9.14,3.2,14.64v2.63Zm-14.03-2.39c0-5.69-.96-10.01-2.85-12.96-1.9-2.95-4.62-4.42-8.16-4.42-6.92,0-10.58,5.18-10.97,15.57l-.04,4.2c0,5.61.94,9.92,2.79,12.95,1.86,3.01,4.62,4.52,8.3,4.52,3.49,0,6.17-1.49,8.06-4.45,1.89-2.96,2.84-7.23,2.88-12.78v-2.63Z"/>

    <path class="cls-1" d="m1205.91,224.06h-7.47v20.25h-13.8v-57.25h22.53c6.78,0,12.09,1.51,15.92,4.52,3.83,3.01,5.74,7.27,5.74,12.77,0,3.97-.8,7.28-2.41,9.89-1.61,2.62-4.14,4.74-7.57,6.36l11.96,23.12v.59h-14.78l-10.11-20.25Zm-7.47-10.62h8.73c2.61,0,4.59-.7,5.91-2.08,1.33-1.38,1.99-3.31,1.99-5.77s-.67-4.41-2-5.81c-1.34-1.4-3.31-2.11-5.9-2.11h-8.73v15.77Z"/>

  </g>

  <g>

    <path class="cls-1" d="m783.26,313.32h-21.7v13.68h25.64v10.62h-39.44v-57.25h39.51v10.65h-25.71v12.07h21.7v10.23Z"/>

    <path class="cls-1" d="m837.73,279.58v37.47c0,4.25-.91,7.93-2.72,11.03-1.81,3.11-4.4,5.48-7.78,7.1-3.38,1.63-7.38,2.44-12,2.44-6.97,0-12.46-1.81-16.48-5.43-4-3.62-6.06-8.57-6.13-14.87v-37.74h13.88v38.03c.16,6.26,3.07,9.4,8.72,9.4,2.87,0,5.02-.79,6.49-2.36,1.47-1.58,2.2-4.13,2.2-7.67v-37.4h13.81Z"/>

    <path class="cls-1" d="m867.61,317.37h-7.47v20.25h-13.8v-57.25h22.53c6.78,0,12.09,1.51,15.92,4.52,3.83,3.01,5.74,7.27,5.74,12.77,0,3.97-.8,7.28-2.41,9.89-1.61,2.62-4.14,4.74-7.57,6.36l11.96,23.12v.59h-14.78l-10.11-20.25Zm-7.47-10.62h8.73c2.61,0,4.59-.7,5.91-2.08,1.33-1.38,1.99-3.31,1.99-5.77s-.67-4.41-2-5.81c-1.34-1.4-3.31-2.11-5.9-2.11h-8.73v15.77Z"/>

    <path class="cls-1" d="m947.36,309.38c0,5.58-1.03,10.53-3.11,14.83-2.06,4.3-5.01,7.61-8.83,9.92-3.81,2.33-8.15,3.49-13.03,3.49s-9.21-1.13-12.98-3.37c-3.77-2.23-6.72-5.45-8.83-9.61-2.11-4.17-3.22-8.95-3.32-14.36v-3.22c0-5.6,1.02-10.56,3.09-14.84,2.05-4.29,5-7.6,8.85-9.93,3.83-2.33,8.21-3.5,13.1-3.5s9.18,1.16,12.98,3.47c3.8,2.31,6.76,5.58,8.87,9.85,2.11,4.26,3.18,9.14,3.2,14.64v2.63Zm-14.03-2.39c0-5.69-.96-10.01-2.85-12.96-1.9-2.95-4.62-4.42-8.16-4.42-6.92,0-10.58,5.18-10.97,15.57l-.04,4.2c0,5.61.94,9.92,2.79,12.95,1.86,3.01,4.62,4.52,8.3,4.52,3.49,0,6.17-1.49,8.06-4.45,1.89-2.96,2.84-7.23,2.88-12.78v-2.63Z"/>

    <path class="cls-1" d="m968.28,318.2v19.43h-13.8v-57.25h22.84c4.38,0,8.26.8,11.63,2.41,3.36,1.61,5.97,3.91,7.82,6.89,1.85,2.97,2.78,6.35,2.78,10.12,0,5.58-2,10.05-6,13.39-3.99,3.34-9.48,5.01-16.45,5.01h-8.81Zm0-10.66h9.04c2.68,0,4.72-.66,6.12-2s2.11-3.22,2.11-5.67c0-2.67-.73-4.8-2.17-6.4s-3.4-2.41-5.9-2.44h-9.2v16.52Z"/>

    <path class="cls-1" d="m1042.4,313.32h-21.7v13.68h25.64v10.62h-39.44v-57.25h39.51v10.65h-25.71v12.07h21.7v10.23Z"/>

  </g>

  <g>

    <path class="cls-1" d="m89.36,307.01h-28.87v29.59h-17.91v-74.29h49.69v13.83h-31.78v17.09h28.87v13.78Z"/>

    <path class="cls-1" d="m127.33,310.33h-9.69v26.27h-17.91v-74.29h29.23c8.81,0,15.7,1.95,20.67,5.86,4.96,3.91,7.45,9.43,7.45,16.57,0,5.16-1.04,9.45-3.14,12.84-2.1,3.4-5.36,6.15-9.82,8.26l15.51,29.99v.77h-19.18l-13.12-26.27Zm-9.69-13.78h11.32c3.4,0,5.96-.9,7.68-2.69s2.58-4.29,2.58-7.49-.87-5.72-2.6-7.55c-1.74-1.82-4.29-2.73-7.66-2.73h-11.32v20.46Z"/>

    <path class="cls-1" d="m213.96,305.07h-28.16v17.75h33.27v13.78h-51.18v-74.29h51.27v13.83h-33.36v15.65h28.16v13.27Z"/>

    <path class="cls-1" d="m264.67,316.86c0-2.62-.93-4.67-2.78-6.13-1.85-1.45-5.11-2.97-9.77-4.54-4.67-1.56-8.47-3.08-11.43-4.54-9.63-4.73-14.44-11.22-14.44-19.49,0-4.12,1.2-7.74,3.6-10.89,2.39-3.15,5.78-5.59,10.18-7.35,4.38-1.75,9.32-2.62,14.79-2.62s10.13.95,14.37,2.85c4.23,1.91,7.52,4.62,9.87,8.14,2.35,3.52,3.52,7.54,3.52,12.06h-17.86c0-3.02-.93-5.37-2.78-7.04-1.85-1.66-4.36-2.5-7.52-2.5s-5.73.71-7.58,2.12-2.78,3.2-2.78,5.38c0,1.9,1.02,3.62,3.07,5.17s5.63,3.15,10.77,4.79c5.14,1.65,9.35,3.43,12.65,5.34,8.03,4.62,12.04,11,12.04,19.13,0,6.5-2.44,11.6-7.34,15.31-4.9,3.71-11.62,5.56-20.15,5.56-6.03,0-11.47-1.09-16.36-3.24-4.88-2.16-8.55-5.12-11.02-8.87-2.47-3.76-3.7-8.09-3.7-12.99h17.96c0,3.98,1.03,6.91,3.09,8.8,2.05,1.9,5.39,2.83,10.03,2.83,2.96,0,5.3-.63,7.02-1.91,1.72-1.29,2.57-3.08,2.57-5.38Z"/>

    <path class="cls-1" d="m353.85,336.6h-17.8v-31.02h-26.38v31.02h-17.91v-74.29h17.91v29.49h26.38v-29.49h17.8v74.29Z"/>

    <path class="cls-1" d="m422.74,308.89l8.52-46.58h17.76l-15.77,74.29h-18.57l-9.95-42.35-9.74,42.35h-18.52l-15.81-74.29h17.8l8.52,46.58,10.21-46.58h15.2l10.36,46.58Z"/>

    <path class="cls-1" d="m496,322.73h-24.53l-4.29,13.87h-19.14l27.25-74.29h16.83l27.45,74.29h-19.24l-4.34-13.87Zm-20.26-13.83h15.97l-8.01-25.77-7.96,25.77Z"/>

    <path class="cls-1" d="m577.19,276.14h-22.3v60.46h-17.91v-60.46h-21.89v-13.83h62.1v13.83Z"/>

    <path class="cls-1" d="m630.81,305.07h-28.16v17.75h33.27v13.78h-51.18v-74.29h51.27v13.83h-33.36v15.65h28.16v13.27Z"/>

    <path class="cls-1" d="m670.81,310.33h-9.69v26.27h-17.91v-74.29h29.23c8.81,0,15.7,1.95,20.67,5.86,4.96,3.91,7.45,9.43,7.45,16.57,0,5.16-1.04,9.45-3.14,12.84-2.1,3.4-5.36,6.15-9.82,8.26l15.51,29.99v.77h-19.18l-13.12-26.27Zm-9.69-13.78h11.32c3.4,0,5.96-.9,7.68-2.69,1.72-1.79,2.58-4.29,2.58-7.49s-.87-5.72-2.6-7.55c-1.74-1.82-4.29-2.73-7.66-2.73h-11.32v20.46Z"/>

  </g>

  <g>

    <path class="cls-1" d="m785.5,35.97h-22.72v23.28h-14.09V.8h39.09v10.88h-25v13.44h22.72v10.84Z"/>

    <path class="cls-1" d="m815.37,38.58h-7.62v20.67h-14.09V.8h23c6.93,0,12.35,1.53,16.26,4.61,3.9,3.07,5.86,7.42,5.86,13.04,0,4.06-.82,7.43-2.47,10.1-1.65,2.68-4.22,4.84-7.72,6.5l12.2,23.59v.6h-15.09l-10.32-20.67Zm-7.62-10.84h8.91c2.68,0,4.69-.7,6.04-2.11,1.35-1.41,2.03-3.37,2.03-5.89s-.69-4.5-2.05-5.94c-1.37-1.43-3.37-2.15-6.03-2.15h-8.91v16.09Z"/>

    <path class="cls-1" d="m883.53,34.44h-22.15v13.96h26.17v10.84h-40.26V.8h40.34v10.88h-26.25v12.32h22.15v10.44Z"/>

    <path class="cls-1" d="m923.42,43.72c0-2.06-.73-3.67-2.19-4.82-1.46-1.14-4.02-2.34-7.68-3.57-3.67-1.23-6.66-2.42-8.99-3.57-7.57-3.72-11.36-8.83-11.36-15.33,0-3.24.94-6.09,2.83-8.57,1.88-2.48,4.55-4.4,8.01-5.78,3.45-1.38,7.33-2.06,11.64-2.06s7.97.75,11.3,2.25c3.33,1.5,5.92,3.64,7.77,6.41,1.85,2.77,2.77,5.93,2.77,9.49h-14.05c0-2.38-.73-4.23-2.19-5.54-1.46-1.31-3.43-1.96-5.92-1.96s-4.51.56-5.97,1.67c-1.46,1.11-2.19,2.52-2.19,4.23,0,1.49.8,2.85,2.41,4.07,1.61,1.22,4.43,2.48,8.47,3.77,4.04,1.3,7.36,2.7,9.95,4.2,6.32,3.64,9.47,8.65,9.47,15.05,0,5.11-1.92,9.12-5.78,12.04-3.85,2.92-9.14,4.38-15.85,4.38-4.74,0-9.03-.85-12.87-2.55-3.84-1.7-6.73-4.03-8.67-6.98-1.94-2.96-2.91-6.36-2.91-10.22h14.13c0,3.13.81,5.44,2.43,6.92,1.62,1.49,4.24,2.23,7.89,2.23,2.33,0,4.17-.5,5.52-1.5,1.35-1.01,2.02-2.42,2.02-4.23Z"/>

    <path class="cls-1" d="m993.59,59.25h-14.01v-24.41h-20.75v24.41h-14.09V.8h14.09v23.2h20.75V.8h14.01v58.44Z"/>

    <path class="cls-1" d="m1047.78,37.45l6.7-36.65h13.97l-12.41,58.44h-14.61l-7.83-33.32-7.67,33.32h-14.57l-12.44-58.44h14.01l6.7,36.65,8.03-36.65h11.96l8.15,36.65Z"/>

    <path class="cls-1" d="m1105.42,48.33h-19.3l-3.37,10.91h-15.06l21.44-58.44h13.24l21.6,58.44h-15.13l-3.41-10.91Zm-15.94-10.88h12.56l-6.3-20.27-6.27,20.27Z"/>

    <path class="cls-1" d="m1169.29,11.69h-17.54v47.56h-14.09V11.69h-17.22V.8h48.86v10.88Z"/>

    <path class="cls-1" d="m1211.48,34.44h-22.15v13.96h26.17v10.84h-40.26V.8h40.34v10.88h-26.25v12.32h22.15v10.44Z"/>

    <path class="cls-1" d="m1242.94,38.58h-7.62v20.67h-14.09V.8h23c6.93,0,12.35,1.53,16.26,4.61,3.9,3.07,5.86,7.42,5.86,13.04,0,4.06-.82,7.43-2.47,10.1-1.65,2.68-4.22,4.84-7.72,6.5l12.2,23.59v.6h-15.09l-10.32-20.67Zm-7.62-10.84h8.91c2.68,0,4.69-.7,6.04-2.11,1.35-1.41,2.03-3.37,2.03-5.89s-.69-4.5-2.05-5.94c-1.37-1.43-3.37-2.15-6.03-2.15h-8.91v16.09Z"/>

  </g>

</svg>
