<svg width="65" height="65" viewBox="0 0 65 65" fill="none" xmlns="http://www.w3.org/2000/svg">
<path d="M43.8139 44.8129L43.8133 44.8135C38.9482 49.6786 31.0275 49.6786 26.1624 44.8135C21.2973 39.9484 21.2973 32.0276 26.1624 27.1625C31.0273 22.2976 38.9479 22.2975 43.813 27.1622C48.6793 32.0372 48.6775 39.9577 43.8139 44.8129Z" stroke="#002D54" stroke-width="2"/>
<rect x="42.2197" y="46.6065" width="4.78953" height="4.78953" transform="rotate(-45 42.2197 46.6065)" stroke="#002D54" stroke-width="2"/>
<rect x="44.7598" y="50.8399" width="7.1843" height="14.3686" rx="1" transform="rotate(-45 44.7598 50.8399)" fill="#0087D9" stroke="#002D54" stroke-width="2"/>
<path fill-rule="evenodd" clip-rule="evenodd" d="M43.2209 16.435L40.2236 16.0198C40.1414 16.0084 40.058 16.0084 39.9758 16.0198L36.1927 16.5438C36.0076 16.5695 35.8192 16.5371 35.6533 16.4512L33.0318 15.0932C32.8583 15.0033 32.6605 14.9721 32.4678 15.0042L29.9619 15.4219C29.7424 15.4585 29.5441 15.5748 29.4051 15.7486L27.7553 17.8108C27.6078 17.9951 27.5384 18.2299 27.5619 18.4649L27.9566 22.4116C33.7123 19.4351 40.977 20.3573 45.7978 25.1781L45.7989 25.1792C46.6515 26.0332 47.3821 26.9636 47.9908 27.9485C48.004 27.6357 48.0106 27.3213 48.0106 27.0053C48.0106 14.8521 38.1585 5 26.0053 5C13.8521 5 4 14.8521 4 27.0053C4 39.1585 13.8521 49.0106 26.0053 49.0106C26.3201 49.0106 26.6333 49.004 26.9448 48.991C26.0996 48.468 25.2947 47.8551 24.5439 47.1521C22.5661 47.0107 20.6671 46.5846 18.8877 45.9144C19.4187 45.5942 19.793 45.0149 19.793 44.3119V42.784C19.793 42.4743 19.9515 42.1863 20.2132 42.0207L20.7897 41.6558C19.0786 37.3527 19.3959 32.4238 21.7415 28.3527L21.251 27.548C20.7592 26.7409 19.8823 26.2485 18.9372 26.2485H16.0528C15.8186 26.2485 15.6011 26.1272 15.478 25.928C14.6485 24.5866 12.7947 24.3486 11.6534 25.4371L10.4195 26.6139C9.71826 27.2827 9.42754 28.275 9.65705 29.2165L10.4379 32.4197C10.6666 33.3577 11.3771 34.1031 12.303 34.3766L13.2821 34.6658C13.6455 34.7731 13.9033 35.0958 13.9276 35.4739L14.2492 40.4594C14.2711 40.7989 14.3567 41.1313 14.5016 41.4391L15.9573 44.5316C9.8915 41.0465 5.80645 34.503 5.80645 27.0053C5.80645 25.749 5.92114 24.5195 6.14063 23.3267L6.36938 23.9367C6.51616 24.3281 6.91234 24.5677 7.32713 24.5158L10.2971 24.1446C10.6155 24.1048 10.8889 23.899 11.0153 23.6041L12.2293 20.7714C12.3274 20.5425 12.5156 20.3643 12.7496 20.2788L17.7298 18.4595C17.9774 18.369 18.1731 18.175 18.2656 17.9282L19.5809 14.4207C19.6526 14.2296 19.7869 14.0683 19.962 13.9633L22.0248 12.7256C22.2097 12.6147 22.3488 12.4413 22.417 12.2367L23.0108 10.4553C23.191 9.91457 22.8315 9.34412 22.2659 9.27342L19.4364 8.91973C19.2611 8.89782 19.0961 8.82498 18.9618 8.71023L18.4451 8.26888C20.7803 7.32572 23.3322 6.80645 26.0053 6.80645C33.2857 6.80645 39.6664 10.6582 43.2209 16.435Z" fill="#002D54"/>
</svg>
