<svg width="22" height="15" viewBox="0 0 22 15" fill="none" xmlns="http://www.w3.org/2000/svg">
<path d="M1.5 12V4C1.5 3.72386 1.72386 3.5 2 3.5H4.5V13.5H3C2.17157 13.5 1.5 12.8284 1.5 12Z" stroke="#002D54"/>
<path d="M5 1.5H20C20.2761 1.5 20.5 1.72386 20.5 2V12C20.5 12.8284 19.8284 13.5 19 13.5H4.5V2C4.5 1.72386 4.72386 1.5 5 1.5Z" stroke="#002D54"/>
<path fill-rule="evenodd" clip-rule="evenodd" d="M19 5.5C19 5.77614 18.7761 6 18.5 6H13.5C13.2239 6 13 5.77614 13 5.5V5.5C13 5.22386 13.2239 5 13.5 5H18.5C18.7761 5 19 5.22386 19 5.5V5.5Z" fill="#002D54"/>
<path fill-rule="evenodd" clip-rule="evenodd" d="M19 7.5C19 7.77614 18.7761 8 18.5 8H13.5C13.2239 8 13 7.77614 13 7.5V7.5C13 7.22386 13.2239 7 13.5 7H18.5C18.7761 7 19 7.22386 19 7.5V7.5Z" fill="#002D54"/>
<path fill-rule="evenodd" clip-rule="evenodd" d="M19 3.5C19 3.77614 18.7761 4 18.5 4H13.5C13.2239 4 13 3.77614 13 3.5V3.5C13 3.22386 13.2239 3 13.5 3H18.5C18.7761 3 19 3.22386 19 3.5V3.5Z" fill="#002D54"/>
<path fill-rule="evenodd" clip-rule="evenodd" d="M19 9.5C19 9.77614 18.7761 10 18.5 10H6.5C6.22386 10 6 9.77614 6 9.5V9.5C6 9.22386 6.22386 9 6.5 9H18.5C18.7761 9 19 9.22386 19 9.5V9.5Z" fill="#002D54"/>
<path fill-rule="evenodd" clip-rule="evenodd" d="M19 11.5C19 11.7761 18.7761 12 18.5 12H6.5C6.22386 12 6 11.7761 6 11.5V11.5C6 11.2239 6.22386 11 6.5 11H18.5C18.7761 11 19 11.2239 19 11.5V11.5Z" fill="#002D54"/>
<rect x="6.5" y="3.5" width="5" height="4" rx="0.5" stroke="#002D54"/>
</svg>
