<svg width="65" height="65" viewBox="0 0 65 65" fill="none" xmlns="http://www.w3.org/2000/svg">
<path d="M43.8696 55.7691C46.0261 56.9648 47.4638 59.7546 47.9131 61C50.6087 59.7546 56 56.8153 56 55.0219C56 52.7801 46.5653 53.5273 46.5653 49.791C46.5653 46.0547 45.8088 42.4678 43.8696 43.0656C41.9304 43.6634 41.174 46.0547 43.1957 48.2965C45.2174 50.5383 41.174 54.2746 43.8696 55.7691Z" fill="#002D54"/>
<path d="M51.3354 51.8034C52.8758 52.534 53.9027 54.2389 54.2236 55C56.1491 54.2389 60 52.4427 60 51.3467C60 49.9767 53.2609 50.4334 53.2609 48.1501C53.2609 45.8667 52.7206 43.6748 51.3354 44.0401C49.9503 44.4054 49.41 45.8667 50.8541 47.2367C52.2982 48.6067 49.41 50.89 51.3354 51.8034Z" fill="#002D54"/>
<path d="M62 57V29.6608C62 27.7951 61.3962 30.2827 58.9811 32.1484C56.566 34.0141 56.566 35.8799 58.3774 38.3675C60.1887 40.8551 57.1698 42.7208 55.9623 46.4523C54.7547 50.1837 59.5849 51.4276 56.566 52.6714C53.5472 53.9152 55.9623 55.159 50.5283 57.0247C45.0943 58.8905 40.8679 55.159 38.4528 55.159C36.0377 55.159 37.8491 58.2686 34.8302 58.2686C32.4151 58.2686 33.1038 60.7562 32.5 62H57C59.7614 62 62 59.7614 62 57Z" fill="#002D54" stroke="#002D54" stroke-width="2"/>
<path d="M35.0514 46.8002C36.5036 46.4111 37.8431 47.0999 38.4233 47.5589C38.4826 47.6059 38.4998 47.6872 38.4657 47.7547C38.1069 48.4642 37.1866 49.7677 35.9363 50.1027C34.6753 50.4406 33.3796 49.7127 32.817 49.2526C32.7695 49.2138 32.7487 49.1522 32.7641 49.0928C32.934 48.4354 33.5852 47.1931 35.0514 46.8002Z" fill="#002D54"/>
<path d="M32.0929 49.0127L31.407 47.6722C31.3338 47.5291 31.4806 47.3732 31.6278 47.4377L32.9432 48.014L34.4456 48.6723C34.5617 48.7231 34.584 48.8783 34.4869 48.9598L32.1512 50.9208C32.031 51.0218 31.8497 50.9209 31.8721 50.7655L32.1099 49.115C32.1149 49.0799 32.109 49.0442 32.0929 49.0127Z" fill="#002D54"/>
<path d="M53.8841 25.3597C56.3518 24.6985 58.6278 25.8689 59.6136 26.6489C59.7145 26.7287 59.7437 26.8668 59.6857 26.9816C59.076 28.1871 57.5122 30.4021 55.3877 30.9713C53.2451 31.5454 51.0434 30.3086 50.0875 29.5268C50.0068 29.4608 49.9715 29.3562 49.9976 29.2553C50.2862 28.1383 51.3928 26.0273 53.8841 25.3597Z" fill="#002D54"/>
<path d="M48.857 29.1192L47.6916 26.8414C47.5672 26.5982 47.8166 26.3334 48.0668 26.443L50.3018 27.4223L52.8547 28.5408C53.052 28.6272 53.0899 28.8908 52.9249 29.0293L48.9561 32.3615C48.7518 32.533 48.4438 32.3616 48.4818 32.0976L48.8859 29.293C48.8945 29.2335 48.8844 29.1728 48.857 29.1192Z" fill="#002D54"/>
<path d="M42.302 32.9608C45.7211 32.9608 48.2581 35.2358 49.2623 36.5702C49.3651 36.7067 49.3551 36.8932 49.2402 37.02C48.0345 38.3519 45.2456 40.6471 42.302 40.6471C39.3331 40.6471 36.9154 38.3125 35.9503 36.9861C35.8689 36.8741 35.8595 36.7283 35.9281 36.6083C36.6882 35.2796 38.85 32.9608 42.302 32.9608Z" fill="#002D54"/>
<path d="M34.4752 35.6323L33.792 32.4485C33.7191 32.1086 34.1134 31.8653 34.3852 32.0824L36.8132 34.0222L39.5865 36.2379C39.8009 36.4091 39.7606 36.7456 39.5118 36.8615L33.5279 39.6503C33.2199 39.7939 32.8973 39.4817 33.0311 39.1697L34.4535 35.8554C34.4837 35.785 34.4912 35.7071 34.4752 35.6323Z" fill="#002D54"/>
<path fill-rule="evenodd" clip-rule="evenodd" d="M58 22H51.8679C52.2997 21.345 52.7222 20.6746 53.1219 20H58C60.7614 20 63 22.2386 63 25V58C63 60.7614 60.7614 63 58 63H31C28.2386 63 26 60.7614 26 58V44.2109L28 42.4027V58C28 59.6569 29.3431 61 31 61H58C59.6569 61 61 59.6569 61 58V25C61 23.3431 59.6569 22 58 22ZM28 34.0718V25C28 23.3431 29.3431 22 31 22H36.1321C35.7003 21.345 35.2778 20.6746 34.8781 20H31C28.2386 20 26 22.2386 26 25V33.5262L28 34.0718ZM38.5457 22H49.4543C49.9054 21.3478 50.3515 20.6769 50.7778 20H37.2222C37.6485 20.6769 38.0946 21.3478 38.5457 22Z" fill="#002D54"/>
<path fill-rule="evenodd" clip-rule="evenodd" d="M2 30C2 28.3431 3.34315 27 5 27H20.9774C22.6343 27 23.9774 28.3431 23.9774 30V35.0476L29.0869 36.4413C29.9255 36.6701 30.1799 37.7355 29.5351 38.3185L23.9774 43.3434V49C23.9774 50.6569 22.6343 52 20.9774 52H5C3.34314 52 2 50.6569 2 49V30ZM5 29C4.44772 29 4 29.4477 4 30V49C4 49.5523 4.44771 50 5 50H20.9774C21.5297 50 21.9774 49.5523 21.9774 49V42.4554L26.9738 37.938L21.9774 36.5751V30C21.9774 29.4477 21.5297 29 20.9774 29H5Z" fill="#002D54"/>
<path fill-rule="evenodd" clip-rule="evenodd" d="M8 44C8 43.4477 8.44772 43 9 43L17 43C17.5523 43 18 43.4477 18 44C18 44.5523 17.5523 45 17 45L9 45C8.44772 45 8 44.5523 8 44Z" fill="#002D54"/>
<path fill-rule="evenodd" clip-rule="evenodd" d="M8 39C8 38.4477 8.44772 38 9 38L17 38C17.5523 38 18 38.4477 18 39C18 39.5523 17.5523 40 17 40L9 40C8.44772 40 8 39.5523 8 39Z" fill="#002D54"/>
<path fill-rule="evenodd" clip-rule="evenodd" d="M8 34C8 33.4477 8.44772 33 9 33L17 33C17.5523 33 18 33.4477 18 34C18 34.5523 17.5523 35 17 35L9 35C8.44772 35 8 34.5523 8 34Z" fill="#002D54"/>
<path d="M53 12.1096C53 13.2582 52.4688 14.8349 51.546 16.6512C50.6394 18.4356 49.4199 20.328 48.1843 22.07C46.9513 23.8085 45.7161 25.3776 44.7882 26.5133C44.4898 26.8784 44.2236 27.1982 44 27.4638C43.7764 27.1982 43.5102 26.8784 43.2118 26.5133C42.2839 25.3776 41.0487 23.8085 39.8157 22.07C38.5801 20.328 37.3606 18.4356 36.454 16.6512C35.5312 14.8349 35 13.2582 35 12.1096C35 7.0682 39.0397 3 44 3C48.9603 3 53 7.0682 53 12.1096Z" stroke="#002D54" stroke-width="2"/>
<path d="M48.5415 21.5616C46.7946 24.0739 44.9852 26.2937 44 27.4638C43.0148 26.2937 41.2054 24.0739 39.4585 21.5616C38.2865 19.8759 37.1575 18.0795 36.3253 16.3943C35.479 14.6805 35 13.1995 35 12.1096C35 7.0682 39.0397 3 44 3C48.9603 3 53 7.0682 53 12.1096C53 13.1995 52.521 14.6805 51.6747 16.3943C50.8425 18.0795 49.7135 19.8759 48.5415 21.5616Z" fill="#0087D9" stroke="#002D54" stroke-width="2"/>
<path d="M49 12C49 14.7614 46.7614 17 44 17C41.2386 17 39 14.7614 39 12C39 9.23858 41.2386 7 44 7C46.7614 7 49 9.23858 49 12Z" fill="white"/>
<path fill-rule="evenodd" clip-rule="evenodd" d="M49 12C49 14.7614 46.7614 17 44 17C41.2386 17 39 14.7614 39 12C39 9.23858 41.2386 7 44 7C46.7614 7 49 9.23858 49 12ZM47 12C47 13.6569 45.6569 15 44 15C42.3431 15 41 13.6569 41 12C41 10.3431 42.3431 9 44 9C45.6569 9 47 10.3431 47 12Z" fill="#002D54"/>
</svg>
