<svg width="46" height="43" viewBox="0 0 46 43" fill="none" xmlns="http://www.w3.org/2000/svg">
<path fill-rule="evenodd" clip-rule="evenodd" d="M15.8889 34.2222L21.4333 39.7778L19.7778 41.4333L14.2222 35.8889V35.0111L13.9222 34.7C12.6556 35.7889 11.0111 36.4444 9.22222 36.4444C5.23333 36.4444 2 33.2111 2 29.2222C2 25.2333 5.23333 22 9.22222 22C13.2111 22 16.4444 25.2333 16.4444 29.2222C16.4444 31.0111 15.7889 32.6556 14.7 33.9222L15.0111 34.2222H15.8889ZM14.2222 29.2222C14.2222 26.4556 11.9889 24.2222 9.22222 24.2222C6.45556 24.2222 4.22222 26.4556 4.22222 29.2222C4.22222 31.9889 6.45556 34.2222 9.22222 34.2222C11.9889 34.2222 14.2222 31.9889 14.2222 29.2222Z" fill="white"/>
<path fill-rule="evenodd" clip-rule="evenodd" d="M45 32C45 37.5 40.5 42 35 42C29.5 42 25 37.5 25 32C25 26.5 29.5 22 35 22C40.5 22 45 26.5 45 32ZM35 40C36.9 40 38.6 39.4 39.9 38.3C39.5 37.4 36.9 36.5 35 36.5C33.1 36.5 30.5 37.4 30.1 38.3C31.4 39.4 33.1 40 35 40ZM43 32C43 27.6 39.4 24 35 24C30.6 24 27 27.6 27 32C27 33.8 27.6 35.5 28.6 36.8C30.1 35.1 33.5 34.5 35 34.5C36.5 34.5 40 35.1 41.4 36.8C42.4 35.5 43 33.8 43 32ZM38.5 29.5C38.5 31.4 36.9 33 35 33C33.1 33 31.5 31.4 31.5 29.5C31.5 27.6 33.1 26 35 26C36.9 26 38.5 27.6 38.5 29.5ZM36.5 29.5C36.5 28.7 35.8 28 35 28C34.2 28 33.5 28.7 33.5 29.5C33.5 30.3 34.2 31 35 31C35.8 31 36.5 30.3 36.5 29.5Z" fill="white"/>
<path fill-rule="evenodd" clip-rule="evenodd" d="M15.8889 13.2222L21.4333 18.7778L19.7778 20.4333L14.2222 14.8889V14.0111L13.9222 13.7C12.6556 14.7889 11.0111 15.4444 9.22222 15.4444C5.23333 15.4444 2 12.2111 2 8.22222C2 4.23333 5.23333 1 9.22222 1C13.2111 1 16.4444 4.23333 16.4444 8.22222C16.4444 10.0111 15.7889 11.6556 14.7 12.9222L15.0111 13.2222H15.8889ZM14.2222 8.22222C14.2222 5.45556 11.9889 3.22222 9.22222 3.22222C6.45556 3.22222 4.22222 5.45556 4.22222 8.22222C4.22222 10.9889 6.45556 13.2222 9.22222 13.2222C11.9889 13.2222 14.2222 10.9889 14.2222 8.22222Z" fill="#0077BC"/>
<path fill-rule="evenodd" clip-rule="evenodd" d="M45 11C45 16.5 40.5 21 35 21C29.5 21 25 16.5 25 11C25 5.5 29.5 1 35 1C40.5 1 45 5.5 45 11ZM35 19C36.9 19 38.6 18.4 39.9 17.3C39.5 16.4 36.9 15.5 35 15.5C33.1 15.5 30.5 16.4 30.1 17.3C31.4 18.4 33.1 19 35 19ZM43 11C43 6.6 39.4 3 35 3C30.6 3 27 6.6 27 11C27 12.8 27.6 14.5 28.6 15.8C30.1 14.1 33.5 13.5 35 13.5C36.5 13.5 40 14.1 41.4 15.8C42.4 14.5 43 12.8 43 11ZM38.5 8.5C38.5 10.4 36.9 12 35 12C33.1 12 31.5 10.4 31.5 8.5C31.5 6.6 33.1 5 35 5C36.9 5 38.5 6.6 38.5 8.5ZM36.5 8.5C36.5 7.7 35.8 7 35 7C34.2 7 33.5 7.7 33.5 8.5C33.5 9.3 34.2 10 35 10C35.8 10 36.5 9.3 36.5 8.5Z" fill="#0077BC"/>
</svg>
