<?xml version="1.0" encoding="UTF-8"?>

<svg width="350" height="129" id="Text_labels" data-name="Text labels" xmlns="http://www.w3.org/2000/svg" viewBox="0 0 1274.82 346.06">

  <defs>

    <style>

      .cls-1 {

        fill: #004b7f;

        stroke-width: 0px;

      }

    </style>

  </defs>

  <g>

    <path class="cls-1" d="M81.8,224.14l27.13,84.55,27.04-84.55h38.56v121.53h-29.38v-28.39l2.84-58.09-29.38,86.47h-19.37l-29.46-86.56,2.84,58.17v28.39h-29.3v-121.53h38.48Z"/>

    <path class="cls-1" d="M262.18,322.97h-40.15l-7.02,22.71h-31.31l44.58-121.53h27.54l44.91,121.53h-31.47l-7.1-22.71ZM229.04,300.35h26.12l-13.1-42.15-13.03,42.15Z"/>

    <path class="cls-1" d="M354.75,302.69h-15.86v42.98h-29.3v-121.53h47.83c14.41,0,25.68,3.19,33.8,9.58,8.13,6.4,12.2,15.43,12.2,27.11,0,8.44-1.71,15.45-5.14,21.01-3.42,5.57-8.78,10.07-16.07,13.51l25.37,49.07v1.26h-31.39l-21.45-42.98ZM338.89,280.14h18.53c5.57,0,9.75-1.46,12.56-4.39,2.81-2.93,4.22-7.02,4.22-12.26s-1.42-9.36-4.26-12.35c-2.84-2.98-7.02-4.47-12.52-4.47h-18.53v33.46Z"/>

    <path class="cls-1" d="M452.32,345.67h-29.22v-121.53h29.22v121.53Z"/>

    <path class="cls-1" d="M574.2,345.67h-29.14l-43.06-75.63v75.63h-29.3v-121.53h29.3l42.98,75.62v-75.62h29.22v121.53Z"/>

    <path class="cls-1" d="M668.1,294.08h-46.08v29.05h54.42v22.54h-83.72v-121.53h83.89v22.62h-54.59v25.63h46.08v21.69Z"/>

  </g>

  <g>

    <path class="cls-1" d="M172.73,132.42L196.43,2.84h49.39l-43.86,206.65h-51.66l-27.68-117.8-27.11,117.8h-51.52L0,2.84h49.53l23.7,129.58L101.62,2.84h42.29l28.81,129.58Z"/>

    <path class="cls-1" d="M318.34,209.48h-49.67V2.84h49.67v206.65Z"/>

    <path class="cls-1" d="M459.56,154.56c0-7.29-2.57-12.97-7.74-17.03-5.16-4.07-14.21-8.28-27.18-12.63-12.97-4.35-23.56-8.57-31.79-12.63-26.77-13.15-40.17-31.22-40.17-54.22,0-11.45,3.34-21.55,10.01-30.3,6.67-8.75,16.11-15.56,28.31-20.44,12.21-4.88,25.92-7.31,41.16-7.31s28.17,2.65,39.95,7.95c11.78,5.3,20.93,12.84,27.46,22.64,6.53,9.79,9.79,20.98,9.79,33.57h-49.67c0-8.42-2.57-14.95-7.74-19.59-5.16-4.63-12.13-6.95-20.93-6.95s-15.92,1.97-21.08,5.89c-5.16,3.92-7.74,8.92-7.74,14.97,0,5.3,2.84,10.1,8.52,14.41,5.68,4.31,15.66,8.75,29.95,13.34,14.28,4.59,26.02,9.53,35.2,14.83,22.33,12.86,33.49,30.61,33.49,53.22,0,18.08-6.81,32.27-20.44,42.58-13.63,10.31-32.31,15.47-56.06,15.47-16.75,0-31.91-3-45.49-9.01-13.57-6.01-23.79-14.24-30.66-24.7s-10.29-22.5-10.29-36.12h49.96c0,11.07,2.86,19.23,8.59,24.48,5.73,5.25,15.02,7.88,27.89,7.88,8.23,0,14.74-1.77,19.52-5.32,4.77-3.55,7.17-8.54,7.17-14.97Z"/>

    <path class="cls-1" d="M663.08,121.77h-78.34v49.39h92.54v38.32h-142.35V2.84h142.64v38.46h-92.82v43.57h78.34v36.9Z"/>

  </g>

  <g>

    <g>

      <path class="cls-1" d="M735.25.51l14.06,39.7,13.99-39.7h14.81v54.74h-11.32v-14.96l1.13-25.83-14.78,40.79h-7.75l-14.74-40.76,1.13,25.79v14.96h-11.28V.51h14.74Z"/>

      <path class="cls-1" d="M818.87,43.98h-19.78l-3.76,11.28h-11.99L803.72.51h10.45l20.49,54.74h-11.99l-3.8-11.28ZM802.14,34.84h13.69l-6.88-20.49-6.8,20.49Z"/>

      <path class="cls-1" d="M860.04,35.22h-8.99v20.04h-11.28V.51h20.34c6.47,0,11.45,1.44,14.96,4.32,3.51,2.88,5.26,6.96,5.26,12.22,0,3.74-.81,6.85-2.43,9.34-1.62,2.5-4.07,4.48-7.35,5.96l11.84,22.37v.53h-12.11l-10.26-20.04ZM851.05,26.08h9.1c2.83,0,5.03-.72,6.58-2.16,1.55-1.44,2.33-3.43,2.33-5.96s-.73-4.61-2.2-6.09c-1.47-1.48-3.72-2.22-6.75-2.22h-9.06v16.43Z"/>

      <path class="cls-1" d="M900.91,55.26h-11.28V.51h11.28v54.74Z"/>

      <path class="cls-1" d="M955.88,55.26h-11.28l-21.96-36.02v36.02h-11.28V.51h11.28l21.99,36.09V.51h11.24v54.74Z"/>

      <path class="cls-1" d="M998.66,31.53h-21.66v14.66h25.42v9.06h-36.7V.51h36.62v9.14h-25.34v13.05h21.66v8.84Z"/>

      <path class="cls-1" d="M1070.85,39.47l7.37-38.95h11.24l-12.14,54.74h-11.35l-8.91-36.62-8.91,36.62h-11.35l-12.14-54.74h11.24l7.41,38.88,9.02-38.88h9.55l8.99,38.95Z"/>

      <path class="cls-1" d="M1124.84,43.98h-19.78l-3.76,11.28h-11.99l20.38-54.74h10.45l20.49,54.74h-11.99l-3.8-11.28ZM1108.11,34.84h13.69l-6.88-20.49-6.8,20.49Z"/>

      <path class="cls-1" d="M1182.44,9.65h-16.77v45.61h-11.28V9.65h-16.54V.51h44.59v9.14Z"/>

      <path class="cls-1" d="M1221.8,31.53h-21.66v14.66h25.42v9.06h-36.7V.51h36.62v9.14h-25.34v13.05h21.66v8.84Z"/>

      <path class="cls-1" d="M1252.45,35.22h-8.99v20.04h-11.28V.51h20.34c6.47,0,11.45,1.44,14.96,4.32,3.51,2.88,5.26,6.96,5.26,12.22,0,3.74-.81,6.85-2.42,9.34-1.62,2.5-4.07,4.48-7.35,5.96l11.84,22.37v.53h-12.11l-10.26-20.04ZM1243.46,26.08h9.1c2.83,0,5.03-.72,6.58-2.16,1.55-1.44,2.33-3.43,2.33-5.96s-.73-4.61-2.2-6.09c-1.47-1.48-3.72-2.22-6.75-2.22h-9.06v16.43Z"/>

    </g>

    <g>

      <path class="cls-1" d="M731.79,154.75h-11.28v-54.74h11.28v54.74Z"/>

      <path class="cls-1" d="M786.76,154.75h-11.28l-21.96-36.02v36.02h-11.28v-54.74h11.28l21.99,36.09v-36.09h11.24v54.74Z"/>

      <path class="cls-1" d="M829.55,132.38h-21.66v22.37h-11.28v-54.74h35.64v9.14h-24.36v14.14h21.66v9.1Z"/>

      <path class="cls-1" d="M883.76,128.62c0,5.39-.95,10.11-2.86,14.17-1.91,4.06-4.63,7.19-8.18,9.4-3.55,2.21-7.61,3.31-12.2,3.31s-8.58-1.09-12.14-3.27-6.32-5.29-8.27-9.34c-1.96-4.05-2.95-8.7-2.97-13.97v-2.71c0-5.39.97-10.13,2.91-14.23,1.94-4.1,4.69-7.24,8.23-9.44s7.6-3.29,12.16-3.29,8.62,1.1,12.16,3.29,6.29,5.34,8.23,9.44c1.94,4.1,2.91,8.83,2.91,14.19v2.44ZM872.33,126.14c0-5.74-1.03-10.1-3.08-13.08-2.05-2.98-4.99-4.47-8.8-4.47s-6.71,1.47-8.76,4.42-3.1,7.26-3.12,12.95v2.67c0,5.59,1.03,9.93,3.08,13.01,2.06,3.08,5.01,4.62,8.87,4.62s6.69-1.49,8.72-4.46c2.03-2.97,3.06-7.3,3.08-12.99v-2.67Z"/>

      <path class="cls-1" d="M912.23,134.71h-8.99v20.04h-11.28v-54.74h20.34c6.47,0,11.45,1.44,14.96,4.32,3.51,2.88,5.26,6.96,5.26,12.22,0,3.73-.81,6.85-2.43,9.34-1.62,2.49-4.07,4.48-7.35,5.96l11.84,22.37v.53h-12.11l-10.26-20.04ZM903.24,125.58h9.1c2.83,0,5.03-.72,6.58-2.16,1.55-1.44,2.33-3.43,2.33-5.96s-.73-4.61-2.2-6.09c-1.47-1.48-3.72-2.22-6.75-2.22h-9.06v16.43Z"/>

      <path class="cls-1" d="M955.84,100.01l14.06,39.7,13.99-39.7h14.81v54.74h-11.32v-14.96l1.13-25.83-14.78,40.79h-7.74l-14.74-40.76,1.13,25.79v14.96h-11.28v-54.74h14.74Z"/>

      <path class="cls-1" d="M1039.46,143.47h-19.78l-3.76,11.28h-11.99l20.38-54.74h10.45l20.49,54.74h-11.99l-3.8-11.28ZM1022.73,134.34h13.69l-6.88-20.49-6.8,20.49Z"/>

      <path class="cls-1" d="M1097.06,109.15h-16.77v45.61h-11.28v-45.61h-16.54v-9.14h44.59v9.14Z"/>

      <path class="cls-1" d="M1115.48,154.75h-11.28v-54.74h11.28v54.74Z"/>

      <path class="cls-1" d="M1170.9,128.62c0,5.39-.95,10.11-2.86,14.17s-4.63,7.19-8.18,9.4c-3.55,2.21-7.61,3.31-12.2,3.31s-8.59-1.09-12.14-3.27-6.32-5.29-8.27-9.34c-1.96-4.05-2.95-8.7-2.97-13.97v-2.71c0-5.39.97-10.13,2.91-14.23,1.94-4.1,4.69-7.24,8.23-9.44s7.6-3.29,12.16-3.29,8.62,1.1,12.16,3.29c3.54,2.19,6.29,5.34,8.23,9.44,1.94,4.1,2.91,8.83,2.91,14.19v2.44ZM1159.47,126.14c0-5.74-1.03-10.1-3.08-13.08-2.06-2.98-4.99-4.47-8.8-4.47s-6.71,1.47-8.76,4.42-3.1,7.26-3.12,12.95v2.67c0,5.59,1.03,9.93,3.08,13.01,2.05,3.08,5.01,4.62,8.87,4.62s6.69-1.49,8.72-4.46c2.03-2.97,3.06-7.3,3.08-12.99v-2.67Z"/>

      <path class="cls-1" d="M1223.61,154.75h-11.28l-21.96-36.02v36.02h-11.28v-54.74h11.28l22,36.09v-36.09h11.24v54.74Z"/>

    </g>

    <g>

      <path class="cls-1" d="M751.19,233.32c0-2.13-.75-3.77-2.26-4.91s-4.21-2.34-8.12-3.61-7.01-2.51-9.29-3.74c-6.22-3.36-9.32-7.88-9.32-13.57,0-2.96.83-5.6,2.5-7.91s4.06-4.13,7.18-5.43c3.12-1.3,6.62-1.96,10.51-1.96s7.39.71,10.45,2.12c3.06,1.42,5.43,3.42,7.12,6,1.69,2.58,2.54,5.51,2.54,8.8h-11.28c0-2.51-.79-4.46-2.37-5.85-1.58-1.39-3.8-2.09-6.66-2.09s-4.9.58-6.43,1.75c-1.53,1.17-2.29,2.7-2.29,4.61,0,1.78.9,3.27,2.69,4.47s4.43,2.33,7.91,3.38c6.42,1.93,11.09,4.32,14.02,7.18s4.4,6.42,4.4,10.68c0,4.74-1.79,8.45-5.38,11.15-3.58,2.69-8.41,4.04-14.48,4.04-4.21,0-8.05-.77-11.5-2.31-3.46-1.54-6.1-3.65-7.91-6.33s-2.73-5.79-2.73-9.32h11.32c0,6.04,3.61,9.06,10.83,9.06,2.68,0,4.78-.54,6.28-1.63,1.5-1.09,2.26-2.61,2.26-4.57Z"/>

      <path class="cls-1" d="M789.02,217.61l11.39-24.66h12.33l-17.97,34.89v19.85h-11.47v-19.85l-17.97-34.89h12.37l11.32,24.66Z"/>

      <path class="cls-1" d="M845.53,233.32c0-2.13-.75-3.77-2.26-4.91s-4.21-2.34-8.12-3.61-7.01-2.51-9.29-3.74c-6.22-3.36-9.32-7.88-9.32-13.57,0-2.96.83-5.6,2.5-7.91s4.06-4.13,7.18-5.43c3.12-1.3,6.62-1.96,10.51-1.96s7.39.71,10.45,2.12,5.43,3.42,7.12,6c1.69,2.58,2.54,5.51,2.54,8.8h-11.28c0-2.51-.79-4.46-2.37-5.85-1.58-1.39-3.8-2.09-6.65-2.09s-4.9.58-6.43,1.75c-1.53,1.17-2.29,2.7-2.29,4.61,0,1.78.9,3.27,2.69,4.47,1.79,1.2,4.43,2.33,7.91,3.38,6.42,1.93,11.09,4.32,14.02,7.18s4.4,6.42,4.4,10.68c0,4.74-1.79,8.45-5.38,11.15s-8.41,4.04-14.47,4.04c-4.21,0-8.05-.77-11.5-2.31-3.46-1.54-6.1-3.65-7.91-6.33-1.82-2.68-2.73-5.79-2.73-9.32h11.32c0,6.04,3.61,9.06,10.83,9.06,2.68,0,4.77-.54,6.28-1.63,1.5-1.09,2.26-2.61,2.26-4.57Z"/>

      <path class="cls-1" d="M905.68,202.08h-16.77v45.61h-11.28v-45.61h-16.54v-9.14h44.59v9.14Z"/>

      <path class="cls-1" d="M945.05,223.96h-21.66v14.66h25.42v9.06h-36.7v-54.74h36.62v9.14h-25.34v13.05h21.66v8.83Z"/>

      <path class="cls-1" d="M970.16,192.94l14.06,39.7,13.99-39.7h14.81v54.74h-11.32v-14.96l1.13-25.83-14.78,40.79h-7.75l-14.74-40.76,1.13,25.79v14.96h-11.28v-54.74h14.74Z"/>

      <path class="cls-1" d="M1074.98,225.32h-21.66v22.37h-11.28v-54.74h35.64v9.14h-24.36v14.14h21.66v9.1Z"/>

      <path class="cls-1" d="M1129.2,221.56c0,5.39-.95,10.11-2.86,14.17-1.91,4.06-4.63,7.19-8.18,9.4s-7.61,3.31-12.2,3.31-8.58-1.09-12.14-3.27c-3.56-2.18-6.32-5.29-8.27-9.34s-2.95-8.7-2.97-13.97v-2.71c0-5.39.97-10.13,2.91-14.23,1.94-4.1,4.69-7.24,8.23-9.44s7.6-3.29,12.16-3.29,8.62,1.1,12.16,3.29c3.55,2.19,6.29,5.34,8.23,9.44,1.94,4.1,2.91,8.83,2.91,14.19v2.44ZM1117.77,219.07c0-5.74-1.03-10.1-3.08-13.08-2.06-2.98-4.99-4.47-8.8-4.47s-6.71,1.47-8.76,4.42c-2.05,2.95-3.1,7.26-3.12,12.95v2.67c0,5.59,1.03,9.93,3.08,13.01,2.05,3.08,5.01,4.62,8.87,4.62s6.69-1.49,8.72-4.46c2.03-2.97,3.06-7.3,3.08-12.99v-2.67Z"/>

      <path class="cls-1" d="M1157.66,227.65h-8.99v20.04h-11.28v-54.74h20.34c6.47,0,11.45,1.44,14.96,4.32,3.51,2.88,5.26,6.96,5.26,12.22,0,3.73-.81,6.85-2.42,9.34-1.62,2.49-4.07,4.48-7.35,5.96l11.84,22.37v.53h-12.11l-10.26-20.04ZM1148.68,218.51h9.1c2.83,0,5.03-.72,6.58-2.16,1.55-1.44,2.33-3.43,2.33-5.96s-.73-4.61-2.2-6.09c-1.47-1.48-3.72-2.22-6.75-2.22h-9.06v16.43Z"/>

    </g>

    <g>

      <path class="cls-1" d="M753.45,321.58h-21.66v14.66h25.42v9.06h-36.7v-54.74h36.62v9.14h-25.34v13.05h21.66v8.84Z"/>

      <path class="cls-1" d="M805.26,290.56v36.06c0,5.99-1.87,10.73-5.62,14.21s-8.87,5.23-15.36,5.23-11.47-1.69-15.23-5.08-5.68-8.03-5.75-13.95v-36.47h11.28v36.13c0,3.58.86,6.2,2.58,7.84,1.72,1.64,4.09,2.46,7.12,2.46,6.34,0,9.56-3.33,9.66-10v-36.43h11.32Z"/>

      <path class="cls-1" d="M834.77,325.27h-8.99v20.04h-11.28v-54.74h20.34c6.47,0,11.46,1.44,14.96,4.32,3.51,2.88,5.26,6.96,5.26,12.22,0,3.73-.81,6.85-2.42,9.34-1.62,2.5-4.07,4.48-7.35,5.96l11.84,22.37v.53h-12.11l-10.26-20.04ZM825.79,316.13h9.1c2.83,0,5.03-.72,6.58-2.16s2.33-3.43,2.33-5.96-.73-4.61-2.2-6.09c-1.47-1.48-3.72-2.22-6.75-2.22h-9.06v16.43Z"/>

      <path class="cls-1" d="M908.61,319.17c0,5.39-.95,10.11-2.86,14.17s-4.63,7.19-8.18,9.4c-3.55,2.21-7.61,3.31-12.2,3.31s-8.58-1.09-12.14-3.27c-3.56-2.18-6.32-5.29-8.27-9.34-1.96-4.05-2.95-8.7-2.97-13.97v-2.71c0-5.39.97-10.13,2.91-14.23s4.69-7.24,8.23-9.44,7.6-3.29,12.16-3.29,8.62,1.1,12.16,3.29,6.29,5.34,8.23,9.44,2.91,8.83,2.91,14.19v2.44ZM897.19,316.69c0-5.74-1.03-10.1-3.08-13.08-2.06-2.98-4.99-4.47-8.8-4.47s-6.71,1.47-8.76,4.42c-2.06,2.95-3.1,7.26-3.12,12.95v2.67c0,5.59,1.03,9.93,3.08,13.01s5.01,4.62,8.87,4.62,6.69-1.48,8.72-4.46,3.06-7.3,3.08-12.99v-2.67Z"/>

      <path class="cls-1" d="M928.09,326.02v19.29h-11.28v-54.74h21.36c4.11,0,7.73.75,10.85,2.26,3.12,1.5,5.52,3.64,7.2,6.41,1.68,2.77,2.52,5.92,2.52,9.46,0,5.37-1.84,9.59-5.51,12.69s-8.75,4.64-15.25,4.64h-9.89ZM928.09,316.88h10.08c2.98,0,5.26-.7,6.82-2.11,1.57-1.4,2.35-3.41,2.35-6.02s-.79-4.85-2.37-6.5c-1.58-1.65-3.76-2.51-6.54-2.56h-10.34v17.18Z"/>

      <path class="cls-1" d="M999.41,321.58h-21.66v14.66h25.42v9.06h-36.7v-54.74h36.62v9.14h-25.34v13.05h21.66v8.84Z"/>

    </g>

  </g>

</svg>
